<?xml version="1.0" encoding="utf-8"?>
<!-- Generator: Adobe Illustrator 23.0.1, SVG Export Plug-In . SVG Version: 6.00 Build 0)  -->
<svg version="1.1" id="Layer_1" focusable="false" xmlns="http://www.w3.org/2000/svg" xmlns:xlink="http://www.w3.org/1999/xlink"
	 x="0px" y="0px" viewBox="0 0 512 512" style="enable-background:new 0 0 512 512;" xml:space="preserve">
<style type="text/css">
	.st0{fill:#F8F9FA;}
</style>
<path class="st0" d="M375,225h-90v-90c0-11-9-20-20-20h-20c-11,0-20,9-20,20v90h-90c-11,0-20,9-20,20v20c0,11,9,20,20,20h90v90
	c0,11,9,20,20,20h20c11,0,20-9,20-20v-90h90c11,0,20-9,20-20v-20C395,234,386,225,375,225z"/>
</svg>
