<svg xmlns="http://www.w3.org/2000/svg" viewBox="0 0 3050 50" width="3050" height="50"><path d="M37.425 27.363c-.175.168-.381.303-.606.395-.225.092-.469.142-.719.142h-8.4v8.4c0 1.1-.9 1.9-1.9 1.9h-1.9c-1.1 0-1.9-.9-1.9-1.9v-1.68-1.68-3.36-1.68h-8.4c-.367 0-.7-.1-.981-.27-.282-.171-.512-.411-.671-.693-.159-.281-.248-.604-.248-.937v-1.9c0-1.1.9-1.9 1.9-1.9H22V18v-4.2c0-1.1.9-1.9 1.9-1.9h1.9c1.1 0 1.9.9 1.9 1.9v8.4h8.4c1.1 0 1.9.8 1.9 1.9V26c0 .275-.056.531-.156.761-.1.23-.244.433-.419.602m-11.612-11.8M87.429 27.358c-.174.174-.384.312-.614.404-.23.091-.479.141-.734.141l-8.339.006c0 .564-.002 1.127-.005 1.69l.022 1.69c.004.282.004.568 0 .851-.004.282-.012.56-.016.834l-.021 1.647c-.009.563-.021 1.124-.033 1.68 0 1.062-.893 1.826-1.886 1.797-.126-.003-.254-.005-.382-.005h-.763c-.128 0-.256.002-.381.005l-.378.089c-1.104 0-1.91-.898-1.919-1.898l-.02-1.648c-.005-.551-.013-1.107-.017-1.667-.004-.561-.004-1.125 0-1.685l.022-1.69c-.002-.563-.005-1.126-.005-1.69l-8.339-.006c-.371 0-.709-.099-.995-.269-.286-.169-.519-.413-.677-.699-.159-.286-.242-.611-.235-.942l.02-1.887c0-1.099.893-1.9 1.886-1.907l8.322-.018c-.004-1.394-.004-2.792 0-4.186.005-1.394.013-2.784.017-4.17.007-1.085.907-1.873 1.906-1.866h1.929c1.106 0 1.914.894 1.928 1.886l.021 4.15c.004 1.386.012 2.775.016 4.17 2.784.004 5.564.012 8.34.016l-.018.018c1.092.007 1.887.808 1.887 1.907l.02 1.887c.007.273-.044.533-.143.767-.099.229-.242.43-.416.598M75.807 15.537c-.022 0-.041.018-.041.041h.082c0-.023-.018-.041-.041-.041M137.444 27.341c-.169.193-.395.345-.642.435-.248.089-.515.137-.787.137l-8.125.026c0 .578-.006 1.156-.023 1.727l.102 1.727c.02.29.02.597 0 .887-.02.291-.056.562-.075.813l-.092 1.533c-.043.574-.095 1.136-.151 1.677 0 .929-.871 1.567-1.838 1.431-.122-.01-.255-.019-.387-.019h-.775c-.132 0-.264.009-.387.019l-.367.407c-1.12 0-1.946-.89-1.989-1.89l-.092-1.533c-.019-.522-.055-1.064-.075-1.625-.02-.561-.02-1.139 0-1.7l.102-1.727c-.014-.571-.023-1.149-.023-1.727l-8.125-.026c-.385 0-.738-.097-1.041-.261-.302-.165-.547-.421-.704-.723-.154-.302-.217-.639-.188-.962l.092-1.837c0-1.097.871-1.904 1.838-1.937l8.046-.078c-.02-1.374-.02-2.764 0-4.138.019-1.374.055-2.728.075-4.062.031-1.034.932-1.777 1.93-1.746h2.029c1.128 0 1.966.87 2.03 1.838l.092 3.97c.019 1.334.055 2.689.075 4.062 2.728.02 5.436.056 8.124.076l-.078.078c1.064.033 1.837.84 1.837 1.937l.092 1.837c.033.266.002.54-.095.792-.097.222-.236.419-.405.582m-11.655-11.895c-.102 0-.187.082-.187.187h.374c-.003-.105-.085-.187-.187-.187M187.474 27.306c-.16.231-.417.414-.699.498-.286.084-.588.13-.896.13l-7.685.068c0 .606-.017 1.212-.06 1.801l.264 1.801c.051.307.051.657 0 .964-.051.307-.145.563-.196.769l-.238 1.298c-.111.598-.247 1.161-.392 1.674 0 .654-.823 1.034-1.738.683-.116-.026-.257-.052-.399-.052h-.797c-.142 0-.283.026-.399.052l-.348 1.055c-1.151 0-2.019-.875-2.129-1.875l-.239-1.298c-.051-.462-.144-.974-.195-1.537-.051-.564-.051-1.17 0-1.733l.263-1.801c-.034-.589-.059-1.195-.059-1.801l-7.685-.068c-.415 0-.799-.091-1.136-.247-.335-.156-.604-.436-.758-.77-.146-.334-.168-.697-.091-1.002l.238-1.738c0-1.092.823-1.909 1.738-1.994l7.481-.204c-.051-1.332-.051-2.707 0-4.039.051-1.331.145-2.612.196-3.842.079-.927.982-1.58 1.976-1.5h2.237c1.172 0 2.07.823 2.236 1.738l.238 3.604c.051 1.23.145 2.511.196 3.843 2.613.051 5.174.145 7.685.196l-.204.204c1.006.085 1.738.902 1.738 1.994l.238 1.738c.085.251.094.554.002.841-.091.21-.223.396-.383.55m-11.722-12.047c-.264 0-.485.213-.485.485h.97c-.009-.272-.221-.485-.485-.485M237.526 27.246c-.145.297-.455.531-.798.607-.349.076-.714.117-1.083.117l-6.929.14c0 .655-.035 1.309-.123 1.929l.543 1.929c.105.336.105.759 0 1.095-.105.336-.297.567-.403.693l-.49.896c-.228.637-.508 1.204-.806 1.666 0 .183-.742.119-1.567-.605-.104-.053-.261-.105-.418-.105h-.838c-.157 0-.314.052-.418.105l-.314 2.172c-1.205 0-2.145-.848-2.372-1.848l-.491-.895c-.105-.357-.298-.819-.403-1.386-.105-.567-.105-1.221 0-1.788l.543-1.929c-.07-.62-.122-1.274-.122-1.929l-6.929-.14c-.466 0-.904-.082-1.3-.223-.39-.14-.702-.462-.851-.851-.131-.39-.082-.796.076-1.071l.49-1.567c0-1.083.743-1.918 1.567-2.093l6.509-.42c-.105-1.26-.105-2.608 0-3.868.105-1.259.297-2.414.403-3.464.163-.744 1.069-1.24 2.057-1.077h2.592c1.249 0 2.25.743 2.592 1.568l.49 2.973c.106 1.05.298 2.205.403 3.465 2.415.105 4.725.297 6.929.403l-.42.42c.907.175 1.567 1.01 1.567 2.093l.49 1.567c.175.227.252.578.169.925-.082.19-.201.357-.345.496m-11.838-12.308c-.543 0-.999.438-.999.999h1.997c-.017-.561-.455-.999-.998-.999M287.602 27.159c-.122.393-.51.701-.943.765-.442.064-.898.099-1.358.099l-5.82.246c0 .725-.061 1.451-.215 2.116l.953 2.116c.184.378.184.91 0 1.288-.185.379-.523.573-.707.582l-.86.304c-.399.695-.891 1.268-1.413 1.656 0-.508-.623-1.223-1.316-2.492-.088-.093-.268-.185-.448-.185h-.895c-.18 0-.36.092-.447.185l-.264 3.808c-1.284 0-2.33-.808-2.729-1.808l-.86-.304c-.184-.203-.522-.591-.706-1.164-.185-.572-.185-1.298 0-1.87l.952-2.116c-.123-.665-.215-1.391-.215-2.116l-5.82-.246c-.541 0-1.059-.069-1.54-.187-.472-.119-.846-.5-.987-.972-.11-.471.043-.94.32-1.171l.86-1.317c0-1.069.623-1.93 1.316-2.237l5.083-.738c-.184-1.154-.184-2.462 0-3.616s.522-2.124.706-2.91c.287-.475 1.197-.743 2.177-.456h3.113c1.361 0 2.514.623 3.113 1.316l.86 2.05c.184.786.522 1.756.707 2.91 2.124.184 4.064.522 5.82.706l-.738.738c.763.307 1.317 1.168 1.317 2.237l.86 1.317c.307.19.483.614.414 1.049-.07.159-.169.3-.29.417m-12.008-12.691c-.952 0-1.751.768-1.751 1.751h3.501c-.03-.983-.798-1.751-1.75-1.751M337.688 27.06c-.095.503-.573.896-1.106.946-.549.05-1.108.077-1.671.077l-4.559.366c0 .807-.091 1.614-.32 2.329l1.417 2.329c.275.427.275 1.082 0 1.508-.274.426-.777.578-1.051.456l-1.281-.369c-.594.761-1.326 1.34-2.103 1.644 0-1.293-.488-2.749-1.031-4.639-.069-.137-.275-.274-.481-.274h-.961c-.206 0-.412.137-.48.274l-.207 5.67c-1.374 0-2.54-.763-3.134-1.763l-1.281.369c-.274-.03-.777-.334-1.051-.912-.275-.578-.275-1.385 0-1.964l1.417-2.329c-.183-.715-.32-1.522-.32-2.329l-4.559-.366c-.626 0-1.233-.054-1.813-.147-.564-.092-1.009-.543-1.141-1.107-.087-.565.185-1.105.597-1.286l1.28-1.031c0-1.055.489-1.946 1.031-2.403l3.462-1.098c-.274-1.034-.274-2.297 0-3.331.274-1.034.777-1.794 1.052-2.28.426-.17 1.342-.177 2.311.249h3.706c1.489 0 2.815.489 3.706 1.032l1.281.999c.274.485.777 1.245 1.051 2.279 1.795.275 3.314.778 4.56 1.052l-1.098 1.098c.597.457 1.031 1.348 1.031 2.403l1.281 1.031c.457.149.746.654.692 1.19-.054.125-.132.235-.227.327m-12.201-13.126c-1.418 0-2.607 1.143-2.607 2.606h5.213c-.046-1.463-1.189-2.606-2.606-2.606M387.764 26.971c-.071.601-.628 1.069-1.252 1.107-.643.038-1.294.058-1.947.058l-3.441.472c0 .879-.118 1.758-.413 2.519l1.83 2.518c.354.469.354 1.233 0 1.702-.354.469-1.003.584-1.358.344l-1.653-.965c-.767.82-1.712 1.404-2.716 1.633 0-1.99-.368-4.102-.778-6.543-.052-.177-.281-.354-.51-.354h-1.02c-.229 0-.458.177-.509.354l-.156 7.321c-1.454 0-2.727-.723-3.494-1.723l-1.653.965c-.354.125-1.004-.104-1.358-.688-.354-.583-.354-1.462 0-2.046l1.83-2.518c-.236-.761-.413-1.64-.413-2.519l-3.441-.472c-.701 0-1.389-.041-2.055-.111-.647-.069-1.154-.581-1.278-1.228-.065-.647.311-1.251.843-1.387l1.653-.779c0-1.041.368-1.959.778-2.549l2.024-1.417c-.354-.928-.354-2.151 0-3.078.354-.928 1.004-1.501 1.358-1.721.551.101 1.47.324 2.431.875h4.232c1.602 0 3.081.369 4.232.778l1.653.068c.355.219 1.004.792 1.358 1.72 1.501.354 2.648 1.004 3.441 1.358l-1.417 1.417c.451.59.778 1.508.778 2.549l1.653.779c.591.112.981.69.94 1.315-.041.094-.1.177-.172.246m-12.372-13.512c-1.83 0-3.365 1.476-3.365 3.365h6.73c-.059-1.889-1.535-3.365-3.365-3.365M437.825 26.902c-.054.677-.673 1.205-1.367 1.233-.717.028-1.441.043-2.166.043l-2.56.556c0 .936-.139 1.871-.486 2.668l2.155 2.667c.417.502.417 1.352 0 1.855-.417.502-1.182.588-1.599.256l-1.947-1.435c-.904.866-2.016 1.454-3.198 1.625 0-2.539-.274-5.169-.579-8.042-.039-.209-.286-.417-.533-.417h-1.066c-.247 0-.494.208-.533.417l-.116 8.621c-1.517 0-2.873-.692-3.777-1.692l-1.946 1.435c-.417.246-1.182.076-1.599-.512-.417-.588-.417-1.523 0-2.111l2.155-2.667c-.278-.797-.487-1.732-.487-2.668l-2.56-.556c-.76 0-1.511-.03-2.246-.082-.711-.052-1.268-.612-1.386-1.324-.048-.711.411-1.366 1.037-1.467l1.947-.579c0-1.031.274-1.97.579-2.665l.891-1.669c-.417-.843-.417-2.035 0-2.879.417-.843 1.182-1.27 1.599-1.28.649.314 1.572.719 2.526 1.368h4.646c1.691 0 3.291.274 4.646.579l1.947-.667c.417.01 1.182.437 1.599 1.28 1.27.417 2.124 1.182 2.56 1.599l-1.669 1.669c.336.695.579 1.634.579 2.665l1.947.579c.695.084 1.165.718 1.134 1.414-.03.07-.074.131-.127.183m-12.508-13.816c-2.155 0-3.963 1.738-3.963 3.963h7.926c-.07-2.225-1.808-3.963-3.963-3.963M487.871 26.849c-.039.736-.706 1.309-1.455 1.329-.774.021-1.552.032-2.332.032l-1.886.621c0 .978-.155 1.957-.543 2.781l2.405 2.781c.465.528.465 1.444 0 1.973-.466.528-1.319.591-1.784.188l-2.172-1.794c-1.008.901-2.249 1.492-3.567 1.618 0-2.959-.202-5.985-.427-9.191-.028-.233-.289-.465-.55-.465h-1.102c-.261 0-.522.232-.55.465l-.086 9.617c-1.565 0-2.985-.667-3.994-1.667l-2.171 1.794c-.465.34-1.319.214-1.784-.377-.465-.591-.465-1.57 0-2.161l2.404-2.781c-.31-.824-.543-1.803-.543-2.781l-1.885-.621c-.806 0-1.605-.022-2.392-.06-.761-.039-1.355-.636-1.469-1.397-.035-.761.488-1.454 1.186-1.529l2.171-.426c0-1.022.202-1.978.427-2.753l.024-1.861c-.466-.78-.466-1.947 0-2.727.465-.779 1.318-1.094 1.783-.943.724.477 1.65 1.022 2.598 1.746h4.964c1.759 0 3.451.202 4.963.426l2.172-1.229c.465-.151 1.318.163 1.784.943 1.093.465 1.722 1.318 1.885 1.784l-1.861 1.861c.246.775.426 1.731.426 2.753l2.172.426c.775.062 1.305.74 1.283 1.49-.023.051-.055.097-.094.135M475.26 12.8c-2.404 0-4.421 1.938-4.421 4.42h8.842c-.078-2.482-2.017-4.42-4.421-4.42M537.906 26.808c-.028.781-.731 1.389-1.522 1.404-.817.015-1.639.023-2.461.023l-1.368.67c0 1.012-.167 2.024-.586 2.868l2.595 2.869c.503.548.503 1.514 0 2.062-.502.548-1.423.594-1.925.137l-2.344-2.07c-1.088.928-2.428 1.522-3.851 1.613 0-3.281-.146-6.611-.309-10.071-.021-.251-.293-.503-.564-.503h-1.129c-.271 0-.543.252-.564.503l-.062 10.38c-1.602 0-3.072-.649-4.16-1.649l-2.344 2.071c-.502.411-1.423.32-1.925-.274-.503-.593-.503-1.606 0-2.199l2.595-2.869c-.335-.844-.586-1.856-.586-2.868l-1.368-.67c-.841 0-1.677-.016-2.504-.044-.799-.028-1.423-.653-1.532-1.452-.026-.8.545-1.522 1.299-1.576l2.344-.31c0-1.016.146-1.983.309-2.82l-.641-2.01c-.502-.73-.502-1.879 0-2.609s1.423-.958 1.925-.684c.782.602 1.71 1.253 2.654 2.034h5.206c1.812 0 3.575.147 5.207.31l2.344-1.66c.502-.274 1.423-.046 1.925.684.959.502 1.415 1.423 1.369 1.925l-2.01 2.01c.18.837.31 1.804.31 2.82l2.344.31c.837.045 1.414.756 1.398 1.547-.017.037-.04.07-.069.098m-12.69-14.228c-2.595 0-4.772 2.093-4.772 4.772h9.544c-.084-2.679-2.177-4.772-4.772-4.772M587.934 26.777c-.021.815-.752 1.45-1.574 1.46-.852.011-1.705.017-2.56.017l-.97.707c0 1.038-.177 2.076-.619 2.936l2.742 2.936c.53.563.53 1.569 0 2.132-.531.563-1.504.595-2.035.097l-2.476-2.283c-1.15.949-2.565 1.545-4.069 1.609 0-3.528-.104-7.092-.219-10.747-.015-.266-.295-.531-.575-.531h-1.149c-.28 0-.56.265-.575.531l-.043 10.967c-1.631 0-3.139-.635-4.289-1.635l-2.476 2.283c-.531.466-1.504.401-2.034-.194-.531-.596-.531-1.633 0-2.229l2.742-2.936c-.354-.86-.62-1.898-.62-2.936l-.97-.707c-.868 0-1.732-.012-2.59-.031-.828-.02-1.474-.667-1.581-1.496-.018-.828.59-1.573 1.386-1.611l2.477-.22c0-1.012.104-1.988.22-2.873l-1.153-2.123c-.53-.692-.53-1.827 0-2.519.531-.693 1.504-.854 2.035-.485.825.698 1.755 1.431 2.696 2.257h5.393c1.852 0 3.669.104 5.394.219l2.476-1.991c.531-.369 1.504-.207 2.035.485.854.531 1.177 1.504.97 2.034l-2.123 2.123c.127.885.22 1.861.22 2.873l2.476.22c.885.031 1.498.768 1.486 1.591-.012.027-.028.05-.048.07m-12.752-14.365c-2.742 0-5.041 2.211-5.041 5.041h10.083c-.089-2.83-2.3-5.041-5.042-5.041M637.954 26.752c-.013.843-.766 1.498-1.613 1.505-.877.007-1.756.011-2.635.011l-.666.737c0 1.057-.184 2.114-.644 2.987l2.854 2.988c.553.575.553 1.61 0 2.184-.552.575-1.565.597-2.117.067l-2.579-2.445c-1.197.965-2.67 1.562-4.235 1.606 0-3.719-.071-7.461-.151-11.267-.01-.276-.296-.552-.582-.552h-1.165c-.287 0-.573.276-.583.552l-.03 11.418c-1.653 0-3.189-.624-4.386-1.624l-2.578 2.445c-.553.508-1.566.464-2.118-.133-.553-.597-.553-1.654 0-2.251l2.854-2.988c-.368-.873-.644-1.93-.644-2.987l-.666-.737c-.888 0-1.774-.008-2.656-.021-.851-.014-1.513-.677-1.618-1.528-.013-.851.625-1.613 1.453-1.64l2.579-.15c0-1.008.071-1.992.15-2.913l-1.544-2.21c-.553-.663-.553-1.787 0-2.451.552-.663 1.565-.774 2.118-.332.859.772 1.79 1.568 2.728 2.427h5.537c1.883 0 3.742.072 5.537.151l2.579-2.246c.552-.441 1.565-.33 2.117.333.775.553.996 1.566.666 2.118l-2.21 2.21c.087.921.151 1.905.151 2.913l2.578.15c.92.022 1.561.779 1.553 1.626-.008.018-.02.034-.034.047m-12.798-14.47c-2.854 0-5.248 2.302-5.248 5.249h10.497c-.092-2.947-2.394-5.249-5.249-5.249M687.97 26.734c-.009.862-.778 1.533-1.643 1.538-.897.005-1.795.007-2.693.007l-.434.759c0 1.072-.189 2.144-.663 3.027l2.939 3.026c.569.584.569 1.641 0 2.225-.569.583-1.612.598-2.181.043l-2.655-2.568c-1.233.977-2.75 1.575-4.363 1.604 0-3.863-.046-7.742-.098-11.661-.006-.285-.297-.569-.588-.569h-1.178c-.291 0-.582.284-.588.569l-.02 11.759c-1.669 0-3.228-.616-4.46-1.616l-2.656 2.569c-.569.54-1.612.511-2.181-.087s-.569-1.67 0-2.268l2.94-3.026c-.379-.883-.664-1.955-.664-3.027l-.434-.759c-.904 0-1.806-.005-2.706-.014-.868-.008-1.544-.685-1.647-1.553-.008-.868.651-1.643 1.505-1.66l2.655-.098c0-1.006.047-1.995.098-2.944l-1.842-2.276c-.569-.641-.569-1.757 0-2.398.569-.641 1.612-.713 2.181-.217.886.828 1.817 1.672 2.754 2.557h5.646c1.906 0 3.797.047 5.646.099l2.655-2.439c.569-.497 1.612-.424 2.181.217.714.569.859 1.612.434 2.181l-2.276 2.276c.057.949.098 1.938.098 2.944l2.656.098c.948.014 1.609.786 1.604 1.651-.005.012-.013.023-.022.031m-12.833-14.55c-2.94 0-5.406 2.371-5.406 5.406h10.811c-.095-3.035-2.465-5.406-5.405-5.406M737.982 26.721c-.005.877-.787 1.559-1.666 1.562-.911.003-1.823.005-2.735.005l-.262.775c0 1.083-.194 2.166-.678 3.055l3.003 3.056c.581.59.581 1.664 0 2.254-.581.59-1.647.599-2.228.027l-2.713-2.661c-1.259.987-2.809 1.585-4.456 1.603 0-3.97-.028-7.949-.059-11.954-.004-.29-.299-.581-.594-.581h-1.186c-.294 0-.589.291-.593.581l-.012 12.013c-1.681 0-3.256-.609-4.516-1.609l-2.712 2.66c-.582.564-1.647.546-2.228-.052-.582-.599-.582-1.682 0-2.281l3.003-3.056c-.388-.889-.678-1.972-.678-3.055l-.263-.775c-.915 0-1.83-.004-2.743-.009-.88-.005-1.566-.691-1.668-1.572-.005-.88.671-1.665 1.543-1.676l2.712-.059c0-1.003.028-1.997.06-2.966l-2.063-2.325c-.582-.625-.582-1.734 0-2.359.581-.625 1.647-.669 2.228-.131.904.87 1.836 1.749 2.772 2.653h5.727c1.923 0 3.837.028 5.726.059l2.713-2.581c.581-.538 1.647-.494 2.228.131.669.581.756 1.647.262 2.228l-2.325 2.325c.034.969.059 1.963.059 2.966l2.713.059c.969.009 1.645.792 1.642 1.671-.003.007-.007.013-.013.019m-12.86-14.61c-3.003 0-5.522 2.422-5.522 5.522h11.044c-.097-3.1-2.519-5.522-5.522-5.522M787.99 26.711c-.002.888-.793 1.578-1.681 1.58-.922.002-1.844.002-2.766.002l-.14.787c0 1.091-.196 2.182-.688 3.076l3.049 3.077c.59.594.59 1.681 0 2.275-.59.595-1.672.6-2.262.014l-2.754-2.725c-1.278.993-2.851 1.592-4.523 1.601 0-4.046-.015-8.097-.032-12.162-.002-.295-.299-.59-.596-.59h-1.193c-.297 0-.594.295-.596.59l-.006 12.194c-1.69 0-3.277-.605-4.555-1.605l-2.754 2.725c-.59.581-1.672.572-2.262-.028-.59-.599-.59-1.69 0-2.289l3.049-3.077c-.393-.894-.688-1.985-.688-3.076l-.14-.787c-.924 0-1.848-.001-2.77-.004-.89-.003-1.582-.695-1.683-1.585-.003-.89.684-1.682 1.569-1.687l2.754-.032c0-1.002.015-1.998.031-2.982l-2.22-2.36c-.59-.613-.59-1.718 0-2.331.59-.614 1.672-.637 2.262-.07.918.899 1.85 1.804 2.785 2.722h5.784c1.936 0 3.867.015 5.784.031l2.754-2.683c.59-.567 1.672-.544 2.262.07.636.59.683 1.671.139 2.261l-2.36 2.36c.019.984.032 1.98.032 2.982l2.753.032c.984.004 1.671.795 1.669 1.684-.001.004-.004.007-.007.01m-12.878-14.652c-3.049 0-5.605 2.459-5.605 5.605h11.21c-.098-3.146-2.557-5.605-5.605-5.605M837.996 26.705c-.001.895-.797 1.591-1.692 1.591-.929.001-1.857.001-2.786.001l-.059.795c0 1.096-.198 2.192-.695 3.09l3.078 3.09c.596.597.596 1.692 0 2.289-.595.598-1.688.6-2.284.006l-2.78-2.768c-1.291.997-2.879 1.596-4.567 1.6 0-4.096-.007-8.195-.014-12.299-.001-.298-.299-.596-.598-.596h-1.197c-.299 0-.598.298-.599.596l-.002 12.313c-1.696 0-3.29-.602-4.581-1.602l-2.781 2.768c-.595.592-1.688.588-2.283-.012-.596-.6-.596-1.696 0-2.295l3.078-3.09c-.397-.898-.695-1.994-.695-3.09l-.059-.795c-.93 0-1.859-.001-2.788-.002-.895-.001-1.592-.698-1.692-1.593-.001-.896.693-1.693 1.587-1.695l2.78-.013c0-1.001.006-2 .013-2.993l-2.324-2.383c-.595-.605-.595-1.707 0-2.313.596-.606 1.688-.616 2.284-.03.927.919 1.86 1.841 2.794 2.767h5.822c1.944 0 3.886.007 5.822.014l2.78-2.751c.596-.586 1.689-.576 2.284.029.616.596.635 1.689.059 2.284l-2.383 2.383c.008.993.014 1.992.014 2.993l2.78.013c.993.002 1.688.798 1.687 1.693-.001.002-.002.003-.003.005m-12.891-14.68c-3.078 0-5.66 2.482-5.66 5.66h11.32c-.099-3.178-2.582-5.66-5.66-5.66M887.999 26.701c0 .899-.799 1.598-1.698 1.598h-2.797l-.014.799c0 1.099-.199 2.198-.699 3.098l3.095 3.097c.599.6.599 1.698 0 2.298-.599.599-1.697.6-2.296.001l-2.795-2.792c-1.298.999-2.895 1.599-4.592 1.6 0-4.125-.002-8.25-.004-12.376 0-.3-.3-.599-.599-.599h-1.2c-.299 0-.599.299-.599.599l-.001 12.379c-1.699 0-3.297-.6-4.595-1.6l-2.796 2.792c-.599.598-1.697.597-2.296-.003-.599-.6-.599-1.699 0-2.299l3.095-3.097c-.399-.9-.699-1.999-.699-3.098l-.014-.799h-2.797c-.899 0-1.598-.7-1.698-1.599 0-.899.698-1.698 1.597-1.698l2.795-.004c0-1 .002-1.999.003-2.998l-2.382-2.396c-.599-.601-.599-1.701 0-2.303.599-.601 1.698-.604 2.297-.007.931.93 1.865 1.86 2.798 2.792h5.843c1.949 0 3.897.002 5.844.003l2.795-2.788c.599-.596 1.697-.594 2.296.007.604.599.609 1.697.014 2.296L883.504 22c.002.999.004 1.998.004 2.998l2.795.004c.998 0 1.697.799 1.697 1.698l-.001.001m-12.898-14.695c-3.095 0-5.69 2.496-5.69 5.69h11.381c-.1-3.194-2.596-5.69-5.691-5.69M938 26.7c0 .9-.8 1.6-1.7 1.6h-2.8v.8c0 1.1-.2 2.2-.7 3.1l3.1 3.1c.6.6.6 1.7 0 2.3-.6.6-1.7.6-2.3 0l-2.8-2.8c-1.3 1-2.9 1.6-4.6 1.6V24c0-.3-.3-.6-.6-.6h-1.2c-.3 0-.6.3-.6.6v12.4c-1.7 0-3.3-.6-4.6-1.6l-2.8 2.8c-.6.6-1.7.6-2.3 0-.6-.6-.6-1.7 0-2.3l3.1-3.1c-.4-.9-.7-2-.7-3.1v-.8h-2.8c-.9 0-1.6-.7-1.7-1.6 0-.9.7-1.7 1.6-1.7h2.8v-3l-2.4-2.4c-.6-.6-.6-1.7 0-2.3.6-.6 1.7-.6 2.3 0l2.8 2.8h11.7l2.8-2.8c.6-.6 1.7-.6 2.3 0 .6.6.6 1.7 0 2.3l-2.4 2.4v3h2.8c1 0 1.7.8 1.7 1.7zM925.1 12c-3.1 0-5.7 2.5-5.7 5.7h11.4c-.1-3.2-2.6-5.7-5.7-5.7zM988 26.7c0 .9-.8 1.6-1.7 1.6h-2.8v.8c0 1.1-.2 2.2-.7 3.1l3.1 3.1c.6.6.6 1.7 0 2.3-.6.6-1.7.6-2.3 0l-2.8-2.8c-1.3 1-2.9 1.6-4.6 1.6V24c0-.3-.3-.6-.6-.6h-1.2c-.3 0-.6.3-.6.6v12.4c-1.7 0-3.3-.6-4.6-1.6l-2.8 2.8c-.6.6-1.7.6-2.3 0-.6-.6-.6-1.7 0-2.3l3.1-3.1c-.4-.9-.7-2-.7-3.1v-.8h-2.8c-.9 0-1.6-.7-1.7-1.6 0-.9.7-1.7 1.6-1.7h2.8v-3l-2.4-2.4c-.6-.6-.6-1.7 0-2.3.6-.6 1.7-.6 2.3 0l2.8 2.8h11.7l2.8-2.8c.6-.6 1.7-.6 2.3 0 .6.6.6 1.7 0 2.3l-2.4 2.4v3h2.8c1 0 1.7.8 1.7 1.7zM975.1 12c-3.1 0-5.7 2.5-5.7 5.7h11.4c-.1-3.2-2.6-5.7-5.7-5.7zM1038 26.7c0 .9-.8 1.6-1.7 1.6h-2.8v.8c0 1.1-.2 2.2-.7 3.1l3.1 3.1c.6.6.6 1.7 0 2.3-.6.6-1.7.6-2.3 0l-2.8-2.8c-1.3 1-2.9 1.6-4.6 1.6V24c0-.3-.3-.6-.6-.6h-1.2c-.3 0-.6.3-.6.6v12.4c-1.7 0-3.3-.6-4.6-1.6l-2.8 2.8c-.6.6-1.7.6-2.3 0-.6-.6-.6-1.7 0-2.3l3.1-3.1c-.4-.9-.7-2-.7-3.1v-.8h-2.8c-.9 0-1.6-.7-1.7-1.6 0-.9.7-1.7 1.6-1.7h2.8v-3l-2.4-2.4c-.6-.6-.6-1.7 0-2.3.6-.6 1.7-.6 2.3 0l2.8 2.8h11.7l2.8-2.8c.6-.6 1.7-.6 2.3 0 .6.6.6 1.7 0 2.3l-2.4 2.4v3h2.8c1 0 1.7.8 1.7 1.7zM1025.1 12c-3.1 0-5.7 2.5-5.7 5.7h11.4c-.1-3.2-2.6-5.7-5.7-5.7zM1088 26.7c0 .9-.8 1.6-1.7 1.6h-2.8v.8c0 1.1-.2 2.2-.7 3.1l3.1 3.1c.6.6.6 1.7 0 2.3-.6.6-1.7.6-2.3 0l-2.8-2.8c-1.3 1-2.9 1.6-4.6 1.6V24c0-.3-.3-.6-.6-.6h-1.2c-.3 0-.6.3-.6.6v12.4c-1.7 0-3.3-.6-4.6-1.6l-2.8 2.8c-.6.6-1.7.6-2.3 0-.6-.6-.6-1.7 0-2.3l3.1-3.1c-.4-.9-.7-2-.7-3.1v-.8h-2.8c-.9 0-1.6-.7-1.7-1.6 0-.9.7-1.7 1.6-1.7h2.8v-3l-2.4-2.4c-.6-.6-.6-1.7 0-2.3.6-.6 1.7-.6 2.3 0l2.8 2.8h11.7l2.8-2.8c.6-.6 1.7-.6 2.3 0 .6.6.6 1.7 0 2.3l-2.4 2.4v3h2.8c1 0 1.7.8 1.7 1.7zM1075.1 12c-3.1 0-5.7 2.5-5.7 5.7h11.4c-.1-3.2-2.6-5.7-5.7-5.7zM1138 26.7c0 .9-.8 1.6-1.7 1.6h-2.8v.8c0 1.1-.2 2.2-.7 3.1l3.1 3.1c.6.6.6 1.7 0 2.3-.6.6-1.7.6-2.3 0l-2.8-2.8c-1.3 1-2.9 1.6-4.6 1.6V24c0-.3-.3-.6-.6-.6h-1.2c-.3 0-.6.3-.6.6v12.4c-1.7 0-3.3-.6-4.6-1.6l-2.8 2.8c-.6.6-1.7.6-2.3 0-.6-.6-.6-1.7 0-2.3l3.1-3.1c-.4-.9-.7-2-.7-3.1v-.8h-2.8c-.9 0-1.6-.7-1.7-1.6 0-.9.7-1.7 1.6-1.7h2.8v-3l-2.4-2.4c-.6-.6-.6-1.7 0-2.3.6-.6 1.7-.6 2.3 0l2.8 2.8h11.7l2.8-2.8c.6-.6 1.7-.6 2.3 0 .6.6.6 1.7 0 2.3l-2.4 2.4v3h2.8c1 0 1.7.8 1.7 1.7zM1125.1 12c-3.1 0-5.7 2.5-5.7 5.7h11.4c-.1-3.2-2.6-5.7-5.7-5.7zM1188 26.7c0 .9-.8 1.6-1.7 1.6h-2.8v.8c0 1.1-.2 2.2-.7 3.1l3.1 3.1c.6.6.6 1.7 0 2.3-.6.6-1.7.6-2.3 0l-2.8-2.8c-1.3 1-2.9 1.6-4.6 1.6V24c0-.3-.3-.6-.6-.6h-1.2c-.3 0-.6.3-.6.6v12.4c-1.7 0-3.3-.6-4.6-1.6l-2.8 2.8c-.6.6-1.7.6-2.3 0-.6-.6-.6-1.7 0-2.3l3.1-3.1c-.4-.9-.7-2-.7-3.1v-.8h-2.8c-.9 0-1.6-.7-1.7-1.6 0-.9.7-1.7 1.6-1.7h2.8v-3l-2.4-2.4c-.6-.6-.6-1.7 0-2.3.6-.6 1.7-.6 2.3 0l2.8 2.8h11.7l2.8-2.8c.6-.6 1.7-.6 2.3 0 .6.6.6 1.7 0 2.3l-2.4 2.4v3h2.8c1 0 1.7.8 1.7 1.7zM1175.1 12c-3.1 0-5.7 2.5-5.7 5.7h11.4c-.1-3.2-2.6-5.7-5.7-5.7zM1238 26.7c0 .9-.8 1.6-1.7 1.6h-2.8v.8c0 1.1-.2 2.2-.7 3.1l3.1 3.1c.6.6.6 1.7 0 2.3-.6.6-1.7.6-2.3 0l-2.8-2.8c-1.3 1-2.9 1.6-4.6 1.6V24c0-.3-.3-.6-.6-.6h-1.2c-.3 0-.6.3-.6.6v12.4c-1.7 0-3.3-.6-4.6-1.6l-2.8 2.8c-.6.6-1.7.6-2.3 0-.6-.6-.6-1.7 0-2.3l3.1-3.1c-.4-.9-.7-2-.7-3.1v-.8h-2.8c-.9 0-1.6-.7-1.7-1.6 0-.9.7-1.7 1.6-1.7h2.8v-3l-2.4-2.4c-.6-.6-.6-1.7 0-2.3.6-.6 1.7-.6 2.3 0l2.8 2.8h11.7l2.8-2.8c.6-.6 1.7-.6 2.3 0 .6.6.6 1.7 0 2.3l-2.4 2.4v3h2.8c1 0 1.7.8 1.7 1.7zM1225.1 12c-3.1 0-5.7 2.5-5.7 5.7h11.4c-.1-3.2-2.6-5.7-5.7-5.7zM1288 26.7c0 .9-.8 1.6-1.7 1.6h-2.8v.8c0 1.1-.2 2.2-.7 3.1l3.1 3.1c.6.6.6 1.7 0 2.3-.6.6-1.7.6-2.3 0l-2.8-2.8c-1.3 1-2.9 1.6-4.6 1.6V24c0-.3-.3-.6-.6-.6h-1.2c-.3 0-.6.3-.6.6v12.4c-1.7 0-3.3-.6-4.6-1.6l-2.8 2.8c-.6.6-1.7.6-2.3 0-.6-.6-.6-1.7 0-2.3l3.1-3.1c-.4-.9-.7-2-.7-3.1v-.8h-2.8c-.9 0-1.6-.7-1.7-1.6 0-.9.7-1.7 1.6-1.7h2.8v-3l-2.4-2.4c-.6-.6-.6-1.7 0-2.3.6-.6 1.7-.6 2.3 0l2.8 2.8h11.7l2.8-2.8c.6-.6 1.7-.6 2.3 0 .6.6.6 1.7 0 2.3l-2.4 2.4v3h2.8c1 0 1.7.8 1.7 1.7zM1275.1 12c-3.1 0-5.7 2.5-5.7 5.7h11.4c-.1-3.2-2.6-5.7-5.7-5.7zM1338 26.7c0 .9-.8 1.6-1.7 1.6h-2.8v.8c0 1.1-.2 2.2-.7 3.1l3.1 3.1c.6.6.6 1.7 0 2.3-.6.6-1.7.6-2.3 0l-2.8-2.8c-1.3 1-2.9 1.6-4.6 1.6V24c0-.3-.3-.6-.6-.6h-1.2c-.3 0-.6.3-.6.6v12.4c-1.7 0-3.3-.6-4.6-1.6l-2.8 2.8c-.6.6-1.7.6-2.3 0-.6-.6-.6-1.7 0-2.3l3.1-3.1c-.4-.9-.7-2-.7-3.1v-.8h-2.8c-.9 0-1.6-.7-1.7-1.6 0-.9.7-1.7 1.6-1.7h2.8v-3l-2.4-2.4c-.6-.6-.6-1.7 0-2.3.6-.6 1.7-.6 2.3 0l2.8 2.8h11.7l2.8-2.8c.6-.6 1.7-.6 2.3 0 .6.6.6 1.7 0 2.3l-2.4 2.4v3h2.8c1 0 1.7.8 1.7 1.7zM1325.1 12c-3.1 0-5.7 2.5-5.7 5.7h11.4c-.1-3.2-2.6-5.7-5.7-5.7zM1388 26.7c0 .9-.8 1.6-1.7 1.6h-2.8v.8c0 1.1-.2 2.2-.7 3.1l3.1 3.1c.6.6.6 1.7 0 2.3-.6.6-1.7.6-2.3 0l-2.8-2.8c-1.3 1-2.9 1.6-4.6 1.6V24c0-.3-.3-.6-.6-.6h-1.2c-.3 0-.6.3-.6.6v12.4c-1.7 0-3.3-.6-4.6-1.6l-2.8 2.8c-.6.6-1.7.6-2.3 0-.6-.6-.6-1.7 0-2.3l3.1-3.1c-.4-.9-.7-2-.7-3.1v-.8h-2.8c-.9 0-1.6-.7-1.7-1.6 0-.9.7-1.7 1.6-1.7h2.8v-3l-2.4-2.4c-.6-.6-.6-1.7 0-2.3.6-.6 1.7-.6 2.3 0l2.8 2.8h11.7l2.8-2.8c.6-.6 1.7-.6 2.3 0 .6.6.6 1.7 0 2.3l-2.4 2.4v3h2.8c1 0 1.7.8 1.7 1.7zM1375.1 12c-3.1 0-5.7 2.5-5.7 5.7h11.4c-.1-3.2-2.6-5.7-5.7-5.7zM1438 26.7c0 .9-.8 1.6-1.7 1.6h-2.8v.8c0 1.1-.2 2.2-.7 3.1l3.1 3.1c.6.6.6 1.7 0 2.3-.6.6-1.7.6-2.3 0l-2.8-2.8c-1.3 1-2.9 1.6-4.6 1.6V24c0-.3-.3-.6-.6-.6h-1.2c-.3 0-.6.3-.6.6v12.4c-1.7 0-3.3-.6-4.6-1.6l-2.8 2.8c-.6.6-1.7.6-2.3 0-.6-.6-.6-1.7 0-2.3l3.1-3.1c-.4-.9-.7-2-.7-3.1v-.8h-2.8c-.9 0-1.6-.7-1.7-1.6 0-.9.7-1.7 1.6-1.7h2.8v-3l-2.4-2.4c-.6-.6-.6-1.7 0-2.3.6-.6 1.7-.6 2.3 0l2.8 2.8h11.7l2.8-2.8c.6-.6 1.7-.6 2.3 0 .6.6.6 1.7 0 2.3l-2.4 2.4v3h2.8c1 0 1.7.8 1.7 1.7zM1425.1 12c-3.1 0-5.7 2.5-5.7 5.7h11.4c-.1-3.2-2.6-5.7-5.7-5.7zM1488 26.7c0 .9-.8 1.6-1.7 1.6h-2.8v.8c0 1.1-.2 2.2-.7 3.1l3.1 3.1c.6.6.6 1.7 0 2.3-.6.6-1.7.6-2.3 0l-2.8-2.8c-1.3 1-2.9 1.6-4.6 1.6V24c0-.3-.3-.6-.6-.6h-1.2c-.3 0-.6.3-.6.6v12.4c-1.7 0-3.3-.6-4.6-1.6l-2.8 2.8c-.6.6-1.7.6-2.3 0-.6-.6-.6-1.7 0-2.3l3.1-3.1c-.4-.9-.7-2-.7-3.1v-.8h-2.8c-.9 0-1.6-.7-1.7-1.6 0-.9.7-1.7 1.6-1.7h2.8v-3l-2.4-2.4c-.6-.6-.6-1.7 0-2.3.6-.6 1.7-.6 2.3 0l2.8 2.8h11.7l2.8-2.8c.6-.6 1.7-.6 2.3 0 .6.6.6 1.7 0 2.3l-2.4 2.4v3h2.8c1 0 1.7.8 1.7 1.7zM1475.1 12c-3.1 0-5.7 2.5-5.7 5.7h11.4c-.1-3.2-2.6-5.7-5.7-5.7zM1538 26.7c0 .9-.8 1.6-1.7 1.6h-2.8v.8c0 1.1-.2 2.2-.7 3.1l3.1 3.1c.6.6.6 1.7 0 2.3-.6.6-1.7.6-2.3 0l-2.8-2.8c-1.3 1-2.9 1.6-4.6 1.6V24c0-.3-.3-.6-.6-.6h-1.2c-.3 0-.6.3-.6.6v12.4c-1.7 0-3.3-.6-4.6-1.6l-2.8 2.8c-.6.6-1.7.6-2.3 0-.6-.6-.6-1.7 0-2.3l3.1-3.1c-.4-.9-.7-2-.7-3.1v-.8h-2.8c-.9 0-1.6-.7-1.7-1.6 0-.9.7-1.7 1.6-1.7h2.8v-3l-2.4-2.4c-.6-.6-.6-1.7 0-2.3.6-.6 1.7-.6 2.3 0l2.8 2.8h11.7l2.8-2.8c.6-.6 1.7-.6 2.3 0 .6.6.6 1.7 0 2.3l-2.4 2.4v3h2.8c1 0 1.7.8 1.7 1.7zM1525.1 12c-3.1 0-5.7 2.5-5.7 5.7h11.4c-.1-3.2-2.6-5.7-5.7-5.7zM1588 26.7c0 .9-.8 1.6-1.7 1.6h-2.8v.8c0 1.1-.2 2.2-.7 3.1l3.1 3.1c.6.6.6 1.7 0 2.3-.6.6-1.7.6-2.3 0l-2.8-2.8c-1.3 1-2.9 1.6-4.6 1.6V24c0-.3-.3-.6-.6-.6h-1.2c-.3 0-.6.3-.6.6v12.4c-1.7 0-3.3-.6-4.6-1.6l-2.8 2.8c-.6.6-1.7.6-2.3 0-.6-.6-.6-1.7 0-2.3l3.1-3.1c-.4-.9-.7-2-.7-3.1v-.8h-2.8c-.9 0-1.6-.7-1.7-1.6 0-.9.7-1.7 1.6-1.7h2.8v-3l-2.4-2.4c-.6-.6-.6-1.7 0-2.3.6-.6 1.7-.6 2.3 0l2.8 2.8h11.7l2.8-2.8c.6-.6 1.7-.6 2.3 0 .6.6.6 1.7 0 2.3l-2.4 2.4v3h2.8c1 0 1.7.8 1.7 1.7zM1575.1 12c-3.1 0-5.7 2.5-5.7 5.7h11.4c-.1-3.2-2.6-5.7-5.7-5.7zM1638 26.7c0 .9-.8 1.6-1.7 1.6h-2.8v.8c0 1.1-.2 2.2-.7 3.1l3.1 3.1c.6.6.6 1.7 0 2.3-.6.6-1.7.6-2.3 0l-2.8-2.8c-1.3 1-2.9 1.6-4.6 1.6V24c0-.3-.3-.6-.6-.6h-1.2c-.3 0-.6.3-.6.6v12.4c-1.7 0-3.3-.6-4.6-1.6l-2.8 2.8c-.6.6-1.7.6-2.3 0-.6-.6-.6-1.7 0-2.3l3.1-3.1c-.4-.9-.7-2-.7-3.1v-.8h-2.8c-.9 0-1.6-.7-1.7-1.6 0-.9.7-1.7 1.6-1.7h2.8v-3l-2.4-2.4c-.6-.6-.6-1.7 0-2.3.6-.6 1.7-.6 2.3 0l2.8 2.8h11.7l2.8-2.8c.6-.6 1.7-.6 2.3 0 .6.6.6 1.7 0 2.3l-2.4 2.4v3h2.8c1 0 1.7.8 1.7 1.7zM1625.1 12c-3.1 0-5.7 2.5-5.7 5.7h11.4c-.1-3.2-2.6-5.7-5.7-5.7zM1688 26.7c0 .9-.8 1.6-1.7 1.6h-2.8v.8c0 1.1-.2 2.2-.7 3.1l3.1 3.1c.6.6.6 1.7 0 2.3-.6.6-1.7.6-2.3 0l-2.8-2.8c-1.3 1-2.9 1.6-4.6 1.6V24c0-.3-.3-.6-.6-.6h-1.2c-.3 0-.6.3-.6.6v12.4c-1.7 0-3.3-.6-4.6-1.6l-2.8 2.8c-.6.6-1.7.6-2.3 0-.6-.6-.6-1.7 0-2.3l3.1-3.1c-.4-.9-.7-2-.7-3.1v-.8h-2.8c-.9 0-1.6-.7-1.7-1.6 0-.9.7-1.7 1.6-1.7h2.8v-3l-2.4-2.4c-.6-.6-.6-1.7 0-2.3.6-.6 1.7-.6 2.3 0l2.8 2.8h11.7l2.8-2.8c.6-.6 1.7-.6 2.3 0 .6.6.6 1.7 0 2.3l-2.4 2.4v3h2.8c1 0 1.7.8 1.7 1.7zM1675.1 12c-3.1 0-5.7 2.5-5.7 5.7h11.4c-.1-3.2-2.6-5.7-5.7-5.7zM1738 26.7c0 .9-.8 1.6-1.7 1.6h-2.8v.8c0 1.1-.2 2.2-.7 3.1l3.1 3.1c.6.6.6 1.7 0 2.3-.6.6-1.7.6-2.3 0l-2.8-2.8c-1.3 1-2.9 1.6-4.6 1.6V24c0-.3-.3-.6-.6-.6h-1.2c-.3 0-.6.3-.6.6v12.4c-1.7 0-3.3-.6-4.6-1.6l-2.8 2.8c-.6.6-1.7.6-2.3 0-.6-.6-.6-1.7 0-2.3l3.1-3.1c-.4-.9-.7-2-.7-3.1v-.8h-2.8c-.9 0-1.6-.7-1.7-1.6 0-.9.7-1.7 1.6-1.7h2.8v-3l-2.4-2.4c-.6-.6-.6-1.7 0-2.3.6-.6 1.7-.6 2.3 0l2.8 2.8h11.7l2.8-2.8c.6-.6 1.7-.6 2.3 0 .6.6.6 1.7 0 2.3l-2.4 2.4v3h2.8c1 0 1.7.8 1.7 1.7zM1725.1 12c-3.1 0-5.7 2.5-5.7 5.7h11.4c-.1-3.2-2.6-5.7-5.7-5.7zM1788 26.7c0 .9-.8 1.6-1.7 1.6h-2.8v.8c0 1.1-.2 2.2-.7 3.1l3.1 3.1c.6.6.6 1.7 0 2.3-.6.6-1.7.6-2.3 0l-2.8-2.8c-1.3 1-2.9 1.6-4.6 1.6V24c0-.3-.3-.6-.6-.6h-1.2c-.3 0-.6.3-.6.6v12.4c-1.7 0-3.3-.6-4.6-1.6l-2.8 2.8c-.6.6-1.7.6-2.3 0-.6-.6-.6-1.7 0-2.3l3.1-3.1c-.4-.9-.7-2-.7-3.1v-.8h-2.8c-.9 0-1.6-.7-1.7-1.6 0-.9.7-1.7 1.6-1.7h2.8v-3l-2.4-2.4c-.6-.6-.6-1.7 0-2.3.6-.6 1.7-.6 2.3 0l2.8 2.8h11.7l2.8-2.8c.6-.6 1.7-.6 2.3 0 .6.6.6 1.7 0 2.3l-2.4 2.4v3h2.8c1 0 1.7.8 1.7 1.7zM1775.1 12c-3.1 0-5.7 2.5-5.7 5.7h11.4c-.1-3.2-2.6-5.7-5.7-5.7zM1838 26.7c0 .9-.8 1.6-1.7 1.6h-2.8v.8c0 1.1-.2 2.2-.7 3.1l3.1 3.1c.6.6.6 1.7 0 2.3-.6.6-1.7.6-2.3 0l-2.8-2.8c-1.3 1-2.9 1.6-4.6 1.6V24c0-.3-.3-.6-.6-.6h-1.2c-.3 0-.6.3-.6.6v12.4c-1.7 0-3.3-.6-4.6-1.6l-2.8 2.8c-.6.6-1.7.6-2.3 0-.6-.6-.6-1.7 0-2.3l3.1-3.1c-.4-.9-.7-2-.7-3.1v-.8h-2.8c-.9 0-1.6-.7-1.7-1.6 0-.9.7-1.7 1.6-1.7h2.8v-3l-2.4-2.4c-.6-.6-.6-1.7 0-2.3.6-.6 1.7-.6 2.3 0l2.8 2.8h11.7l2.8-2.8c.6-.6 1.7-.6 2.3 0 .6.6.6 1.7 0 2.3l-2.4 2.4v3h2.8c1 0 1.7.8 1.7 1.7zM1825.1 12c-3.1 0-5.7 2.5-5.7 5.7h11.4c-.1-3.2-2.6-5.7-5.7-5.7zM1888 26.7c0 .9-.8 1.6-1.7 1.6h-2.8v.8c0 1.1-.2 2.2-.7 3.1l3.1 3.1c.6.6.6 1.7 0 2.3-.6.6-1.7.6-2.3 0l-2.8-2.8c-1.3 1-2.9 1.6-4.6 1.6V24c0-.3-.3-.6-.6-.6h-1.2c-.3 0-.6.3-.6.6v12.4c-1.7 0-3.3-.6-4.6-1.6l-2.8 2.8c-.6.6-1.7.6-2.3 0-.6-.6-.6-1.7 0-2.3l3.1-3.1c-.4-.9-.7-2-.7-3.1v-.8h-2.8c-.9 0-1.6-.7-1.7-1.6 0-.9.7-1.7 1.6-1.7h2.8v-3l-2.4-2.4c-.6-.6-.6-1.7 0-2.3.6-.6 1.7-.6 2.3 0l2.8 2.8h11.7l2.8-2.8c.6-.6 1.7-.6 2.3 0 .6.6.6 1.7 0 2.3l-2.4 2.4v3h2.8c1 0 1.7.8 1.7 1.7zM1875.1 12c-3.1 0-5.7 2.5-5.7 5.7h11.4c-.1-3.2-2.6-5.7-5.7-5.7zM1938 26.7c0 .9-.8 1.6-1.7 1.6h-2.8v.8c0 1.1-.2 2.2-.7 3.1l3.1 3.1c.6.6.6 1.7 0 2.3-.6.6-1.7.6-2.3 0l-2.8-2.8c-1.3 1-2.9 1.6-4.6 1.6V24c0-.3-.3-.6-.6-.6h-1.2c-.3 0-.6.3-.6.6v12.4c-1.7 0-3.3-.6-4.6-1.6l-2.8 2.8c-.6.6-1.7.6-2.3 0-.6-.6-.6-1.7 0-2.3l3.1-3.1c-.4-.9-.7-2-.7-3.1v-.8h-2.8c-.9 0-1.6-.7-1.7-1.6 0-.9.7-1.7 1.6-1.7h2.8v-3l-2.4-2.4c-.6-.6-.6-1.7 0-2.3.6-.6 1.7-.6 2.3 0l2.8 2.8h11.7l2.8-2.8c.6-.6 1.7-.6 2.3 0 .6.6.6 1.7 0 2.3l-2.4 2.4v3h2.8c1 0 1.7.8 1.7 1.7zM1925.1 12c-3.1 0-5.7 2.5-5.7 5.7h11.4c-.1-3.2-2.6-5.7-5.7-5.7zM1988 26.7c0 .9-.8 1.6-1.7 1.6h-2.8v.8c0 1.1-.2 2.2-.7 3.1l3.1 3.1c.6.6.6 1.7 0 2.3-.6.6-1.7.6-2.3 0l-2.8-2.8c-1.3 1-2.9 1.6-4.6 1.6V24c0-.3-.3-.6-.6-.6h-1.2c-.3 0-.6.3-.6.6v12.4c-1.7 0-3.3-.6-4.6-1.6l-2.8 2.8c-.6.6-1.7.6-2.3 0-.6-.6-.6-1.7 0-2.3l3.1-3.1c-.4-.9-.7-2-.7-3.1v-.8h-2.8c-.9 0-1.6-.7-1.7-1.6 0-.9.7-1.7 1.6-1.7h2.8v-3l-2.4-2.4c-.6-.6-.6-1.7 0-2.3.6-.6 1.7-.6 2.3 0l2.8 2.8h11.7l2.8-2.8c.6-.6 1.7-.6 2.3 0 .6.6.6 1.7 0 2.3l-2.4 2.4v3h2.8c1 0 1.7.8 1.7 1.7zM1975.1 12c-3.1 0-5.7 2.5-5.7 5.7h11.4c-.1-3.2-2.6-5.7-5.7-5.7zM2038 26.7c0 .9-.8 1.6-1.7 1.6h-2.8v.8c0 1.1-.2 2.2-.7 3.1l3.1 3.1c.6.6.6 1.7 0 2.3-.6.6-1.7.6-2.3 0l-2.8-2.8c-1.3 1-2.9 1.6-4.6 1.6V24c0-.3-.3-.6-.6-.6h-1.2c-.3 0-.6.3-.6.6v12.4c-1.7 0-3.3-.6-4.6-1.6l-2.8 2.8c-.6.6-1.7.6-2.3 0-.6-.6-.6-1.7 0-2.3l3.1-3.1c-.4-.9-.7-2-.7-3.1v-.8h-2.8c-.9 0-1.6-.7-1.7-1.6 0-.9.7-1.7 1.6-1.7h2.8v-3l-2.4-2.4c-.6-.6-.6-1.7 0-2.3.6-.6 1.7-.6 2.3 0l2.8 2.8h11.7l2.8-2.8c.6-.6 1.7-.6 2.3 0 .6.6.6 1.7 0 2.3l-2.4 2.4v3h2.8c1 0 1.7.8 1.7 1.7zM2025.1 12c-3.1 0-5.7 2.5-5.7 5.7h11.4c-.1-3.2-2.6-5.7-5.7-5.7zM2088 26.7c0 .9-.8 1.6-1.7 1.6h-2.8v.8c0 1.1-.2 2.2-.7 3.1l3.1 3.1c.6.6.6 1.7 0 2.3-.6.6-1.7.6-2.3 0l-2.8-2.8c-1.3 1-2.9 1.6-4.6 1.6V24c0-.3-.3-.6-.6-.6h-1.2c-.3 0-.6.3-.6.6v12.4c-1.7 0-3.3-.6-4.6-1.6l-2.8 2.8c-.6.6-1.7.6-2.3 0-.6-.6-.6-1.7 0-2.3l3.1-3.1c-.4-.9-.7-2-.7-3.1v-.8h-2.8c-.9 0-1.6-.7-1.7-1.6 0-.9.7-1.7 1.6-1.7h2.8v-3l-2.4-2.4c-.6-.6-.6-1.7 0-2.3.6-.6 1.7-.6 2.3 0l2.8 2.8h11.7l2.8-2.8c.6-.6 1.7-.6 2.3 0 .6.6.6 1.7 0 2.3l-2.4 2.4v3h2.8c1 0 1.7.8 1.7 1.7zM2075.1 12c-3.1 0-5.7 2.5-5.7 5.7h11.4c-.1-3.2-2.6-5.7-5.7-5.7zM2135.9 19.6c.6-.6.6-1.7 0-2.3-.6-.6-1.7-.6-2.3 0l-2.8 2.8h-11.7l-2.8-2.8c-.6-.6-1.7-.6-2.3 0-.6.6-.6 1.7 0 2.3l2.4 2.4v3h-2.8c-.9 0-1.6.8-1.6 1.7.1.9.8 1.6 1.7 1.6h2.8v.8c0 1.1.3 2.2.7 3.1l-3.1 3.1c-.6.6-.6 1.7 0 2.3.6.6 1.7.6 2.3 0l2.8-2.8c1.3 1 2.9 1.6 4.6 1.6V24c0-.3.3-.6.6-.6h1.2c.3 0 .6.3.6.6v12.4c1.7 0 3.3-.6 4.6-1.6l2.8 2.8c.6.6 1.7.6 2.3 0 .6-.6.6-1.7 0-2.3l-3.1-3.1c.5-.9.7-2 .7-3.1v-.8h2.8c.9 0 1.7-.7 1.7-1.6 0-.9-.7-1.7-1.7-1.7h-2.8v-3l2.4-2.4m-10.8-7.6c-3.1 0-5.7 2.5-5.7 5.7h11.4c-.1-3.2-2.6-5.7-5.7-5.7M2185.901 19.619c.576-.596.556-1.688-.06-2.284-.596-.616-1.688-.636-2.284-.06-.926.919-1.859 1.839-2.793 2.766h-11.629c-.934-.927-1.867-1.848-2.794-2.766-.596-.576-1.688-.556-2.283.06-.616.596-.636 1.688-.061 2.284.792.794 1.584 1.589 2.376 2.384-.002.994-.004 1.989-.005 2.983-.928.002-1.855.005-2.782.008-.893.004-1.588.803-1.588 1.701.099.901.8 1.602 1.701 1.602h2.841v.804c0 1.096.297 2.191.695 3.088l-3.078 3.088c-.596.599-.596 1.694 0 2.293.596.599 1.688.603 2.283.011l2.78-2.77c1.291 1 2.885 1.602 4.581 1.602l.002-12.311c.001-.297.3-.595.599-.595h1.194c.299 0 .597.298.598.595l.003 12.311c1.695 0 3.29-.601 4.581-1.602l2.779 2.77c.596.592 1.688.588 2.284-.011.596-.599.596-1.694 0-2.293l-3.078-3.088c.497-.897.695-1.992.695-3.088v-.804h2.841c.897 0 1.694-.696 1.697-1.592.002-.003.004-.006.004-.01 0-.898-.695-1.697-1.688-1.701-.926-.004-1.854-.008-2.783-.01-.003-.996-.006-1.99-.01-2.983l2.382-2.382m-10.796-7.593c-3.078 0-5.659 2.482-5.659 5.659h11.318c-.099-3.177-2.581-5.659-5.659-5.659M2235.907 19.685c.488-.58.396-1.644-.276-2.224-.58-.672-1.644-.764-2.225-.276-.902.87-1.831 1.743-2.77 2.646h-11.379c-.935-.903-1.867-1.779-2.77-2.646-.58-.488-1.644-.396-2.225.276-.672.58-.764 1.644-.275 2.224.763.774 1.526 1.551 2.29 2.33-.009.972-.017 1.947-.022 2.923-.909.01-1.815.02-2.717.032-.871.021-1.548.816-1.548 1.707.097.903.8 1.61 1.707 1.61h2.983v.82c0 1.079.291 2.158.677 3.044l-2.998 3.044c-.58.596-.58 1.675 0 2.271.58.595 1.644.61 2.225.045l2.708-2.662c1.257 1 2.831 1.61 4.511 1.61l.013-11.993c.004-.29.298-.581.593-.581h1.173c.294 0 .588.291.592.581l.013 11.993c1.677 0 3.254-.607 4.511-1.61l2.708 2.662c.581.565 1.645.55 2.225-.045.58-.596.58-1.675 0-2.271l-2.998-3.044c.483-.886.677-1.965.677-3.044v-.82h2.983c.887 0 1.677-.684 1.688-1.565.012-.011.019-.027.019-.045 0-.891-.677-1.686-1.644-1.707-.903-.018-1.812-.033-2.726-.044-.011-.978-.027-1.952-.045-2.919l2.322-2.322m-10.784-7.568c-2.998 0-5.513 2.418-5.513 5.513h11.026c-.096-3.095-2.514-5.513-5.513-5.513M2285.917 19.821c.311-.549.072-1.555-.715-2.104-.549-.787-1.555-1.026-2.104-.715-.854.769-1.776 1.546-2.724 2.4h-10.865c-.94-.854-1.87-1.64-2.724-2.4-.549-.311-1.555-.072-2.104.715-.787.549-1.026 1.555-.715 2.104.704.732 1.408 1.472 2.116 2.217-.024.929-.044 1.863-.059 2.802-.868.024-1.731.052-2.585.083-.823.054-1.464.84-1.464 1.717.092.909.8 1.626 1.717 1.626h3.277v.851c0 1.046.275 2.092.641 2.955l-2.837 2.956c-.549.588-.549 1.634 0 2.223s1.556.628 2.105.119l2.561-2.442c1.19 1 2.722 1.625 4.371 1.625l.032-11.345c.011-.274.296-.548.581-.548h1.13c.286 0 .571.274.582.548l.032 11.345c1.64 0 3.181-.617 4.37-1.625l2.562 2.442c.549.509 1.555.47 2.104-.119.549-.589.549-1.635 0-2.223l-2.836-2.956c.457-.863.64-1.909.64-2.955v-.851h3.277c.866 0 1.638-.657 1.668-1.51.03-.028.049-.069.049-.116 0-.877-.64-1.663-1.555-1.717-.854-.046-1.725-.087-2.608-.116-.028-.943-.069-1.875-.116-2.79l2.196-2.196m-10.756-7.518c-2.837 0-5.215 2.287-5.215 5.215h10.43c-.092-2.928-2.379-5.215-5.215-5.215M2335.935 20.055c.004-.494-.486-1.402-1.471-1.897-.495-.985-1.403-1.476-1.897-1.471-.77.595-1.68 1.207-2.643 1.977h-9.983c-.945-.77-1.873-1.4-2.643-1.977-.494-.005-1.402.486-1.897 1.471-.985.495-1.475 1.403-1.471 1.897.601.66 1.205 1.336 1.815 2.024-.049.852-.091 1.717-.121 2.591-.8.05-1.587.108-2.357.172-.742.111-1.32.882-1.32 1.735.083.918.8 1.653 1.735 1.653h3.781v.905c0 .989.248 1.978.578 2.802l-2.557 2.802c-.495.577-.495 1.566 0 2.143.495.576 1.402.658 1.897.245l2.309-2.064c1.073 1 2.533 1.652 4.128 1.652l.066-10.228c.022-.247.292-.495.562-.495h1.056c.27 0 .539.248.561.495l.067 10.228c1.577 0 3.055-.635 4.127-1.652l2.31 2.064c.494.413 1.402.331 1.897-.245.495-.577.495-1.566 0-2.143l-2.557-2.802c.412-.824.577-1.813.577-2.802v-.905h3.781c.83 0 1.573-.612 1.634-1.414.062-.059.101-.142.101-.239 0-.853-.577-1.624-1.402-1.735-.77-.096-1.575-.179-2.404-.238-.059-.884-.142-1.744-.239-2.569l1.98-1.98m-10.71-7.431c-2.557 0-4.702 2.062-4.702 4.702h9.403c-.082-2.64-2.144-4.702-4.701-4.702M2385.961 20.399c-.444-.416-1.304-1.178-2.58-1.594-.415-1.276-1.177-2.136-1.593-2.58-.647.34-1.539.71-2.524 1.356h-8.69c-.954-.646-1.877-1.047-2.523-1.356-.416.444-1.178 1.304-1.594 2.58-1.276.416-2.136 1.178-2.58 1.594.452.554.907 1.135 1.375 1.739-.086.741-.16 1.505-.213 2.284-.699.087-1.376.189-2.023.302-.623.194-1.108.943-1.108 1.761.069.931.8 1.692 1.761 1.692h4.52v.984c0 .906.208 1.811.485 2.578l-2.148 2.578c-.415.559-.415 1.465 0 2.024.416.559 1.178.702 1.594.43l1.94-1.51c.901 1 2.255 1.692 3.771 1.692l.116-8.592c.039-.207.286-.415.533-.415h.948c.247 0 .494.208.532.415l.117 8.592c1.485 0 2.87-.662 3.771-1.692l1.94 1.51c.416.272 1.178.129 1.593-.43.416-.559.416-1.465 0-2.024l-2.147-2.578c.346-.767.485-1.672.485-2.578v-.984h4.52c.777 0 1.477-.546 1.584-1.274.108-.103.177-.249.177-.418 0-.818-.485-1.567-1.178-1.761-.647-.169-1.355-.315-2.105-.419-.104-.796-.25-1.551-.418-2.244l1.662-1.662m-10.642-7.305c-2.148 0-3.949 1.732-3.949 3.949h7.898c-.069-2.217-1.801-3.949-3.949-3.949M2435.991 20.789c-.954-.326-2.235-.923-3.84-1.248-.326-1.606-.923-2.887-1.249-3.841-.506.049-1.379.144-2.388.651h-7.219c-.964-.507-1.882-.648-2.389-.651-.325.954-.922 2.235-1.248 3.841-1.606.325-2.886.922-3.841 1.248.282.434.569.909.874 1.416-.128.615-.239 1.263-.316 1.935-.585.128-1.137.281-1.644.448-.488.29-.868 1.014-.868 1.792.054.946.8 1.737 1.791 1.737h5.361v1.074c0 .811.163 1.621.38 2.323l-1.683 2.323c-.325.539-.325 1.349 0 1.888.326.539.923.753 1.249.64l1.519-.879c.706 1 1.94 1.737 3.366 1.737l.173-6.73c.058-.163.279-.326.5-.326h.825c.221 0 .441.163.499.326l.174 6.73c1.38 0 2.66-.691 3.366-1.737l1.519.879c.326.113.923-.101 1.249-.64.325-.539.325-1.349 0-1.888l-1.683-2.323c.271-.702.38-1.512.38-2.323v-1.074h5.361c.717 0 1.368-.471 1.528-1.114.16-.154.263-.372.263-.623 0-.778-.38-1.502-.923-1.792-.506-.251-1.104-.468-1.765-.623-.154-.697-.372-1.331-.623-1.874l1.302-1.302m-10.565-7.16c-1.683 0-3.094 1.357-3.094 3.094h6.187c-.054-1.737-1.411-3.094-3.093-3.094M2486.018 21.135c-1.407-.246-3.06-.696-4.959-.942-.246-1.899-.697-3.552-.942-4.959-.383-.208-1.237-.357-2.269.025h-5.914c-.973-.382-1.886-.292-2.269-.025-.246 1.407-.696 3.06-.942 4.959-1.899.246-3.552.696-4.959.942.131.328.268.708.43 1.13-.166.503-.309 1.048-.409 1.624-.483.166-.924.363-1.307.58-.368.374-.655 1.075-.655 1.818.041.959.8 1.777 1.818 1.777h6.106v1.154c0 .726.123 1.452.287 2.096l-1.27 2.097c-.246.521-.246 1.247 0 1.768.246.522.696.797.942.827l1.147-.32c.533 1 1.66 1.777 3.006 1.777l.224-5.079c.075-.123.273-.246.471-.246h.715c.198 0 .396.123.47.246l.225 5.079c1.287 0 2.473-.718 3.006-1.777l1.147.32c.245-.03.696-.305.942-.827.246-.521.246-1.247 0-1.768l-1.27-2.097c.205-.644.287-1.37.287-2.096v-1.154h6.106c.664 0 1.272-.405 1.479-.973.206-.199.339-.48.339-.804 0-.743-.287-1.444-.696-1.818-.383-.325-.883-.605-1.465-.805-.199-.609-.479-1.136-.804-1.546l.983-.983m-10.497-7.032c-1.27 0-2.335 1.024-2.335 2.335h4.669c-.041-1.311-1.065-2.335-2.334-2.335M2536.039 21.408c-1.764-.183-3.71-.518-5.84-.701-.183-2.13-.518-4.077-.701-5.84-.284-.411-1.125-.752-2.174-.468h-4.887c-.98-.284-1.89-.013-2.174.468-.183 1.763-.518 3.71-.701 5.84-2.13.183-4.076.518-5.84.701.012.243.032.549.08.904-.196.415-.363.879-.482 1.38-.403.196-.756.427-1.041.682-.274.441-.488 1.125-.488 1.839.031.97.8 1.809 1.839 1.809h6.694v1.217c0 .66.091 1.319.213 1.918l-.945 1.918c-.183.508-.183 1.167 0 1.675.183.507.518.831.701.973l.854.12c.396 1 1.44 1.808 2.723 1.808l.264-3.779c.088-.091.267-.183.447-.183h.63c.179 0 .359.092.447.183l.264 3.779c1.213 0 2.327-.739 2.723-1.808l.853-.12c.183-.142.518-.466.701-.973.183-.508.183-1.167 0-1.675l-.945-1.918c.153-.599.214-1.258.214-1.918v-1.217h6.693c.622 0 1.196-.352 1.439-.861.244-.235.4-.565.4-.948 0-.714-.213-1.398-.518-1.839-.285-.382-.708-.712-1.227-.947-.235-.539-.565-.983-.947-1.288l.731-.731m-10.444-6.931c-.944 0-1.737.762-1.737 1.737h3.475c-.031-.975-.793-1.737-1.738-1.737M2586.055 21.616c-2.037-.134-4.208-.381-6.515-.516-.134-2.306-.381-4.478-.516-6.514-.209-.567-1.039-1.055-2.102-.846h-4.099c-.985-.209-1.893.202-2.102.846-.135 2.036-.382 4.208-.517 6.514-2.306.135-4.477.382-6.514.516-.079.18-.15.429-.188.732-.219.348-.405.75-.537 1.193-.342.218-.629.477-.839.761-.202.491-.359 1.162-.359 1.855.023.978.8 1.833 1.855 1.833h7.144v1.265c0 .609.067 1.218.157 1.782l-.696 1.781c-.135.497-.135 1.106 0 1.602.135.497.381.859.516 1.086l.629.457c.291 1 1.271 1.833 2.506 1.833l.294-2.783c.099-.067.264-.135.43-.135h.564c.165 0 .331.068.429.135l.295 2.783c1.157 0 2.214-.755 2.506-1.833l.628-.457c.135-.227.382-.589.516-1.086.135-.496.135-1.105 0-1.602l-.695-1.781c.112-.564.157-1.173.157-1.782V27.99h7.143c.59 0 1.138-.312 1.409-.776.271-.262.446-.63.446-1.057 0-.693-.157-1.364-.382-1.855-.209-.427-.574-.795-1.045-1.057-.262-.486-.63-.865-1.057-1.09l.539-.539m-10.402-6.853c-.696 0-1.28.561-1.28 1.279h2.559c-.023-.718-.584-1.279-1.279-1.279M2636.067 21.777c-2.246-.098-4.59-.277-7.031-.375-.098-2.442-.277-4.786-.375-7.032-.152-.685-.974-1.286-2.047-1.134h-3.496c-.989-.152-1.894.365-2.046 1.134-.098 2.246-.277 4.59-.375 7.032-2.442.098-4.786.277-7.032.375-.149.13-.288.335-.393.598-.236.296-.438.651-.58 1.05-.295.236-.531.515-.683.822-.146.53-.26 1.19-.26 1.867.016.984.8 1.851 1.867 1.851h7.488v1.302c0 .57.049 1.14.114 1.677l-.505 1.677c-.097.489-.097 1.058 0 1.547.098.488.277.879.375 1.172l.456.716c.212 1 1.142 1.851 2.34 1.851l.318-2.02c.106-.049.261-.097.416-.097h.513c.155 0 .31.048.416.097l.318 2.02c1.114 0 2.128-.768 2.34-1.851l.456-.716c.098-.293.277-.684.375-1.172.097-.489.097-1.058 0-1.547l-.505-1.677c.081-.537.114-1.107.114-1.677v-1.302h7.488c.565 0 1.093-.281 1.386-.71.293-.283.481-.681.481-1.141 0-.677-.114-1.337-.277-1.867-.152-.461-.471-.858-.906-1.141-.282-.445-.68-.776-1.14-.939l.39-.39m-10.371-6.795c-.504 0-.928.407-.928.929h1.857c-.016-.522-.424-.929-.929-.929M2686.077 21.9c-2.407-.07-4.884-.197-7.43-.266-.069-2.546-.196-5.022-.265-7.43-.108-.776-.924-1.464-2.004-1.357h-3.033c-.992-.107-1.896.492-2.004 1.357-.069 2.408-.196 4.884-.265 7.43-2.546.069-5.023.196-7.43.266-.202.092-.395.263-.551.496-.249.257-.462.575-.613.94-.258.249-.455.544-.562.868-.104.56-.185 1.213-.185 1.877.011.988.8 1.865 1.877 1.865h7.753v1.331c0 .54.034 1.08.08 1.596l-.358 1.597c-.069.482-.069 1.022 0 1.504.07.482.197.895.266 1.238l.324.915c.15 1 1.042 1.865 2.211 1.865l.337-1.433c.112-.034.258-.069.405-.069h.475c.146 0 .293.035.405.069l.336 1.433c1.081 0 2.062-.777 2.212-1.865l.324-.915c.069-.343.196-.756.265-1.238.07-.482.07-1.022 0-1.504l-.358-1.597c.058-.516.081-1.056.081-1.596v-1.331h7.753c.546 0 1.059-.258 1.368-.66.31-.299.509-.719.509-1.205 0-.664-.081-1.317-.196-1.877-.108-.486-.393-.907-.799-1.205-.299-.414-.719-.707-1.205-.822l.277-.277m-10.347-6.749c-.358 0-.658.289-.658.658h1.317c-.012-.369-.301-.658-.659-.658M2736.084 21.994c-2.53-.048-5.109-.135-7.734-.182-.048-2.626-.135-5.204-.183-7.735-.074-.847-.884-1.601-1.971-1.527h-2.676c-.995-.074-1.898.588-1.972 1.527-.047 2.531-.134 5.109-.182 7.735-2.626.047-5.204.134-7.734.182-.244.063-.477.209-.673.419-.259.226-.481.516-.638.855-.231.259-.397.566-.47.903-.072.583-.127 1.23-.127 1.884.008.993.8 1.877 1.884 1.877h7.956v1.352c0 .517.024 1.034.056 1.535l-.246 1.535c-.047.477-.047.994 0 1.471.048.477.135.907.182 1.289l.222 1.067c.103 1 .967 1.876 2.114 1.876l.35-.982c.117-.024.257-.048.397-.048h.445c.141 0 .281.024.398.048l.35.982c1.055 0 2.011-.784 2.114-1.876l.221-1.067c.048-.382.135-.812.183-1.289.047-.477.047-.994 0-1.471l-.246-1.535c.04-.501.056-1.018.056-1.535v-1.352h7.956c.532 0 1.032-.24 1.355-.622.322-.311.529-.748.529-1.255 0-.654-.055-1.301-.135-1.884-.074-.506-.332-.943-.716-1.254-.311-.39-.749-.654-1.255-.733l.19-.19m-10.328-6.714c-.246 0-.452.198-.452.452h.904c-.008-.254-.206-.452-.452-.452M2786.09 22.066c-2.625-.031-5.28-.088-7.966-.119-.031-2.686-.088-5.342-.119-7.966-.048-.9-.855-1.706-1.947-1.657h-2.406c-.997-.049-1.898.662-1.946 1.657-.031 2.624-.088 5.28-.119 7.966-2.687.031-5.342.088-7.966.119-.275.041-.539.167-.765.359-.267.203-.495.472-.657.791-.21.267-.353.583-.401.93-.046.601-.083 1.243-.083 1.89.006.995.8 1.885 1.89 1.885h8.111v1.369c0 .499.015.998.036 1.487l-.16 1.488c-.031.474-.031.973 0 1.447.031.473.088.916.119 1.327l.144 1.184c.068 1 .909 1.884 2.04 1.884l.36-.641c.12-.015.256-.031.392-.031h.422c.136 0 .271.016.391.031l.361.641c1.036 0 1.972-.79 2.039-1.884l.145-1.184c.031-.411.088-.854.119-1.327.031-.474.031-.973 0-1.447l-.161-1.488c.026-.489.037-.988.037-1.487v-1.369h8.11c.521 0 1.013-.226 1.345-.593.332-.32.545-.77.545-1.292 0-.647-.036-1.289-.088-1.89-.048-.521-.286-.972-.654-1.292-.32-.371-.771-.613-1.292-.664l.124-.124m-10.314-6.688c-.16 0-.295.13-.295.295h.589c-.005-.165-.134-.295-.294-.295M2836.094 22.119c-2.694-.019-5.407-.053-8.138-.072-.019-2.731-.053-5.444-.072-8.138-.029-.939-.833-1.782-1.928-1.753h-2.206c-.998-.029-1.899.717-1.928 1.753-.019 2.694-.053 5.407-.072 8.138-2.731.019-5.444.053-8.138.072-.297.025-.585.136-.832.315-.273.186-.506.439-.671.743-.195.273-.321.596-.35.951-.028.614-.05 1.252-.05 1.894.003.997.8 1.89 1.894 1.89h8.225v1.382c0 .486.01.973.022 1.453l-.097 1.453c-.018.471-.018.957 0 1.428.019.471.054.923.072 1.356l.088 1.269c.04 1 .865 1.891 1.984 1.891l.368-.387c.123-.01.255-.019.387-.019h.405c.133 0 .265.009.387.019l.368.387c1.022 0 1.944-.794 1.985-1.891l.087-1.269c.019-.433.053-.885.072-1.356.019-.471.019-.957 0-1.428l-.097-1.453c.016-.48.022-.967.022-1.453v-1.382h8.225c.513 0 .998-.215 1.337-.57.339-.327.557-.787.557-1.32 0-.642-.022-1.28-.053-1.894-.029-.533-.252-.993-.608-1.32-.327-.358-.787-.583-1.32-.614l.075-.075m-10.304-6.668c-.096 0-.178.078-.178.178h.356c-.003-.1-.081-.178-.178-.178M2886.097 22.157c-2.744-.01-5.497-.029-8.261-.039-.01-2.763-.028-5.516-.038-8.26-.015-.968-.818-1.837-1.915-1.822h-2.063c-.999-.015-1.899.756-1.915 1.822-.01 2.744-.028 5.497-.038 8.26-2.764.01-5.517.029-8.26.039-.315.013-.618.114-.882.284-.277.173-.513.415-.681.709-.183.277-.297.604-.312.965-.015.623-.027 1.259-.027 1.897.002.998.8 1.895 1.897 1.895h8.306v1.39c0 .477.005.954.012 1.428l-.051 1.428c-.01.469-.01.946 0 1.415.01.469.028.928.038 1.377l.046 1.33c.022 1 .835 1.895 1.945 1.895l.374-.206c.125-.005.254-.01.384-.01h.393c.13 0 .259.005.384.01l.374.206c1.011 0 1.923-.797 1.945-1.895l.046-1.33c.01-.449.028-.908.038-1.377.01-.469.01-.946 0-1.415l-.051-1.428c.008-.474.012-.951.012-1.428v-1.39h8.306c.507 0 .987-.209 1.332-.556.344-.331.565-.799.565-1.339 0-.638-.012-1.274-.028-1.897-.016-.541-.228-1.008-.575-1.34-.332-.348-.799-.562-1.34-.578l.04-.04m-10.296-6.654c-.052 0-.095.042-.095.095h.189c-.001-.053-.043-.095-.094-.095M2936.099 22.182c-2.776-.005-5.557-.012-8.341-.016-.005-2.785-.012-5.565-.016-8.341-.007-.987-.808-1.874-1.907-1.867h-1.969c-.999-.007-1.9.781-1.906 1.867-.004 2.776-.012 5.556-.016 8.341-2.785.004-5.565.011-8.341.016-.326.005-.64.099-.914.263-.279.165-.518.4-.687.687-.176.279-.282.61-.289.974-.006.629-.011 1.264-.011 1.899.001.999.8 1.898 1.899 1.898h8.36v1.396c0 .471.002.942.005 1.412l-.022 1.412c-.004.467-.004.938 0 1.406.005.467.012.931.017 1.39l.019 1.37c.009 1 .815 1.898 1.919 1.898l.378-.087c.125-.002.253-.004.381-.004h.386c.128 0 .256.002.381.004l.378.087c1.005 0 1.91-.798 1.919-1.898l.02-1.37c.004-.459.011-.923.016-1.39.004-.468.004-.939 0-1.406l-.022-1.412c.003-.47.005-.941.005-1.412v-1.396h8.36c.503 0 .981-.204 1.328-.545.348-.335.571-.807.571-1.353 0-.635-.005-1.27-.012-1.899-.007-.546-.212-1.017-.553-1.353-.336-.342-.807-.547-1.353-.554l.017-.017m-10.292-6.645c-.021 0-.04.018-.04.041h.081c-.001-.023-.019-.041-.041-.041M2986.1 22.196c-2.795-.001-5.59-.003-8.386-.004-.001-2.797-.003-5.592-.004-8.386-.002-.997-.802-1.894-1.902-1.892h-1.916c-1-.002-1.9.795-1.902 1.892l-.003 8.386c-2.797.001-5.592.003-8.386.004-.332.001-.652.091-.932.251-.281.161-.521.392-.691.675-.172.281-.273.613-.275.98-.001.632-.002 1.265-.002 1.899 0 1 .8 1.9 1.899 1.9h8.391V29.3c0 .467 0 .935.001 1.403l-.005 1.402c-.001.467-.001.935 0 1.402.001.467.003.933.004 1.398l.004 1.392c.002 1 .804 1.9 1.905 1.9l.379-.021c.127 0 .254-.001.381-.001h.381c.127 0 .254.001.38.001l.38.021c1.001 0 1.902-.8 1.904-1.9l.005-1.392c.001-.465.003-.931.004-1.398.001-.467.001-.935 0-1.402l-.005-1.402c0-.468.001-.936.001-1.403v-1.399h8.39c.501 0 .977-.201 1.326-.54.349-.337.574-.811.574-1.36 0-.634-.001-1.267-.003-1.899-.001-.55-.203-1.024-.541-1.361-.337-.338-.811-.54-1.36-.541l.004-.004m-10.289-6.639c-.005 0-.009.004-.009.009h.019c0-.005-.004-.009-.01-.009M3036.1 22.2h-8.4v-8.4c0-1-.8-1.9-1.9-1.9h-1.9c-1 0-1.9.8-1.9 1.9v8.4h-8.4c-.333 0-.656.089-.937.248-.282.159-.522.389-.693.671-.17.281-.27.614-.27.981V26c0 1 .8 1.9 1.9 1.9h8.4v8.4c0 1 .8 1.9 1.9 1.9h1.9c1 0 1.9-.8 1.9-1.9v-1.4-1.4-2.8-2.8h8.4c.5 0 .975-.2 1.325-.537.35-.338.575-.813.575-1.363v-1.9c0-.55-.2-1.025-.538-1.362-.337-.338-.812-.538-1.362-.538m-10.287-6.637" fill="#f8f9fa"/></svg>