<svg xmlns="http://www.w3.org/2000/svg" viewBox="0 0 3050 50" width="3050" height="50"><path d="M22.8 23.7l3 3.8s-.6 3.5-2.6 5.2c-2.1 1.6-9.2 1.2-9.2 1.2s.1-.8.4-1.9l3.3-3.9c.1-.2 0-.4-.2-.3l-2.1.8c.5-1.4 1.1-2.8 1.9-3.4 2-1.8 5.5-1.5 5.5-1.5zm13.1-6.4l-.7-.9c-.2-.2-.5-.3-.8-.1l-8 6.1-1.1-1.4c-.2-.2-.5-.2-.6.1l-.9 1.9 3 3.8 2-.4c.3-.1.4-.4.2-.6l-1.2-1.5 8-6.1c.2-.4.3-.7.1-.9zM72.775 23.442l3.15 3.475s-.342 3.425-2.175 5.2c-1.917 1.683-8.817 1.766-8.817 1.766s.042-.783.259-1.858l2.933-3.983c.092-.2-.025-.384-.217-.275l-1.975.908c.392-1.392.884-2.783 1.617-3.408 1.817-1.875 5.225-1.825 5.225-1.825zm12.233-7.059l-.733-.825c-.208-.183-.5-.25-.775-.041l-7.325 6.433-1.167-1.283c-.208-.184-.5-.159-.575.141l-.741 1.892 3.15 3.475 1.908-.525c.283-.117.358-.408.15-.592l-1.258-1.375 7.325-6.433c.183-.392.25-.683.041-.867zM122.75 23.183l3.3 3.15s-.083 3.35-1.75 5.2c-1.733 1.767-8.433 2.334-8.433 2.334s-.017-.767.116-1.817l2.567-4.067c.083-.2-.05-.366-.233-.25l-1.85 1.017c.283-1.383.666-2.767 1.333-3.417 1.633-1.95 4.95-2.15 4.95-2.15zm11.367-7.716l-.767-.75c-.217-.167-.5-.2-.75.016l-6.65 6.767-1.233-1.167c-.217-.166-.5-.116-.55.184l-.584 1.883 3.3 3.15 1.817-.65c.267-.133.317-.417.1-.583l-1.317-1.25 6.65-6.767c.167-.383.2-.667-.016-.833zM172.725 22.925l3.45 2.825s.175 3.275-1.325 5.2c-1.55 1.85-8.05 2.9-8.05 2.9s-.075-.75-.025-1.775l2.2-4.15c.075-.2-.075-.35-.25-.225L167 28.825c.175-1.375.45-2.75 1.05-3.425 1.45-2.025 4.675-2.475 4.675-2.475zm10.5-8.375l-.8-.675c-.225-.15-.5-.15-.725.075l-5.975 7.1-1.3-1.05c-.225-.15-.5-.075-.525.225l-.425 1.875 3.45 2.825 1.725-.775c.25-.15.275-.425.05-.575l-1.375-1.125 5.975-7.1c.15-.375.15-.65-.075-.8zM222.7 22.667l3.6 2.5s.433 3.2-.9 5.2c-1.367 1.933-7.667 3.466-7.667 3.466s-.133-.733-.166-1.733l1.833-4.233c.067-.2-.1-.334-.267-.2l-1.6 1.233c.067-1.367.234-2.733.767-3.433 1.267-2.1 4.4-2.8 4.4-2.8zm9.633-9.034l-.833-.6c-.233-.133-.5-.1-.7.134l-5.3 7.433-1.367-.933c-.233-.134-.5-.034-.5.266l-.266 1.867 3.6 2.5 1.633-.9c.233-.167.233-.433 0-.567l-1.433-1 5.3-7.433c.133-.367.1-.633-.134-.767zM272.675 22.408l3.75 2.175s.692 3.125-.475 5.2c-1.183 2.017-7.283 4.034-7.283 4.034s-.192-.717-.309-1.692l1.467-4.317c.058-.2-.125-.316-.283-.175l-1.475 1.342c-.042-1.358.016-2.717.483-3.442 1.083-2.175 4.125-3.125 4.125-3.125zm8.767-9.691l-.867-.525c-.242-.117-.5-.05-.675.191l-4.625 7.767-1.433-.817c-.242-.116-.5.009-.475.309l-.109 1.858 3.75 2.175 1.542-1.025c.217-.183.192-.442-.05-.558l-1.492-.875 4.625-7.767c.117-.358.05-.617-.191-.733zM322.65 22.15l3.9 1.85s.95 3.05-.05 5.2c-1 2.1-6.9 4.6-6.9 4.6s-.25-.7-.45-1.65l1.1-4.4c.05-.2-.15-.3-.3-.15l-1.35 1.45c-.15-1.35-.2-2.7.2-3.45.9-2.25 3.85-3.45 3.85-3.45zm7.9-10.35l-.9-.45c-.25-.1-.5 0-.65.25l-3.95 8.1-1.5-.7c-.25-.1-.5.05-.45.35l.05 1.85 3.9 1.85 1.45-1.15c.2-.2.15-.45-.1-.55l-1.55-.75 3.95-8.1c.1-.35 0-.6-.25-.7zM372.625 21.892l4.05 1.525s1.208 2.975.375 5.2c-.817 2.183-6.517 5.166-6.517 5.166s-.308-.683-.591-1.608l.733-4.483c.042-.2-.175-.284-.317-.125l-1.225 1.558c-.258-1.342-.416-2.683-.083-3.458.717-2.325 3.575-3.775 3.575-3.775zm7.033-11.009l-.933-.375c-.258-.083-.5.05-.625.309l-3.275 8.433-1.567-.583c-.258-.084-.5.091-.425.391l.209 1.842 4.05 1.525 1.358-1.275c.183-.217.108-.458-.15-.542l-1.608-.625 3.275-8.433c.083-.342-.05-.583-.309-.667zM422.6 21.633l4.2 1.2s1.467 2.9.8 5.2c-.633 2.267-6.133 5.734-6.133 5.734s-.367-.667-.734-1.567l.367-4.567c.033-.2-.2-.266-.333-.1l-1.1 1.667c-.367-1.333-.634-2.667-.367-3.467.533-2.4 3.3-4.1 3.3-4.1zm6.167-11.666l-.967-.3c-.267-.067-.5.1-.6.366l-2.6 8.767-1.633-.467c-.267-.066-.5.134-.4.434l.366 1.833 4.2 1.2 1.267-1.4c.167-.233.067-.467-.2-.533l-1.667-.5 2.6-8.767c.067-.333-.1-.567-.366-.633zM472.575 21.375l4.35.875s1.725 2.825 1.225 5.2c-.45 2.35-5.75 6.3-5.75 6.3s-.425-.65-.875-1.525v-4.65c.025-.2-.225-.25-.35-.075l-.975 1.775c-.475-1.325-.85-2.65-.65-3.475.35-2.475 3.025-4.425 3.025-4.425zm5.3-12.325l-1-.225c-.275-.05-.5.15-.575.425l-1.925 9.1-1.7-.35c-.275-.05-.5.175-.375.475l.525 1.825 4.35.875 1.175-1.525c.15-.25.025-.475-.25-.525l-1.725-.375 1.925-9.1c.05-.325-.15-.55-.425-.6zM522.55 21.117l4.5.55s1.983 2.75 1.65 5.2c-.267 2.433-5.367 6.866-5.367 6.866s-.483-.633-1.016-1.483l-.367-4.733c.017-.2-.25-.234-.367-.05l-.85 1.883c-.583-1.317-1.066-2.633-.933-3.483.167-2.55 2.75-4.75 2.75-4.75zm4.433-12.984l-1.033-.15c-.283-.033-.5.2-.55.484l-1.25 9.433-1.767-.233c-.283-.034-.5.216-.35.516l.684 1.817 4.5.55 1.083-1.65c.133-.267-.017-.483-.3-.517l-1.783-.25 1.25-9.433c.033-.317-.2-.533-.484-.567zM572.525 20.858l4.65.225s2.242 2.675 2.075 5.2c-.083 2.517-4.983 7.434-4.983 7.434s-.542-.617-1.159-1.442l-.733-4.817c.008-.2-.275-.216-.383-.025l-.725 1.992c-.692-1.308-1.284-2.617-1.217-3.492-.017-2.625 2.475-5.075 2.475-5.075zm3.567-13.641l-1.067-.075c-.292-.017-.5.25-.525.541l-.575 9.767-1.833-.117c-.292-.016-.5.259-.325.559l.841 1.808 4.65.225.992-1.775c.117-.283-.058-.492-.35-.508l-1.842-.125.575-9.767c.017-.308-.25-.517-.541-.533zM622.5 20.6l4.8-.1s2.5 2.6 2.5 5.2c.1 2.6-4.6 8-4.6 8s-.6-.6-1.3-1.4l-1.1-4.9c0-.2-.3-.2-.4 0l-.6 2.1c-.8-1.3-1.5-2.6-1.5-3.5-.2-2.7 2.2-5.4 2.2-5.4zm2.7-14.3h-1.1c-.3 0-.5.3-.5.6l.1 10.1h-1.9c-.3 0-.5.3-.3.6l1 1.8 4.8-.1.9-1.9c.1-.3-.1-.5-.4-.5h-1.9l-.1-10.1c0-.3-.3-.5-.6-.5zM672.8 20.825l4.783-.208s2.55 2.533 2.617 5.125c.158 2.591-4.4 8.083-4.4 8.083s-.608-.583-1.325-1.367l-1.208-4.858c-.009-.2-.309-.192-.4.008l-.55 2.109c-.834-1.275-1.559-2.55-1.584-3.459-.258-2.683 2.067-5.433 2.067-5.433zm2.367-14.317l-1.092.025c-.3.009-.492.309-.492.609l.325 10.066-1.891.05c-.3.009-.492.309-.292.6l1.033 1.775 4.784-.208.85-1.908c.091-.3-.109-.5-.409-.492l-1.891.05-.325-10.067c0-.308-.3-.5-.6-.5zM723.1 21.05l4.767-.317s2.6 2.467 2.733 5.05c.217 2.584-4.2 8.167-4.2 8.167s-.617-.567-1.35-1.333l-1.317-4.817c-.016-.2-.316-.183-.4.017l-.5 2.116c-.866-1.25-1.616-2.5-1.666-3.416-.317-2.667 1.933-5.467 1.933-5.467zm2.033-14.333l-1.083.05c-.3.016-.483.316-.483.616l.55 10.034-1.884.1c-.3.016-.483.316-.283.6l1.067 1.75 4.766-.317.8-1.917c.084-.3-.116-.5-.416-.483l-1.884.1-.55-10.033c0-.317-.3-.5-.6-.5zM773.4 21.275l4.75-.425s2.65 2.4 2.85 4.975c.275 2.575-4 8.25-4 8.25s-.625-.55-1.375-1.3L774.2 28c-.025-.2-.325-.175-.4.025l-.45 2.125c-.9-1.225-1.675-2.45-1.75-3.375-.375-2.65 1.8-5.5 1.8-5.5zm1.7-14.35L774.025 7c-.3.025-.475.325-.475.625l.775 10-1.875.15c-.3.025-.475.325-.275.6l1.1 1.725 4.75-.425.75-1.925c.075-.3-.125-.5-.425-.475l-1.875.15-.775-10c0-.325-.3-.5-.6-.5zM823.7 21.5l4.733-.533s2.7 2.333 2.967 4.9c.333 2.566-3.8 8.333-3.8 8.333s-.633-.533-1.4-1.267l-1.533-4.733c-.034-.2-.334-.167-.4.033l-.4 2.134c-.934-1.2-1.734-2.4-1.834-3.334C821.6 24.4 823.7 21.5 823.7 21.5zm1.367-14.367l-1.067.1c-.3.034-.467.334-.467.634l1 9.966-1.866.2c-.3.034-.467.334-.267.6l1.133 1.7 4.734-.533.7-1.933c.066-.3-.134-.5-.434-.467l-1.866.2-1-9.967c0-.333-.3-.5-.6-.5zM874 21.725l4.717-.642s2.75 2.267 3.083 4.825c.392 2.559-3.6 8.417-3.6 8.417s-.642-.517-1.425-1.233l-1.642-4.692c-.041-.2-.341-.158-.4.042l-.35 2.141c-.966-1.175-1.791-2.35-1.916-3.291-.492-2.617 1.533-5.567 1.533-5.567zm1.033-14.383l-1.058.125c-.3.041-.458.341-.458.641l1.225 9.934-1.859.25c-.3.041-.458.341-.258.6l1.167 1.675 4.716-.642.65-1.942c.059-.3-.141-.5-.441-.458l-1.859.25-1.225-9.933c0-.342-.3-.5-.6-.5zM924.3 21.95l4.7-.75s2.8 2.2 3.2 4.75c.45 2.55-3.4 8.5-3.4 8.5s-.65-.5-1.45-1.2l-1.75-4.65c-.05-.2-.35-.15-.4.05l-.3 2.15c-1-1.15-1.85-2.3-2-3.25-.55-2.6 1.4-5.6 1.4-5.6zm.7-14.4l-1.05.15c-.3.05-.45.35-.45.65l1.45 9.9-1.85.3c-.3.05-.45.35-.25.6l1.2 1.65 4.7-.75.6-1.95c.05-.3-.15-.5-.45-.45l-1.85.3-1.45-9.9c0-.35-.3-.5-.6-.5zM974.6 22.175l4.683-.858s2.85 2.133 3.317 4.675c.508 2.541-3.2 8.583-3.2 8.583s-.658-.483-1.475-1.167l-1.858-4.608c-.059-.2-.359-.142-.4.058l-.25 2.159c-1.034-1.125-1.909-2.25-2.084-3.209-.608-2.583 1.267-5.633 1.267-5.633zm.367-14.417l-1.042.175c-.3.059-.442.359-.442.659l1.675 9.866-1.841.35c-.3.059-.442.359-.242.6l1.233 1.625 4.684-.858.55-1.958c.041-.3-.159-.5-.459-.442l-1.841.35-1.675-9.867c0-.358-.3-.5-.6-.5zM1024.9 22.4l4.667-.967s2.9 2.067 3.433 4.6c.567 2.534-3 8.667-3 8.667s-.667-.467-1.5-1.133L1026.533 29c-.066-.2-.366-.133-.4.067l-.2 2.166c-1.066-1.1-1.966-2.2-2.166-3.166-.667-2.567 1.133-5.667 1.133-5.667zm.033-14.433l-1.033.2c-.3.066-.433.366-.433.666l1.9 9.834-1.834.4c-.3.066-.433.366-.233.6l1.267 1.6 4.666-.967.5-1.967c.034-.3-.166-.5-.466-.433l-1.834.4-1.9-9.833c0-.367-.3-.5-.6-.5zM1075.2 22.625l4.65-1.075s2.95 2 3.55 4.525c.625 2.525-2.8 8.75-2.8 8.75s-.675-.45-1.525-1.1L1077 29.2c-.075-.2-.375-.125-.4.075l-.15 2.175c-1.1-1.075-2.025-2.15-2.25-3.125-.725-2.55 1-5.7 1-5.7zm-.3-14.45l-1.025.225c-.3.075-.425.375-.425.675l2.125 9.8-1.825.45c-.3.075-.425.375-.225.6l1.3 1.575 4.65-1.075.45-1.975c.025-.3-.175-.5-.475-.425l-1.825.45-2.125-9.8c0-.375-.3-.5-.6-.5zM1125.5 22.85l4.633-1.183s3 1.933 3.667 4.45c.683 2.516-2.6 8.833-2.6 8.833s-.683-.433-1.55-1.067l-2.183-4.483c-.084-.2-.384-.117-.4.083l-.1 2.184c-1.134-1.05-2.084-2.1-2.334-3.084-.783-2.533.867-5.733.867-5.733zm-.633-14.467l-1.017.25c-.3.084-.417.384-.417.684l2.35 9.766-1.816.5c-.3.084-.417.384-.217.6l1.333 1.55 4.634-1.183.4-1.983c.016-.3-.184-.5-.484-.417l-1.816.5-2.35-9.767c0-.383-.3-.5-.6-.5zM1175.8 23.075l4.617-1.292s3.05 1.867 3.783 4.375c.742 2.509-2.4 8.917-2.4 8.917s-.692-.417-1.575-1.033l-2.292-4.442c-.091-.2-.391-.108-.4.092l-.05 2.191c-1.166-1.025-2.141-2.05-2.416-3.041-.842-2.517.733-5.767.733-5.767zm-.967-14.483l-1.008.275c-.3.091-.408.391-.408.691l2.575 9.734-1.809.55c-.3.091-.408.391-.208.6l1.367 1.525 4.616-1.292.35-1.992c.009-.3-.191-.5-.491-.408l-1.809.55-2.575-9.733c0-.392-.3-.5-.6-.5zM1226.1 23.3l4.6-1.4s3.1 1.8 3.9 4.3c.8 2.5-2.2 9-2.2 9s-.7-.4-1.6-1l-2.4-4.4c-.1-.2-.4-.1-.4.1v2.2c-1.2-1-2.2-2-2.5-3-.9-2.5.6-5.8.6-5.8zm-1.3-14.5l-1 .3c-.3.1-.4.4-.4.7l2.8 9.7-1.8.6c-.3.1-.4.4-.2.6l1.4 1.5 4.6-1.4.3-2c0-.3-.2-.5-.5-.4l-1.8.6-2.8-9.7c0-.4-.3-.5-.6-.5zM1275.333 23.492l4.584-1.125s2.933 1.933 3.583 4.425c.65 2.491-2.642 8.691-2.642 8.691s-.666-.433-1.516-1.075l-2.109-4.441c-.091-.2-.383-.117-.4.075l-.125 2.15c-1.116-1.042-2.041-2.084-2.283-3.067-.742-2.483.908-5.633.908-5.633zm-.483-14.275l-1 .241c-.3.084-.417.367-.425.667l2.217 9.65-1.792.483c-.3.084-.408.375-.225.584l1.292 1.55 4.583-1.125.408-1.942c.017-.292-.166-.5-.466-.417l-1.792.484-2.217-9.65c0-.392-.283-.509-.583-.525zM1324.567 23.683l4.566-.85s2.767 2.067 3.267 4.55c.5 2.484-3.083 8.384-3.083 8.384s-.634-.467-1.434-1.15l-1.816-4.484c-.084-.2-.367-.133-.4.05l-.25 2.1c-1.034-1.083-1.884-2.166-2.067-3.133-.583-2.467 1.217-5.467 1.217-5.467zm.333-14.05l-1 .184c-.3.066-.433.333-.45.633l1.633 9.6-1.783.367c-.3.066-.417.35-.25.566l1.183 1.6 4.567-.85.517-1.883c.033-.283-.134-.5-.434-.433l-1.783.366-1.633-9.6c0-.383-.267-.516-.567-.55zM1373.8 23.875l4.55-.575s2.6 2.2 2.95 4.675c.35 2.475-3.525 8.075-3.525 8.075s-.6-.5-1.35-1.225L1374.9 30.3c-.075-.2-.35-.15-.4.025l-.375 2.05c-.95-1.125-1.725-2.25-1.85-3.2-.425-2.45 1.525-5.3 1.525-5.3zm1.15-13.825l-1 .125c-.3.05-.45.3-.475.6l1.05 9.55-1.775.25c-.3.05-.425.325-.275.55l1.075 1.65 4.55-.575.625-1.825c.05-.275-.1-.5-.4-.45l-1.775.25-1.05-9.55c0-.375-.25-.525-.55-.575zM1423.033 24.067l4.534-.3s2.433 2.333 2.633 4.8c.2 2.466-3.967 7.766-3.967 7.766s-.566-.533-1.266-1.3l-1.234-4.566c-.066-.2-.333-.167-.4 0l-.5 2c-.866-1.167-1.566-2.334-1.633-3.267-.267-2.433 1.833-5.133 1.833-5.133zm1.967-13.6l-1 .066c-.3.034-.467.267-.5.567l.467 9.5-1.767.133c-.3.034-.433.3-.3.534l.967 1.7 4.533-.3.733-1.767c.067-.267-.066-.5-.366-.467l-1.767.134-.467-9.5c0-.367-.233-.534-.533-.6zM1472.267 24.258l4.516-.025s2.267 2.467 2.317 4.925c.05 2.459-4.408 7.459-4.408 7.459s-.534-.567-1.184-1.375l-.941-4.609c-.059-.2-.317-.183-.4-.025l-.625 1.95c-.784-1.208-1.409-2.416-1.417-3.333-.108-2.417 2.142-4.967 2.142-4.967zm2.783-13.375l-1 .009c-.3.016-.483.233-.525.533l-.117 9.45-1.758.017c-.3.016-.442.275-.325.516l.858 1.75 4.517-.025.842-1.708c.083-.258-.034-.5-.334-.483l-1.758.016.117-9.45c0-.358-.217-.541-.517-.625zM1521.5 24.45l4.5.25s2.1 2.6 2 5.05c-.1 2.45-4.85 7.15-4.85 7.15s-.5-.6-1.1-1.45l-.65-4.65c-.05-.2-.3-.2-.4-.05l-.75 1.9c-.7-1.25-1.25-2.5-1.2-3.4.05-2.4 2.45-4.8 2.45-4.8zm3.6-13.15l-1-.05c-.3 0-.5.2-.55.5l-.7 9.4-1.75-.1c-.3 0-.45.25-.35.5l.75 1.8 4.5.25.95-1.65c.1-.25 0-.5-.3-.5l-1.75-.1.7-9.4c0-.35-.2-.55-.5-.65zM1570.733 24.642l4.484.525s1.933 2.733 1.683 5.175c-.25 2.441-5.292 6.841-5.292 6.841s-.466-.633-1.016-1.525l-.359-4.691c-.041-.2-.283-.217-.4-.075l-.875 1.85c-.616-1.292-1.091-2.584-.983-3.467.208-2.383 2.758-4.633 2.758-4.633zm4.417-12.925l-1-.109c-.3-.016-.517.167-.575.467l-1.283 9.35-1.742-.217c-.3-.016-.458.225-.375.484l.642 1.85 4.483.525 1.058-1.592c.117-.242.034-.5-.266-.517l-1.742-.216 1.283-9.35c0-.342-.183-.559-.483-.675zM1619.967 24.833l4.466.8s1.767 2.867 1.367 5.3c-.4 2.434-5.733 6.534-5.733 6.534s-.434-.667-.934-1.6l-.066-4.734c-.034-.2-.267-.233-.4-.1l-1 1.8c-.534-1.333-.934-2.666-.767-3.533.367-2.367 3.067-4.467 3.067-4.467zm5.233-12.7l-1-.166c-.3-.034-.533.133-.6.433l-1.867 9.3-1.733-.333c-.3-.034-.467.2-.4.466l.533 1.9 4.467.8 1.167-1.533c.133-.233.066-.5-.234-.533l-1.733-.334 1.867-9.3c0-.333-.167-.566-.467-.7zM1669.2 25.025l4.45 1.075s1.6 3 1.05 5.425-6.175 6.225-6.175 6.225-.4-.7-.85-1.675l.225-4.775c-.025-.2-.25-.25-.4-.125l-1.125 1.75c-.45-1.375-.775-2.75-.55-3.6.525-2.35 3.375-4.3 3.375-4.3zm6.05-12.475l-1-.225c-.3-.05-.55.1-.625.4l-2.45 9.25-1.725-.45c-.3-.05-.475.175-.425.45l.425 1.95L1673.9 25l1.275-1.475c.15-.225.1-.5-.2-.55l-1.725-.45 2.45-9.25c0-.325-.15-.575-.45-.725zM1718.433 25.217l4.434 1.35s1.433 3.133.733 5.55c-.7 2.416-6.617 5.916-6.617 5.916s-.366-.733-.766-1.75l.516-4.816c-.016-.2-.233-.267-.4-.15l-1.25 1.7c-.366-1.417-.616-2.834-.333-3.667.683-2.333 3.683-4.133 3.683-4.133zm6.867-12.25l-1-.284c-.3-.066-.567.067-.65.367l-3.033 9.2-1.717-.567c-.3-.066-.483.15-.45.434l.317 2 4.433 1.35 1.383-1.417c.167-.217.134-.5-.166-.567l-1.717-.566 3.033-9.2c0-.317-.133-.584-.433-.75zM1767.667 25.408l4.416 1.625s1.267 3.267.417 5.675c-.85 2.409-7.058 5.609-7.058 5.609s-.334-.767-.684-1.825l.809-4.859c-.009-.2-.217-.283-.4-.175l-1.375 1.65c-.284-1.458-.459-2.916-.117-3.733.842-2.317 3.992-3.967 3.992-3.967zm7.683-12.025l-1-.341c-.3-.084-.583.033-.675.333l-3.617 9.15-1.708-.683c-.3-.084-.492.125-.475.416l.208 2.05 4.417 1.625 1.492-1.358c.183-.208.166-.5-.134-.583l-1.708-.684 3.617-9.15c0-.308-.117-.591-.417-.775zM1816.9 25.6l4.4 1.9s1.1 3.4.1 5.8-7.5 5.3-7.5 5.3-.3-.8-.6-1.9l1.1-4.9c0-.2-.2-.3-.4-.2l-1.5 1.6c-.2-1.5-.3-3 .1-3.8 1-2.3 4.3-3.8 4.3-3.8zm8.5-11.8l-1-.4c-.3-.1-.6 0-.7.3l-4.2 9.1-1.7-.8c-.3-.1-.5.1-.5.4l.1 2.1 4.4 1.9 1.6-1.3c.2-.2.2-.5-.1-.6l-1.7-.8 4.2-9.1c0-.3-.1-.6-.4-.8zM1867.808 26.075l4.334 1.475s1.3 3.15.533 5.517c-.775 2.366-6.733 5.616-6.733 5.616s-.342-.741-.709-1.766l.675-4.742c-.016-.192-.216-.267-.391-.167l-1.3 1.634c-.309-1.409-.509-2.834-.192-3.625.75-2.275 3.783-3.942 3.783-3.942zm7.2-11.875l-.983-.308c-.292-.075-.567.041-.642.341l-3.308 8.984-1.683-.634c-.292-.075-.475.134-.45.417l.25 1.992 4.333 1.475 1.425-1.359c.175-.208.15-.491-.142-.566l-1.675-.625 3.309-8.984c-.017-.291-.142-.566-.434-.733zM1918.717 26.55l4.266 1.05s1.5 2.9.967 5.233c-.55 2.334-5.967 5.934-5.967 5.934s-.383-.684-.816-1.634l.25-4.583c-.034-.183-.234-.233-.384-.133l-1.1 1.666c-.416-1.316-.716-2.666-.483-3.45.5-2.25 3.267-4.083 3.267-4.083zm5.9-11.95l-.967-.217c-.283-.05-.533.084-.583.384l-2.417 8.866-1.667-.466c-.283-.05-.45.166-.4.433l.4 1.883 4.267 1.05 1.25-1.416c.15-.217.1-.484-.183-.534l-1.65-.45 2.416-8.866c-.033-.284-.183-.534-.466-.667zM1969.625 27.025l4.2.625s1.7 2.65 1.4 4.95c-.325 2.3-5.2 6.25-5.2 6.25s-.425-.625-.925-1.5l-.175-4.425c-.05-.175-.25-.2-.375-.1l-.9 1.7c-.525-1.225-.925-2.5-.775-3.275.25-2.225 2.75-4.225 2.75-4.225zm4.6-12.025l-.95-.125c-.275-.025-.5.125-.525.425l-1.525 8.75-1.65-.3c-.275-.025-.425.2-.35.45l.55 1.775 4.2.625 1.075-1.475c.125-.225.05-.475-.225-.5l-1.625-.275 1.525-8.75c-.05-.275-.225-.5-.5-.6zM2020.533 27.5l4.134.2s1.9 2.4 1.833 4.667c-.1 2.266-4.433 6.566-4.433 6.566s-.467-.566-1.034-1.366l-.6-4.267c-.066-.167-.266-.167-.366-.067l-.7 1.734c-.634-1.134-1.134-2.334-1.067-3.1 0-2.2 2.233-4.367 2.233-4.367zm3.3-12.1l-.933-.033c-.267 0-.467.166-.467.466l-.633 8.634-1.633-.134c-.267 0-.4.234-.3.467l.7 1.667 4.133.2.9-1.534c.1-.233 0-.466-.267-.466l-1.6-.1.634-8.634c-.067-.266-.267-.466-.534-.533zM2071.442 27.975l4.066-.225s2.1 2.15 2.267 4.383c.125 2.234-3.667 6.884-3.667 6.884s-.508-.509-1.141-1.234l-1.025-4.108c-.084-.158-.284-.133-.359-.033l-.5 1.766c-.741-1.041-1.341-2.166-1.358-2.925-.25-2.175 1.717-4.508 1.717-4.508zm2-12.175l-.917.058c-.258.025-.433.209-.408.509l.258 8.516-1.617.034c-.258.025-.375.266-.25.483l.85 1.558 4.067-.225.725-1.591c.075-.242-.05-.459-.308-.434l-1.575.075-.259-8.516c-.083-.259-.308-.434-.566-.467zM2122.35 28.45l4-.65s2.3 1.9 2.7 4.1c.35 2.2-2.9 7.2-2.9 7.2s-.55-.45-1.25-1.1l-1.45-3.95c-.1-.15-.3-.1-.35 0l-.3 1.8c-.85-.95-1.55-2-1.65-2.75-.5-2.15 1.2-4.65 1.2-4.65zm.7-12.25l-.9.15c-.25.05-.4.25-.35.55l1.15 8.4-1.6.2c-.25.05-.35.3-.2.5l1 1.45 4-.65.55-1.65c.05-.25-.1-.45-.35-.4l-1.55.25-1.15-8.4c-.1-.25-.35-.4-.6-.4zM2173.258 28.925l3.934-1.075s2.5 1.65 3.133 3.817c.575 2.166-2.133 7.516-2.133 7.516s-.592-.391-1.359-.966l-1.875-3.792c-.116-.142-.316-.067-.341.033l-.1 1.834c-.959-.859-1.759-1.834-1.942-2.575-.75-2.125.683-4.792.683-4.792zm-.6-12.325l-.883.242c-.242.075-.367.291-.292.591l2.042 8.284-1.583.366c-.242.075-.325.334-.15.517l1.15 1.342 3.933-1.075.375-1.709c.025-.258-.15-.441-.392-.366l-1.525.425-2.041-8.284c-.117-.241-.392-.366-.634-.333zM2224.167 29.4l3.866-1.5s2.7 1.4 3.567 3.533c.8 2.134-1.367 7.834-1.367 7.834s-.633-.334-1.466-.834l-2.3-3.633c-.134-.133-.334-.033-.334.067l.1 1.866c-1.066-.766-1.966-1.666-2.233-2.4-1-2.1.167-4.933.167-4.933zm-1.9-12.4l-.867.333c-.233.1-.333.334-.233.634l2.933 8.166-1.567.534c-.233.1-.3.366-.1.533l1.3 1.233 3.867-1.5.2-1.766c0-.267-.2-.434-.433-.334l-1.5.6-2.934-8.166c-.133-.234-.433-.334-.666-.267zM2275.075 29.875l3.8-1.925s2.9 1.15 4 3.25c1.025 2.1-.6 8.15-.6 8.15s-.675-.275-1.575-.7l-2.725-3.475c-.15-.125-.35 0-.325.1l.3 1.9c-1.175-.675-2.175-1.5-2.525-2.225-1.25-2.075-.35-5.075-.35-5.075zm-3.2-12.475l-.85.425c-.225.125-.3.375-.175.675l3.825 8.05-1.55.7c-.225.125-.275.4-.05.55l1.45 1.125 3.8-1.925.025-1.825c-.025-.275-.25-.425-.475-.3l-1.475.775-3.825-8.05c-.15-.225-.475-.3-.7-.2zM2325.983 30.35l3.734-2.35s3.1.9 4.433 2.967c1.25 2.066.167 8.466.167 8.466s-.717-.216-1.684-.566l-3.15-3.317c-.166-.117-.366.033-.316.133l.5 1.934c-1.284-.584-2.384-1.334-2.817-2.05-1.5-2.05-.867-5.217-.867-5.217zm-4.5-12.55l-.833.517c-.217.15-.267.416-.117.716l4.717 7.934-1.533.866c-.217.15-.25.434 0 .567l1.6 1.017 3.733-2.35-.15-1.884c-.05-.283-.3-.416-.517-.266l-1.45.95-4.716-7.934c-.167-.216-.517-.266-.734-.133zM2376.892 30.825l3.666-2.775s3.3.65 4.867 2.683c1.475 2.034.933 8.784.933 8.784s-.758-.159-1.791-.434l-3.575-3.158c-.184-.108-.384.067-.309.167l.7 1.966c-1.391-.491-2.591-1.166-3.108-1.875-1.75-2.025-1.383-5.358-1.383-5.358zm-5.8-12.625l-.817.608c-.208.175-.233.459-.058.759l5.608 7.816-1.517 1.034c-.208.175-.225.466.05.583l1.75.908 3.667-2.775-.325-1.941c-.075-.292-.35-.409-.558-.234l-1.425 1.125-5.609-7.816c-.183-.209-.558-.234-.766-.067zM2427.8 31.3l3.6-3.2s3.5.4 5.3 2.4c1.7 2 1.7 9.1 1.7 9.1s-.8-.1-1.9-.3l-4-3c-.2-.1-.4.1-.3.2l.9 2c-1.5-.4-2.8-1-3.4-1.7-2-2-1.9-5.5-1.9-5.5zm-7.1-12.7l-.8.7c-.2.2-.2.5 0 .8l6.5 7.7-1.5 1.2c-.2.2-.2.5.1.6l1.9.8 3.6-3.2-.5-2c-.1-.3-.4-.4-.6-.2l-1.4 1.3-6.5-7.7c-.2-.2-.6-.2-.8 0zM2477.383 30.667l3.55-2.617s3.159.658 4.642 2.633c1.383 1.967.792 8.442.792 8.442s-.725-.158-1.709-.433l-3.391-3.075c-.175-.109-.367.058-.292.158l.65 1.9c-1.333-.483-2.475-1.15-2.958-1.842-1.667-1.983-1.284-5.166-1.284-5.166zm-5.416-12.175l-.792.566c-.2.167-.225.434-.067.725l5.292 7.567-1.467.983c-.2.167-.225.442.042.559l1.667.891 3.55-2.616-.292-1.867c-.067-.283-.333-.4-.533-.233l-1.384 1.066-5.291-7.566c-.167-.217-.525-.242-.725-.075zM2526.967 30.033l3.5-2.033s2.816.917 3.983 2.867c1.067 1.933-.117 7.783-.117 7.783s-.65-.217-1.516-.567l-2.784-3.15c-.15-.116-.333.017-.283.117l.4 1.8c-1.167-.567-2.15-1.3-2.517-1.983-1.333-1.967-.666-4.834-.666-4.834zm-3.734-11.65l-.783.434c-.2.133-.25.366-.133.65l4.083 7.433-1.433.767c-.2.133-.25.383-.017.516l1.433.984 3.5-2.034-.083-1.733c-.033-.267-.267-.4-.467-.267l-1.366.834-4.084-7.434c-.133-.233-.45-.283-.65-.15zM2576.55 29.4l3.45-1.45s2.475 1.175 3.325 3.1c.75 1.9-1.025 7.125-1.025 7.125s-.575-.275-1.325-.7l-2.175-3.225c-.125-.125-.3-.025-.275.075l.15 1.7c-1-.65-1.825-1.45-2.075-2.125-1-1.95-.05-4.5-.05-4.5zm-2.05-11.125l-.775.3c-.2.1-.275.3-.2.575l2.875 7.3-1.4.55c-.2.1-.275.325-.075.475l1.2 1.075 3.45-1.45.125-1.6c0-.25-.2-.4-.4-.3l-1.35.6-2.875-7.3c-.1-.25-.375-.325-.575-.225zM2626.133 28.767l3.4-.867s2.134 1.433 2.667 3.333c.433 1.867-1.933 6.467-1.933 6.467s-.5-.333-1.134-.833l-1.566-3.3c-.1-.134-.267-.067-.267.033l-.1 1.6c-.833-.733-1.5-1.6-1.633-2.267-.667-1.933.566-4.166.566-4.166zm-.366-10.6l-.767.166c-.2.067-.3.234-.267.5L2626.4 26l-1.367.333c-.2.067-.3.267-.133.434l.967 1.166 3.4-.866.333-1.467c.033-.233-.133-.4-.333-.333l-1.334.366-1.666-7.166c-.067-.267-.3-.367-.5-.3zM2675.717 28.133l3.35-.283s1.791 1.692 2.008 3.567c.117 1.833-2.842 5.808-2.842 5.808s-.425-.392-.941-.967l-.959-3.375c-.075-.141-.233-.108-.258-.008l-.35 1.5c-.667-.817-1.175-1.75-1.192-2.408-.333-1.917 1.184-3.834 1.184-3.834zm1.316-10.075l-.758.034c-.2.033-.325.166-.333.425l.458 7.033-1.333.117c-.2.033-.325.208-.192.391l.733 1.259 3.35-.284.542-1.333c.067-.217-.067-.4-.267-.367l-1.316.134-.459-7.034c-.033-.283-.225-.408-.425-.375zM2725.3 27.5l3.3.3s1.45 1.95 1.35 3.8c-.2 1.8-3.75 5.15-3.75 5.15s-.35-.45-.75-1.1l-.35-3.45c-.05-.15-.2-.15-.25-.05l-.6 1.4c-.5-.9-.85-1.9-.75-2.55 0-1.9 1.8-3.5 1.8-3.5zm3-9.55l-.75-.1c-.2 0-.35.1-.4.35l-.75 6.9-1.3-.1c-.2 0-.35.15-.25.35l.5 1.35 3.3.3.75-1.2c.1-.2 0-.4-.2-.4l-1.3-.1.75-6.9c0-.3-.15-.45-.35-.45zM2774.883 26.867l3.25.883s1.109 2.208.692 4.033c-.517 1.767-4.658 4.492-4.658 4.492s-.275-.508-.559-1.233l.259-3.525c-.025-.159-.167-.192-.242-.092l-.85 1.3c-.333-.983-.525-2.05-.308-2.692.333-1.883 2.416-3.166 2.416-3.166zm4.684-9.025l-.742-.234c-.2-.033-.375.034-.467.275l-1.958 6.767-1.267-.317c-.2-.033-.375.092-.308.309l.267 1.441 3.25.884.958-1.067c.133-.183.067-.4-.133-.433l-1.284-.334 1.959-6.766c.033-.317-.075-.492-.275-.525zM2824.467 26.233l3.2 1.467s.766 2.467.033 4.267c-.833 1.733-5.567 3.833-5.567 3.833s-.2-.567-.366-1.367l.866-3.6c0-.166-.133-.233-.233-.133l-1.1 1.2c-.167-1.067-.2-2.2.133-2.833.667-1.867 3.034-2.834 3.034-2.834zm6.366-8.5l-.733-.366c-.2-.067-.4-.034-.533.2L2826.4 24.2l-1.233-.533c-.2-.067-.4.033-.367.266l.033 1.534 3.2 1.466L2829.2 26c.167-.167.133-.4-.067-.467l-1.266-.566 3.166-6.634c.067-.333 0-.533-.2-.6zM2874.05 25.6l3.15 2.05s.425 2.725-.625 4.5c-1.15 1.7-6.475 3.175-6.475 3.175s-.125-.625-.175-1.5l1.475-3.675c.025-.175-.1-.275-.225-.175l-1.35 1.1c0-1.15.125-2.35.575-2.975 1-1.85 3.65-2.5 3.65-2.5zm8.05-7.975l-.725-.5c-.2-.1-.425-.1-.6.125l-4.375 6.5-1.2-.75c-.2-.1-.425-.025-.425.225l-.2 1.625 3.15 2.05 1.375-.8c.2-.15.2-.4 0-.5l-1.25-.8 4.375-6.5c.1-.35.075-.575-.125-.675zM2923.633 24.967l3.1 2.633s.084 2.983-1.283 4.733c-1.467 1.667-7.383 2.517-7.383 2.517s-.05-.683.016-1.633l2.084-3.75c.05-.184-.067-.317-.217-.217l-1.6 1c.167-1.233.45-2.5 1.017-3.117 1.333-1.833 4.266-2.166 4.266-2.166zm9.734-7.45l-.717-.634c-.2-.133-.45-.166-.667.05L2926.4 23.3l-1.167-.967c-.2-.133-.45-.083-.483.184l-.433 1.716 3.1 2.634L2929 26.2c.233-.133.267-.4.067-.533l-1.234-1.034 5.584-6.366c.133-.367.15-.617-.05-.75zM2973.217 24.333l3.05 3.217s-.259 3.242-1.942 4.967c-1.783 1.633-8.292 1.858-8.292 1.858s.025-.742.209-1.767l2.691-3.825c.075-.191-.033-.358-.208-.258l-1.85.9c.333-1.317.775-2.65 1.458-3.258 1.667-1.817 4.884-1.834 4.884-1.834zm11.416-6.925l-.708-.766c-.2-.167-.475-.234-.733-.025l-6.792 6.233-1.133-1.183c-.2-.167-.475-.142-.542.141l-.667 1.809 3.05 3.216 1.792-.533c.267-.117.333-.4.133-.567l-1.216-1.266 6.791-6.234c.167-.383.225-.658.025-.825zM3022.8 23.7l3 3.8s-.6 3.5-2.6 5.2c-2.1 1.6-9.2 1.2-9.2 1.2s.1-.8.4-1.9l3.3-3.9c.1-.2 0-.4-.2-.3l-2.1.8c.5-1.4 1.1-2.8 1.9-3.4 2-1.8 5.5-1.5 5.5-1.5zm13.1-6.4l-.7-.9c-.2-.2-.5-.3-.8-.1l-8 6.1-1.1-1.4c-.2-.2-.5-.2-.6.1l-.9 1.9 3 3.8 2-.4c.3-.1.4-.4.2-.6l-1.2-1.5 8-6.1c.2-.4.3-.7.1-.9z" fill="#f8f9fa"/></svg>