<?xml version="1.0" encoding="utf-8"?>
<!-- Generator: Adobe Illustrator 23.0.1, SVG Export Plug-In . SVG Version: 6.00 Build 0)  -->
<svg version="1.1" id="Layer_1" focusable="false" xmlns="http://www.w3.org/2000/svg" xmlns:xlink="http://www.w3.org/1999/xlink"
	 x="0px" y="0px" viewBox="0 0 512 512" style="enable-background:new 0 0 512 512;" xml:space="preserve">
<style type="text/css">
	.st0{fill:#F8F9FA;}
</style>
<path class="st0" d="M228.2,238.8l37.9,47.8c0,0-7.3,44.8-33.5,65.7C206.4,373.2,116,367.2,116,367.2s1.7-10.1,4.8-24.3l41.4-49.1
	c1.7-2.1-0.4-5.1-2.9-4.2l-26.4,9.7c6.3-18.2,14.3-35,23.9-42.6C183,235.9,228.2,238.8,228.2,238.8L228.2,238.8z M394.5,157.6
	l-8.7-10.9c-2.4-3-6.8-3.5-9.8-1.1l-101.7,77.8l-14.9-18.8c-2.2-2.8-6.6-2.3-8.1,1l-11.1,23.9l37.9,47.8l25.7-5.4
	c3.5-0.7,5-4.9,2.8-7.7l-14.9-18.8l101.7-77.8C396.4,165,396.9,160.6,394.5,157.6L394.5,157.6z"/>
</svg>
