<svg xmlns="http://www.w3.org/2000/svg" viewBox="0 0 3050 50" width="3050" height="50"><path d="M25.1 13.6c-7.2 0-13 4.7-13 10.6 0 2.5 1.1 4.8 2.9 6.6-.6 2.6-2.8 4.8-2.8 4.9-.1.1-.1.3-.1.4.1.2.2.2.4.2 3.4 0 5.9-1.6 7.1-2.6 1.7.6 3.5 1 5.5 1 7.2 0 13-4.7 13-10.6 0-5.9-5.8-10.5-13-10.5zM75.1 13.6c-7.2 0-13 4.7-13 10.6 0 2.5 1.1 4.8 2.9 6.6-.6 2.6-2.8 4.8-2.8 4.9-.1.1-.1.3-.1.4.1.2.2.2.4.2 3.4 0 5.9-1.6 7.1-2.6 1.7.6 3.5 1 5.5 1 7.2 0 13-4.7 13-10.6 0-5.9-5.8-10.5-13-10.5zM125.1 13.6c-7.2 0-13 4.7-13 10.6 0 2.5 1.1 4.8 2.9 6.6-.6 2.6-2.8 4.8-2.8 4.9-.1.1-.1.3-.1.4.1.2.2.2.4.2 3.4 0 5.9-1.6 7.1-2.6 1.7.6 3.5 1 5.5 1 7.2 0 13-4.7 13-10.6 0-5.9-5.8-10.5-13-10.5zM175.1 13.6c-7.2 0-13 4.7-13 10.6 0 2.5 1.1 4.8 2.9 6.6-.6 2.6-2.8 4.8-2.8 4.9-.1.1-.1.3-.1.4.1.2.2.2.4.2 3.4 0 5.9-1.6 7.1-2.6 1.7.6 3.5 1 5.5 1 7.2 0 13-4.7 13-10.6 0-5.9-5.8-10.5-13-10.5z" fill="#f8f9fa"/><path d="M167.8 21.1c-.3 0-.5-.2-.5-.5s.2-.5.5-.5.5.2.5.5-.2.5-.5.5z" fill="#7f7f7f"/><path d="M225.1 13.6c-7.2 0-13 4.7-13 10.6 0 2.5 1.1 4.8 2.9 6.6-.6 2.6-2.8 4.8-2.8 4.9-.1.1-.1.3-.1.4.1.2.2.2.4.2 3.4 0 5.9-1.6 7.1-2.6 1.7.6 3.5 1 5.5 1 7.2 0 13-4.7 13-10.6 0-5.9-5.8-10.5-13-10.5z" fill="#f8f9fa"/><path d="M217.8 21.16c-.334 0-.56-.226-.56-.56 0-.334.226-.56.56-.56.334 0 .56.226.56.56 0 .334-.234.56-.56.56z" fill="#7f7f7f"/><path d="M275.1 13.6c-7.2 0-13 4.7-13 10.6 0 2.5 1.1 4.8 2.9 6.6-.6 2.6-2.8 4.8-2.8 4.9-.1.1-.1.3-.1.4.1.2.2.2.4.2 3.4 0 5.9-1.6 7.1-2.6 1.7.6 3.5 1 5.5 1 7.2 0 13-4.7 13-10.6 0-5.9-5.8-10.5-13-10.5z" fill="#f8f9fa"/><path d="M267.8 21.42c-.483 0-.82-.337-.82-.82 0-.483.337-.82.82-.82.483 0 .82.337.82.82 0 .483-.383.82-.82.82z" fill="#7f7f7f"/><path d="M325.1 13.6c-7.2 0-13 4.7-13 10.6 0 2.5 1.1 4.8 2.9 6.6-.6 2.6-2.8 4.8-2.8 4.9-.1.1-.1.3-.1.4.1.2.2.2.4.2 3.4 0 5.9-1.6 7.1-2.6 1.7.6 3.5 1 5.5 1 7.2 0 13-4.7 13-10.6 0-5.9-5.8-10.5-13-10.5z" fill="#f8f9fa"/><path d="M317.8 21.643c-.61 0-1.043-.433-1.043-1.043 0-.61.433-1.043 1.043-1.043.61 0 1.043.433 1.043 1.043 0 .61-.51 1.043-1.043 1.043z" fill="#7f7f7f"/><path d="M375.1 13.6c-7.2 0-13 4.7-13 10.6 0 2.5 1.1 4.8 2.9 6.6-.6 2.6-2.8 4.8-2.8 4.9-.1.1-.1.3-.1.4.1.2.2.2.4.2 3.4 0 5.9-1.6 7.1-2.6 1.7.6 3.5 1 5.5 1 7.2 0 13-4.7 13-10.6 0-5.9-5.8-10.5-13-10.5z" fill="#f8f9fa"/><path d="M367.8 21.745c-.668 0-1.145-.477-1.145-1.145s.477-1.145 1.145-1.145 1.145.477 1.145 1.145-.569 1.145-1.145 1.145z" fill="#7f7f7f"/><path d="M425.1 13.6c-7.2 0-13 4.7-13 10.6 0 2.5 1.1 4.8 2.9 6.6-.6 2.6-2.8 4.8-2.8 4.9-.1.1-.1.3-.1.4.1.2.2.2.4.2 3.4 0 5.9-1.6 7.1-2.6 1.7.6 3.5 1 5.5 1 7.2 0 13-4.7 13-10.6 0-5.9-5.8-10.5-13-10.5z" fill="#f8f9fa"/><path d="M417.8 21.788c-.693 0-1.188-.495-1.188-1.188s.495-1.188 1.188-1.188 1.188.495 1.188 1.188-.593 1.188-1.188 1.188z" fill="#7f7f7f"/><path d="M475.1 13.6c-7.2 0-13 4.7-13 10.6 0 2.5 1.1 4.8 2.9 6.6-.6 2.6-2.8 4.8-2.8 4.9-.1.1-.1.3-.1.4.1.2.2.2.4.2 3.4 0 5.9-1.6 7.1-2.6 1.7.6 3.5 1 5.5 1 7.2 0 13-4.7 13-10.6 0-5.9-5.8-10.5-13-10.5z" fill="#f8f9fa"/><path d="M467.8 21.8c-.7 0-1.2-.5-1.2-1.2s.5-1.2 1.2-1.2 1.2.5 1.2 1.2-.6 1.2-1.2 1.2zM467.8 25.5c-.3 0-.5-.2-.5-.5s.2-.5.5-.5.5.2.5.5-.2.5-.5.5z" fill="#7f7f7f"/><path d="M525.1 13.6c-7.2 0-13 4.7-13 10.6 0 2.5 1.1 4.8 2.9 6.6-.6 2.6-2.8 4.8-2.8 4.9-.1.1-.1.3-.1.4.1.2.2.2.4.2 3.4 0 5.9-1.6 7.1-2.6 1.7.6 3.5 1 5.5 1 7.2 0 13-4.7 13-10.6 0-5.9-5.8-10.5-13-10.5z" fill="#f8f9fa"/><path d="M518.94 21.8h-1.14c-.7 0-1.2-.5-1.2-1.2s.5-1.2 1.2-1.2h1.149c.7 0 1.2.5 1.2 1.2-.009.7-.6 1.2-1.209 1.2zM517.8 25.56c-.334 0-.56-.226-.56-.56 0-.334.226-.56.56-.56.334 0 .56.226.56.56 0 .334-.234.56-.56.56z" fill="#7f7f7f"/><path d="M575.1 13.6c-7.2 0-13 4.7-13 10.6 0 2.5 1.1 4.8 2.9 6.6-.6 2.6-2.8 4.8-2.8 4.9-.1.1-.1.3-.1.4.1.2.2.2.4.2 3.4 0 5.9-1.6 7.1-2.6 1.7.6 3.5 1 5.5 1 7.2 0 13-4.7 13-10.6 0-5.9-5.8-10.5-13-10.5z" fill="#f8f9fa"/><path d="M573.927 21.8H567.8c-.7 0-1.2-.5-1.2-1.2s.5-1.2 1.2-1.2h6.173c.7 0 1.2.5 1.2 1.2-.046.7-.6 1.2-1.246 1.2zM567.8 25.82c-.483 0-.82-.337-.82-.82 0-.483.337-.82.82-.82.483 0 .82.337.82.82 0 .483-.383.82-.82.82z" fill="#7f7f7f"/><path d="M625.1 13.6c-7.2 0-13 4.7-13 10.6 0 2.5 1.1 4.8 2.9 6.6-.6 2.6-2.8 4.8-2.8 4.9-.1.1-.1.3-.1.4.1.2.2.2.4.2 3.4 0 5.9-1.6 7.1-2.6 1.7.6 3.5 1 5.5 1 7.2 0 13-4.7 13-10.6 0-5.9-5.8-10.5-13-10.5z" fill="#f8f9fa"/><path d="M628.193 21.8H617.8c-.7 0-1.2-.5-1.2-1.2s.5-1.2 1.2-1.2h10.47c.7 0 1.2.5 1.2 1.2-.077.7-.6 1.2-1.277 1.2zM617.8 26.043c-.61 0-1.043-.433-1.043-1.043 0-.61.433-1.043 1.043-1.043.61 0 1.043.433 1.043 1.043 0 .61-.51 1.043-1.043 1.043z" fill="#7f7f7f"/><path d="M675.1 13.6c-7.2 0-13 4.7-13 10.6 0 2.5 1.1 4.8 2.9 6.6-.6 2.6-2.8 4.8-2.8 4.9-.1.1-.1.3-.1.4.1.2.2.2.4.2 3.4 0 5.9-1.6 7.1-2.6 1.7.6 3.5 1 5.5 1 7.2 0 13-4.7 13-10.6 0-5.9-5.8-10.5-13-10.5z" fill="#f8f9fa"/><path d="M680.138 21.8H667.8c-.7 0-1.2-.5-1.2-1.2s.5-1.2 1.2-1.2h12.43c.7 0 1.2.5 1.2 1.2-.092.7-.6 1.2-1.292 1.2zM667.8 26.145c-.668 0-1.145-.477-1.145-1.145s.477-1.145 1.145-1.145 1.145.477 1.145 1.145-.569 1.145-1.145 1.145z" fill="#7f7f7f"/><path d="M725.1 13.6c-7.2 0-13 4.7-13 10.6 0 2.5 1.1 4.8 2.9 6.6-.6 2.6-2.8 4.8-2.8 4.9-.1.1-.1.3-.1.4.1.2.2.2.4.2 3.4 0 5.9-1.6 7.1-2.6 1.7.6 3.5 1 5.5 1 7.2 0 13-4.7 13-10.6 0-5.9-5.8-10.5-13-10.5z" fill="#f8f9fa"/><path d="M730.977 21.8H717.8c-.7 0-1.2-.5-1.2-1.2s.5-1.2 1.2-1.2h13.275c.7 0 1.2.5 1.2 1.2-.098.7-.6 1.2-1.298 1.2zM717.8 26.188c-.693 0-1.188-.495-1.188-1.188s.495-1.188 1.188-1.188 1.188.495 1.188 1.188-.593 1.188-1.188 1.188z" fill="#7f7f7f"/><path d="M775.1 13.6c-7.2 0-13 4.7-13 10.6 0 2.5 1.1 4.8 2.9 6.6-.6 2.6-2.8 4.8-2.8 4.9-.1.1-.1.3-.1.4.1.2.2.2.4.2 3.4 0 5.9-1.6 7.1-2.6 1.7.6 3.5 1 5.5 1 7.2 0 13-4.7 13-10.6 0-5.9-5.8-10.5-13-10.5z" fill="#f8f9fa"/><path d="M781.2 21.8h-13.4c-.7 0-1.2-.5-1.2-1.2s.5-1.2 1.2-1.2h13.5c.7 0 1.2.5 1.2 1.2-.1.7-.6 1.2-1.3 1.2zM767.8 26.2c-.7 0-1.2-.5-1.2-1.2s.5-1.2 1.2-1.2 1.2.5 1.2 1.2-.6 1.2-1.2 1.2zM767.8 29.9c-.3 0-.5-.2-.5-.5s.2-.5.5-.5.5.2.5.5c0 .2-.2.5-.5.5z" fill="#7f7f7f"/><path d="M825.1 13.6c-7.2 0-13 4.7-13 10.6 0 2.5 1.1 4.8 2.9 6.6-.6 2.6-2.8 4.8-2.8 4.9-.1.1-.1.3-.1.4.1.2.2.2.4.2 3.4 0 5.9-1.6 7.1-2.6 1.7.6 3.5 1 5.5 1 7.2 0 13-4.7 13-10.6 0-5.9-5.8-10.5-13-10.5z" fill="#f8f9fa"/><path d="M831.2 21.8h-13.4c-.7 0-1.2-.5-1.2-1.2s.5-1.2 1.2-1.2h13.5c.7 0 1.2.5 1.2 1.2-.1.7-.6 1.2-1.3 1.2zM818.94 26.2h-1.14c-.7 0-1.2-.5-1.2-1.2s.5-1.2 1.2-1.2h1.149c.7 0 1.2.5 1.2 1.2-.009.7-.6 1.2-1.209 1.2zM817.8 29.96c-.334 0-.56-.226-.56-.56 0-.334.226-.56.56-.56.334 0 .56.226.56.56 0 .234-.234.56-.56.56z" fill="#7f7f7f"/><path d="M875.1 13.6c-7.2 0-13 4.7-13 10.6 0 2.5 1.1 4.8 2.9 6.6-.6 2.6-2.8 4.8-2.8 4.9-.1.1-.1.3-.1.4.1.2.2.2.4.2 3.4 0 5.9-1.6 7.1-2.6 1.7.6 3.5 1 5.5 1 7.2 0 13-4.7 13-10.6 0-5.9-5.8-10.5-13-10.5z" fill="#f8f9fa"/><path d="M881.2 21.8h-13.4c-.7 0-1.2-.5-1.2-1.2s.5-1.2 1.2-1.2h13.5c.7 0 1.2.5 1.2 1.2-.1.7-.6 1.2-1.3 1.2zM873.927 26.2H867.8c-.7 0-1.2-.5-1.2-1.2s.5-1.2 1.2-1.2h6.173c.7 0 1.2.5 1.2 1.2-.046.7-.6 1.2-1.246 1.2zM867.8 30.22c-.483 0-.82-.337-.82-.82 0-.483.337-.82.82-.82.483 0 .82.337.82.82 0 .383-.383.82-.82.82z" fill="#7f7f7f"/><path d="M925.1 13.6c-7.2 0-13 4.7-13 10.6 0 2.5 1.1 4.8 2.9 6.6-.6 2.6-2.8 4.8-2.8 4.9-.1.1-.1.3-.1.4.1.2.2.2.4.2 3.4 0 5.9-1.6 7.1-2.6 1.7.6 3.5 1 5.5 1 7.2 0 13-4.7 13-10.6 0-5.9-5.8-10.5-13-10.5z" fill="#f8f9fa"/><path d="M931.2 21.8h-13.4c-.7 0-1.2-.5-1.2-1.2s.5-1.2 1.2-1.2h13.5c.7 0 1.2.5 1.2 1.2-.1.7-.6 1.2-1.3 1.2zM928.193 26.2H917.8c-.7 0-1.2-.5-1.2-1.2s.5-1.2 1.2-1.2h10.47c.7 0 1.2.5 1.2 1.2-.077.7-.6 1.2-1.277 1.2zM917.8 30.443c-.61 0-1.043-.433-1.043-1.043 0-.61.433-1.043 1.043-1.043.61 0 1.043.433 1.043 1.043 0 .51-.51 1.043-1.043 1.043z" fill="#7f7f7f"/><path d="M975.1 13.6c-7.2 0-13 4.7-13 10.6 0 2.5 1.1 4.8 2.9 6.6-.6 2.6-2.8 4.8-2.8 4.9-.1.1-.1.3-.1.4.1.2.2.2.4.2 3.4 0 5.9-1.6 7.1-2.6 1.7.6 3.5 1 5.5 1 7.2 0 13-4.7 13-10.6 0-5.9-5.8-10.5-13-10.5z" fill="#f8f9fa"/><path d="M981.2 21.8h-13.4c-.7 0-1.2-.5-1.2-1.2s.5-1.2 1.2-1.2h13.5c.7 0 1.2.5 1.2 1.2-.1.7-.6 1.2-1.3 1.2zM980.138 26.2H967.8c-.7 0-1.2-.5-1.2-1.2s.5-1.2 1.2-1.2h12.43c.7 0 1.2.5 1.2 1.2-.092.7-.6 1.2-1.292 1.2zM967.8 30.545c-.668 0-1.145-.477-1.145-1.145s.477-1.145 1.145-1.145 1.145.477 1.145 1.145c0 .568-.569 1.145-1.145 1.145z" fill="#7f7f7f"/><path d="M1025.1 13.6c-7.2 0-13 4.7-13 10.6 0 2.5 1.1 4.8 2.9 6.6-.6 2.6-2.8 4.8-2.8 4.9-.1.1-.1.3-.1.4.1.2.2.2.4.2 3.4 0 5.9-1.6 7.1-2.6 1.7.6 3.5 1 5.5 1 7.2 0 13-4.7 13-10.6 0-5.9-5.8-10.5-13-10.5z" fill="#f8f9fa"/><path d="M1031.2 21.8h-13.4c-.7 0-1.2-.5-1.2-1.2s.5-1.2 1.2-1.2h13.5c.7 0 1.2.5 1.2 1.2-.1.7-.6 1.2-1.3 1.2zM1030.977 26.2H1017.8c-.7 0-1.2-.5-1.2-1.2s.5-1.2 1.2-1.2h13.275c.7 0 1.2.5 1.2 1.2-.098.7-.6 1.2-1.298 1.2zM1017.8 30.588c-.693 0-1.188-.495-1.188-1.188s.495-1.188 1.188-1.188 1.188.495 1.188 1.188c0 .593-.593 1.188-1.188 1.188z" fill="#7f7f7f"/><path d="M1075.1 13.6c-7.2 0-13 4.7-13 10.6 0 2.5 1.1 4.8 2.9 6.6-.6 2.6-2.8 4.8-2.8 4.9-.1.1-.1.3-.1.4.1.2.2.2.4.2 3.4 0 5.9-1.6 7.1-2.6 1.7.6 3.5 1 5.5 1 7.2 0 13-4.7 13-10.6 0-5.9-5.8-10.5-13-10.5z" fill="#f8f9fa"/><path d="M1081.2 21.8h-13.4c-.7 0-1.2-.5-1.2-1.2s.5-1.2 1.2-1.2h13.5c.7 0 1.2.5 1.2 1.2-.1.7-.6 1.2-1.3 1.2zM1081.2 26.2h-13.4c-.7 0-1.2-.5-1.2-1.2s.5-1.2 1.2-1.2h13.5c.7 0 1.2.5 1.2 1.2-.1.7-.6 1.2-1.3 1.2zM1067.8 30.6c-.7 0-1.2-.5-1.2-1.2s.5-1.2 1.2-1.2 1.2.5 1.2 1.2c0 .6-.6 1.2-1.2 1.2z" fill="#7f7f7f"/><g><path d="M1125.1 13.6c-7.2 0-13 4.7-13 10.6 0 2.5 1.1 4.8 2.9 6.6-.6 2.6-2.8 4.8-2.8 4.9-.1.1-.1.3-.1.4.1.2.2.2.4.2 3.4 0 5.9-1.6 7.1-2.6 1.7.6 3.5 1 5.5 1 7.2 0 13-4.7 13-10.6 0-5.9-5.8-10.5-13-10.5z" fill="#f8f9fa"/><path d="M1131.2 21.8h-13.4c-.7 0-1.2-.5-1.2-1.2s.5-1.2 1.2-1.2h13.5c.7 0 1.2.5 1.2 1.2-.1.7-.6 1.2-1.3 1.2zM1131.2 26.2h-13.4c-.7 0-1.2-.5-1.2-1.2s.5-1.2 1.2-1.2h13.5c.7 0 1.2.5 1.2 1.2-.1.7-.6 1.2-1.3 1.2zM1118.515 30.6h-.715c-.7 0-1.2-.5-1.2-1.2s.5-1.2 1.2-1.2h.715c.7 0 1.2.5 1.2 1.2 0 .6-.592 1.2-1.2 1.2z" fill="#7f7f7f"/></g><g><path d="M1175.1 13.6c-7.2 0-13 4.7-13 10.6 0 2.5 1.1 4.8 2.9 6.6-.6 2.6-2.8 4.8-2.8 4.9-.1.1-.1.3-.1.4.1.2.2.2.4.2 3.4 0 5.9-1.6 7.1-2.6 1.7.6 3.5 1 5.5 1 7.2 0 13-4.7 13-10.6 0-5.9-5.8-10.5-13-10.5z" fill="#f8f9fa"/><path d="M1181.2 21.8h-13.4c-.7 0-1.2-.5-1.2-1.2s.5-1.2 1.2-1.2h13.5c.7 0 1.2.5 1.2 1.2-.1.7-.6 1.2-1.3 1.2zM1181.2 26.2h-13.4c-.7 0-1.2-.5-1.2-1.2s.5-1.2 1.2-1.2h13.5c.7 0 1.2.5 1.2 1.2-.1.7-.6 1.2-1.3 1.2zM1171.641 30.6h-3.841c-.7 0-1.2-.5-1.2-1.2s.5-1.2 1.2-1.2h3.841c.7 0 1.2.5 1.2 1.2 0 .6-.554 1.2-1.2 1.2z" fill="#7f7f7f"/></g><g><path d="M1225.1 13.6c-7.2 0-13 4.7-13 10.6 0 2.5 1.1 4.8 2.9 6.6-.6 2.6-2.8 4.8-2.8 4.9-.1.1-.1.3-.1.4.1.2.2.2.4.2 3.4 0 5.9-1.6 7.1-2.6 1.7.6 3.5 1 5.5 1 7.2 0 13-4.7 13-10.6 0-5.9-5.8-10.5-13-10.5z" fill="#f8f9fa"/><path d="M1231.2 21.8h-13.4c-.7 0-1.2-.5-1.2-1.2s.5-1.2 1.2-1.2h13.5c.7 0 1.2.5 1.2 1.2-.1.7-.6 1.2-1.3 1.2zM1231.2 26.2h-13.4c-.7 0-1.2-.5-1.2-1.2s.5-1.2 1.2-1.2h13.5c.7 0 1.2.5 1.2 1.2-.1.7-.6 1.2-1.3 1.2zM1224.315 30.6h-6.515c-.7 0-1.2-.5-1.2-1.2s.5-1.2 1.2-1.2h6.515c.7 0 1.2.5 1.2 1.2 0 .6-.523 1.2-1.2 1.2z" fill="#7f7f7f"/></g><g><path d="M1275.1 13.6c-7.2 0-13 4.7-13 10.6 0 2.5 1.1 4.8 2.9 6.6-.6 2.6-2.8 4.8-2.8 4.9-.1.1-.1.3-.1.4.1.2.2.2.4.2 3.4 0 5.9-1.6 7.1-2.6 1.7.6 3.5 1 5.5 1 7.2 0 13-4.7 13-10.6 0-5.9-5.8-10.5-13-10.5z" fill="#f8f9fa"/><path d="M1281.2 21.8h-13.4c-.7 0-1.2-.5-1.2-1.2s.5-1.2 1.2-1.2h13.5c.7 0 1.2.5 1.2 1.2-.1.7-.6 1.2-1.3 1.2zM1281.2 26.2h-13.4c-.7 0-1.2-.5-1.2-1.2s.5-1.2 1.2-1.2h13.5c.7 0 1.2.5 1.2 1.2-.1.7-.6 1.2-1.3 1.2zM1275.535 30.6h-7.735c-.7 0-1.2-.5-1.2-1.2s.5-1.2 1.2-1.2h7.735c.7 0 1.2.5 1.2 1.2 0 .6-.508 1.2-1.2 1.2z" fill="#7f7f7f"/></g><g><path d="M1325.1 13.6c-7.2 0-13 4.7-13 10.6 0 2.5 1.1 4.8 2.9 6.6-.6 2.6-2.8 4.8-2.8 4.9-.1.1-.1.3-.1.4.1.2.2.2.4.2 3.4 0 5.9-1.6 7.1-2.6 1.7.6 3.5 1 5.5 1 7.2 0 13-4.7 13-10.6 0-5.9-5.8-10.5-13-10.5z" fill="#f8f9fa"/><path d="M1331.2 21.8h-13.4c-.7 0-1.2-.5-1.2-1.2s.5-1.2 1.2-1.2h13.5c.7 0 1.2.5 1.2 1.2-.1.7-.6 1.2-1.3 1.2zM1331.2 26.2h-13.4c-.7 0-1.2-.5-1.2-1.2s.5-1.2 1.2-1.2h13.5c.7 0 1.2.5 1.2 1.2-.1.7-.6 1.2-1.3 1.2zM1326.06 30.6h-8.26c-.7 0-1.2-.5-1.2-1.2s.5-1.2 1.2-1.2h8.26c.7 0 1.2.5 1.2 1.2 0 .6-.501 1.2-1.2 1.2z" fill="#7f7f7f"/></g><g><path d="M1375.1 13.6c-7.2 0-13 4.7-13 10.6 0 2.5 1.1 4.8 2.9 6.6-.6 2.6-2.8 4.8-2.8 4.9-.1.1-.1.3-.1.4.1.2.2.2.4.2 3.4 0 5.9-1.6 7.1-2.6 1.7.6 3.5 1 5.5 1 7.2 0 13-4.7 13-10.6 0-5.9-5.8-10.5-13-10.5z" fill="#f8f9fa"/><path d="M1381.2 21.8h-13.4c-.7 0-1.2-.5-1.2-1.2s.5-1.2 1.2-1.2h13.5c.7 0 1.2.5 1.2 1.2-.1.7-.6 1.2-1.3 1.2zM1381.2 26.2h-13.4c-.7 0-1.2-.5-1.2-1.2s.5-1.2 1.2-1.2h13.5c.7 0 1.2.5 1.2 1.2-.1.7-.6 1.2-1.3 1.2zM1376.2 30.6h-8.4c-.7 0-1.2-.5-1.2-1.2s.5-1.2 1.2-1.2h8.4c.7 0 1.2.5 1.2 1.2 0 .6-.5 1.2-1.2 1.2z" fill="#7f7f7f"/></g><g><path d="M1425.1 13.6c-7.2 0-13 4.7-13 10.6 0 2.5 1.1 4.8 2.9 6.6-.6 2.6-2.8 4.8-2.8 4.9-.1.1-.1.3-.1.4.1.2.2.2.4.2 3.4 0 5.9-1.6 7.1-2.6 1.7.6 3.5 1 5.5 1 7.2 0 13-4.7 13-10.6 0-5.9-5.8-10.5-13-10.5z" fill="#f8f9fa"/><path d="M1431.2 21.8h-13.4c-.7 0-1.2-.5-1.2-1.2s.5-1.2 1.2-1.2h13.5c.7 0 1.2.5 1.2 1.2-.1.7-.6 1.2-1.3 1.2zM1431.2 26.2h-13.4c-.7 0-1.2-.5-1.2-1.2s.5-1.2 1.2-1.2h13.5c.7 0 1.2.5 1.2 1.2-.1.7-.6 1.2-1.3 1.2zM1426.2 30.6h-8.4c-.7 0-1.2-.5-1.2-1.2s.5-1.2 1.2-1.2h8.4c.7 0 1.2.5 1.2 1.2 0 .6-.5 1.2-1.2 1.2z" fill="#7f7f7f"/></g><g><path d="M1475.1 13.6c-7.2 0-13 4.7-13 10.6 0 2.5 1.1 4.8 2.9 6.6-.6 2.6-2.8 4.8-2.8 4.9-.1.1-.1.3-.1.4.1.2.2.2.4.2 3.4 0 5.9-1.6 7.1-2.6 1.7.6 3.5 1 5.5 1 7.2 0 13-4.7 13-10.6 0-5.9-5.8-10.5-13-10.5z" fill="#f8f9fa"/><path d="M1481.2 21.8h-13.4c-.7 0-1.2-.5-1.2-1.2s.5-1.2 1.2-1.2h13.5c.7 0 1.2.5 1.2 1.2-.1.7-.6 1.2-1.3 1.2zM1481.2 26.2h-13.4c-.7 0-1.2-.5-1.2-1.2s.5-1.2 1.2-1.2h13.5c.7 0 1.2.5 1.2 1.2-.1.7-.6 1.2-1.3 1.2zM1476.2 30.6h-8.4c-.7 0-1.2-.5-1.2-1.2s.5-1.2 1.2-1.2h8.4c.7 0 1.2.5 1.2 1.2 0 .6-.5 1.2-1.2 1.2z" fill="#7f7f7f"/></g><g><path d="M1525.1 13.6c-7.2 0-13 4.7-13 10.6 0 2.5 1.1 4.8 2.9 6.6-.6 2.6-2.8 4.8-2.8 4.9-.1.1-.1.3-.1.4.1.2.2.2.4.2 3.4 0 5.9-1.6 7.1-2.6 1.7.6 3.5 1 5.5 1 7.2 0 13-4.7 13-10.6 0-5.9-5.8-10.5-13-10.5z" fill="#f8f9fa"/><path d="M1531.2 21.8h-13.4c-.7 0-1.2-.5-1.2-1.2s.5-1.2 1.2-1.2h13.5c.7 0 1.2.5 1.2 1.2-.1.7-.6 1.2-1.3 1.2zM1531.2 26.2h-13.4c-.7 0-1.2-.5-1.2-1.2s.5-1.2 1.2-1.2h13.5c.7 0 1.2.5 1.2 1.2-.1.7-.6 1.2-1.3 1.2zM1526.2 30.6h-8.4c-.7 0-1.2-.5-1.2-1.2s.5-1.2 1.2-1.2h8.4c.7 0 1.2.5 1.2 1.2 0 .6-.5 1.2-1.2 1.2z" fill="#7f7f7f"/></g><g><path d="M1575.1 13.6c-7.2 0-13 4.7-13 10.6 0 2.5 1.1 4.8 2.9 6.6-.6 2.6-2.8 4.8-2.8 4.9-.1.1-.1.3-.1.4.1.2.2.2.4.2 3.4 0 5.9-1.6 7.1-2.6 1.7.6 3.5 1 5.5 1 7.2 0 13-4.7 13-10.6 0-5.9-5.8-10.5-13-10.5z" fill="#f8f9fa"/><path d="M1581.2 21.8h-13.4c-.7 0-1.2-.5-1.2-1.2s.5-1.2 1.2-1.2h13.5c.7 0 1.2.5 1.2 1.2-.1.7-.6 1.2-1.3 1.2zM1581.2 26.2h-13.4c-.7 0-1.2-.5-1.2-1.2s.5-1.2 1.2-1.2h13.5c.7 0 1.2.5 1.2 1.2-.1.7-.6 1.2-1.3 1.2zM1576.2 30.6h-8.4c-.7 0-1.2-.5-1.2-1.2s.5-1.2 1.2-1.2h8.4c.7 0 1.2.5 1.2 1.2 0 .6-.5 1.2-1.2 1.2z" fill="#7f7f7f"/></g><g><path d="M1625.1 13.6c-7.2 0-13 4.7-13 10.6 0 2.5 1.1 4.8 2.9 6.6-.6 2.6-2.8 4.8-2.8 4.9-.1.1-.1.3-.1.4.1.2.2.2.4.2 3.4 0 5.9-1.6 7.1-2.6 1.7.6 3.5 1 5.5 1 7.2 0 13-4.7 13-10.6 0-5.9-5.8-10.5-13-10.5z" fill="#f8f9fa"/><path d="M1631.2 21.8h-13.4c-.7 0-1.2-.5-1.2-1.2s.5-1.2 1.2-1.2h13.5c.7 0 1.2.5 1.2 1.2-.1.7-.6 1.2-1.3 1.2zM1631.2 26.2h-13.4c-.7 0-1.2-.5-1.2-1.2s.5-1.2 1.2-1.2h13.5c.7 0 1.2.5 1.2 1.2-.1.7-.6 1.2-1.3 1.2zM1626.2 30.6h-8.4c-.7 0-1.2-.5-1.2-1.2s.5-1.2 1.2-1.2h8.4c.7 0 1.2.5 1.2 1.2 0 .6-.5 1.2-1.2 1.2z" fill="#7f7f7f"/></g><g><path d="M1675.1 13.6c-7.2 0-13 4.7-13 10.6 0 2.5 1.1 4.8 2.9 6.6-.6 2.6-2.8 4.8-2.8 4.9-.1.1-.1.3-.1.4.1.2.2.2.4.2 3.4 0 5.9-1.6 7.1-2.6 1.7.6 3.5 1 5.5 1 7.2 0 13-4.7 13-10.6 0-5.9-5.8-10.5-13-10.5z" fill="#f8f9fa"/><path d="M1681.2 21.8h-13.4c-.7 0-1.2-.5-1.2-1.2s.5-1.2 1.2-1.2h13.5c.7 0 1.2.5 1.2 1.2-.1.7-.6 1.2-1.3 1.2zM1681.2 26.2h-13.4c-.7 0-1.2-.5-1.2-1.2s.5-1.2 1.2-1.2h13.5c.7 0 1.2.5 1.2 1.2-.1.7-.6 1.2-1.3 1.2zM1676.2 30.6h-8.4c-.7 0-1.2-.5-1.2-1.2s.5-1.2 1.2-1.2h8.4c.7 0 1.2.5 1.2 1.2 0 .6-.5 1.2-1.2 1.2z" fill="#7f7f7f"/></g><g><path d="M1725.1 13.6c-7.2 0-13 4.7-13 10.6 0 2.5 1.1 4.8 2.9 6.6-.6 2.6-2.8 4.8-2.8 4.9-.1.1-.1.3-.1.4.1.2.2.2.4.2 3.4 0 5.9-1.6 7.1-2.6 1.7.6 3.5 1 5.5 1 7.2 0 13-4.7 13-10.6 0-5.9-5.8-10.5-13-10.5z" fill="#f8f9fa"/><path d="M1731.165 21.819h-13.33c-.698 0-1.196-.498-1.196-1.196s.498-1.196 1.196-1.196h13.43c.698 0 1.196.498 1.196 1.196-.1.698-.598 1.196-1.296 1.196zM1731.165 26.196h-13.33c-.698 0-1.196-.498-1.196-1.196s.498-1.196 1.196-1.196h13.43c.698 0 1.196.498 1.196 1.196-.1.698-.598 1.196-1.296 1.196zM1726.191 30.573h-8.356c-.698 0-1.196-.498-1.196-1.196s.498-1.196 1.196-1.196h8.356c.698 0 1.197.498 1.197 1.196 0 .599-.499 1.196-1.197 1.196z" fill="#7f7f7f"/></g><g><path d="M1775.1 13.6c-7.2 0-13 4.7-13 10.6 0 2.5 1.1 4.8 2.9 6.6-.6 2.6-2.8 4.8-2.8 4.9-.1.1-.1.3-.1.4.1.2.2.2.4.2 3.4 0 5.9-1.6 7.1-2.6 1.7.6 3.5 1 5.5 1 7.2 0 13-4.7 13-10.6 0-5.9-5.8-10.5-13-10.5z" fill="#f8f9fa"/><path d="M1781.045 21.886h-13.09c-.69 0-1.183-.493-1.183-1.184s.493-1.184 1.183-1.184h13.187c.691 0 1.184.493 1.184 1.184-.098.691-.591 1.184-1.281 1.184zM1781.045 26.184h-13.09c-.69 0-1.183-.493-1.183-1.184s.493-1.184 1.183-1.184h13.187c.691 0 1.184.493 1.184 1.184-.098.691-.591 1.184-1.281 1.184zM1776.161 30.482h-8.206c-.69 0-1.183-.493-1.183-1.184s.493-1.184 1.183-1.184h8.206c.69 0 1.183.493 1.183 1.184 0 .593-.493 1.184-1.183 1.184z" fill="#7f7f7f"/></g><g><path d="M1825.1 13.6c-7.2 0-13 4.7-13 10.6 0 2.5 1.1 4.8 2.9 6.6-.6 2.6-2.8 4.8-2.8 4.9-.1.1-.1.3-.1.4.1.2.2.2.4.2 3.4 0 5.9-1.6 7.1-2.6 1.7.6 3.5 1 5.5 1 7.2 0 13-4.7 13-10.6 0-5.9-5.8-10.5-13-10.5z" fill="#f8f9fa"/><path d="M1830.806 22.017h-12.612c-.677 0-1.159-.482-1.159-1.159 0-.676.482-1.158 1.159-1.158h12.707c.676 0 1.158.482 1.158 1.158-.094.677-.576 1.159-1.253 1.159zM1830.806 26.159h-12.612c-.677 0-1.159-.482-1.159-1.159s.482-1.159 1.159-1.159h12.707c.676 0 1.158.482 1.158 1.159-.094.677-.576 1.159-1.253 1.159zM1826.1 30.3h-7.906c-.677 0-1.159-.482-1.159-1.158 0-.677.482-1.159 1.159-1.159h7.906c.677 0 1.159.482 1.159 1.159 0 .582-.482 1.158-1.159 1.158z" fill="#7f7f7f"/></g><g><path d="M1875.1 13.6c-7.2 0-13 4.7-13 10.6 0 2.5 1.1 4.8 2.9 6.6-.6 2.6-2.8 4.8-2.8 4.9-.1.1-.1.3-.1.4.1.2.2.2.4.2 3.4 0 5.9-1.6 7.1-2.6 1.7.6 3.5 1 5.5 1 7.2 0 13-4.7 13-10.6 0-5.9-5.8-10.5-13-10.5z" fill="#f8f9fa"/><path d="M1880.406 22.238h-11.812c-.653 0-1.117-.464-1.117-1.117 0-.652.464-1.117 1.117-1.117h11.901c.652 0 1.117.465 1.117 1.117-.089.653-.553 1.117-1.206 1.117zM1880.406 26.117h-11.812c-.653 0-1.117-.464-1.117-1.117s.464-1.117 1.117-1.117h11.901c.652 0 1.117.464 1.117 1.117-.089.653-.553 1.117-1.206 1.117zM1875.999 29.996h-7.405c-.653 0-1.117-.465-1.117-1.117 0-.653.464-1.117 1.117-1.117h7.405c.652 0 1.117.464 1.117 1.117 0 .564-.465 1.117-1.117 1.117z" fill="#7f7f7f"/></g><g><path d="M1925.1 13.6c-7.2 0-13 4.7-13 10.6 0 2.5 1.1 4.8 2.9 6.6-.6 2.6-2.8 4.8-2.8 4.9-.1.1-.1.3-.1.4.1.2.2.2.4.2 3.4 0 5.9-1.6 7.1-2.6 1.7.6 3.5 1 5.5 1 7.2 0 13-4.7 13-10.6 0-5.9-5.8-10.5-13-10.5z" fill="#f8f9fa"/><path d="M1929.8 22.573h-10.6c-.616 0-1.054-.437-1.054-1.053 0-.617.438-1.054 1.054-1.054h10.679c.616 0 1.054.437 1.054 1.054-.079.616-.517 1.053-1.133 1.053zM1929.8 26.054h-10.6c-.616 0-1.054-.438-1.054-1.054 0-.616.438-1.054 1.054-1.054h10.679c.616 0 1.054.438 1.054 1.054-.079.616-.517 1.054-1.133 1.054zM1925.845 29.534h-6.645c-.616 0-1.054-.437-1.054-1.054 0-.616.438-1.053 1.054-1.053h6.645c.616 0 1.053.437 1.053 1.053 0 .538-.437 1.054-1.053 1.054z" fill="#7f7f7f"/></g><g><path d="M1975.1 13.6c-7.2 0-13 4.7-13 10.6 0 2.5 1.1 4.8 2.9 6.6-.6 2.6-2.8 4.8-2.8 4.9-.1.1-.1.3-.1.4.1.2.2.2.4.2 3.4 0 5.9-1.6 7.1-2.6 1.7.6 3.5 1 5.5 1 7.2 0 13-4.7 13-10.6 0-5.9-5.8-10.5-13-10.5z" fill="#f8f9fa"/><path d="M1979 23.015h-9c-.568 0-.97-.401-.97-.97s.402-.97.97-.97h9.067c.568 0 .97.401.97.97-.067.569-.469.97-1.037.97zM1979 25.97h-9c-.568 0-.97-.401-.97-.97s.402-.97.97-.97h9.067c.568 0 .97.401.97.97-.067.569-.469.97-1.037.97zM1975.642 28.925H1970c-.568 0-.97-.401-.97-.97s.402-.97.97-.97h5.642c.568 0 .97.401.97.97 0 .501-.402.97-.97.97z" fill="#7f7f7f"/></g><g><path d="M2025.1 13.6c-7.2 0-13 4.7-13 10.6 0 2.5 1.1 4.8 2.9 6.6-.6 2.6-2.8 4.8-2.8 4.9-.1.1-.1.3-.1.4.1.2.2.2.4.2 3.4 0 5.9-1.6 7.1-2.6 1.7.6 3.5 1 5.5 1 7.2 0 13-4.7 13-10.6 0-5.9-5.8-10.5-13-10.5z" fill="#f8f9fa"/><path d="M2028.136 23.492h-7.272c-.518 0-.88-.363-.88-.88s.362-.88.88-.88h7.327c.517 0 .88.363.88.88-.055.517-.417.88-.935.88zM2028.136 25.88h-7.272c-.518 0-.88-.363-.88-.88s.362-.88.88-.88h7.327c.517 0 .88.363.88.88-.055.517-.417.88-.935.88zM2025.423 28.268h-4.559c-.518 0-.88-.363-.88-.88s.362-.88.88-.88h4.559c.517 0 .88.363.88.88 0 .463-.363.88-.88.88z" fill="#7f7f7f"/></g><g><path d="M2075.1 13.6c-7.2 0-13 4.7-13 10.6 0 2.5 1.1 4.8 2.9 6.6-.6 2.6-2.8 4.8-2.8 4.9-.1.1-.1.3-.1.4.1.2.2.2.4.2 3.4 0 5.9-1.6 7.1-2.6 1.7.6 3.5 1 5.5 1 7.2 0 13-4.7 13-10.6 0-5.9-5.8-10.5-13-10.5z" fill="#f8f9fa"/><path d="M2077.36 23.92h-5.72c-.471 0-.799-.328-.799-.798 0-.471.328-.799.799-.799h5.763c.471 0 .799.328.799.799-.043.47-.371.798-.842.798zM2077.36 25.799h-5.72c-.471 0-.799-.328-.799-.799 0-.471.328-.799.799-.799h5.763c.471 0 .799.328.799.799-.043.471-.371.799-.842.799zM2075.226 27.677h-3.586c-.471 0-.799-.328-.799-.799 0-.47.328-.798.799-.798h3.586c.471 0 .799.328.799.798 0 .428-.328.799-.799.799z" fill="#7f7f7f"/></g><g><path d="M2125.1 13.6c-7.2 0-13 4.7-13 10.6 0 2.5 1.1 4.8 2.9 6.6-.6 2.6-2.8 4.8-2.8 4.9-.1.1-.1.3-.1.4.1.2.2.2.4.2 3.4 0 5.9-1.6 7.1-2.6 1.7.6 3.5 1 5.5 1 7.2 0 13-4.7 13-10.6 0-5.9-5.8-10.5-13-10.5z" fill="#f8f9fa"/><path d="M2126.724 24.272h-4.448c-.433 0-.732-.3-.732-.733 0-.432.299-.732.732-.732h4.481c.433 0 .733.3.733.732-.034.433-.333.733-.766.733z" fill="#7f7f7f"/><path d="M2126.724 25.732h-4.448c-.433 0-.732-.299-.732-.732s.299-.732.732-.732h4.481c.433 0 .733.299.733.732-.034.433-.333.732-.766.732z" fill="#7f7f7f"/><path d="M2125.064 27.193h-2.788c-.433 0-.732-.3-.732-.732 0-.433.299-.733.732-.733h2.788c.433 0 .733.3.733.733 0 .399-.3.732-.733.732z" fill="#7f7f7f"/></g><g><path d="M2175.1 13.6c-7.2 0-13 4.7-13 10.6 0 2.5 1.1 4.8 2.9 6.6-.6 2.6-2.8 4.8-2.8 4.9-.1.1-.1.3-.1.4.1.2.2.2.4.2 3.4 0 5.9-1.6 7.1-2.6 1.7.6 3.5 1 5.5 1 7.2 0 13-4.7 13-10.6 0-5.9-5.8-10.5-13-10.5z" fill="#f8f9fa"/><path d="M2176.217 24.552h-3.434c-.402 0-.679-.277-.679-.68 0-.402.277-.679.679-.679h3.46c.402 0 .679.277.679.679-.026.403-.303.68-.705.68z" fill="#7f7f7f"/><path d="M2176.217 25.679h-3.434c-.402 0-.679-.276-.679-.679s.277-.679.679-.679h3.46c.402 0 .679.276.679.679-.026.403-.303.679-.705.679z" fill="#7f7f7f"/><path d="M2174.936 26.807h-2.153c-.402 0-.679-.277-.679-.679 0-.403.277-.68.679-.68h2.153c.402 0 .679.277.679.68 0 .376-.277.679-.679.679z" fill="#7f7f7f"/></g><g><path d="M2225.1 13.6c-7.2 0-13 4.7-13 10.6 0 2.5 1.1 4.8 2.9 6.6-.6 2.6-2.8 4.8-2.8 4.9-.1.1-.1.3-.1.4.1.2.2.2.4.2 3.4 0 5.9-1.6 7.1-2.6 1.7.6 3.5 1 5.5 1 7.2 0 13-4.7 13-10.6 0-5.9-5.8-10.5-13-10.5z" fill="#f8f9fa"/><path d="M2225.814 24.775h-2.628c-.378 0-.637-.259-.637-.638 0-.378.259-.637.637-.637h2.647c.379 0 .637.259.637.637-.019.379-.278.638-.656.638z" fill="#7f7f7f"/><path d="M2225.814 25.637h-2.628c-.378 0-.637-.259-.637-.637s.259-.637.637-.637h2.647c.379 0 .637.259.637.637-.019.378-.278.637-.656.637z" fill="#7f7f7f"/><path d="M2224.833 26.5h-1.647c-.378 0-.637-.259-.637-.637 0-.379.259-.638.637-.638h1.647c.379 0 .638.259.638.638 0 .358-.259.637-.638.637z" fill="#7f7f7f"/></g><g><path d="M2275.1 13.6c-7.2 0-13 4.7-13 10.6 0 2.5 1.1 4.8 2.9 6.6-.6 2.6-2.8 4.8-2.8 4.9-.1.1-.1.3-.1.4.1.2.2.2.4.2 3.4 0 5.9-1.6 7.1-2.6 1.7.6 3.5 1 5.5 1 7.2 0 13-4.7 13-10.6 0-5.9-5.8-10.5-13-10.5z" fill="#f8f9fa"/><path d="M2275.492 24.952h-1.984c-.359 0-.604-.244-.604-.603 0-.36.245-.604.604-.604h1.999c.359 0 .603.244.603.604-.014.359-.259.603-.618.603z" fill="#7f7f7f"/><path d="M2275.492 25.604h-1.984c-.359 0-.604-.245-.604-.604s.245-.604.604-.604h1.999c.359 0 .603.245.603.604-.014.359-.259.604-.618.604z" fill="#7f7f7f"/><path d="M2274.752 26.255h-1.244c-.359 0-.604-.244-.604-.604 0-.359.245-.603.604-.603h1.244c.359 0 .603.244.603.603 0 .345-.244.604-.603.604z" fill="#7f7f7f"/></g><g><path d="M2325.1 13.6c-7.2 0-13 4.7-13 10.6 0 2.5 1.1 4.8 2.9 6.6-.6 2.6-2.8 4.8-2.8 4.9-.1.1-.1.3-.1.4.1.2.2.2.4.2 3.4 0 5.9-1.6 7.1-2.6 1.7.6 3.5 1 5.5 1 7.2 0 13-4.7 13-10.6 0-5.9-5.8-10.5-13-10.5z" fill="#f8f9fa"/><path d="M2325.235 25.094h-1.47c-.344 0-.577-.233-.577-.577s.233-.577.577-.577h1.481c.344 0 .577.233.577.577-.011.344-.244.577-.588.577z" fill="#7f7f7f"/><path d="M2325.235 25.577h-1.47c-.344 0-.577-.233-.577-.577s.233-.577.577-.577h1.481c.344 0 .577.233.577.577-.011.344-.244.577-.588.577z" fill="#7f7f7f"/><path d="M2324.687 26.06h-.922c-.344 0-.577-.233-.577-.577s.233-.577.577-.577h.922c.343 0 .576.233.576.577 0 .333-.233.577-.576.577z" fill="#7f7f7f"/></g><g><path d="M2375.1 13.6c-7.2 0-13 4.7-13 10.6 0 2.5 1.1 4.8 2.9 6.6-.6 2.6-2.8 4.8-2.8 4.9-.1.1-.1.3-.1.4.1.2.2.2.4.2 3.4 0 5.9-1.6 7.1-2.6 1.7.6 3.5 1 5.5 1 7.2 0 13-4.7 13-10.6 0-5.9-5.8-10.5-13-10.5z" fill="#f8f9fa"/><path d="M2375.031 25.207h-1.062c-.331 0-.555-.224-.555-.556 0-.331.224-.555.555-.555h1.07c.331 0 .555.224.555.555-.008.332-.232.556-.563.556z" fill="#7f7f7f"/><path d="M2375.031 25.555h-1.062c-.331 0-.555-.223-.555-.555 0-.332.224-.555.555-.555h1.07c.331 0 .555.223.555.555-.008.332-.232.555-.563.555z" fill="#7f7f7f"/><path d="M2374.635 25.904h-.666c-.331 0-.555-.224-.555-.555 0-.332.224-.556.555-.556h.666c.331 0 .555.224.555.556 0 .323-.224.555-.555.555z" fill="#7f7f7f"/></g><g><path d="M2425.1 13.6c-7.2 0-13 4.7-13 10.6 0 2.5 1.1 4.8 2.9 6.6-.6 2.6-2.8 4.8-2.8 4.9-.1.1-.1.3-.1.4.1.2.2.2.4.2 3.4 0 5.9-1.6 7.1-2.6 1.7.6 3.5 1 5.5 1 7.2 0 13-4.7 13-10.6 0-5.9-5.8-10.5-13-10.5z" fill="#f8f9fa"/><path d="M2424.869 25.296h-.738c-.322 0-.539-.217-.539-.539 0-.322.217-.538.539-.538h.744c.322 0 .538.216.538.538-.005.322-.222.539-.544.539z" fill="#7f7f7f"/><path d="M2424.869 25.539h-.738c-.322 0-.539-.217-.539-.539 0-.322.217-.539.539-.539h.744c.322 0 .538.217.538.539-.005.322-.222.539-.544.539z" fill="#7f7f7f"/><path d="M2424.594 25.781h-.463c-.322 0-.539-.216-.539-.538 0-.322.217-.539.539-.539h.463c.322 0 .538.217.538.539 0 .316-.216.538-.538.538z" fill="#7f7f7f"/></g><g><path d="M2475.1 13.6c-7.2 0-13 4.7-13 10.6 0 2.5 1.1 4.8 2.9 6.6-.6 2.6-2.8 4.8-2.8 4.9-.1.1-.1.3-.1.4.1.2.2.2.4.2 3.4 0 5.9-1.6 7.1-2.6 1.7.6 3.5 1 5.5 1 7.2 0 13-4.7 13-10.6 0-5.9-5.8-10.5-13-10.5z" fill="#f8f9fa"/><path d="M2474.744 25.365h-.488c-.314 0-.525-.211-.525-.525 0-.315.211-.526.525-.526h.492c.314 0 .525.211.525.526-.004.314-.215.525-.529.525z" fill="#7f7f7f"/><path d="M2474.744 25.525h-.488c-.314 0-.525-.21-.525-.525 0-.315.211-.525.525-.525h.492c.314 0 .525.21.525.525-.004.315-.215.525-.529.525z" fill="#7f7f7f"/><path d="M2474.562 25.686h-.306c-.314 0-.525-.211-.525-.526 0-.314.211-.525.525-.525h.306c.314 0 .525.211.525.525 0 .311-.211.526-.525.526z" fill="#7f7f7f"/></g><g><path d="M2525.1 13.6c-7.2 0-13 4.7-13 10.6 0 2.5 1.1 4.8 2.9 6.6-.6 2.6-2.8 4.8-2.8 4.9-.1.1-.1.3-.1.4.1.2.2.2.4.2 3.4 0 5.9-1.6 7.1-2.6 1.7.6 3.5 1 5.5 1 7.2 0 13-4.7 13-10.6 0-5.9-5.8-10.5-13-10.5z" fill="#f8f9fa"/><path d="M2524.649 25.418h-.298c-.309 0-.515-.207-.515-.516 0-.309.206-.515.515-.515h.3c.309 0 .516.206.516.515-.003.309-.209.516-.518.516z" fill="#7f7f7f"/><path d="M2524.649 25.516h-.298c-.309 0-.515-.207-.515-.516 0-.309.206-.516.515-.516h.3c.309 0 .516.207.516.516-.003.309-.209.516-.518.516z" fill="#7f7f7f"/><path d="M2524.538 25.613h-.187c-.309 0-.515-.206-.515-.515 0-.309.206-.516.515-.516h.187c.309 0 .515.207.515.516 0 .306-.206.515-.515.515z" fill="#7f7f7f"/></g><g><path d="M2575.1 13.6c-7.2 0-13 4.7-13 10.6 0 2.5 1.1 4.8 2.9 6.6-.6 2.6-2.8 4.8-2.8 4.9-.1.1-.1.3-.1.4.1.2.2.2.4.2 3.4 0 5.9-1.6 7.1-2.6 1.7.6 3.5 1 5.5 1 7.2 0 13-4.7 13-10.6 0-5.9-5.8-10.5-13-10.5z" fill="#f8f9fa"/><path d="M2574.58 25.456h-.16c-.305 0-.509-.204-.509-.509 0-.304.204-.508.509-.508h.161c.305 0 .509.204.509.508-.001.305-.205.509-.51.509z" fill="#7f7f7f"/><path d="M2574.58 25.508h-.16c-.305 0-.509-.203-.509-.508s.204-.508.509-.508h.161c.305 0 .509.203.509.508-.001.305-.205.508-.51.508z" fill="#7f7f7f"/><path d="M2574.52 25.561h-.1c-.305 0-.509-.204-.509-.508 0-.305.204-.509.509-.509h.1c.305 0 .509.204.509.509 0 .303-.204.508-.509.508z" fill="#7f7f7f"/></g><g><path d="M2625.1 13.6c-7.2 0-13 4.7-13 10.6 0 2.5 1.1 4.8 2.9 6.6-.6 2.6-2.8 4.8-2.8 4.9-.1.1-.1.3-.1.4.1.2.2.2.4.2 3.4 0 5.9-1.6 7.1-2.6 1.7.6 3.5 1 5.5 1 7.2 0 13-4.7 13-10.6 0-5.9-5.8-10.5-13-10.5z" fill="#f8f9fa"/><path d="M2624.534 25.481h-.068c-.302 0-.504-.201-.504-.503s.202-.504.504-.504h.069c.302 0 .503.202.503.504s-.202.503-.504.503z" fill="#7f7f7f"/><path d="M2624.534 25.504h-.068c-.302 0-.504-.202-.504-.504s.202-.504.504-.504h.069c.302 0 .503.202.503.504s-.202.504-.504.504z" fill="#7f7f7f"/><path d="M2624.509 25.526h-.043c-.302 0-.504-.202-.504-.504s.202-.503.504-.503h.043c.302 0 .503.201.503.503s-.201.504-.503.504z" fill="#7f7f7f"/></g><g><path d="M2675.1 13.6c-7.2 0-13 4.7-13 10.6 0 2.5 1.1 4.8 2.9 6.6-.6 2.6-2.8 4.8-2.8 4.9-.1.1-.1.3-.1.4.1.2.2.2.4.2 3.4 0 5.9-1.6 7.1-2.6 1.7.6 3.5 1 5.5 1 7.2 0 13-4.7 13-10.6 0-5.9-5.8-10.5-13-10.5z" fill="#f8f9fa"/><path d="M2674.508 25.495h-.016c-.301 0-.501-.2-.501-.5 0-.301.2-.501.501-.501h.016c.301 0 .501.2.501.501 0 .3-.2.5-.501.5z" fill="#7f7f7f"/><path d="M2674.508 25.501h-.016c-.301 0-.501-.201-.501-.501s.2-.501.501-.501h.016c.301 0 .501.201.501.501s-.2.501-.501.501z" fill="#7f7f7f"/><path d="M2674.502 25.506h-.01c-.301 0-.501-.2-.501-.501 0-.3.2-.5.501-.5h.01c.301 0 .501.2.501.5 0 .301-.2.501-.501.501z" fill="#7f7f7f"/></g><g><path d="M2725.1 13.6c-7.2 0-13 4.7-13 10.6 0 2.5 1.1 4.8 2.9 6.6-.6 2.6-2.8 4.8-2.8 4.9-.1.1-.1.3-.1.4.1.2.2.2.4.2 3.4 0 5.9-1.6 7.1-2.6 1.7.6 3.5 1 5.5 1 7.2 0 13-4.7 13-10.6 0-5.9-5.8-10.5-13-10.5z" fill="#f8f9fa"/></g><g><path d="M2775.1 13.6c-7.2 0-13 4.7-13 10.6 0 2.5 1.1 4.8 2.9 6.6-.6 2.6-2.8 4.8-2.8 4.9-.1.1-.1.3-.1.4.1.2.2.2.4.2 3.4 0 5.9-1.6 7.1-2.6 1.7.6 3.5 1 5.5 1 7.2 0 13-4.7 13-10.6 0-5.9-5.8-10.5-13-10.5z" fill="#f8f9fa"/></g><g><path d="M2825.1 13.6c-7.2 0-13 4.7-13 10.6 0 2.5 1.1 4.8 2.9 6.6-.6 2.6-2.8 4.8-2.8 4.9-.1.1-.1.3-.1.4.1.2.2.2.4.2 3.4 0 5.9-1.6 7.1-2.6 1.7.6 3.5 1 5.5 1 7.2 0 13-4.7 13-10.6 0-5.9-5.8-10.5-13-10.5z" fill="#f8f9fa"/></g><g><path d="M2875.1 13.6c-7.2 0-13 4.7-13 10.6 0 2.5 1.1 4.8 2.9 6.6-.6 2.6-2.8 4.8-2.8 4.9-.1.1-.1.3-.1.4.1.2.2.2.4.2 3.4 0 5.9-1.6 7.1-2.6 1.7.6 3.5 1 5.5 1 7.2 0 13-4.7 13-10.6 0-5.9-5.8-10.5-13-10.5z" fill="#f8f9fa"/></g><g><path d="M2925.1 13.6c-7.2 0-13 4.7-13 10.6 0 2.5 1.1 4.8 2.9 6.6-.6 2.6-2.8 4.8-2.8 4.9-.1.1-.1.3-.1.4.1.2.2.2.4.2 3.4 0 5.9-1.6 7.1-2.6 1.7.6 3.5 1 5.5 1 7.2 0 13-4.7 13-10.6 0-5.9-5.8-10.5-13-10.5z" fill="#f8f9fa"/></g><g><path d="M2975.1 13.6c-7.2 0-13 4.7-13 10.6 0 2.5 1.1 4.8 2.9 6.6-.6 2.6-2.8 4.8-2.8 4.9-.1.1-.1.3-.1.4.1.2.2.2.4.2 3.4 0 5.9-1.6 7.1-2.6 1.7.6 3.5 1 5.5 1 7.2 0 13-4.7 13-10.6 0-5.9-5.8-10.5-13-10.5z" fill="#f8f9fa"/></g><g><path d="M3025.1 13.6c-7.2 0-13 4.7-13 10.6 0 2.5 1.1 4.8 2.9 6.6-.6 2.6-2.8 4.8-2.8 4.9-.1.1-.1.3-.1.4.1.2.2.2.4.2 3.4 0 5.9-1.6 7.1-2.6 1.7.6 3.5 1 5.5 1 7.2 0 13-4.7 13-10.6 0-5.9-5.8-10.5-13-10.5z" fill="#f8f9fa"/></g></svg>