<svg xmlns="http://www.w3.org/2000/svg" viewBox="0 0 3050 50" width="3050" height="50"><path d="M25 39c4.3 0 8.3-2 10.9-5.2.4-.5 0-1.2-.6-1.1-6.8 1.3-13-3.9-13-10.8 0-3.9 2.1-7.6 5.5-9.5.5-.3.4-1.1-.2-1.2-.9-.1-1.8-.2-2.6-.2-7.7 0-14 6.3-14 14s6.3 14 14 14zM75 37.55c3.85 0 7.433-1.783 9.767-4.65.35-.45 0-1.067-.534-.983-6.083 1.166-11.65-3.5-11.65-9.667 0-3.5 1.884-6.8 4.934-8.517.45-.266.35-.983-.184-1.083-.8-.1-1.6-.183-2.333-.183-6.9 0-12.55 5.633-12.55 12.55C62.467 31.9 68.1 37.55 75 37.55zM125 36.1c3.4 0 6.567-1.567 8.633-4.1.3-.4 0-.933-.466-.867-5.367 1.034-10.3-3.1-10.3-8.533 0-3.1 1.666-6 4.366-7.533.4-.234.3-.867-.166-.967-.7-.1-1.4-.167-2.067-.167-6.1 0-11.1 4.967-11.1 11.1.033 6.067 5 11.067 11.1 11.067zM175 34.65c2.95 0 5.7-1.35 7.5-3.55.25-.35 0-.8-.4-.75-4.65.9-8.95-2.7-8.95-7.4 0-2.7 1.45-5.2 3.8-6.55.35-.2.25-.75-.15-.85-.6-.1-1.2-.15-1.8-.15-5.3 0-9.65 4.3-9.65 9.65.05 5.25 4.35 9.6 9.65 9.6zM225 33.2c2.5 0 4.833-1.133 6.367-3 .2-.3 0-.667-.334-.633-3.933.766-7.6-2.3-7.6-6.267 0-2.3 1.234-4.4 3.234-5.567.3-.166.2-.633-.134-.733-.5-.1-1-.133-1.533-.133-4.5 0-8.2 3.633-8.2 8.2.067 4.433 3.7 8.133 8.2 8.133zM275 31.75c2.05 0 3.967-.917 5.233-2.45.15-.25 0-.533-.266-.517-3.217.634-6.25-1.9-6.25-5.133 0-1.9 1.016-3.6 2.666-4.583.25-.134.15-.517-.116-.617-.4-.1-.8-.117-1.267-.117-3.7 0-6.75 2.967-6.75 6.75.083 3.617 3.05 6.667 6.75 6.667zM325 30.3c1.6 0 3.1-.7 4.1-1.9.1-.2 0-.4-.2-.4-2.5.5-4.9-1.5-4.9-4 0-1.5.8-2.8 2.1-3.6.2-.1.1-.4-.1-.5-.3-.1-.6-.1-1-.1-2.9 0-5.3 2.3-5.3 5.3.1 2.8 2.4 5.2 5.3 5.2zM375 30.3c1.6 0 3.1-.7 4.1-1.9.1-.2.083-.45-.033-.567-1.984.15-4.034-1.75-4.084-3.983-.066-1.433.484-2.617 1.517-3.333-.017-.234-.283-.534-.5-.617-.3-.1-.6-.1-1-.1-2.9 0-5.3 2.3-5.3 5.3.1 2.8 2.4 5.2 5.3 5.2zM425 30.3c1.6 0 3.1-.7 4.1-1.9.1-.2.167-.5.133-.733-1.466-.2-3.166-2-3.266-3.967-.134-1.367.166-2.433.933-3.067-.233-.366-.667-.666-.9-.733-.3-.1-.6-.1-1-.1-2.9 0-5.3 2.3-5.3 5.3.1 2.8 2.4 5.2 5.3 5.2zM475 30.3c1.6 0 3.1-.7 4.1-1.9.1-.2.25-.55.3-.9-.95-.55-2.3-2.25-2.45-3.95-.2-1.3-.15-2.25.35-2.8-.45-.5-1.05-.8-1.3-.85-.3-.1-.6-.1-1-.1-2.9 0-5.3 2.3-5.3 5.3.1 2.8 2.4 5.2 5.3 5.2zM525 30.3c1.6 0 3.1-.7 4.1-1.9.1-.2.333-.6.467-1.067-.434-.9-1.434-2.5-1.634-3.933-.266-1.233-.466-2.067-.233-2.533-.667-.634-1.433-.934-1.7-.967-.3-.1-.6-.1-1-.1-2.9 0-5.3 2.3-5.3 5.3.1 2.8 2.4 5.2 5.3 5.2zM575 30.3c1.6 0 3.1-.7 4.1-1.9.1-.2.417-.65.633-1.233.084-1.25-.566-2.75-.816-3.917-.334-1.167-.784-1.883-.817-2.267-.883-.766-1.817-1.066-2.1-1.083-.3-.1-.6-.1-1-.1-2.9 0-5.3 2.3-5.3 5.3.1 2.8 2.4 5.2 5.3 5.2z" fill="#f8f9fa"/><g fill="#f8f9fa"><path d="M625 30.3c1.6 0 3.1-.7 4.1-1.9.1-.2.5-.7.8-1.4.6-1.6.3-3 0-3.9-.4-1.1-1.1-1.7-1.4-2-1.1-.9-2.2-1.2-2.5-1.2-.3-.1-.6-.1-1-.1-2.9 0-5.3 2.3-5.3 5.3.1 2.8 2.4 5.2 5.3 5.2z"/><path d="M624.7 25l.1.1v.1h.1l.1.1.1-.1h.1v-.1l.1-.1-.1-.1v-.1h-.1l-.1-.1-.1.1h-.1v.1l-.1.1zm.2-.1c.1-.1.2-.1.2 0s.1.2 0 .2-.2.1-.2 0-.1-.2 0-.2z"/></g><g fill="#f8f9fa"><path d="M675 30.3c1.6 0 3.1-.7 4.1-1.9.1-.2.5-.7.8-1.4.6-1.6.3-3 0-3.9-.4-1.1-1.1-1.7-1.4-2-1.1-.9-2.2-1.2-2.5-1.2-.3-.1-.6-.1-1-.1-2.9 0-5.3 2.3-5.3 5.3.1 2.8 2.4 5.2 5.3 5.2z"/><path d="M677 24.85l-.783-.35.3-.833c.033-.117-.084-.234-.2-.2l-.834.3-.35-.784c-.066-.116-.216-.116-.283 0l-.35.784-.833-.3c-.117-.034-.234.083-.2.2l.3.833-.784.35c-.116.067-.116.217 0 .283l.784.35-.3.834c-.034.116.083.233.2.2l.833-.3.35.783c.067.117.217.117.283 0l.35-.783.834.3c.116.033.233-.084.2-.2l-.3-.834.783-.35c.117-.05.117-.216 0-.283zm-1.25.883c-.367.367-1.033.367-1.483 0-.45-.366-.367-1.033 0-1.483.366-.45 1.033-.367 1.483 0 .45.367.367 1.033 0 1.483z"/></g><g fill="#f8f9fa"><path d="M725 30.3c1.6 0 3.1-.7 4.1-1.9.1-.2.5-.7.8-1.4.6-1.6.3-3 0-3.9-.4-1.1-1.1-1.7-1.4-2-1.1-.9-2.2-1.2-2.5-1.2-.3-.1-.6-.1-1-.1-2.9 0-5.3 2.3-5.3 5.3.1 2.8 2.4 5.2 5.3 5.2z"/><path d="M729.3 24.7l-1.667-.8.6-1.767c.067-.233-.166-.466-.4-.4l-1.766.6-.8-1.666c-.134-.234-.434-.234-.567 0l-.8 1.666-1.767-.6c-.233-.066-.466.167-.4.4l.6 1.767-1.666.8c-.234.133-.234.433 0 .567l1.666.8-.6 1.766c-.066.234.167.467.4.4l1.767-.6.8 1.667c.133.233.433.233.567 0l.8-1.667 1.766.6c.234.067.467-.166.4-.4l-.6-1.766 1.667-.8c.233-.1.233-.434 0-.567zm-2.7 1.867c-.833.833-2.267.833-3.167 0-.9-.834-.833-2.267 0-3.167.834-.9 2.267-.833 3.167 0 .9.833.833 2.267 0 3.167z"/></g><g fill="#f8f9fa"><path d="M775 30.3c1.6 0 3.1-.7 4.1-1.9.1-.2.5-.7.8-1.4.6-1.6.3-3 0-3.9-.4-1.1-1.1-1.7-1.4-2-1.1-.9-2.2-1.2-2.5-1.2-.3-.1-.6-.1-1-.1-2.9 0-5.3 2.3-5.3 5.3.1 2.8 2.4 5.2 5.3 5.2z"/><path d="M781.6 24.55l-2.55-1.25.9-2.7c.1-.35-.25-.7-.6-.6l-2.7.9-1.25-2.55c-.2-.35-.65-.35-.85 0l-1.25 2.55-2.7-.9c-.35-.1-.7.25-.6.6l.9 2.7-2.55 1.25c-.35.2-.35.65 0 .85l2.55 1.25-.9 2.7c-.1.35.25.7.6.6l2.7-.9 1.25 2.55c.2.35.65.35.85 0l1.25-2.55 2.7.9c.35.1.7-.25.6-.6l-.9-2.7 2.55-1.25c.35-.15.35-.65 0-.85zm-4.15 2.85c-1.3 1.3-3.5 1.3-4.85 0-1.35-1.3-1.3-3.5 0-4.85 1.3-1.35 3.5-1.3 4.85 0 1.35 1.3 1.3 3.5 0 4.85z"/></g><g fill="#f8f9fa"><path d="M825 30.3c1.6 0 3.1-.7 4.1-1.9.1-.2.5-.7.8-1.4.6-1.6.3-3 0-3.9-.4-1.1-1.1-1.7-1.4-2-1.1-.9-2.2-1.2-2.5-1.2-.3-.1-.6-.1-1-.1-2.9 0-5.3 2.3-5.3 5.3.1 2.8 2.4 5.2 5.3 5.2z"/><path d="M833.9 24.4l-3.433-1.7 1.2-3.633c.133-.467-.334-.934-.8-.8l-3.634 1.2-1.7-3.434c-.266-.466-.866-.466-1.133 0l-1.7 3.434-3.633-1.2c-.467-.134-.934.333-.8.8l1.2 3.633-3.434 1.7c-.466.267-.466.867 0 1.133l3.434 1.7-1.2 3.634c-.134.466.333.933.8.8l3.633-1.2 1.7 3.433c.267.467.867.467 1.133 0l1.7-3.433 3.634 1.2c.466.133.933-.334.8-.8l-1.2-3.634 3.433-1.7c.467-.2.467-.866 0-1.133zm-5.6 3.833c-1.767 1.767-4.733 1.767-6.533 0-1.8-1.766-1.767-4.733 0-6.533 1.766-1.8 4.733-1.767 6.533 0 1.8 1.767 1.767 4.733 0 6.533z"/></g><g fill="#f8f9fa"><path d="M875 30.3c1.6 0 3.1-.7 4.1-1.9.1-.2.5-.7.8-1.4.6-1.6.3-3 0-3.9-.4-1.1-1.1-1.7-1.4-2-1.1-.9-2.2-1.2-2.5-1.2-.3-.1-.6-.1-1-.1-2.9 0-5.3 2.3-5.3 5.3.1 2.8 2.4 5.2 5.3 5.2z"/><path d="M886.2 24.25l-4.317-2.15 1.5-4.567c.167-.583-.416-1.166-1-1l-4.566 1.5-2.15-4.316c-.334-.584-1.084-.584-1.417 0l-2.15 4.316-4.567-1.5c-.583-.166-1.166.417-1 1l1.5 4.567-4.316 2.15c-.584.333-.584 1.083 0 1.417l4.316 2.15-1.5 4.566c-.166.584.417 1.167 1 1l4.567-1.5 2.15 4.317c.333.583 1.083.583 1.417 0l2.15-4.317 4.566 1.5c.584.167 1.167-.416 1-1l-1.5-4.566 4.317-2.15c.583-.25.583-1.084 0-1.417zm-7.05 4.817c-2.233 2.233-5.967 2.233-8.217 0-2.25-2.234-2.233-5.967 0-8.217 2.234-2.25 5.967-2.233 8.217 0 2.25 2.233 2.233 5.967 0 8.217z"/></g><g fill="#f8f9fa"><path d="M925 30.3c1.6 0 3.1-.7 4.1-1.9.1-.2.5-.7.8-1.4.6-1.6.3-3 0-3.9-.4-1.1-1.1-1.7-1.4-2-1.1-.9-2.2-1.2-2.5-1.2-.3-.1-.6-.1-1-.1-2.9 0-5.3 2.3-5.3 5.3.1 2.8 2.4 5.2 5.3 5.2z"/><path d="M938.5 24.1l-5.2-2.6 1.8-5.5c.2-.7-.5-1.4-1.2-1.2l-5.5 1.8-2.6-5.2c-.4-.7-1.3-.7-1.7 0l-2.6 5.2-5.5-1.8c-.7-.2-1.4.5-1.2 1.2l1.8 5.5-5.2 2.6c-.7.4-.7 1.3 0 1.7l5.2 2.6-1.8 5.5c-.2.7.5 1.4 1.2 1.2l5.5-1.8 2.6 5.2c.4.7 1.3.7 1.7 0l2.6-5.2 5.5 1.8c.7.2 1.4-.5 1.2-1.2l-1.8-5.5 5.2-2.6c.7-.3.7-1.3 0-1.7zm-8.5 5.8c-2.7 2.7-7.2 2.7-9.9 0s-2.7-7.2 0-9.9 7.2-2.7 9.9 0 2.7 7.2 0 9.9z"/></g><g fill="#f8f9fa"><path d="M975 30.3c1.6 0 3.1-.7 4.1-1.9.1-.2.5-.7.8-1.4.6-1.6.3-3 0-3.9-.4-1.1-1.1-1.7-1.4-2-1.1-.9-2.2-1.2-2.5-1.2-.3-.1-.6-.1-1-.1-2.9 0-5.3 2.3-5.3 5.3.1 2.8 2.4 5.2 5.3 5.2z"/><path d="M988.5 24.1l-5.2-2.6 1.8-5.5c.2-.7-.5-1.4-1.2-1.2l-5.5 1.8-2.6-5.2c-.4-.7-1.3-.7-1.7 0l-2.6 5.2-5.5-1.8c-.7-.2-1.4.5-1.2 1.2l1.8 5.5-5.2 2.6c-.7.4-.7 1.3 0 1.7l5.2 2.6-1.8 5.5c-.2.7.5 1.4 1.2 1.2l5.5-1.8 2.6 5.2c.4.7 1.3.7 1.7 0l2.6-5.2 5.5 1.8c.7.2 1.4-.5 1.2-1.2l-1.8-5.5 5.2-2.6c.7-.3.7-1.3 0-1.7zm-8.5 5.8c-2.7 2.7-7.2 2.7-9.9 0s-2.7-7.2 0-9.9 7.2-2.7 9.9 0 2.7 7.2 0 9.9z"/></g><g fill="#f8f9fa"><path d="M1025 30.3c1.6 0 3.1-.7 4.1-1.9.1-.2.5-.7.8-1.4.6-1.6.3-3 0-3.9-.4-1.1-1.1-1.7-1.4-2-1.1-.9-2.2-1.2-2.5-1.2-.3-.1-.6-.1-1-.1-2.9 0-5.3 2.3-5.3 5.3.1 2.8 2.4 5.2 5.3 5.2z"/><path d="M1038.5 24.1l-5.2-2.6 1.8-5.5c.2-.7-.5-1.4-1.2-1.2l-5.5 1.8-2.6-5.2c-.4-.7-1.3-.7-1.7 0l-2.6 5.2-5.5-1.8c-.7-.2-1.4.5-1.2 1.2l1.8 5.5-5.2 2.6c-.7.4-.7 1.3 0 1.7l5.2 2.6-1.8 5.5c-.2.7.5 1.4 1.2 1.2l5.5-1.8 2.6 5.2c.4.7 1.3.7 1.7 0l2.6-5.2 5.5 1.8c.7.2 1.4-.5 1.2-1.2l-1.8-5.5 5.2-2.6c.7-.3.7-1.3 0-1.7zm-8.5 5.8c-2.7 2.7-7.2 2.7-9.9 0s-2.7-7.2 0-9.9 7.2-2.7 9.9 0 2.7 7.2 0 9.9z"/></g><g fill="#f8f9fa"><path d="M1075 30.3c1.6 0 3.1-.7 4.1-1.9.1-.2.5-.7.8-1.4.6-1.6.3-3 0-3.9-.4-1.1-1.1-1.7-1.4-2-1.1-.9-2.2-1.2-2.5-1.2-.3-.1-.6-.1-1-.1-2.9 0-5.3 2.3-5.3 5.3.1 2.8 2.4 5.2 5.3 5.2z"/><path d="M1088.5 24.1l-5.2-2.6 1.8-5.5c.2-.7-.5-1.4-1.2-1.2l-5.5 1.8-2.6-5.2c-.4-.7-1.3-.7-1.7 0l-2.6 5.2-5.5-1.8c-.7-.2-1.4.5-1.2 1.2l1.8 5.5-5.2 2.6c-.7.4-.7 1.3 0 1.7l5.2 2.6-1.8 5.5c-.2.7.5 1.4 1.2 1.2l5.5-1.8 2.6 5.2c.4.7 1.3.7 1.7 0l2.6-5.2 5.5 1.8c.7.2 1.4-.5 1.2-1.2l-1.8-5.5 5.2-2.6c.7-.3.7-1.3 0-1.7zm-8.5 5.8c-2.7 2.7-7.2 2.7-9.9 0s-2.7-7.2 0-9.9 7.2-2.7 9.9 0 2.7 7.2 0 9.9z"/></g><g fill="#f8f9fa"><path d="M1125 30.3c1.6 0 3.1-.7 4.1-1.9.1-.2.5-.7.8-1.4.6-1.6.3-3 0-3.9-.4-1.1-1.1-1.7-1.4-2-1.1-.9-2.2-1.2-2.5-1.2-.3-.1-.6-.1-1-.1-2.9 0-5.3 2.3-5.3 5.3.1 2.8 2.4 5.2 5.3 5.2z"/><path d="M1138.5 24.1l-5.2-2.6 1.8-5.5c.2-.7-.5-1.4-1.2-1.2l-5.5 1.8-2.6-5.2c-.4-.7-1.3-.7-1.7 0l-2.6 5.2-5.5-1.8c-.7-.2-1.4.5-1.2 1.2l1.8 5.5-5.2 2.6c-.7.4-.7 1.3 0 1.7l5.2 2.6-1.8 5.5c-.2.7.5 1.4 1.2 1.2l5.5-1.8 2.6 5.2c.4.7 1.3.7 1.7 0l2.6-5.2 5.5 1.8c.7.2 1.4-.5 1.2-1.2l-1.8-5.5 5.2-2.6c.7-.3.7-1.3 0-1.7zm-8.5 5.8c-2.7 2.7-7.2 2.7-9.9 0s-2.7-7.2 0-9.9 7.2-2.7 9.9 0 2.7 7.2 0 9.9z"/></g><g fill="#f8f9fa"><path d="M1175 30.3c1.6 0 3.1-.7 4.1-1.9.1-.2.5-.7.8-1.4.6-1.6.3-3 0-3.9-.4-1.1-1.1-1.7-1.4-2-1.1-.9-2.2-1.2-2.5-1.2-.3-.1-.6-.1-1-.1-2.9 0-5.3 2.3-5.3 5.3.1 2.8 2.4 5.2 5.3 5.2z"/><path d="M1188.5 24.1l-5.2-2.6 1.8-5.5c.2-.7-.5-1.4-1.2-1.2l-5.5 1.8-2.6-5.2c-.4-.7-1.3-.7-1.7 0l-2.6 5.2-5.5-1.8c-.7-.2-1.4.5-1.2 1.2l1.8 5.5-5.2 2.6c-.7.4-.7 1.3 0 1.7l5.2 2.6-1.8 5.5c-.2.7.5 1.4 1.2 1.2l5.5-1.8 2.6 5.2c.4.7 1.3.7 1.7 0l2.6-5.2 5.5 1.8c.7.2 1.4-.5 1.2-1.2l-1.8-5.5 5.2-2.6c.7-.3.7-1.3 0-1.7zm-8.5 5.8c-2.7 2.7-7.2 2.7-9.9 0s-2.7-7.2 0-9.9 7.2-2.7 9.9 0 2.7 7.2 0 9.9z"/></g><g fill="#f8f9fa"><path d="M1225 30.3c1.6 0 3.1-.7 4.1-1.9.1-.2.5-.7.8-1.4.6-1.6.3-3 0-3.9-.4-1.1-1.1-1.7-1.4-2-1.1-.9-2.2-1.2-2.5-1.2-.3-.1-.6-.1-1-.1-2.9 0-5.3 2.3-5.3 5.3.1 2.8 2.4 5.2 5.3 5.2z"/><path d="M1238.5 24.1l-5.2-2.6 1.8-5.5c.2-.7-.5-1.4-1.2-1.2l-5.5 1.8-2.6-5.2c-.4-.7-1.3-.7-1.7 0l-2.6 5.2-5.5-1.8c-.7-.2-1.4.5-1.2 1.2l1.8 5.5-5.2 2.6c-.7.4-.7 1.3 0 1.7l5.2 2.6-1.8 5.5c-.2.7.5 1.4 1.2 1.2l5.5-1.8 2.6 5.2c.4.7 1.3.7 1.7 0l2.6-5.2 5.5 1.8c.7.2 1.4-.5 1.2-1.2l-1.8-5.5 5.2-2.6c.7-.3.7-1.3 0-1.7zm-8.5 5.8c-2.7 2.7-7.2 2.7-9.9 0s-2.7-7.2 0-9.9 7.2-2.7 9.9 0 2.7 7.2 0 9.9z"/></g><g fill="#f8f9fa"><path d="M1275 30.3c1.6 0 3.1-.7 4.1-1.9.1-.2.5-.7.8-1.4.6-1.6.3-3 0-3.9-.4-1.1-1.1-1.7-1.4-2-1.1-.9-2.2-1.2-2.5-1.2-.3-.1-.6-.1-1-.1-2.9 0-5.3 2.3-5.3 5.3.1 2.8 2.4 5.2 5.3 5.2z"/><path d="M1288.5 24.1l-5.2-2.6 1.8-5.5c.2-.7-.5-1.4-1.2-1.2l-5.5 1.8-2.6-5.2c-.4-.7-1.3-.7-1.7 0l-2.6 5.2-5.5-1.8c-.7-.2-1.4.5-1.2 1.2l1.8 5.5-5.2 2.6c-.7.4-.7 1.3 0 1.7l5.2 2.6-1.8 5.5c-.2.7.5 1.4 1.2 1.2l5.5-1.8 2.6 5.2c.4.7 1.3.7 1.7 0l2.6-5.2 5.5 1.8c.7.2 1.4-.5 1.2-1.2l-1.8-5.5 5.2-2.6c.7-.3.7-1.3 0-1.7zm-8.5 5.8c-2.7 2.7-7.2 2.7-9.9 0s-2.7-7.2 0-9.9 7.2-2.7 9.9 0 2.7 7.2 0 9.9z"/></g><g fill="#f8f9fa"><path d="M1325 30.3c1.6 0 3.1-.7 4.1-1.9.1-.2.5-.7.8-1.4.6-1.6.3-3 0-3.9-.4-1.1-1.1-1.7-1.4-2-1.1-.9-2.2-1.2-2.5-1.2-.3-.1-.6-.1-1-.1-2.9 0-5.3 2.3-5.3 5.3.1 2.8 2.4 5.2 5.3 5.2z"/><path d="M1338.5 24.1l-5.2-2.6 1.8-5.5c.2-.7-.5-1.4-1.2-1.2l-5.5 1.8-2.6-5.2c-.4-.7-1.3-.7-1.7 0l-2.6 5.2-5.5-1.8c-.7-.2-1.4.5-1.2 1.2l1.8 5.5-5.2 2.6c-.7.4-.7 1.3 0 1.7l5.2 2.6-1.8 5.5c-.2.7.5 1.4 1.2 1.2l5.5-1.8 2.6 5.2c.4.7 1.3.7 1.7 0l2.6-5.2 5.5 1.8c.7.2 1.4-.5 1.2-1.2l-1.8-5.5 5.2-2.6c.7-.3.7-1.3 0-1.7zm-8.5 5.8c-2.7 2.7-7.2 2.7-9.9 0s-2.7-7.2 0-9.9 7.2-2.7 9.9 0 2.7 7.2 0 9.9z"/></g><g fill="#f8f9fa"><path d="M1375 30.3c1.6 0 3.1-.7 4.1-1.9.1-.2.5-.7.8-1.4.6-1.6.3-3 0-3.9-.4-1.1-1.1-1.7-1.4-2-1.1-.9-2.2-1.2-2.5-1.2-.3-.1-.6-.1-1-.1-2.9 0-5.3 2.3-5.3 5.3.1 2.8 2.4 5.2 5.3 5.2z"/><path d="M1388.5 24.1l-5.2-2.6 1.8-5.5c.2-.7-.5-1.4-1.2-1.2l-5.5 1.8-2.6-5.2c-.4-.7-1.3-.7-1.7 0l-2.6 5.2-5.5-1.8c-.7-.2-1.4.5-1.2 1.2l1.8 5.5-5.2 2.6c-.7.4-.7 1.3 0 1.7l5.2 2.6-1.8 5.5c-.2.7.5 1.4 1.2 1.2l5.5-1.8 2.6 5.2c.4.7 1.3.7 1.7 0l2.6-5.2 5.5 1.8c.7.2 1.4-.5 1.2-1.2l-1.8-5.5 5.2-2.6c.7-.3.7-1.3 0-1.7zm-8.5 5.8c-2.7 2.7-7.2 2.7-9.9 0s-2.7-7.2 0-9.9 7.2-2.7 9.9 0 2.7 7.2 0 9.9z"/></g><g fill="#f8f9fa"><path d="M1425 30.3c1.6 0 3.1-.7 4.1-1.9.1-.2.5-.7.8-1.4.6-1.6.3-3 0-3.9-.4-1.1-1.1-1.7-1.4-2-1.1-.9-2.2-1.2-2.5-1.2-.3-.1-.6-.1-1-.1-2.9 0-5.3 2.3-5.3 5.3.1 2.8 2.4 5.2 5.3 5.2z"/><path d="M1438.5 24.1l-5.2-2.6 1.8-5.5c.2-.7-.5-1.4-1.2-1.2l-5.5 1.8-2.6-5.2c-.4-.7-1.3-.7-1.7 0l-2.6 5.2-5.5-1.8c-.7-.2-1.4.5-1.2 1.2l1.8 5.5-5.2 2.6c-.7.4-.7 1.3 0 1.7l5.2 2.6-1.8 5.5c-.2.7.5 1.4 1.2 1.2l5.5-1.8 2.6 5.2c.4.7 1.3.7 1.7 0l2.6-5.2 5.5 1.8c.7.2 1.4-.5 1.2-1.2l-1.8-5.5 5.2-2.6c.7-.3.7-1.3 0-1.7zm-8.5 5.8c-2.7 2.7-7.2 2.7-9.9 0s-2.7-7.2 0-9.9 7.2-2.7 9.9 0 2.7 7.2 0 9.9z"/></g><g fill="#f8f9fa"><path d="M1475 30.3c1.6 0 3.1-.7 4.1-1.9.1-.2.5-.7.8-1.4.6-1.6.3-3 0-3.9-.4-1.1-1.1-1.7-1.4-2-1.1-.9-2.2-1.2-2.5-1.2-.3-.1-.6-.1-1-.1-2.9 0-5.3 2.3-5.3 5.3.1 2.8 2.4 5.2 5.3 5.2z"/><path d="M1488.5 24.1l-5.2-2.6 1.8-5.5c.2-.7-.5-1.4-1.2-1.2l-5.5 1.8-2.6-5.2c-.4-.7-1.3-.7-1.7 0l-2.6 5.2-5.5-1.8c-.7-.2-1.4.5-1.2 1.2l1.8 5.5-5.2 2.6c-.7.4-.7 1.3 0 1.7l5.2 2.6-1.8 5.5c-.2.7.5 1.4 1.2 1.2l5.5-1.8 2.6 5.2c.4.7 1.3.7 1.7 0l2.6-5.2 5.5 1.8c.7.2 1.4-.5 1.2-1.2l-1.8-5.5 5.2-2.6c.7-.3.7-1.3 0-1.7zm-8.5 5.8c-2.7 2.7-7.2 2.7-9.9 0s-2.7-7.2 0-9.9 7.2-2.7 9.9 0 2.7 7.2 0 9.9z"/></g><g fill="#f8f9fa"><path d="M1525 30.3c1.6 0 3.1-.7 4.1-1.9.1-.2.5-.7.8-1.4.6-1.6.3-3 0-3.9-.4-1.1-1.1-1.7-1.4-2-1.1-.9-2.2-1.2-2.5-1.2-.3-.1-.6-.1-1-.1-2.9 0-5.3 2.3-5.3 5.3.1 2.8 2.4 5.2 5.3 5.2z"/><path d="M1538.5 24.1l-5.2-2.6 1.8-5.5c.2-.7-.5-1.4-1.2-1.2l-5.5 1.8-2.6-5.2c-.4-.7-1.3-.7-1.7 0l-2.6 5.2-5.5-1.8c-.7-.2-1.4.5-1.2 1.2l1.8 5.5-5.2 2.6c-.7.4-.7 1.3 0 1.7l5.2 2.6-1.8 5.5c-.2.7.5 1.4 1.2 1.2l5.5-1.8 2.6 5.2c.4.7 1.3.7 1.7 0l2.6-5.2 5.5 1.8c.7.2 1.4-.5 1.2-1.2l-1.8-5.5 5.2-2.6c.7-.3.7-1.3 0-1.7zm-8.5 5.8c-2.7 2.7-7.2 2.7-9.9 0s-2.7-7.2 0-9.9 7.2-2.7 9.9 0 2.7 7.2 0 9.9z"/></g><g fill="#f8f9fa"><path d="M1575 30.3c1.6 0 3.1-.7 4.1-1.9.1-.2.5-.7.8-1.4.6-1.6.3-3 0-3.9-.4-1.1-1.1-1.7-1.4-2-1.1-.9-2.2-1.2-2.5-1.2-.3-.1-.6-.1-1-.1-2.9 0-5.3 2.3-5.3 5.3.1 2.8 2.4 5.2 5.3 5.2z"/><path d="M1588.5 24.1l-5.2-2.6 1.8-5.5c.2-.7-.5-1.4-1.2-1.2l-5.5 1.8-2.6-5.2c-.4-.7-1.3-.7-1.7 0l-2.6 5.2-5.5-1.8c-.7-.2-1.4.5-1.2 1.2l1.8 5.5-5.2 2.6c-.7.4-.7 1.3 0 1.7l5.2 2.6-1.8 5.5c-.2.7.5 1.4 1.2 1.2l5.5-1.8 2.6 5.2c.4.7 1.3.7 1.7 0l2.6-5.2 5.5 1.8c.7.2 1.4-.5 1.2-1.2l-1.8-5.5 5.2-2.6c.7-.3.7-1.3 0-1.7zm-8.5 5.8c-2.7 2.7-7.2 2.7-9.9 0s-2.7-7.2 0-9.9 7.2-2.7 9.9 0 2.7 7.2 0 9.9z"/></g><g fill="#f8f9fa"><path d="M1625 30.3c1.6 0 3.1-.7 4.1-1.9.1-.2.5-.7.8-1.4.6-1.6.3-3 0-3.9-.4-1.1-1.1-1.7-1.4-2-1.1-.9-2.2-1.2-2.5-1.2-.3-.1-.6-.1-1-.1-2.9 0-5.3 2.3-5.3 5.3.1 2.8 2.4 5.2 5.3 5.2z"/><path d="M1638.5 24.1l-5.2-2.6 1.8-5.5c.2-.7-.5-1.4-1.2-1.2l-5.5 1.8-2.6-5.2c-.4-.7-1.3-.7-1.7 0l-2.6 5.2-5.5-1.8c-.7-.2-1.4.5-1.2 1.2l1.8 5.5-5.2 2.6c-.7.4-.7 1.3 0 1.7l5.2 2.6-1.8 5.5c-.2.7.5 1.4 1.2 1.2l5.5-1.8 2.6 5.2c.4.7 1.3.7 1.7 0l2.6-5.2 5.5 1.8c.7.2 1.4-.5 1.2-1.2l-1.8-5.5 5.2-2.6c.7-.3.7-1.3 0-1.7zm-8.5 5.8c-2.7 2.7-7.2 2.7-9.9 0s-2.7-7.2 0-9.9 7.2-2.7 9.9 0 2.7 7.2 0 9.9z"/></g><g fill="#f8f9fa"><path d="M1675 30.3c1.6 0 3.1-.7 4.1-1.9.1-.2.5-.7.8-1.4.6-1.6.3-3 0-3.9-.4-1.1-1.1-1.7-1.4-2-1.1-.9-2.2-1.2-2.5-1.2-.3-.1-.6-.1-1-.1-2.9 0-5.3 2.3-5.3 5.3.1 2.8 2.4 5.2 5.3 5.2z"/><path d="M1688.5 24.1l-5.2-2.6 1.8-5.5c.2-.7-.5-1.4-1.2-1.2l-5.5 1.8-2.6-5.2c-.4-.7-1.3-.7-1.7 0l-2.6 5.2-5.5-1.8c-.7-.2-1.4.5-1.2 1.2l1.8 5.5-5.2 2.6c-.7.4-.7 1.3 0 1.7l5.2 2.6-1.8 5.5c-.2.7.5 1.4 1.2 1.2l5.5-1.8 2.6 5.2c.4.7 1.3.7 1.7 0l2.6-5.2 5.5 1.8c.7.2 1.4-.5 1.2-1.2l-1.8-5.5 5.2-2.6c.7-.3.7-1.3 0-1.7zm-8.5 5.8c-2.7 2.7-7.2 2.7-9.9 0s-2.7-7.2 0-9.9 7.2-2.7 9.9 0 2.7 7.2 0 9.9z"/></g><g fill="#f8f9fa"><path d="M1725 30.3c1.6 0 3.1-.7 4.1-1.9.1-.2.5-.7.8-1.4.6-1.6.3-3 0-3.9-.4-1.1-1.1-1.7-1.4-2-1.1-.9-2.2-1.2-2.5-1.2-.3-.1-.6-.1-1-.1-2.9 0-5.3 2.3-5.3 5.3.1 2.8 2.4 5.2 5.3 5.2z"/><path d="M1738.5 24.1l-5.2-2.6 1.8-5.5c.2-.7-.5-1.4-1.2-1.2l-5.5 1.8-2.6-5.2c-.4-.7-1.3-.7-1.7 0l-2.6 5.2-5.5-1.8c-.7-.2-1.4.5-1.2 1.2l1.8 5.5-5.2 2.6c-.7.4-.7 1.3 0 1.7l5.2 2.6-1.8 5.5c-.2.7.5 1.4 1.2 1.2l5.5-1.8 2.6 5.2c.4.7 1.3.7 1.7 0l2.6-5.2 5.5 1.8c.7.2 1.4-.5 1.2-1.2l-1.8-5.5 5.2-2.6c.7-.3.7-1.3 0-1.7zm-8.5 5.8c-2.7 2.7-7.2 2.7-9.9 0s-2.7-7.2 0-9.9 7.2-2.7 9.9 0 2.7 7.2 0 9.9z"/></g><g fill="#f8f9fa"><path d="M1775 30.3c1.6 0 3.1-.7 4.1-1.9.1-.2.5-.7.8-1.4.6-1.6.3-3 0-3.9-.4-1.1-1.1-1.7-1.4-2-1.1-.9-2.2-1.2-2.5-1.2-.3-.1-.6-.1-1-.1-2.9 0-5.3 2.3-5.3 5.3.1 2.8 2.4 5.2 5.3 5.2z"/><path d="M1788.5 24.1l-5.2-2.6 1.8-5.5c.2-.7-.5-1.4-1.2-1.2l-5.5 1.8-2.6-5.2c-.4-.7-1.3-.7-1.7 0l-2.6 5.2-5.5-1.8c-.7-.2-1.4.5-1.2 1.2l1.8 5.5-5.2 2.6c-.7.4-.7 1.3 0 1.7l5.2 2.6-1.8 5.5c-.2.7.5 1.4 1.2 1.2l5.5-1.8 2.6 5.2c.4.7 1.3.7 1.7 0l2.6-5.2 5.5 1.8c.7.2 1.4-.5 1.2-1.2l-1.8-5.5 5.2-2.6c.7-.3.7-1.3 0-1.7zm-8.5 5.8c-2.7 2.7-7.2 2.7-9.9 0s-2.7-7.2 0-9.9 7.2-2.7 9.9 0 2.7 7.2 0 9.9z"/></g><g fill="#f8f9fa"><path d="M1825 30.3c1.6 0 3.1-.7 4.1-1.9.1-.2.5-.7.8-1.4.6-1.6.3-3 0-3.9-.4-1.1-1.1-1.7-1.4-2-1.1-.9-2.2-1.2-2.5-1.2-.3-.1-.6-.1-1-.1-2.9 0-5.3 2.3-5.3 5.3.1 2.8 2.4 5.2 5.3 5.2z"/><path d="M1838.5 24.1l-5.2-2.6 1.8-5.5c.2-.7-.5-1.4-1.2-1.2l-5.5 1.8-2.6-5.2c-.4-.7-1.3-.7-1.7 0l-2.6 5.2-5.5-1.8c-.7-.2-1.4.5-1.2 1.2l1.8 5.5-5.2 2.6c-.7.4-.7 1.3 0 1.7l5.2 2.6-1.8 5.5c-.2.7.5 1.4 1.2 1.2l5.5-1.8 2.6 5.2c.4.7 1.3.7 1.7 0l2.6-5.2 5.5 1.8c.7.2 1.4-.5 1.2-1.2l-1.8-5.5 5.2-2.6c.7-.3.7-1.3 0-1.7zm-8.5 5.8c-2.7 2.7-7.2 2.7-9.9 0s-2.7-7.2 0-9.9 7.2-2.7 9.9 0 2.7 7.2 0 9.9z"/></g><g fill="#f8f9fa"><path d="M1875 30.3c1.6 0 3.1-.7 4.1-1.9.1-.2.5-.7.8-1.4.6-1.6.3-3 0-3.9-.4-1.1-1.1-1.7-1.4-2-1.1-.9-2.2-1.2-2.5-1.2-.3-.1-.6-.1-1-.1-2.9 0-5.3 2.3-5.3 5.3.1 2.8 2.4 5.2 5.3 5.2z"/><path d="M1888.5 24.1l-5.2-2.6 1.8-5.5c.2-.7-.5-1.4-1.2-1.2l-5.5 1.8-2.6-5.2c-.4-.7-1.3-.7-1.7 0l-2.6 5.2-5.5-1.8c-.7-.2-1.4.5-1.2 1.2l1.8 5.5-5.2 2.6c-.7.4-.7 1.3 0 1.7l5.2 2.6-1.8 5.5c-.2.7.5 1.4 1.2 1.2l5.5-1.8 2.6 5.2c.4.7 1.3.7 1.7 0l2.6-5.2 5.5 1.8c.7.2 1.4-.5 1.2-1.2l-1.8-5.5 5.2-2.6c.7-.3.7-1.3 0-1.7zm-8.5 5.8c-2.7 2.7-7.2 2.7-9.9 0s-2.7-7.2 0-9.9 7.2-2.7 9.9 0 2.7 7.2 0 9.9z"/></g><g fill="#f8f9fa"><path d="M1925 30.3c1.6 0 3.1-.7 4.1-1.9.1-.2.5-.7.8-1.4.6-1.6.3-3 0-3.9-.4-1.1-1.1-1.7-1.4-2-1.1-.9-2.2-1.2-2.5-1.2-.3-.1-.6-.1-1-.1-2.9 0-5.3 2.3-5.3 5.3.1 2.8 2.4 5.2 5.3 5.2z"/><path d="M1938.5 24.1l-5.2-2.6 1.8-5.5c.2-.7-.5-1.4-1.2-1.2l-5.5 1.8-2.6-5.2c-.4-.7-1.3-.7-1.7 0l-2.6 5.2-5.5-1.8c-.7-.2-1.4.5-1.2 1.2l1.8 5.5-5.2 2.6c-.7.4-.7 1.3 0 1.7l5.2 2.6-1.8 5.5c-.2.7.5 1.4 1.2 1.2l5.5-1.8 2.6 5.2c.4.7 1.3.7 1.7 0l2.6-5.2 5.5 1.8c.7.2 1.4-.5 1.2-1.2l-1.8-5.5 5.2-2.6c.7-.3.7-1.3 0-1.7zm-8.5 5.8c-2.7 2.7-7.2 2.7-9.9 0s-2.7-7.2 0-9.9 7.2-2.7 9.9 0 2.7 7.2 0 9.9z"/></g><g fill="#f8f9fa"><path d="M1975 30.3c1.6 0 3.1-.7 4.1-1.9.1-.2.5-.7.8-1.4.6-1.6.3-3 0-3.9-.4-1.1-1.1-1.7-1.4-2-1.1-.9-2.2-1.2-2.5-1.2-.3-.1-.6-.1-1-.1-2.9 0-5.3 2.3-5.3 5.3.1 2.8 2.4 5.2 5.3 5.2z"/><path d="M1988.5 24.1l-5.2-2.6 1.8-5.5c.2-.7-.5-1.4-1.2-1.2l-5.5 1.8-2.6-5.2c-.4-.7-1.3-.7-1.7 0l-2.6 5.2-5.5-1.8c-.7-.2-1.4.5-1.2 1.2l1.8 5.5-5.2 2.6c-.7.4-.7 1.3 0 1.7l5.2 2.6-1.8 5.5c-.2.7.5 1.4 1.2 1.2l5.5-1.8 2.6 5.2c.4.7 1.3.7 1.7 0l2.6-5.2 5.5 1.8c.7.2 1.4-.5 1.2-1.2l-1.8-5.5 5.2-2.6c.7-.3.7-1.3 0-1.7zm-8.5 5.8c-2.7 2.7-7.2 2.7-9.9 0s-2.7-7.2 0-9.9 7.2-2.7 9.9 0 2.7 7.2 0 9.9z"/></g><g fill="#f8f9fa"><path d="M2025 30.3c1.6 0 3.1-.7 4.1-1.9.1-.2.5-.7.8-1.4.6-1.6.3-3 0-3.9-.4-1.1-1.1-1.7-1.4-2-1.1-.9-2.2-1.2-2.5-1.2-.3-.1-.6-.1-1-.1-2.9 0-5.3 2.3-5.3 5.3.1 2.8 2.4 5.2 5.3 5.2z"/><path d="M2038.5 24.1l-5.2-2.6 1.8-5.5c.2-.7-.5-1.4-1.2-1.2l-5.5 1.8-2.6-5.2c-.4-.7-1.3-.7-1.7 0l-2.6 5.2-5.5-1.8c-.7-.2-1.4.5-1.2 1.2l1.8 5.5-5.2 2.6c-.7.4-.7 1.3 0 1.7l5.2 2.6-1.8 5.5c-.2.7.5 1.4 1.2 1.2l5.5-1.8 2.6 5.2c.4.7 1.3.7 1.7 0l2.6-5.2 5.5 1.8c.7.2 1.4-.5 1.2-1.2l-1.8-5.5 5.2-2.6c.7-.3.7-1.3 0-1.7zm-8.5 5.8c-2.7 2.7-7.2 2.7-9.9 0s-2.7-7.2 0-9.9 7.2-2.7 9.9 0 2.7 7.2 0 9.9z"/></g><g fill="#f8f9fa"><path d="M2075 30.3c1.6 0 3.1-.7 4.1-1.9.1-.2.5-.7.8-1.4.6-1.6.3-3 0-3.9-.4-1.1-1.1-1.7-1.4-2-1.1-.9-2.2-1.2-2.5-1.2-.3-.1-.6-.1-1-.1-2.9 0-5.3 2.3-5.3 5.3.1 2.8 2.4 5.2 5.3 5.2z"/><path d="M2088.5 24.1l-5.2-2.6 1.8-5.5c.2-.7-.5-1.4-1.2-1.2l-5.5 1.8-2.6-5.2c-.4-.7-1.3-.7-1.7 0l-2.6 5.2-5.5-1.8c-.7-.2-1.4.5-1.2 1.2l1.8 5.5-5.2 2.6c-.7.4-.7 1.3 0 1.7l5.2 2.6-1.8 5.5c-.2.7.5 1.4 1.2 1.2l5.5-1.8 2.6 5.2c.4.7 1.3.7 1.7 0l2.6-5.2 5.5 1.8c.7.2 1.4-.5 1.2-1.2l-1.8-5.5 5.2-2.6c.7-.3.7-1.3 0-1.7zm-8.5 5.8c-2.7 2.7-7.2 2.7-9.9 0s-2.7-7.2 0-9.9 7.2-2.7 9.9 0 2.7 7.2 0 9.9z"/></g><g fill="#f8f9fa"><path d="M2125 30.3c1.6 0 3.1-.7 4.1-1.9.1-.2.5-.7.8-1.4.6-1.6.3-3 0-3.9-.4-1.1-1.1-1.7-1.4-2-1.1-.9-2.2-1.2-2.5-1.2-.3-.1-.6-.1-1-.1-2.9 0-5.3 2.3-5.3 5.3.1 2.8 2.4 5.2 5.3 5.2z"/><path d="M2138.5 24.1l-5.2-2.6 1.8-5.5c.2-.7-.5-1.4-1.2-1.2l-5.5 1.8-2.6-5.2c-.4-.7-1.3-.7-1.7 0l-2.6 5.2-5.5-1.8c-.7-.2-1.4.5-1.2 1.2l1.8 5.5-5.2 2.6c-.7.4-.7 1.3 0 1.7l5.2 2.6-1.8 5.5c-.2.7.5 1.4 1.2 1.2l5.5-1.8 2.6 5.2c.4.7 1.3.7 1.7 0l2.6-5.2 5.5 1.8c.7.2 1.4-.5 1.2-1.2l-1.8-5.5 5.2-2.6c.7-.3.7-1.3 0-1.7zm-8.5 5.8c-2.7 2.7-7.2 2.7-9.9 0s-2.7-7.2 0-9.9 7.2-2.7 9.9 0 2.7 7.2 0 9.9z"/></g><g fill="#f8f9fa"><path d="M2175 30.3c1.6 0 3.1-.7 4.1-1.9.1-.2.5-.7.8-1.4.6-1.6.3-3 0-3.9-.4-1.1-1.1-1.7-1.4-2-1.1-.9-2.2-1.2-2.5-1.2-.3-.1-.6-.1-1-.1-2.9 0-5.3 2.3-5.3 5.3.1 2.8 2.4 5.2 5.3 5.2z"/><path d="M2186.2 24.25l-4.317-2.15 1.5-4.567c.167-.583-.416-1.166-1-1l-4.566 1.5-2.15-4.316c-.334-.584-1.084-.584-1.417 0l-2.15 4.316-4.567-1.5c-.583-.166-1.166.417-1 1l1.5 4.567-4.316 2.15c-.584.333-.584 1.083 0 1.417l4.316 2.15-1.5 4.566c-.166.584.417 1.167 1 1l4.567-1.5 2.15 4.317c.333.583 1.083.583 1.417 0l2.15-4.317 4.566 1.5c.584.167 1.167-.416 1-1l-1.5-4.566 4.317-2.15c.583-.25.583-1.084 0-1.417zm-7.05 4.817c-2.233 2.233-5.967 2.233-8.217 0-2.25-2.234-2.233-5.967 0-8.217 2.234-2.25 5.967-2.233 8.217 0 2.25 2.233 2.233 5.967 0 8.217z"/></g><g fill="#f8f9fa"><path d="M2225 30.3c1.6 0 3.1-.7 4.1-1.9.1-.2.5-.7.8-1.4.6-1.6.3-3 0-3.9-.4-1.1-1.1-1.7-1.4-2-1.1-.9-2.2-1.2-2.5-1.2-.3-.1-.6-.1-1-.1-2.9 0-5.3 2.3-5.3 5.3.1 2.8 2.4 5.2 5.3 5.2z"/><path d="M2233.9 24.4l-3.433-1.7 1.2-3.633c.133-.467-.334-.934-.8-.8l-3.634 1.2-1.7-3.434c-.266-.466-.866-.466-1.133 0l-1.7 3.434-3.633-1.2c-.467-.134-.934.333-.8.8l1.2 3.633-3.434 1.7c-.466.267-.466.867 0 1.133l3.434 1.7-1.2 3.634c-.134.466.333.933.8.8l3.633-1.2 1.7 3.433c.267.467.867.467 1.133 0l1.7-3.433 3.634 1.2c.466.133.933-.334.8-.8l-1.2-3.634 3.433-1.7c.467-.2.467-.866 0-1.133zm-5.6 3.833c-1.767 1.767-4.733 1.767-6.533 0-1.8-1.766-1.767-4.733 0-6.533 1.766-1.8 4.733-1.767 6.533 0 1.8 1.767 1.767 4.733 0 6.533z"/></g><g fill="#f8f9fa"><path d="M2275 30.3c1.6 0 3.1-.7 4.1-1.9.1-.2.5-.7.8-1.4.6-1.6.3-3 0-3.9-.4-1.1-1.1-1.7-1.4-2-1.1-.9-2.2-1.2-2.5-1.2-.3-.1-.6-.1-1-.1-2.9 0-5.3 2.3-5.3 5.3.1 2.8 2.4 5.2 5.3 5.2z"/><path d="M2281.6 24.55l-2.55-1.25.9-2.7c.1-.35-.25-.7-.6-.6l-2.7.9-1.25-2.55c-.2-.35-.65-.35-.85 0l-1.25 2.55-2.7-.9c-.35-.1-.7.25-.6.6l.9 2.7-2.55 1.25c-.35.2-.35.65 0 .85l2.55 1.25-.9 2.7c-.1.35.25.7.6.6l2.7-.9 1.25 2.55c.2.35.65.35.85 0l1.25-2.55 2.7.9c.35.1.7-.25.6-.6l-.9-2.7 2.55-1.25c.35-.15.35-.65 0-.85zm-4.15 2.85c-1.3 1.3-3.5 1.3-4.85 0-1.35-1.3-1.3-3.5 0-4.85 1.3-1.35 3.5-1.3 4.85 0 1.35 1.3 1.3 3.5 0 4.85z"/></g><g fill="#f8f9fa"><path d="M2325 30.3c1.6 0 3.1-.7 4.1-1.9.1-.2.5-.7.8-1.4.6-1.6.3-3 0-3.9-.4-1.1-1.1-1.7-1.4-2-1.1-.9-2.2-1.2-2.5-1.2-.3-.1-.6-.1-1-.1-2.9 0-5.3 2.3-5.3 5.3.1 2.8 2.4 5.2 5.3 5.2z"/><path d="M2329.3 24.7l-1.667-.8.6-1.767c.067-.233-.166-.466-.4-.4l-1.766.6-.8-1.666c-.134-.234-.434-.234-.567 0l-.8 1.666-1.767-.6c-.233-.066-.466.167-.4.4l.6 1.767-1.666.8c-.234.133-.234.433 0 .567l1.666.8-.6 1.766c-.066.234.167.467.4.4l1.767-.6.8 1.667c.133.233.433.233.567 0l.8-1.667 1.766.6c.234.067.467-.166.4-.4l-.6-1.766 1.667-.8c.233-.1.233-.434 0-.567zm-2.7 1.867c-.833.833-2.267.833-3.167 0-.9-.834-.833-2.267 0-3.167.834-.9 2.267-.833 3.167 0 .9.833.833 2.267 0 3.167z"/></g><g fill="#f8f9fa"><path d="M2375 30.3c1.6 0 3.1-.7 4.1-1.9.1-.2.5-.7.8-1.4.6-1.6.3-3 0-3.9-.4-1.1-1.1-1.7-1.4-2-1.1-.9-2.2-1.2-2.5-1.2-.3-.1-.6-.1-1-.1-2.9 0-5.3 2.3-5.3 5.3.1 2.8 2.4 5.2 5.3 5.2z"/><path d="M2377 24.85l-.783-.35.3-.833c.033-.117-.084-.234-.2-.2l-.834.3-.35-.784c-.066-.116-.216-.116-.283 0l-.35.784-.833-.3c-.117-.034-.234.083-.2.2l.3.833-.784.35c-.116.067-.116.217 0 .283l.784.35-.3.834c-.034.116.083.233.2.2l.833-.3.35.783c.067.117.217.117.283 0l.35-.783.834.3c.116.033.233-.084.2-.2l-.3-.834.783-.35c.117-.05.117-.216 0-.283zm-1.25.883c-.367.367-1.033.367-1.483 0-.45-.366-.367-1.033 0-1.483.366-.45 1.033-.367 1.483 0 .45.367.367 1.033 0 1.483z"/></g><g fill="#f8f9fa"><path d="M2425 30.3c1.6 0 3.1-.7 4.1-1.9.1-.2.5-.7.8-1.4.6-1.6.3-3 0-3.9-.4-1.1-1.1-1.7-1.4-2-1.1-.9-2.2-1.2-2.5-1.2-.3-.1-.6-.1-1-.1-2.9 0-5.3 2.3-5.3 5.3.1 2.8 2.4 5.2 5.3 5.2z"/><path d="M2424.7 25l.1.1v.1h.1l.1.1.1-.1h.1v-.1l.1-.1-.1-.1v-.1h-.1l-.1-.1-.1.1h-.1v.1l-.1.1zm.2-.1c.1-.1.2-.1.2 0s.1.2 0 .2-.2.1-.2 0-.1-.2 0-.2z"/></g><g fill="#f8f9fa"><path d="M2475 30.3c1.6 0 3.1-.7 4.1-1.9.1-.2.457-.674.715-1.315.336-1.421-.143-2.872-.417-3.908-.366-1.134-.938-1.794-1.102-2.137-.99-.831-2.005-1.131-2.296-1.14-.3-.1-.6-.1-1-.1-2.9 0-5.3 2.3-5.3 5.3.1 2.8 2.4 5.2 5.3 5.2z"/><path d="M2474.7 25l.1.1v.1h.1l.1.1.1-.1h.1v-.1l.1-.1-.1-.1v-.1h-.1l-.1-.1-.1.1h-.1v.1l-.1.1zm.2-.1c.1-.1.2-.1.2 0s.1.2 0 .2-.2.1-.2 0-.1-.2 0-.2z"/></g><g fill="#f8f9fa"><path d="M2525 30.3c1.6 0 3.1-.7 4.1-1.9.1-.2.271-.563.343-.943-.818-.64-2.078-2.314-2.241-3.945-.217-1.283-.231-2.203.201-2.732-.506-.534-1.149-.834-1.403-.88-.3-.1-.6-.1-1-.1-2.9 0-5.3 2.3-5.3 5.3.1 2.8 2.4 5.2 5.3 5.2z"/><path d="M2524.7 25l.1.1v.1h.1l.1.1.1-.1h.1v-.1l.1-.1-.1-.1v-.1h-.1l-.1-.1-.1.1h-.1v.1l-.1.1zm.2-.1c.1-.1.2-.1.2 0s.1.2 0 .2-.2.1-.2 0-.1-.2 0-.2z"/></g><g fill="#f8f9fa"><path d="M2575 30.3c1.6 0 3.1-.7 4.1-1.9.1-.2.112-.467.024-.624-1.804.028-3.732-1.837-3.8-3.978-.09-1.41.374-2.553 1.315-3.241-.092-.279-.417-.579-.639-.657-.3-.1-.6-.1-1-.1-2.9 0-5.3 2.3-5.3 5.3.1 2.8 2.4 5.2 5.3 5.2z"/><path d="M2574.7 25l.1.1v.1h.1l.1.1.1-.1h.1v-.1l.1-.1-.1-.1v-.1h-.1l-.1-.1-.1.1h-.1v.1l-.1.1zm.2-.1c.1-.1.2-.1.2 0s.1.2 0 .2-.2.1-.2 0-.1-.2 0-.2z"/></g><g fill="#f8f9fa"><path d="M2625 30.3c1.6 0 3.1-.7 4.1-1.9.1-.2.04-.424-.121-.479-2.254.333-4.488-1.619-4.512-3.992-.031-1.469.65-2.713 1.823-3.474.097-.163-.082-.463-.29-.555-.3-.1-.6-.1-1-.1-2.9 0-5.3 2.3-5.3 5.3.1 2.8 2.4 5.2 5.3 5.2z"/><path d="M2624.7 25l.1.1v.1h.1l.1.1.1-.1h.1v-.1l.1-.1-.1-.1v-.1h-.1l-.1-.1-.1.1h-.1v.1l-.1.1zm.2-.1c.1-.1.2-.1.2 0s.1.2 0 .2-.2.1-.2 0-.1-.2 0-.2z"/></g><g fill="#f8f9fa"><path d="M2675 30.3c1.6 0 3.1-.7 4.1-1.9.1-.2.008-.405-.183-.417-2.449.465-4.814-1.525-4.819-3.998-.006-1.493.769-2.782 2.042-3.573.178-.114.062-.414-.14-.512-.3-.1-.6-.1-1-.1-2.9 0-5.3 2.3-5.3 5.3.1 2.8 2.4 5.2 5.3 5.2z"/><path d="M2674.7 25l.1.1v.1h.1l.1.1.1-.1h.1v-.1l.1-.1-.1-.1v-.1h-.1l-.1-.1-.1.1h-.1v.1l-.1.1zm.2-.1c.1-.1.2-.1.2 0s.1.2 0 .2-.2.1-.2 0-.1-.2 0-.2z"/></g><g fill="#f8f9fa"><path d="M2725 30.3c1.6 0 3.1-.7 4.1-1.9.1-.2 0-.4-.2-.4-2.5.5-4.9-1.5-4.9-4 0-1.5.8-2.8 2.1-3.6.2-.1.1-.4-.1-.5-.3-.1-.6-.1-1-.1-2.9 0-5.3 2.3-5.3 5.3.1 2.8 2.4 5.2 5.3 5.2z"/><path d="M2724.7 25l.1.1v.1h.1l.1.1.1-.1h.1v-.1l.1-.1-.1-.1v-.1h-.1l-.1-.1-.1.1h-.1v.1l-.1.1zm.2-.1c.1-.1.2-.1.2 0s.1.2 0 .2-.2.1-.2 0-.1-.2 0-.2z"/></g><g fill="#f8f9fa"><path d="M2775 31.04c1.83 0 3.543-.81 4.679-2.18.125-.226 0-.469-.234-.46-2.866.568-5.59-1.704-5.59-4.579 0-1.704.911-3.208 2.39-4.102.225-.117.125-.459-.109-.559-.351-.1-.702-.109-1.136-.109-3.309 0-6.04 2.64-6.04 6.04.091 3.218 2.731 5.949 6.04 5.949z"/><path d="M2774.7 25l.1.1v.1h.1l.1.1.1-.1h.1v-.1l.1-.1-.1-.1v-.1h-.1l-.1-.1-.1.1h-.1v.1l-.1.1zm.2-.1c.1-.1.2-.1.2 0s.1.2 0 .2-.2.1-.2 0-.1-.2 0-.2z"/></g><g fill="#f8f9fa"><path d="M2825 34.278c2.835 0 5.478-1.294 7.209-3.409.237-.337 0-.766-.383-.72-4.466.866-8.603-2.597-8.603-7.109 0-2.598 1.394-4.995 3.654-6.298.338-.191.238-.72-.145-.82-.575-.1-1.149-.146-1.732-.146-5.095 0-9.278 4.129-9.278 9.278.054 5.041 4.183 9.224 9.278 9.224z"/><path d="M2824.7 25l.1.1v.1h.1l.1.1.1-.1h.1v-.1l.1-.1-.1-.1v-.1h-.1l-.1-.1-.1.1h-.1v.1l-.1.1zm.2-.1c.1-.1.2-.1.2 0s.1.2 0 .2-.2.1-.2 0-.1-.2 0-.2z"/></g><g fill="#f8f9fa"><path d="M2875 37.047c3.694 0 7.133-1.708 9.374-4.459.332-.433 0-1.02-.51-.943-5.835 1.121-11.182-3.361-11.182-9.274 0-3.361 1.808-6.522 4.736-8.175.433-.256.333-.943-.177-1.043-.765-.1-1.531-.178-2.241-.178-6.623 0-12.047 5.402-12.047 12.047.022 6.601 5.424 12.025 12.047 12.025z"/><path d="M2874.7 25l.1.1v.1h.1l.1.1.1-.1h.1v-.1l.1-.1-.1-.1v-.1h-.1l-.1-.1-.1.1h-.1v.1l-.1.1zm.2-.1c.1-.1.2-.1.2 0s.1.2 0 .2-.2.1-.2 0-.1-.2 0-.2z"/></g><g fill="#f8f9fa"><path d="M2925 38.311c4.086 0 7.888-1.897 10.361-4.939.377-.476 0-1.136-.568-1.044-6.459 1.236-12.358-3.71-12.358-10.262 0-3.709 1.997-7.219 5.23-9.032.477-.284.377-1.045-.192-1.145-.852-.1-1.705-.192-2.473-.192-7.32 0-13.311 5.983-13.311 13.311.008 7.312 5.991 13.303 13.311 13.303z"/><path d="M2924.7 25l.1.1v.1h.1l.1.1.1-.1h.1v-.1l.1-.1-.1-.1v-.1h-.1l-.1-.1-.1.1h-.1v.1l-.1.1zm.2-.1c.1-.1.2-.1.2 0s.1.2 0 .2-.2.1-.2 0-.1-.2 0-.2z"/></g><g fill="#f8f9fa"><path d="M2975 38.855c4.255 0 8.213-1.978 10.787-5.145.395-.495 0-1.187-.594-1.088-6.728 1.286-12.865-3.86-12.865-10.687 0-3.86 2.079-7.52 5.444-9.402.495-.297.395-1.088-.199-1.188-.89-.1-1.78-.199-2.573-.199-7.62 0-13.855 6.234-13.855 13.856.001 7.618 6.235 13.853 13.855 13.853z"/><path d="M2974.7 25l.1.1v.1h.1l.1.1.1-.1h.1v-.1l.1-.1-.1-.1v-.1h-.1l-.1-.1-.1.1h-.1v.1l-.1.1zm.2-.1c.1-.1.2-.1.2 0s.1.2 0 .2-.2.1-.2 0-.1-.2 0-.2z"/></g><g fill="#f8f9fa"><path d="M3025 39c4.3 0 8.3-2 10.9-5.2.4-.5 0-1.2-.6-1.1-6.8 1.3-13-3.9-13-10.8 0-3.9 2.1-7.6 5.5-9.5.5-.3.4-1.1-.2-1.2-.9-.1-1.8-.2-2.6-.2-7.7 0-14 6.3-14 14s6.3 14 14 14z"/><path d="M3024.7 25l.1.1v.1h.1l.1.1.1-.1h.1v-.1l.1-.1-.1-.1v-.1h-.1l-.1-.1-.1.1h-.1v.1l-.1.1zm.2-.1c.1-.1.2-.1.2 0s.1.2 0 .2-.2.1-.2 0-.1-.2 0-.2z"/></g></svg>