<?xml version="1.0" encoding="utf-8"?>
<!-- Generator: Adobe Illustrator 23.0.1, SVG Export Plug-In . SVG Version: 6.00 Build 0)  -->
<svg version="1.1" id="Layer_1" focusable="false" xmlns="http://www.w3.org/2000/svg" xmlns:xlink="http://www.w3.org/1999/xlink"
	 x="0px" y="0px" viewBox="0 0 512 512" style="enable-background:new 0 0 512 512;" xml:space="preserve">
<style type="text/css">
	.st0{fill:#F8F9FA;}
</style>
<path class="st0" d="M278.3,171l60.7,60.7c2.6,2.6,2.6,6.7,0,9.3L192,388l-62.5,6.9c-8.3,0.9-15.4-6.1-14.5-14.5l7-62.4l147-147
	C271.6,168.4,275.7,168.4,278.3,171L278.3,171z"/>
<path class="st0" d="M387.3,155.6l-32.8-32.8c-10.2-10.2-26.9-10.2-37.2,0l-23.8,23.8c-2.6,2.6-2.6,6.7,0,9.3l60.7,60.7
	c2.6,2.6,6.7,2.6,9.3,0l23.8-23.8C397.6,182.4,397.6,165.8,387.3,155.6z"/>
</svg>
