<svg xmlns="http://www.w3.org/2000/svg" viewBox="0 0 3050 50" width="3050" height="50"><g fill="#f8f9fa"><path d="M27 17.7l5.2 5.2c.2.2.2.6 0 .8L19.6 36.4l-5.4.6c-.7.1-1.3-.6-1.2-1.2l.6-5.4 12.6-12.7c.2-.3.5-.3.8 0zm9.4-1.3l-2.8-2.8c-.8-.8-2.3-.8-3.2 0l-2 2c-.2.2-.2.6 0 .8l5.2 5.2c.2.2.6.2.8 0l2-2c.8-1 .8-2.4 0-3.2z"/><path d="M14 37c-.6 0-1-.4-1-1s.4-1 1-1 1 .4 1 1-.4 1-1 1z"/></g><g fill="#f8f9fa"><path d="M77.008 17.691l5.206 5.187c.2.2.201.6.001.8L69.647 36.391 64.251 37c-.699.101-1.3-.598-1.201-1.197l.59-5.397 12.569-12.713c.199-.3.499-.301.799-.002zm9.391-1.315l-2.803-2.793c-.801-.798-2.3-.795-3.198.006l-1.995 2.002c-.199.2-.199.6.002.799l5.205 5.187c.2.2.6.199.8-.001l1.995-2.002c.797-1.001.795-2.4-.006-3.198z"/><path d="M64.05 37H64c-.6 0-1-.4-1-1s.4-1 1-1h.05c.6 0 1 .4 1 1s-.4 1-1 1z"/></g><g fill="#f8f9fa"><path d="M127.035 17.663l5.224 5.144c.201.198.204.597.006.798L119.8 36.361l-5.379.638c-.696.105-1.3-.588-1.205-1.187l.557-5.388 12.465-12.755c.197-.301.496-.303.797-.006zm9.361-1.366l-2.813-2.77c-.803-.792-2.299-.78-3.19.024l-1.979 2.009c-.198.201-.195.6.006.797l5.224 5.145c.201.198.6.195.797-.006l1.979-2.01c.79-1.002.78-2.398-.024-3.189z"/><path d="M114.214 37h-.215c-.6 0-1-.4-1-1s.4-1 1-1h.215c.6 0 1 .4 1 1s-.401 1-1 1z"/></g><g fill="#f8f9fa"><path d="M177.085 17.609l5.257 5.066c.203.195.211.592.016.795l-12.272 12.834-5.348.693c-.692.113-1.3-.571-1.213-1.169l.497-5.369 12.271-12.834c.192-.303.49-.308.792-.016zm9.305-1.46l-2.831-2.727c-.808-.78-2.298-.751-3.177.059l-1.948 2.021c-.195.202-.187.6.015.795l5.257 5.065c.203.195.6.187.795-.015l1.948-2.024c.774-1.005.751-2.395-.059-3.174z"/><path d="M164.52 37h-.523c-.6 0-1-.4-1-1s.4-1 1-1h.523c.6 0 1 .4 1 1s-.403 1-1 1z"/></g><g fill="#f8f9fa"><path d="M227.165 17.525l5.31 4.941c.205.19.22.585.03.79l-11.966 12.959-5.3.78c-.685.125-1.3-.545-1.225-1.14l.4-5.34 11.966-12.96c.185-.305.48-.315.785-.03zm9.215-1.609l-2.86-2.661c-.815-.76-2.295-.705-3.155.115l-1.9 2.04c-.19.205-.175.6.03.79l5.31 4.941c.205.19.6.175.79-.03l1.9-2.045c.75-1.01.705-2.39-.115-3.15z"/><path d="M215.004 37h-1.009c-.6 0-1-.4-1-1s.4-1 1-1h1.009c.6 0 1 .4 1 1s-.405 1-1 1z"/></g><g fill="#f8f9fa"><path d="M277.281 17.402l5.387 4.758c.209.183.234.574.051.783L271.2 36.085l-5.23.906c-.674.143-1.3-.506-1.242-1.097l.259-5.298 11.519-13.143c.175-.308.466-.325.775-.051zm9.085-1.828l-2.902-2.561c-.826-.732-2.292-.639-3.124.196l-1.829 2.068c-.183.208-.158.6.051.783l5.387 4.757c.208.183.6.157.783-.051l1.83-2.077c.715-1.017.638-2.383-.196-3.115z"/><path d="M265.711 37h-1.72c-.6 0-1-.4-1-1s.4-1 1-1h1.72c.6 0 1 .4 1 1s-.409 1-1 1z"/></g><g fill="#f8f9fa"><path d="M327.442 17.231l5.495 4.504c.213.173.253.559.08.773l-10.899 13.396-5.132 1.083c-.66.167-1.3-.453-1.267-1.04l.064-5.239 10.899-13.396c.16-.314.447-.341.76-.081zm8.904-2.13l-2.96-2.425c-.84-.693-2.287-.546-3.08.308l-1.732 2.107c-.173.213-.133.6.08.773l5.495 4.504c.214.173.6.133.773-.081l1.732-2.12c.667-1.027.546-2.373-.308-3.066z"/><path d="M316.692 37h-2.705c-.6 0-1-.4-1-1s.4-1 1-1h2.705c.6 0 1 .4 1 1s-.413 1-1 1z"/></g><g fill="#f8f9fa"><path d="M377.655 17.005l5.637 4.168c.219.161.279.541.119.761l-10.08 13.732-5.003 1.314c-.64.199-1.3-.382-1.299-.962l-.194-5.162 10.079-13.732c.141-.319.421-.359.741-.119zm8.666-2.53l-3.039-2.244c-.859-.642-2.28-.423-3.021.456l-1.603 2.159c-.16.22-.101.6.119.76l5.637 4.168c.22.16.6.101.76-.119l1.603-2.179c.602-1.039.423-2.36-.456-3.001z"/><path d="M367.989 37h-4.009c-.6 0-1-.4-1-1s.4-1 1-1h4.009c.6 0 1 .4 1 1s-.42 1-1 1z"/></g><g fill="#f8f9fa"><path d="M427.918 16.727l5.811 3.754c.228.144.312.517.167.744l-9.069 14.146-4.843 1.601c-.617.239-1.3-.294-1.34-.866l-.512-5.066 9.069-14.146c.117-.328.389-.384.717-.167zm8.371-3.024l-3.134-2.022c-.883-.577-2.272-.271-2.95.64l-1.444 2.222c-.144.228-.061.6.167.745l5.812 3.754c.228.144.6.061.744-.167l1.444-2.25c.522-1.056.272-2.345-.639-2.922z"/><path d="M419.589 37h-5.617c-.6 0-1-.4-1-1s.4-1 1-1h5.617c.6 0 1 .4 1 1s-.428 1-1 1z"/></g><g fill="#f8f9fa"><path d="M478.212 16.414l6.008 3.291c.237.126.347.489.221.726l-7.936 14.61-4.665 1.922c-.59.284-1.3-.196-1.384-.759l-.869-4.959 7.935-14.61c.09-.337.353-.41.69-.221zm8.041-3.577l-3.241-1.771c-.91-.507-2.263-.102-2.869.844l-1.266 2.294c-.126.237-.016.6.221.727l6.008 3.29c.237.126.6.016.726-.22l1.266-2.331c.433-1.074.102-2.327-.845-2.833z"/><path d="M471.383 37h-7.42c-.6 0-1-.4-1-1s.4-1 1-1h7.42c.6 0 1 .4 1 1s-.437 1-1 1z"/></g><g fill="#f8f9fa"><path d="M528.509 16.1l6.206 2.822c.246.108.383.463.274.708l-6.793 15.078-4.485 2.246c-.563.329-1.3-.097-1.429-.651l-1.229-4.851 6.793-15.078c.063-.346.317-.437.663-.274zm7.708-4.135l-3.349-1.52c-.937-.434-2.254.069-2.788 1.052l-1.086 2.365c-.108.246.029.6.275.709l6.206 2.822c.245.109.6-.028.708-.274l1.086-2.412c.343-1.091-.069-2.308-1.052-2.742z"/><path d="M523.191 37h-9.237c-.6 0-1-.4-1-1s.4-1 1-1h9.237c.6 0 1 .4 1 1s-.446 1-1 1z"/></g><g fill="#f8f9fa"><path d="M578.784 15.808l6.389 2.39c.254.092.416.438.324.692l-5.736 15.51-4.32 2.546c-.537.37-1.3-.006-1.47-.551l-1.562-4.752 5.737-15.51c.038-.354.283-.462.638-.325zm7.4-4.65l-3.449-1.287c-.962-.368-2.246.227-2.713 1.243l-.919 2.432c-.092.254.07.6.324.692l6.389 2.39c.254.092.6-.07.692-.324l.919-2.487c.259-1.108-.227-2.292-1.243-2.659z"/><path d="M574.863 37h-10.917c-.6 0-1-.4-1-1s.4-1 1-1h10.917c.6 0 1 .4 1 1s-.454 1-1 1z"/></g><g fill="#f8f9fa"><path d="M629.025 15.552l6.55 2.01c.261.077.445.416.368.677l-4.807 15.891-4.173 2.809c-.516.406-1.3.075-1.507-.464l-1.854-4.664 4.807-15.89c.016-.362.255-.485.616-.369zm7.13-5.104l-3.537-1.082c-.984-.309-2.238.366-2.648 1.411l-.772 2.491c-.078.262.106.6.368.678l6.55 2.009c.261.077.6-.107.677-.368l.773-2.552c.186-1.123-.366-2.278-1.411-2.587z"/><path d="M626.333 37h-12.394c-.6 0-1-.4-1-1s.4-1 1-1h12.394c.6 0 1 .4 1 1s-.461 1-1 1z"/></g><g fill="#f8f9fa"><path d="M679.232 15.333l6.688 1.682c.268.065.471.397.406.665l-4.009 16.217-4.047 3.035c-.498.439-1.3.144-1.539-.388l-2.105-4.588 4.009-16.218c-.003-.367.23-.503.597-.405zm6.897-5.494l-3.611-.906c-1.003-.259-2.233.485-2.591 1.555l-.648 2.542c-.064.267.139.6.406.664l6.688 1.683c.268.065.6-.138.665-.406l.647-2.609c.124-1.135-.485-2.264-1.556-2.523z"/><path d="M677.596 37h-13.664c-.6 0-1-.4-1-1s.4-1 1-1h13.664c.6 0 1 .4 1 1s-.468 1-1 1z"/></g><g fill="#f8f9fa"><path d="M729.409 15.145l6.806 1.404c.273.054.492.381.438.654l-3.33 16.496-3.94 3.228c-.481.465-1.3.203-1.565-.324l-2.32-4.524 3.33-16.496c-.019-.373.208-.519.581-.438zm6.699-5.826l-3.676-.756c-1.019-.216-2.227.587-2.543 1.679l-.54 2.584c-.054.273.165.6.438.654l6.806 1.404c.273.054.6-.165.654-.438l.54-2.657c.07-1.146-.587-2.254-1.679-2.47z"/><path d="M728.672 37h-14.745c-.6 0-1-.4-1-1s.4-1 1-1h14.745c.6 0 1 .4 1 1s-.473 1-1 1z"/></g><g fill="#f8f9fa"><path d="M779.559 14.986l6.907 1.167c.277.045.51.367.465.645l-2.75 16.732-3.849 3.392c-.468.488-1.3.254-1.588-.269l-2.502-4.469 2.75-16.733c-.033-.378.19-.533.567-.465zm6.531-6.109l-3.731-.628c-1.033-.18-2.222.673-2.502 1.783l-.449 2.621c-.045.277.188.6.466.645l6.906 1.167c.277.045.6-.188.645-.466l.449-2.698c.024-1.155-.674-2.244-1.784-2.424z"/><path d="M779.589 37h-15.667c-.6 0-1-.4-1-1s.4-1 1-1h15.667c.6 0 1 .4 1 1s-.478 1-1 1z"/></g><g fill="#f8f9fa"><path d="M829.688 14.849l6.991.965c.282.038.526.356.489.638l-2.257 16.935-3.771 3.532c-.455.507-1.3.295-1.607-.223l-2.658-4.423 2.257-16.935c-.044-.381.174-.544.556-.489zm6.386-6.349l-3.777-.52c-1.044-.148-2.219.748-2.467 1.874l-.371 2.651c-.037.282.207.6.488.637l6.992.965c.282.037.6-.207.637-.488l.371-2.733c-.014-1.163-.747-2.238-1.873-2.386z"/><path d="M830.37 37h-16.451c-.6 0-1-.4-1-1s.4-1 1-1h16.451c.6 0 1 .4 1 1s-.481 1-1 1z"/></g><g fill="#f8f9fa"><path d="M879.797 14.733l7.065.793c.285.03.539.345.508.63l-1.835 17.108-3.705 3.651c-.445.524-1.3.333-1.623-.183l-2.791-4.382 1.835-17.108c-.054-.385.161-.554.546-.509zm6.264-6.555l-3.817-.427c-1.054-.121-2.215.811-2.437 1.95l-.305 2.678c-.031.285.224.6.508.631l7.065.792c.285.03.6-.224.631-.509l.304-2.763c-.047-1.169-.81-2.23-1.949-2.352z"/><path d="M881.037 37h-17.122c-.6 0-1-.4-1-1s.4-1 1-1h17.122c.6 0 1 .4 1 1s-.485 1-1 1z"/></g><g fill="#f8f9fa"><path d="M929.891 14.634l7.127.645c.287.025.55.337.525.625l-1.475 17.255-3.648 3.753c-.437.538-1.3.364-1.638-.148l-2.904-4.349 1.475-17.255c-.062-.388.15-.563.538-.526zm6.159-6.731l-3.852-.347c-1.062-.099-2.212.864-2.411 2.015l-.248 2.7c-.025.288.238.6.525.625l7.127.645c.288.025.6-.238.625-.525l.248-2.789c-.076-1.175-.864-2.225-2.014-2.324z"/><path d="M931.607 37h-17.695c-.6 0-1-.4-1-1s.4-1 1-1h17.695c.6 0 1 .4 1 1s-.488 1-1 1z"/></g><g fill="#f8f9fa"><path d="M979.971 14.549l7.18.52c.29.02.56.329.54.62l-1.168 17.38-3.6 3.841c-.429.55-1.3.39-1.65-.12l-3-4.32 1.168-17.38c-.07-.391.14-.571.53-.541zm6.069-6.881l-3.88-.279c-1.07-.08-2.21.91-2.39 2.07l-.2 2.72c-.02.29.25.6.54.62l7.181.519c.29.02.6-.25.62-.54l.199-2.81c-.1-1.18-.91-2.22-2.07-2.3z"/><path d="M982.093 37H963.91c-.6 0-1-.4-1-1s.4-1 1-1h18.183c.6 0 1 .4 1 1s-.49 1-1 1z"/></g><g fill="#f8f9fa"><path d="M1030.039 14.477l7.225.412c.292.016.569.324.553.616l-.906 17.488-3.559 3.915c-.424.56-1.3.413-1.66-.095l-3.083-4.295.906-17.488c-.076-.392.131-.576.524-.553zm5.993-7.009l-3.905-.221c-1.076-.064-2.208.949-2.372 2.117l-.158 2.737c-.016.292.26.6.552.616l7.226.412c.292.016.6-.261.616-.553l.158-2.828c-.12-1.184-.949-2.216-2.117-2.28z"/><path d="M1032.508 37h-18.6c-.6 0-1-.4-1-1s.4-1 1-1h18.6c.6 0 1 .4 1 1s-.492 1-1 1z"/></g><g fill="#f8f9fa"><path d="M1080.096 14.416l7.264.321c.294.013.576.319.563.613l-.684 17.578-3.523 3.978c-.419.569-1.3.432-1.67-.074l-3.153-4.274.685-17.579c-.082-.394.124-.581.518-.563zm5.929-7.117l-3.926-.173c-1.082-.049-2.206.983-2.356 2.158l-.123 2.751c-.013.293.269.6.563.612l7.264.321c.294.012.6-.269.612-.563l.124-2.844c-.139-1.188-.983-2.213-2.158-2.262z"/><path d="M1082.859 37h-18.953c-.6 0-1-.4-1-1s.4-1 1-1h18.953c.6 0 1 .4 1 1s-.494 1-1 1z"/></g><g fill="#f8f9fa"><path d="M1130.145 14.365l7.296.244c.296.01.581.314.572.61l-.498 17.655-3.494 4.031c-.414.576-1.3.448-1.676-.057l-3.212-4.256.498-17.656c-.086-.395.118-.585.514-.571zm5.874-7.209l-3.944-.131c-1.086-.038-2.204 1.01-2.342 2.191l-.094 2.763c-.01.295.276.6.572.609l7.296.245c.295.009.6-.277.61-.572l.094-2.858c-.153-1.19-1.011-2.209-2.192-2.247z"/><path d="M1133.154 37h-19.249c-.6 0-1-.4-1-1s.4-1 1-1h19.249c.6 0 1 .4 1 1s-.495 1-1 1z"/></g><g fill="#f8f9fa"><path d="M1180.185 14.322l7.324.181c.296.007.586.31.579.607l-.342 17.719-3.47 4.074c-.41.583-1.3.462-1.682-.041l-3.261-4.242.342-17.719c-.09-.397.114-.59.51-.579zm5.829-7.284l-3.958-.098c-1.09-.028-2.204 1.034-2.332 2.22l-.069 2.772c-.007.297.282.6.579.607l7.323.181c.297.007.6-.282.607-.579l.07-2.869c-.165-1.193-1.034-2.207-2.22-2.234z"/><path d="M1183.401 37h-19.498c-.6 0-1-.4-1-1s.4-1 1-1h19.498c.6 0 1 .4 1 1s-.497 1-1 1z"/></g><g fill="#f8f9fa"><path d="M1230.218 14.287l7.346.128c.297.005.59.308.585.605l-.214 17.772-3.449 4.11c-.408.588-1.3.473-1.688-.029l-3.301-4.23.214-17.771c-.093-.398.11-.593.507-.585zm5.792-7.347l-3.97-.069c-1.093-.02-2.203 1.053-2.323 2.243l-.049 2.78c-.005.298.287.6.585.605l7.346.129c.297.004.6-.288.605-.586l.049-2.877c-.175-1.195-1.053-2.205-2.243-2.225z"/><path d="M1233.603 37h-19.701c-.6 0-1-.4-1-1s.4-1 1-1h19.701c.6 0 1 .4 1 1s-.498 1-1 1z"/></g><g fill="#f8f9fa"><path d="M1280.245 14.258l7.363.087c.299.003.594.305.59.603l-.111 17.814-3.433 4.14c-.405.591-1.3.481-1.692-.02l-3.333-4.22.111-17.814c-.095-.398.107-.595.505-.59zm5.762-7.397l-3.98-.046c-1.095-.013-2.202 1.068-2.315 2.262l-.034 2.786c-.003.299.292.6.59.604l7.364.086c.298.003.6-.292.603-.59l.033-2.885c-.183-1.197-1.068-2.203-2.261-2.217z"/><path d="M1283.766 37h-19.864c-.6 0-1-.4-1-1s.4-1 1-1h19.864c.6 0 1 .4 1 1s-.499 1-1 1z"/></g><g fill="#f8f9fa"><path d="M1330.266 14.236l7.377.054c.299.002.596.303.594.602l-.031 17.846-3.421 4.163c-.403.595-1.3.489-1.695-.012l-3.358-4.213.031-17.846c-.097-.399.104-.597.503-.594zm5.738-7.436l-3.987-.029c-1.097-.008-2.202 1.081-2.31 2.277l-.02 2.791c-.002.299.294.6.593.602l7.378.054c.299.002.6-.295.602-.594l.02-2.89c-.189-1.198-1.08-2.203-2.276-2.211z"/><path d="M1333.892 37h-19.991c-.6 0-1-.4-1-1s.4-1 1-1h19.991c.6 0 1 .4 1 1s-.499 1-1 1z"/></g><g fill="#f8f9fa"><path d="M1380.281 14.22l7.388.029c.299.001.598.302.597.601l.028 17.871-3.411 4.18c-.402.597-1.3.493-1.698-.007l-3.377-4.207-.028-17.871c-.099-.399.102-.598.501-.596zm5.721-7.465l-3.993-.016c-1.098-.005-2.201 1.089-2.305 2.287l-.011 2.795c-.001.3.297.6.596.602l7.388.029c.299.001.6-.297.601-.597l.011-2.895c-.194-1.198-1.089-2.201-2.287-2.205z"/><path d="M1383.987 37h-20.086c-.6 0-1-.4-1-1s.4-1 1-1h20.086c.6 0 1 .4 1 1s-.5 1-1 1z"/></g><g fill="#f8f9fa"><path d="M1430.292 14.209l7.395.012c.299.001.599.301.598.601l.069 17.887-3.405 4.191c-.4.599-1.3.498-1.699-.003l-3.39-4.203-.069-17.887c-.099-.4.101-.599.501-.598zm5.709-7.485l-3.997-.007c-1.099-.002-2.2 1.095-2.302 2.294l-.005 2.798c-.001.3.299.6.598.601l7.395.012c.3.001.6-.298.6-.598l.005-2.898c-.197-1.199-1.095-2.2-2.294-2.202z"/><path d="M1434.051 37H1413.9c-.6 0-1-.4-1-1s.4-1 1-1h20.151c.6 0 1 .4 1 1s-.5 1-1 1z"/></g><g fill="#f8f9fa"><path d="M1480.298 14.202l7.399.003c.3 0 .599.3.599.6l.093 17.897-3.401 4.198c-.401.6-1.3.499-1.7-.001l-3.398-4.2-.092-17.897c-.1-.4.1-.6.5-.6zM1486 6.706l-3.999-.002c-1.1 0-2.2 1.099-2.301 2.299l-.001 2.799c0 .3.3.6.6.6l7.399.003c.3.001.6-.299.6-.599l.001-2.9c-.2-1.2-1.099-2.2-2.299-2.2z"/><path d="M1484.088 37H1463.9c-.6 0-1-.4-1-1s.4-1 1-1h20.188c.6 0 1 .4 1 1s-.5 1-1 1z"/></g><g fill="#f8f9fa"><path d="M1530.3 14.2h7.4c.3 0 .6.3.6.6l.1 17.9-3.4 4.2c-.4.6-1.3.5-1.7 0l-3.4-4.2-.1-17.9c-.1-.4.1-.6.5-.6zm5.7-7.5h-4c-1.1 0-2.2 1.1-2.3 2.3v2.8c0 .3.3.6.6.6h7.4c.3 0 .6-.3.6-.6V8.9c-.2-1.2-1.1-2.2-2.3-2.2z"/><path d="M1534.1 37h-20.2c-.6 0-1-.4-1-1s.4-1 1-1h20.2c.6 0 1 .4 1 1s-.5 1-1 1z"/></g><g fill="#f8f9fa"><path d="M1580.265 14.152l7.376.055c.299.003.596.304.594.603l-.035 17.844-3.421 4.162c-.404.595-1.3.488-1.695-.013l-3.357-4.213.035-17.844c-.097-.399.104-.597.503-.594zm5.739-7.434l-3.987-.03c-1.097-.008-2.201 1.08-2.31 2.276l-.021 2.791c-.002.299.295.6.594.602l7.376.056c.299.002.6-.295.603-.594l.021-2.89c-.19-1.198-1.08-2.202-2.276-2.211z"/><path d="M1584.1 37h-19.985c-.6 0-1-.4-1-1s.4-1 1-1h19.985c.6 0 1 .4 1 1s-.5 1-1 1z"/></g><g fill="#f8f9fa"><path d="M1630.135 13.975l7.29.26c.295.01.58.315.57.61l-.534 17.64-3.5 4.021c-.415.575-1.3.445-1.675-.06l-3.2-4.26.534-17.641c-.085-.395.12-.585.515-.57zm5.885-7.19l-3.94-.14c-1.085-.04-2.205 1.005-2.345 2.185l-.1 2.76c-.01.295.275.6.57.61l7.29.26c.295.01.6-.275.61-.57l.1-2.855c-.15-1.19-1.005-2.21-2.185-2.25z"/><path d="M1634.1 37h-19.191c-.6 0-1-.4-1-1s.4-1 1-1h19.191c.6 0 1 .4 1 1s-.5 1-1 1z"/></g><g fill="#f8f9fa"><path d="M1679.858 13.597l7.105.697c.287.027.547.34.52.627l-1.601 17.203-3.668 3.718c-.44.533-1.3.352-1.633-.161l-2.864-4.361 1.601-17.203c-.06-.387.153-.56.54-.52zm6.196-6.669l-3.84-.375c-1.06-.107-2.213.845-2.42 1.992l-.268 2.692c-.027.287.233.6.52.627l7.105.697c.286.027.6-.233.627-.52l.268-2.779c-.067-1.174-.846-2.227-1.992-2.334z"/><path d="M1684.1 37h-17.494c-.6 0-1-.4-1-1s.4-1 1-1h17.494c.6 0 1 .4 1 1s-.5 1-1 1z"/></g><g fill="#f8f9fa"><path d="M1729.382 12.949l6.789 1.446c.272.055.488.383.433.655l-3.431 16.454-3.957 3.199c-.483.461-1.3.195-1.56-.333l-2.288-4.534 3.431-16.454c-.017-.372.211-.517.583-.433zm6.729-5.776l-3.666-.779c-1.017-.222-2.228.572-2.55 1.661l-.556 2.577c-.056.272.161.6.433.656l6.788 1.446c.272.055.6-.161.656-.434l.556-2.649c.078-1.145-.572-2.256-1.661-2.478z"/><path d="M1734.1 37h-14.583c-.6 0-1-.4-1-1s.4-1 1-1h14.583c.6 0 1 .4 1 1s-.5 1-1 1z"/></g><g fill="#f8f9fa"><path d="M1778.791 12.142l6.394 2.378c.254.092.417.437.326.692l-5.707 15.522-4.315 2.554c-.537.371-1.3-.003-1.471-.549l-1.571-4.749 5.707-15.522c.037-.354.283-.463.637-.326zm7.392-4.665l-3.451-1.28c-.963-.366-2.246.231-2.712 1.248l-.914 2.435c-.092.254.071.6.325.691l6.394 2.378c.255.091.6-.072.692-.326l.914-2.488c.257-1.109-.231-2.292-1.248-2.658zM1784.1 37h-10.964c-.6 0-1-.4-1-1s.4-1 1-1h10.964c.6 0 1 .4 1 1s-.5 1-1 1z"/></g><g fill="#f8f9fa"><path d="M1828.275 11.439l6.05 3.191c.239.122.355.484.232.722l-7.693 14.71-4.627 1.991c-.584.293-1.3-.175-1.393-.737l-.946-4.936 7.693-14.709c.084-.339.345-.416.684-.232zm7.97-3.696l-3.263-1.718c-.916-.491-2.262-.066-2.852.889l-1.228 2.309c-.122.239-.006.6.232.723l6.05 3.19c.239.123.6.007.723-.232l1.227-2.347c.414-1.078.066-2.323-.889-2.814zM1834.1 37h-7.805c-.6 0-1-.4-1-1s.4-1 1-1h7.805c.6 0 1 .4 1 1s-.5 1-1 1z"/></g><g fill="#f8f9fa"><path d="M1877.891 10.915l5.794 3.796c.227.146.308.519.162.746l-9.17 14.104-4.86 1.572c-.619.235-1.3-.303-1.335-.876l-.48-5.076 9.17-14.104c.119-.327.392-.381.719-.162zm8.401-2.974l-3.124-2.044c-.881-.584-2.273-.287-2.957.621l-1.46 2.216c-.146.227-.065.6.162.746l5.794 3.796c.227.146.6.065.746-.162l1.46-2.243c.53-1.054.287-2.346-.621-2.93zM1884.1 37h-5.455c-.6 0-1-.4-1-1s.4-1 1-1h5.455c.6 0 1 .4 1 1s-.5 1-1 1z"/></g><g fill="#f8f9fa"><path d="M1927.612 10.535l5.609 4.235c.218.163.274.544.111.763l-10.243 13.665-5.029 1.268c-.645.193-1.3-.396-1.293-.977l-.142-5.178 10.243-13.665c.144-.318.426-.355.744-.111zm8.714-2.45l-3.023-2.281c-.856-.651-2.281-.447-3.033.427l-1.629 2.148c-.163.219-.107.6.112.763l5.608 4.235c.218.163.6.108.763-.111l1.629-2.167c.614-1.037.447-2.363-.427-3.014zM1934.1 37h-3.748c-.6 0-1-.4-1-1s.4-1 1-1h3.748c.6 0 1 .4 1 1s-.5 1-1 1z"/></g><g fill="#f8f9fa"><path d="M1977.409 10.258l5.473 4.555c.213.175.25.563.075.775l-11.025 13.345-5.152 1.047c-.663.162-1.3-.464-1.262-1.051l.104-5.251 11.025-13.345c.162-.313.45-.338.762-.075zm8.941-2.069l-2.948-2.453c-.838-.7-2.288-.564-3.089.286l-1.752 2.099c-.175.212-.138.6.075.775l5.473 4.555c.212.175.6.138.775-.074l1.752-2.112c.676-1.025.564-2.375-.286-3.076zM1984.1 37h-2.505c-.6 0-1-.4-1-1s.4-1 1-1h2.505c.6 0 1 .4 1 1s-.5 1-1 1z"/></g><g fill="#f8f9fa"><path d="M2027.261 10.057l5.375 4.788c.208.184.231.576.047.784l-11.594 13.112-5.241.885c-.676.139-1.3-.513-1.24-1.105l.283-5.305 11.594-13.112c.176-.308.469-.324.776-.047zm9.107-1.792l-2.895-2.578c-.824-.736-2.292-.649-3.128.182l-1.842 2.064c-.184.208-.16.6.048.784l5.374 4.788c.208.184.6.16.784-.048l1.842-2.071c.72-1.016.649-2.384-.183-3.121zM2034.1 37h-1.6c-.6 0-1-.4-1-1s.4-1 1-1h1.6c.6 0 1 .4 1 1s-.5 1-1 1z"/></g><g fill="#f8f9fa"><path d="M2077.155 9.912l5.304 4.955c.204.191.219.586.028.791l-12.002 12.944-5.306.77c-.686.123-1.3-.549-1.224-1.144l.412-5.343 12.002-12.945c.186-.305.482-.314.786-.028zm9.226-1.592l-2.856-2.668c-.814-.763-2.296-.711-3.158.108l-1.906 2.038c-.19.204-.176.6.028.79l5.304 4.956c.205.19.6.176.79-.029l1.906-2.042c.753-1.009.711-2.391-.108-3.153zM2084.1 37h-.95c-.6 0-1-.4-1-1s.4-1 1-1h.95c.6 0 1 .4 1 1s-.5 1-1 1z"/></g><g fill="#f8f9fa"><path d="M2127.082 9.811l5.254 5.072c.203.195.21.592.015.795l-12.286 12.828-5.351.689c-.692.113-1.3-.572-1.212-1.17l.501-5.37 12.286-12.829c.193-.302.49-.307.793-.015zm9.308-1.453l-2.83-2.731c-.807-.78-2.297-.753-3.177.057l-1.951 2.02c-.195.202-.187.6.015.795l5.254 5.071c.203.195.6.188.795-.015l1.951-2.022c.775-1.005.753-2.395-.057-3.175zM2134.1 37h-.5c-.6 0-1-.4-1-1s.4-1 1-1h.5c.6 0 1 .4 1 1s-.5 1-1 1z"/></g><g fill="#f8f9fa"><path d="M2177.034 9.746l5.223 5.147c.201.198.204.597.006.798l-12.469 12.753-5.379.638c-.697.105-1.3-.589-1.205-1.188l.558-5.388 12.469-12.753c.197-.301.496-.303.797-.007zm9.362-1.364l-2.813-2.771c-.803-.791-2.298-.78-3.19.024l-1.98 2.008c-.198.201-.194.6.007.798l5.222 5.147c.201.198.6.194.798-.007l1.98-2.009c.789-1.002.78-2.398-.024-3.19zM2184.1 37h-.209c-.6 0-1-.4-1-1s.4-1 1-1h.209c.6 0 1 .4 1 1s-.5 1-1 1z"/></g><g fill="#f8f9fa"><path d="M2227.008 9.711l5.205 5.187c.201.2.201.6.002.8l-12.569 12.712-5.395.609c-.7.101-1.3-.597-1.201-1.197l.59-5.397 12.569-12.713c.199-.3.499-.3.799-.001zm9.391-1.315l-2.803-2.793c-.801-.798-2.3-.796-3.198.005l-1.995 2.002c-.199.2-.199.6.002.8l5.205 5.187c.2.2.6.199.8-.001l1.995-2.003c.797-1 .795-2.399-.006-3.197zM2234.1 37h-.049c-.6 0-1-.4-1-1s.4-1 1-1h.049c.6 0 1 .4 1 1s-.5 1-1 1z"/></g><g fill="#f8f9fa"><path d="M2277 9.7l5.2 5.2c.2.2.2.6 0 .8l-12.6 12.7-5.4.6c-.7.1-1.3-.6-1.2-1.2l.6-5.4 12.6-12.7c.2-.3.5-.3.8 0zm9.4-1.3l-2.8-2.8c-.8-.8-2.3-.8-3.2 0l-2 2c-.2.2-.2.6 0 .8l5.2 5.2c.2.2.6.2.8 0l2-2c.8-1 .8-2.4 0-3.2zM2284.1 37c-.6 0-1-.4-1-1s.4-1 1-1 1 .4 1 1-.5 1-1 1z"/></g><g fill="#f8f9fa"><path d="M2327 9.785l5.2 5.2c.2.2.2.6 0 .8l-12.6 12.7-5.4.6c-.7.1-1.3-.6-1.2-1.2l.6-5.4 12.6-12.7c.2-.3.5-.3.8 0zm9.4-1.3l-2.8-2.8c-.8-.8-2.3-.8-3.2 0l-2 2c-.2.2-.2.6 0 .8l5.2 5.2c.2.2.6.2.8 0l2-2c.8-1 .8-2.4 0-3.2zM2334.1 36.99c-.594 0-.99-.396-.989-.989-.001-.595.395-.99.989-.99.594-.001.989.395.989.99 0 .593-.494.989-.989.989z"/></g><g fill="#f8f9fa"><path d="M2377 10.099l5.2 5.2c.2.2.2.6 0 .8l-12.6 12.7-5.4.6c-.7.1-1.3-.6-1.2-1.2l.6-5.4 12.6-12.7c.2-.3.5-.3.8 0zm9.4-1.3l-2.8-2.8c-.8-.8-2.3-.8-3.2 0l-2 2c-.2.2-.2.6 0 .8l5.2 5.2c.2.2.6.2.8 0l2-2c.8-1 .8-2.4 0-3.2zM2384.1 36.955c-.57 0-.955-.385-.95-.95-.005-.575.38-.955.95-.955.57-.005.95.38.95.955 0 .565-.475.95-.95.95z"/></g><g fill="#f8f9fa"><path d="M2427 10.772l5.2 5.2c.2.2.2.6 0 .8l-12.6 12.7-5.4.6c-.7.1-1.3-.6-1.2-1.2l.6-5.4 12.6-12.7c.2-.3.5-.3.8 0zm9.4-1.3l-2.8-2.8c-.8-.8-2.3-.8-3.2 0l-2 2c-.2.2-.2.6 0 .8l5.2 5.2c.2.2.6.2.8 0l2-2c.8-1 .8-2.4 0-3.2zM2434.1 36.879c-.52 0-.879-.359-.866-.866-.013-.533.346-.879.866-.879.52-.013.866.346.866.879 0 .507-.433.866-.866.866z"/></g><g fill="#f8f9fa"><path d="M2477 11.924l5.2 5.2c.2.2.2.6 0 .8l-12.6 12.7-5.4.6c-.7.1-1.3-.6-1.2-1.2l.6-5.4 12.6-12.7c.2-.3.5-.3.8 0zm9.4-1.3l-2.8-2.8c-.8-.8-2.3-.8-3.2 0l-2 2c-.2.2-.2.6 0 .8l5.2 5.2c.2.2.6.2.8 0l2-2c.8-1 .8-2.4 0-3.2zM2484.1 36.75c-.433 0-.75-.317-.722-.722-.028-.461.289-.75.722-.75.433-.028.722.289.722.75 0 .405-.361.722-.722.722z"/></g><g fill="#f8f9fa"><path d="M2527 13.358l5.2 5.2c.2.2.2.6 0 .8l-12.6 12.7-5.4.6c-.7.1-1.3-.6-1.2-1.2l.6-5.4 12.6-12.7c.2-.3.5-.3.8 0zm9.4-1.3l-2.8-2.8c-.8-.8-2.3-.8-3.2 0l-2 2c-.2.2-.2.6 0 .8l5.2 5.2c.2.2.6.2.8 0l2-2c.8-1 .8-2.4 0-3.2zM2534.1 36.588c-.326 0-.588-.262-.543-.542-.045-.372.217-.589.543-.589.326-.045.543.217.543.589 0 .28-.272.542-.543.542z"/></g><g fill="#f8f9fa"><path d="M2577 14.609l5.2 5.2c.2.2.2.6 0 .8l-12.6 12.7-5.4.6c-.7.1-1.3-.6-1.2-1.2l.6-5.4 12.6-12.7c.2-.3.5-.3.8 0zm9.4-1.3l-2.8-2.8c-.8-.8-2.3-.8-3.2 0l-2 2c-.2.2-.2.6 0 .8l5.2 5.2c.2.2.6.2.8 0l2-2c.8-1 .8-2.4 0-3.2zM2584.1 36.448c-.232 0-.448-.216-.386-.387-.062-.293.154-.447.386-.447.232-.062.386.154.386.447 0 .171-.193.387-.386.387z"/></g><g fill="#f8f9fa"><path d="M2627 15.54l5.2 5.2c.2.2.2.6 0 .8l-12.6 12.7-5.4.6c-.7.1-1.3-.6-1.2-1.2l.6-5.4 12.6-12.7c.2-.3.5-.3.8 0zm9.4-1.3l-2.8-2.8c-.8-.8-2.3-.8-3.2 0l-2 2c-.2.2-.2.6 0 .8l5.2 5.2c.2.2.6.2.8 0l2-2c.8-1 .8-2.4 0-3.2zM2634.1 36.343c-.162 0-.343-.181-.27-.27-.073-.235.108-.343.27-.343.162-.073.27.108.27.343 0 .089-.135.27-.27.27z"/></g><g fill="#f8f9fa"><path d="M2677 16.215l5.2 5.2c.2.2.2.6 0 .8l-12.6 12.7-5.4.6c-.7.1-1.3-.6-1.2-1.2l.6-5.4 12.6-12.7c.2-.3.5-.3.8 0zm9.4-1.3l-2.8-2.8c-.8-.8-2.3-.8-3.2 0l-2 2c-.2.2-.2.6 0 .8l5.2 5.2c.2.2.6.2.8 0l2-2c.8-1 .8-2.4 0-3.2zM2684.1 36.267c-.111 0-.267-.156-.186-.186-.081-.192.075-.267.186-.267.111-.081.186.075.186.267 0 .03-.093.186-.186.186z"/></g><g fill="#f8f9fa"><path d="M2727 16.708l5.2 5.2c.2.2.2.6 0 .8l-12.6 12.7-5.4.6c-.7.1-1.3-.6-1.2-1.2l.6-5.4 12.6-12.7c.2-.3.5-.3.8 0zm9.4-1.3l-2.8-2.8c-.8-.8-2.3-.8-3.2 0l-2 2c-.2.2-.2.6 0 .8l5.2 5.2c.2.2.6.2.8 0l2-2c.8-1 .8-2.4 0-3.2zM2734.1 36.212c-.074 0-.212-.138-.124-.124-.088-.162.05-.212.124-.212.074-.088.124.05.124.212 0-.014-.062.124-.124.124z"/></g><g fill="#f8f9fa"><path d="M2777 17.066l5.2 5.2c.2.2.2.6 0 .8l-12.6 12.7-5.4.6c-.7.1-1.3-.6-1.2-1.2l.6-5.4 12.6-12.7c.2-.3.5-.3.8 0zm9.4-1.3l-2.8-2.8c-.8-.8-2.3-.8-3.2 0l-2 2c-.2.2-.2.6 0 .8l5.2 5.2c.2.2.6.2.8 0l2-2c.8-1 .8-2.4 0-3.2zM2784.1 36.171c-.048 0-.171-.123-.079-.079-.092-.14.031-.171.079-.171.048-.092.079.031.079.171 0-.044-.039.079-.079.079z"/></g><g fill="#f8f9fa"><path d="M2827 17.324l5.2 5.2c.2.2.2.6 0 .8l-12.6 12.7-5.4.6c-.7.1-1.3-.6-1.2-1.2l.6-5.4 12.6-12.7c.2-.3.5-.3.8 0zm9.4-1.3l-2.8-2.8c-.8-.8-2.3-.8-3.2 0l-2 2c-.2.2-.2.6 0 .8l5.2 5.2c.2.2.6.2.8 0l2-2c.8-1 .8-2.4 0-3.2zM2834.1 36.142c-.028 0-.142-.114-.047-.047-.095-.123.019-.142.047-.142.028-.095.047.019.047.142 0-.067-.023.047-.047.047z"/></g><g fill="#f8f9fa"><path d="M2877 17.502l5.2 5.2c.2.2.2.6 0 .8l-12.6 12.7-5.4.6c-.7.1-1.3-.6-1.2-1.2l.6-5.4 12.6-12.7c.2-.3.5-.3.8 0zm9.4-1.3l-2.8-2.8c-.8-.8-2.3-.8-3.2 0l-2 2c-.2.2-.2.6 0 .8l5.2 5.2c.2.2.6.2.8 0l2-2c.8-1 .8-2.4 0-3.2zM2884.1 36.122c-.015 0-.122-.107-.025-.024-.097-.113.01-.123.025-.123.015-.097.025.01.025.123 0-.083-.013.024-.025.024z"/></g><g fill="#f8f9fa"><path d="M2927 17.617l5.2 5.2c.2.2.2.6 0 .8l-12.6 12.7-5.4.6c-.7.1-1.3-.6-1.2-1.2l.6-5.4 12.6-12.7c.2-.3.5-.3.8 0zm9.4-1.3l-2.8-2.8c-.8-.8-2.3-.8-3.2 0l-2 2c-.2.2-.2.6 0 .8l5.2 5.2c.2.2.6.2.8 0l2-2c.8-1 .8-2.4 0-3.2zM2934.1 36.109c-.006 0-.109-.103-.01-.01-.099-.105.004-.109.01-.109.006-.099.01.004.01.109 0-.093-.005.01-.01.01z"/></g><g fill="#f8f9fa"><path d="M2977 17.68l5.2 5.2c.2.2.2.6 0 .8l-12.6 12.7-5.4.6c-.7.1-1.3-.6-1.2-1.2l.6-5.4 12.6-12.7c.2-.3.5-.3.8 0zm9.4-1.3l-2.8-2.8c-.8-.8-2.3-.8-3.2 0l-2 2c-.2.2-.2.6 0 .8l5.2 5.2c.2.2.6.2.8 0l2-2c.8-1 .8-2.4 0-3.2zM2984.1 36.102c-.001 0-.102-.101-.002-.002-.1-.101.001-.102.002-.102.001-.1.002.001.002.102 0-.099-.001.002-.002.002z"/></g><g fill="#f8f9fa"><path d="M3027 17.7l5.2 5.2c.2.2.2.6 0 .8l-12.6 12.7-5.4.6c-.7.1-1.3-.6-1.2-1.2l.6-5.4 12.6-12.7c.2-.3.5-.3.8 0zm9.4-1.3l-2.8-2.8c-.8-.8-2.3-.8-3.2 0l-2 2c-.2.2-.2.6 0 .8l5.2 5.2c.2.2.6.2.8 0l2-2c.8-1 .8-2.4 0-3.2zM3034.1 36.1s-.1-.1 0 0c-.1-.1 0-.1 0-.1v.1c0-.1 0 0 0 0z"/></g></svg>