<svg xmlns="http://www.w3.org/2000/svg" viewBox="0 0 3050 50" width="3050" height="50"><g fill="#f8f9fa"><path d="M36.3 25.8c.9-.9.9-2.3 0-3.2l-7.5-7.5c-.9-.9-2.3-.9-3.2 0l-12 12c-.9.9-.9 2.3 0 3.2l4.5 4.5c.4.4 1 .7 1.6.7h6c.3 0 1.2-.1 1.5-.6l1.9-1.9.5-.5 6.7-6.7zm-14.1-2.9l6.4 6.4-3.2 3.2H20l-3.7-3.7 5.9-5.9zM12 31.7c-.1-.1-.1-.1 0 0h-.1.1l-.1-.1h.1-.2v-.1l.2.2.1-.1-.1.1zm.2-.2s-.1-.1 0 0c-.1.1 0 0 0 0z"/></g><g fill="#f8f9fa"><path d="M86.385 25.8c.9-.9.9-2.3 0-3.2l-7.5-7.5c-.9-.9-2.3-.9-3.2 0l-12 12c-.9.9-.9 2.3 0 3.2l4.5 4.5c.4.4 1 .7 1.6.7h6c.3 0 1.2-.1 1.5-.6l1.9-1.9.5-.5 6.7-6.7zm-14.1-2.9l6.4 6.4-3.2 3.2h-5.4l-3.7-3.7 5.9-5.9zM61.995 31.74c-.004 0-.006-.002-.006-.005v-.009h-.003c-.102-.099-.106-.1-.01-.003l-.109.01c-.002.002-.005.002-.007 0-.003-.002-.003-.005 0-.007l.108-.009c-.102-.103-.104-.108-.104-.114h.139c.001 0 .002-.001.002-.002v-.004c0-.001-.001-.002-.002-.002h-.238c0-.006.002-.011.005-.114l-.009-.01c-.002-.002-.002-.005 0-.007s.005-.002.007 0l.01.009c.003-.001.006-.002.01-.002h.003v-.008c0-.003.003-.006.006-.006s.005.003.005.006v.009h.01l.007-.007c.002-.002.005-.002.008 0 .002.002.002.005 0 .007l-.01.01.198.236.108-.089c.003.002.003.005 0 .007-.002.002-.005.002-.106.099l-.007-.007H62v.007c0 .003-.002.005-.005.005zm.245-.24c0-.011-.107-.117-.018-.018v.037c-.089.099.018-.008.018-.019z"/></g><g fill="#f8f9fa"><path d="M136.699 25.8c.9-.9.9-2.3 0-3.2l-7.5-7.5c-.9-.9-2.3-.9-3.2 0l-12 12c-.9.9-.9 2.3 0 3.2l4.5 4.5c.4.4 1 .7 1.6.7h6c.3 0 1.2-.1 1.5-.6l1.9-1.9.5-.5 6.7-6.7zm-14.1-2.9l6.4 6.4-3.2 3.2h-5.4l-3.7-3.7 5.9-5.9zM111.975 31.89c-.015 0-.025-.01-.025-.025v-.045h-.015c-.11-.095-.13-.1-.05-.01l-.14.045c-.01.01-.025.01-.035 0-.01-.01-.01-.025 0-.035l.14-.04c-.11-.115-.12-.14-.12-.165h.285c.005 0 .01-.005.01-.01v-.02c0-.005-.005-.01-.01-.01h-.38c0-.025.01-.05.025-.165l-.045-.045c-.01-.01-.01-.025 0-.035.01-.01.025-.01.035 0l.045.045c.015-.005.03-.01.05-.01h.015v-.04c0-.015.01-.025.025-.025.015 0 .025.01.025.025v.045h.045l.035-.035c.01-.01.025-.01.035 0 .01.01.01.025 0 .035l-.045.045.19.37.14-.05c.01.01.01.025 0 .035-.01.01-.025.01-.13.095l-.035-.035H112v.035c0 .015-.01.025-.025.025zm.415-.39c0-.05-.135-.18-.085-.085v.175c-.05.095.085-.04.085-.09z"/></g><g fill="#f8f9fa"><path d="M187.372 25.8c.9-.9.9-2.3 0-3.2l-7.5-7.5c-.9-.9-2.3-.9-3.2 0l-12 12c-.9.9-.9 2.3 0 3.2l4.5 4.5c.4.4 1 .7 1.6.7h6c.3 0 1.2-.1 1.5-.6l1.9-1.9.5-.5 6.7-6.7zm-14.1-2.9l6.4 6.4-3.2 3.2h-5.4l-3.7-3.7 5.9-5.9zM161.933 32.209c-.04 0-.067-.027-.067-.067v-.121h-.04c-.127-.086-.18-.1-.134-.026l-.207.12c-.027.027-.067.027-.094 0-.027-.027-.027-.067 0-.094l.207-.107c-.127-.14-.153-.207-.153-.274h.595c.014 0 .027-.013.027-.027v-.053c0-.014-.013-.027-.027-.027h-.682c0-.067.027-.134.067-.274l-.121-.121c-.026-.026-.026-.067 0-.093.027-.027.067-.027.094 0l.121.12c.04-.013.08-.027.134-.027h.04v-.107c0-.04.027-.067.067-.067.04 0 .067.027.067.067v.121h.12l.094-.094c.027-.027.067-.027.094 0 .027.027.027.067 0 .094l-.121.12.174.656.207.034c.026.026.026.067 0 .093-.027.027-.067.027-.181.087l-.093-.094H162v.094c0 .04-.027.067-.067.067zm.776-.709c0-.134-.194-.314-.228-.228v.469c.034.087.228-.107.228-.241z"/></g><g fill="#f8f9fa"><path d="M238.524 25.8c.9-.9.9-2.3 0-3.2l-7.5-7.5c-.9-.9-2.3-.9-3.2 0l-12 12c-.9.9-.9 2.3 0 3.2l4.5 4.5c.4.4 1 .7 1.6.7h6c.3 0 1.2-.1 1.5-.6l1.9-1.9.5-.5 6.7-6.7zm-14.1-2.9l6.4 6.4-3.2 3.2h-5.4l-3.7-3.7 5.9-5.9zM211.861 32.757c-.083 0-.139-.056-.139-.139v-.251h-.083c-.156-.072-.267-.1-.279-.055l-.322.25c-.056.056-.139.056-.195 0-.055-.056-.055-.139 0-.195l.323-.222c-.156-.184-.211-.323-.211-.462h1.128c.028 0 .056-.027.056-.055v-.111c0-.028-.028-.056-.056-.056h-1.201c0-.139.056-.278.139-.461l-.25-.251c-.055-.055-.055-.139 0-.194.056-.056.139-.056.195 0l.25.25c.084-.028.167-.056.278-.056h.084v-.222c0-.084.055-.139.139-.139.083 0 .139.055.139.139v.25h.25l.194-.195c.056-.055.14-.055.195 0 .056.056.056.139 0 .195l-.25.25.144 1.146.323.178c.055.055.055.139 0 .194-.056.056-.139.056-.267.073l-.195-.195H212v.195c0 .083-.056.139-.139.139zm1.396-1.257c0-.278-.295-.545-.473-.473V32c.178.073.473-.222.473-.5z"/></g><g fill="#f8f9fa"><path d="M289.958 25.8c.9-.9.9-2.3 0-3.2l-7.5-7.5c-.9-.9-2.3-.9-3.2 0l-12 12c-.9.9-.9 2.3 0 3.2l4.5 4.5c.4.4 1 .7 1.6.7h6c.3 0 1.2-.1 1.5-.6l1.9-1.9.5-.5 6.7-6.7zm-14.1-2.9l6.4 6.4-3.2 3.2h-5.4l-3.7-3.7 5.9-5.9zM261.771 33.438c-.137 0-.228-.092-.228-.229v-.412h-.137c-.192-.054-.375-.1-.458-.091l-.465.411c-.092.092-.229.092-.321 0-.091-.091-.091-.228 0-.32l.466-.365c-.191-.238-.283-.466-.283-.695h1.792c.046 0 .092-.046.092-.091v-.183c0-.046-.046-.092-.092-.092h-1.846c0-.228.092-.457.229-.694l-.412-.412c-.091-.091-.091-.228 0-.32.092-.091.229-.091.32 0l.412.412c.137-.046.274-.092.457-.092h.137V29.9c0-.138.092-.229.229-.229s.228.091.228.229v.411h.412l.32-.32c.092-.091.229-.091.32 0 .092.092.092.229 0 .32l-.411.412.108 1.754.466.358c.091.091.091.228 0 .32-.091.091-.229.091-.374.054l-.32-.32H262v.32c0 .137-.091.229-.229.229zm2.167-1.938c0-.457-.421-.832-.778-.777v1.6c.357.054.778-.366.778-.823z"/></g><g fill="#f8f9fa"><path d="M341.209 25.8c.9-.9.9-2.3 0-3.2l-7.5-7.5c-.9-.9-2.3-.9-3.2 0l-12 12c-.9.9-.9 2.3 0 3.2l4.5 4.5c.4.4 1 .7 1.6.7h6c.3 0 1.2-.1 1.5-.6l1.9-1.9.5-.5 6.7-6.7zm-14.1-2.9l6.4 6.4-3.2 3.2h-5.4l-3.7-3.7 5.9-5.9zM311.693 34.032c-.184 0-.307-.123-.307-.307v-.552h-.184c-.222-.039-.468-.1-.613-.123l-.591.552c-.123.123-.307.123-.43 0-.122-.123-.122-.307 0-.429l.591-.491c-.223-.284-.345-.591-.345-.898h2.37c.061 0 .123-.061.123-.123v-.245c0-.061-.062-.123-.123-.123h-2.409c0-.307.123-.613.307-.897l-.552-.553c-.123-.122-.123-.307 0-.429.122-.123.306-.123.429 0l.552.552c.185-.061.369-.123.614-.123h.184v-.491c0-.184.123-.306.307-.306s.307.122.307.306v.553h.552l.429-.43c.123-.123.307-.123.43 0s.123.307 0 .43l-.552.552.077 2.286.591.514c.123.122.123.307 0 .429-.123.123-.307.123-.468.039l-.43-.43H312v.43c0 .184-.123.307-.307.307zm2.839-2.532c0-.614-.53-1.082-1.043-1.043v2.147c.513.039 1.043-.49 1.043-1.104z"/></g><g fill="#f8f9fa"><path d="M392.14 25.8c.9-.9.9-2.3 0-3.2l-7.5-7.5c-.9-.9-2.3-.9-3.2 0l-12 12c-.9.9-.9 2.3 0 3.2l4.5 4.5c.4.4 1 .7 1.6.7h6c.3 0 1.2-.1 1.5-.6l1.9-1.9.5-.5 6.7-6.7zm-14.1-2.9l6.4 6.4-3.2 3.2h-5.4l-3.7-3.7 5.9-5.9zM361.635 34.474c-.219 0-.365-.146-.365-.365v-.657h-.219c-.246-.027-.538-.1-.73-.146l-.684.657c-.146.146-.365.146-.511 0-.146-.146-.146-.365 0-.511l.684-.584c-.246-.319-.392-.684-.392-1.049h2.801c.073 0 .146-.073.146-.146v-.292c0-.073-.073-.146-.146-.146h-2.828c0-.365.146-.73.365-1.049l-.657-.657c-.146-.146-.146-.365 0-.511.146-.146.365-.146.511 0l.657.657c.219-.073.438-.146.73-.146h.219v-.584c0-.219.146-.365.365-.365s.365.146.365.365v.657h.657l.511-.511c.146-.146.365-.146.511 0 .146.146.146.365 0 .511l-.657.657.054 2.682.684.63c.146.146.146.365 0 .511-.146.146-.365.146-.538.027l-.511-.511H362v.511c0 .219-.146.365-.365.365zm3.339-2.974c0-.73-.611-1.268-1.241-1.241v2.555c.63.027 1.241-.584 1.241-1.314z"/></g><g fill="#f8f9fa"><path d="M442.815 25.8c.9-.9.9-2.3 0-3.2l-7.5-7.5c-.9-.9-2.3-.9-3.2 0l-12 12c-.9.9-.9 2.3 0 3.2l4.5 4.5c.4.4 1 .7 1.6.7h6c.3 0 1.2-.1 1.5-.6l1.9-1.9.5-.5 6.7-6.7zm-14.1-2.9l6.4 6.4-3.2 3.2h-5.4l-3.7-3.7 5.9-5.9zM411.593 34.795c-.245 0-.407-.163-.407-.407v-.733h-.245c-.263-.019-.588-.1-.814-.163l-.752.733c-.163.163-.407.163-.57 0-.163-.163-.163-.407 0-.57l.752-.652c-.263-.344-.426-.751-.426-1.159h3.113c.082 0 .163-.081.163-.163v-.325c0-.082-.081-.163-.163-.163h-3.132c0-.407.163-.815.408-1.159l-.733-.733c-.163-.163-.163-.407 0-.57.162-.163.407-.163.57 0l.733.733c.244-.082.488-.163.814-.163h.244v-.652c0-.244.163-.407.408-.407.244 0 .407.163.407.407v.733h.733l.57-.57c.163-.163.407-.163.57 0 .163.163.163.408 0 .57l-.733.733.037 2.97.752.714c.163.163.163.407 0 .57-.163.163-.407.163-.589.019l-.57-.57H412v.57c0 .244-.163.407-.407.407zm3.702-3.295c0-.814-.67-1.403-1.385-1.385v2.851c.715.019 1.385-.652 1.385-1.466z"/></g><g fill="#f8f9fa"><path d="M493.308 25.8c.9-.9.9-2.3 0-3.2l-7.5-7.5c-.9-.9-2.3-.9-3.2 0l-12 12c-.9.9-.9 2.3 0 3.2l4.5 4.5c.4.4 1 .7 1.6.7h6c.3 0 1.2-.1 1.5-.6l1.9-1.9.5-.5 6.7-6.7zm-14.1-2.9l6.4 6.4-3.2 3.2h-5.4l-3.7-3.7 5.9-5.9zM461.562 35.029c-.263 0-.438-.176-.438-.438v-.789h-.263c-.275-.012-.625-.1-.876-.175l-.801.789c-.175.175-.437.175-.613 0-.175-.176-.175-.438 0-.614l.801-.7c-.275-.363-.45-.801-.45-1.239h3.341c.087 0 .175-.088.175-.175v-.351c0-.087-.088-.175-.175-.175h-3.354c0-.438.175-.876.438-1.239l-.788-.788c-.175-.175-.175-.438 0-.613s.438-.175.613 0l.788.788c.263-.088.526-.175.876-.175h.263v-.701c0-.263.175-.438.438-.438s.438.175.438.438v.788h.789l.613-.613c.175-.175.438-.175.613 0s.175.438 0 .613l-.788.789.024 3.178.801.776c.175.175.175.438 0 .613s-.438.175-.625.013l-.614-.613H462v.613c0 .262-.175.438-.438.438zm3.967-3.529c0-.876-.713-1.502-1.489-1.489v3.066c.776.012 1.489-.701 1.489-1.577z"/></g><g fill="#f8f9fa"><path d="M543.666 25.8c.9-.9.9-2.3 0-3.2l-7.5-7.5c-.9-.9-2.3-.9-3.2 0l-12 12c-.9.9-.9 2.3 0 3.2l4.5 4.5c.4.4 1 .7 1.6.7h6c.3 0 1.2-.1 1.5-.6l1.9-1.9.5-.5 6.7-6.7zm-14.1-2.9l6.4 6.4-3.2 3.2h-5.4l-3.7-3.7 5.9-5.9zM511.54 35.199c-.277 0-.461-.184-.461-.46v-.829h-.276c-.284-.008-.652-.1-.921-.184l-.836.828c-.185.185-.461.185-.645 0-.184-.184-.184-.46 0-.644l.837-.737c-.284-.376-.469-.836-.469-1.297h3.507c.092 0 .184-.092.184-.184v-.368c0-.092-.092-.184-.184-.184h-3.515c0-.461.185-.921.461-1.297l-.829-.829c-.184-.184-.184-.46 0-.645.184-.184.461-.184.645 0l.828.829c.277-.092.553-.184.921-.184h.276v-.737c0-.276.185-.46.461-.46s.46.184.46.46v.829h.829l.644-.645c.185-.184.461-.184.645 0 .184.185.184.461 0 .645l-.829.829.016 3.33.837.821c.184.184.184.46 0 .645-.184.184-.461.184-.653.008l-.644-.645H512v.645c0 .276-.184.46-.46.46zm4.159-3.699c0-.921-.745-1.573-1.565-1.565v3.222c.82.008 1.565-.736 1.565-1.657z"/></g><g fill="#f8f9fa"><path d="M593.924 25.8c.9-.9.9-2.3 0-3.2l-7.5-7.5c-.9-.9-2.3-.9-3.2 0l-12 12c-.9.9-.9 2.3 0 3.2l4.5 4.5c.4.4 1 .7 1.6.7h6c.3 0 1.2-.1 1.5-.6l1.9-1.9.5-.5 6.7-6.7zm-14.1-2.9l6.4 6.4-3.2 3.2h-5.4l-3.7-3.7 5.9-5.9zM561.524 35.321c-.286 0-.477-.19-.477-.476v-.858h-.286c-.29-.005-.672-.1-.953-.191l-.862.858c-.191.191-.477.191-.667 0-.191-.19-.191-.476 0-.667l.862-.762c-.29-.386-.481-.863-.481-1.339h3.626c.095 0 .19-.095.19-.191v-.381c0-.095-.095-.19-.19-.19h-3.631c0-.477.191-.953.477-1.339l-.858-.858c-.191-.191-.191-.476 0-.667.191-.191.477-.191.667 0l.858.858c.286-.096.572-.191.953-.191h.286v-.762c0-.286.19-.477.476-.477s.477.191.477.477v.857h.857l.667-.667c.191-.19.477-.19.667 0 .191.191.191.477 0 .667l-.857.858.009 3.44.862.853c.191.191.191.476 0 .667-.19.191-.476.191-.671.005l-.667-.667H562v.667c0 .286-.191.476-.476.476zm4.297-3.821c0-.953-.767-1.625-1.62-1.62v3.335c.853.005 1.62-.762 1.62-1.715z"/></g><g fill="#f8f9fa"><path d="M644.102 25.8c.9-.9.9-2.3 0-3.2l-7.5-7.5c-.9-.9-2.3-.9-3.2 0l-12 12c-.9.9-.9 2.3 0 3.2l4.5 4.5c.4.4 1 .7 1.6.7h6c.3 0 1.2-.1 1.5-.6l1.9-1.9.5-.5 6.7-6.7zm-14.1-2.9l6.4 6.4-3.2 3.2h-5.4l-3.7-3.7 5.9-5.9zM611.512 35.406c-.292 0-.487-.195-.487-.488v-.877h-.293c-.295-.003-.685-.1-.975-.195l-.88.877c-.195.195-.488.195-.683 0-.195-.195-.195-.487 0-.682l.88-.781c-.295-.392-.49-.88-.49-1.367h3.709c.097 0 .195-.098.195-.195v-.391c0-.097-.098-.195-.195-.195h-3.711c0-.487.195-.975.487-1.367l-.877-.878c-.196-.195-.196-.488 0-.683.195-.195.487-.195.682 0l.878.878c.293-.098.585-.195.975-.195h.293v-.78c0-.293.195-.488.487-.488.293 0 .488.195.488.488v.877h.878l.682-.682c.196-.195.488-.195.683 0 .195.195.195.487 0 .682l-.878.878.005 3.516.881.875c.195.195.195.488 0 .683-.195.195-.488.195-.686.002l-.682-.682H612v.682c0 .293-.195.488-.488.488zm4.394-3.906c0-.975-.783-1.66-1.658-1.658v3.413c.875.003 1.658-.78 1.658-1.755z"/></g><g fill="#f8f9fa"><path d="M694.217 25.8c.9-.9.9-2.3 0-3.2l-7.5-7.5c-.9-.9-2.3-.9-3.2 0l-12 12c-.9.9-.9 2.3 0 3.2l4.5 4.5c.4.4 1 .7 1.6.7h6c.3 0 1.2-.1 1.5-.6l1.9-1.9.5-.5 6.7-6.7zm-14.1-2.9l6.4 6.4-3.2 3.2h-5.4l-3.7-3.7 5.9-5.9zM661.505 35.461c-.297 0-.495-.198-.495-.495v-.891h-.297c-.298-.001-.693-.1-.989-.198l-.892.891c-.198.198-.495.198-.693 0-.198-.198-.198-.495 0-.693l.892-.792c-.298-.396-.496-.891-.496-1.386h3.762c.099 0 .198-.099.198-.198v-.396c0-.099-.099-.198-.198-.198h-3.763c0-.495.198-.99.495-1.386l-.891-.891c-.198-.198-.198-.495 0-.693.198-.198.495-.198.693 0l.891.891c.297-.099.593-.198.989-.198h.297v-.792c0-.297.198-.495.495-.495s.495.198.495.495v.891h.891l.692-.693c.198-.198.495-.198.693 0 .198.198.198.495 0 .693l-.891.891.003 3.564.891.89c.198.198.198.495 0 .693-.198.198-.495.198-.694.001l-.692-.693H662v.693c0 .297-.198.495-.495.495zm4.456-3.961c0-.99-.793-1.683-1.683-1.682v3.463c.89.001 1.683-.791 1.683-1.781z"/></g><g fill="#f8f9fa"><path d="M744.28 25.8c.9-.9.9-2.3 0-3.2l-7.5-7.5c-.9-.9-2.3-.9-3.2 0l-12 12c-.9.9-.9 2.3 0 3.2l4.5 4.5c.4.4 1 .7 1.6.7h6c.3 0 1.2-.1 1.5-.6l1.9-1.9.5-.5 6.7-6.7zm-14.1-2.9l6.4 6.4-3.2 3.2h-5.4l-3.7-3.7 5.9-5.9zM711.501 35.491c-.299 0-.499-.2-.499-.499v-.898h-.299c-.299 0-.698-.1-.997-.199l-.898.897c-.2.2-.499.2-.699 0-.199-.199-.199-.498 0-.698l.898-.798c-.299-.399-.499-.898-.499-1.397h3.791c.1 0 .2-.099.2-.199v-.399c0-.1-.1-.2-.2-.2h-3.791c0-.499.2-.997.499-1.397l-.898-.897c-.199-.2-.199-.499 0-.699.2-.199.499-.199.698 0l.898.898c.299-.1.599-.199.998-.199h.299v-.798c0-.3.199-.499.499-.499.299 0 .499.199.499.499v.897h.897l.699-.698c.199-.199.498-.199.698 0 .199.2.199.499 0 .698l-.898.898.001 3.592.898.897c.199.2.199.499 0 .699-.2.199-.499.199-.699 0l-.698-.698H712v.698c0 .299-.2.499-.499.499zm4.49-3.991c0-.998-.799-1.696-1.696-1.696v3.492c.897 0 1.696-.798 1.696-1.796z"/></g><g fill="#f8f9fa"><path d="M794.3 25.8c.9-.9.9-2.3 0-3.2l-7.5-7.5c-.9-.9-2.3-.9-3.2 0l-12 12c-.9.9-.9 2.3 0 3.2l4.5 4.5c.4.4 1 .7 1.6.7h6c.3 0 1.2-.1 1.5-.6l1.9-1.9.5-.5 6.7-6.7zm-14.1-2.9l6.4 6.4-3.2 3.2H778l-3.7-3.7 5.9-5.9zM761.5 35.5c-.3 0-.5-.2-.5-.5v-.9h-.3c-.3 0-.7-.1-1-.2l-.9.9c-.2.2-.5.2-.7 0-.2-.2-.2-.5 0-.7l.9-.8c-.3-.4-.5-.9-.5-1.4h3.8c.1 0 .2-.1.2-.2v-.4c0-.1-.1-.2-.2-.2h-3.8c0-.5.2-1 .5-1.4l-.9-.9c-.2-.2-.2-.5 0-.7.2-.2.5-.2.7 0l.9.9c.3-.1.6-.2 1-.2h.3V28c0-.3.2-.5.5-.5s.5.2.5.5v.9h.9l.7-.7c.2-.2.5-.2.7 0 .2.2.2.5 0 .7l-.9.9v3.6l.9.9c.2.2.2.5 0 .7-.2.2-.5.2-.7 0l-.7-.7h-.9v.7c0 .3-.2.5-.5.5zm4.5-4c0-1-.8-1.7-1.7-1.7v3.5c.9 0 1.7-.8 1.7-1.8z"/></g><g fill="#f8f9fa"><path d="M844.215 25.704c.9-.9.9-2.3 0-3.2l-7.5-7.5c-.9-.9-2.3-.9-3.2 0l-12 12c-.9.9-.9 2.3 0 3.2l4.5 4.5c.4.4 1 .7 1.6.7h6c.3 0 1.2-.1 1.5-.6l1.9-1.9.5-.5 6.7-6.7zm-14.1-2.9l6.4 6.4-3.2 3.2h-5.4l-3.7-3.7 5.9-5.9zM811.617 35.5c-.3 0-.5-.2-.5-.5v-.9h-.3c-.3 0-.7-.1-1-.2l-.9.9c-.2.2-.5.2-.7 0-.2-.2-.2-.5 0-.7l.9-.801c-.3-.4-.5-.9-.5-1.4h3.8c.1 0 .2-.1.2-.2v-.4c0-.1-.1-.2-.2-.2h-3.8c0-.5.2-1 .5-1.4l-.9-.9c-.2-.2-.2-.5 0-.7.2-.2.5-.2.7 0l.9.9c.3-.1.6-.2 1-.2h.3V28c0-.3.2-.5.5-.5s.5.2.5.5v.9h.9l.7-.7c.2-.2.5-.2.7 0 .2.2.2.5 0 .7l-.9.9v3.6l.9.9c.2.2.2.5 0 .7-.2.2-.5.2-.7 0l-.7-.7h-.9v.7c0 .3-.2.5-.5.5zm4.5-4c0-1-.8-1.7-1.7-1.7v3.5c.9 0 1.7-.8 1.7-1.8z"/></g><g fill="#f8f9fa"><path d="M893.901 25.351c.9-.9.9-2.3 0-3.2l-7.5-7.5c-.9-.9-2.3-.9-3.2 0l-12 12c-.9.9-.9 2.3 0 3.2l4.5 4.5c.4.4 1 .7 1.6.7h6c.3 0 1.2-.1 1.5-.6l1.9-1.9.5-.5 6.7-6.7zm-14.1-2.9l6.4 6.4-3.2 3.2h-5.4l-3.7-3.7 5.9-5.9zM862.049 35.5c-.3 0-.5-.2-.5-.5v-.9h-.3c-.3 0-.7-.1-1-.2l-.9.9c-.2.2-.5.2-.7 0-.2-.2-.2-.5 0-.7l.9-.805c-.3-.4-.5-.9-.5-1.4h3.8c.1 0 .2-.1.2-.2v-.4c0-.1-.1-.2-.2-.2h-3.8c0-.5.2-1 .5-1.4l-.9-.9c-.2-.2-.2-.5 0-.7.2-.2.5-.2.7 0l.9.9c.3-.1.6-.2 1-.2h.3V28c0-.3.2-.5.5-.5s.5.2.5.5v.9h.9l.7-.7c.2-.2.5-.2.7 0 .2.2.2.5 0 .7l-.9.9v3.6l.9.9c.2.2.2.5 0 .7-.2.2-.5.2-.7 0l-.7-.7h-.9v.7c0 .3-.2.5-.5.5zm4.5-4c0-1-.8-1.7-1.7-1.7v3.5c.9 0 1.7-.8 1.7-1.8z"/></g><g fill="#f8f9fa"><path d="M943.228 24.594c.9-.9.9-2.3 0-3.2l-7.5-7.5c-.9-.9-2.3-.9-3.2 0l-12 12c-.9.9-.9 2.3 0 3.2l4.5 4.5c.4.4 1 .7 1.6.7h6c.3 0 1.2-.1 1.5-.6l1.9-1.9.5-.5 6.7-6.7zm-14.1-2.9l6.4 6.4-3.2 3.2h-5.4l-3.7-3.7 5.9-5.9zM912.973 35.5c-.3 0-.5-.2-.5-.5v-.9h-.3c-.3 0-.7-.1-1-.2l-.9.9c-.2.2-.5.2-.7 0-.2-.2-.2-.5 0-.7l.9-.813c-.3-.4-.5-.9-.5-1.4h3.8c.1 0 .2-.1.2-.2v-.4c0-.1-.1-.2-.2-.2h-3.8c0-.5.2-1 .5-1.4l-.9-.9c-.2-.2-.2-.5 0-.7.2-.2.5-.2.7 0l.9.9c.3-.1.6-.2 1-.2h.3V28c0-.3.2-.5.5-.5s.5.2.5.5v.9h.9l.7-.7c.2-.2.5-.2.7 0 .2.2.2.5 0 .7l-.9.9v3.6l.9.9c.2.2.2.5 0 .7-.2.2-.5.2-.7 0l-.7-.7h-.9v.7c0 .3-.2.5-.5.5zm4.5-4c0-1-.8-1.7-1.7-1.7v3.5c.9 0 1.7-.8 1.7-1.8z"/></g><g fill="#f8f9fa"><path d="M992.076 23.298c.9-.9.9-2.3 0-3.2l-7.5-7.5c-.9-.9-2.3-.9-3.2 0l-12 12c-.9.9-.9 2.3 0 3.2l4.5 4.5c.4.4 1 .7 1.6.7h6c.3 0 1.2-.1 1.5-.6l1.9-1.9.5-.5 6.7-6.7zm-14.1-2.9l6.4 6.4-3.2 3.2h-5.4l-3.7-3.7 5.9-5.9zM964.559 35.5c-.3 0-.5-.2-.5-.5v-.9h-.3c-.3 0-.7-.1-1-.2l-.9.9c-.2.2-.5.2-.7 0-.2-.2-.2-.5 0-.7l.9-.828c-.3-.4-.5-.9-.5-1.4h3.8c.1 0 .2-.1.2-.2v-.4c0-.1-.1-.2-.2-.2h-3.8c0-.5.2-1 .5-1.4l-.9-.9c-.2-.2-.2-.5 0-.7.2-.2.5-.2.7 0l.9.9c.3-.1.6-.2 1-.2h.3V28c0-.3.2-.5.5-.5s.5.2.5.5v.9h.9l.7-.7c.2-.2.5-.2.7 0 .2.2.2.5 0 .7l-.9.9v3.6l.9.9c.2.2.2.5 0 .7-.2.2-.5.2-.7 0l-.7-.7h-.9v.7c0 .3-.2.5-.5.5zm4.5-4c0-1-.8-1.7-1.7-1.7v3.5c.9 0 1.7-.8 1.7-1.8z"/></g><g fill="#f8f9fa"><path d="M1040.642 21.685c.9-.9.9-2.3 0-3.2l-7.5-7.5c-.9-.9-2.3-.9-3.2 0l-12 12c-.9.9-.9 2.3 0 3.2l4.5 4.5c.4.4 1 .7 1.6.7h6c.3 0 1.2-.1 1.5-.6l1.9-1.9.5-.5 6.7-6.7zm-14.1-2.9l6.4 6.4-3.2 3.2h-5.4l-3.7-3.7 5.9-5.9zM1016.53 35.5c-.3 0-.5-.2-.5-.5v-.9h-.3c-.3 0-.7-.1-1-.2l-.9.9c-.2.2-.5.2-.7 0-.2-.2-.2-.5 0-.7l.9-.846c-.3-.4-.5-.9-.5-1.4h3.8c.1 0 .2-.1.2-.2v-.4c0-.1-.1-.2-.2-.2h-3.8c0-.5.2-1 .5-1.4l-.9-.9c-.2-.2-.2-.5 0-.7.2-.2.5-.2.7 0l.9.9c.3-.1.6-.2 1-.2h.3V28c0-.3.2-.5.5-.5s.5.2.5.5v.9h.9l.7-.7c.2-.2.5-.2.7 0 .2.2.2.5 0 .7l-.9.9v3.6l.9.9c.2.2.2.5 0 .7-.2.2-.5.2-.7 0l-.7-.7h-.9v.7c0 .3-.2.5-.5.5zm4.5-4c0-1-.8-1.7-1.7-1.7v3.5c.9 0 1.7-.8 1.7-1.8z"/></g><g fill="#f8f9fa"><path d="M1089.391 20.278c.9-.9.9-2.3 0-3.2l-7.5-7.5c-.9-.9-2.3-.9-3.2 0l-12 12c-.9.9-.9 2.3 0 3.2l4.5 4.5c.4.4 1 .7 1.6.7h6c.3 0 1.2-.1 1.5-.6l1.9-1.9.5-.5 6.7-6.7zm-14.1-2.9l6.4 6.4-3.2 3.2h-5.4l-3.7-3.7 5.9-5.9z"/><path d="M1068.25 35.5c-.3 0-.5-.2-.5-.5v-.9h-.3c-.3 0-.7-.1-1-.2l-.9.9c-.2.2-.5.2-.7 0-.2-.2-.2-.5 0-.7l.9-.861c-.3-.4-.5-.9-.5-1.4h3.8c.1 0 .2-.1.2-.2v-.4c0-.1-.1-.2-.2-.2h-3.8c0-.5.2-1 .5-1.4l-.9-.9c-.2-.2-.2-.5 0-.7.2-.2.5-.2.7 0l.9.9c.3-.1.6-.2 1-.2h.3V28c0-.3.2-.5.5-.5s.5.2.5.5v.9h.9l.7-.7c.2-.2.5-.2.7 0 .2.2.2.5 0 .7l-.9.9v3.6l.9.9c.2.2.2.5 0 .7-.2.2-.5.2-.7 0l-.7-.7h-.9v.7c0 .3-.2.5-.5.5zm4.5-4c0-1-.8-1.7-1.7-1.7v3.5c.9 0 1.7-.8 1.7-1.8z"/></g><g fill="#f8f9fa"><path d="M1138.46 19.23c.9-.9.9-2.3 0-3.2l-7.5-7.5c-.9-.9-2.3-.9-3.2 0l-12 12c-.9.9-.9 2.3 0 3.2l4.5 4.5c.4.4 1 .7 1.6.7h6c.3 0 1.2-.1 1.5-.6l1.9-1.9.5-.5 6.7-6.7zm-14.1-2.9l6.4 6.4-3.2 3.2h-5.4l-3.7-3.7 5.9-5.9z"/><path d="M1119.53 35.5c-.3 0-.5-.2-.5-.5v-.9h-.3c-.3 0-.7-.1-1-.2l-.9.9c-.2.2-.5.2-.7 0-.2-.2-.2-.5 0-.7l.9-.873c-.3-.4-.5-.9-.5-1.4h3.8c.1 0 .2-.1.2-.2v-.4c0-.1-.1-.2-.2-.2h-3.8c0-.5.2-1 .5-1.4l-.9-.9c-.2-.2-.2-.5 0-.7.2-.2.5-.2.7 0l.9.9c.3-.1.6-.2 1-.2h.3V28c0-.3.2-.5.5-.5s.5.2.5.5v.9h.9l.7-.7c.2-.2.5-.2.7 0 .2.2.2.5 0 .7l-.9.9v3.6l.9.9c.2.2.2.5 0 .7-.2.2-.5.2-.7 0l-.7-.7h-.9v.7c0 .3-.2.5-.5.5zm4.5-4c0-1-.8-1.7-1.7-1.7v3.5c.9 0 1.7-.8 1.7-1.8z"/></g><g fill="#f8f9fa"><path d="M1187.785 18.47c.9-.9.9-2.3 0-3.2l-7.5-7.5c-.9-.9-2.3-.9-3.2 0l-12 12c-.9.9-.9 2.3 0 3.2l4.5 4.5c.4.4 1 .7 1.6.7h6c.3 0 1.2-.1 1.5-.6l1.9-1.9.5-.5 6.7-6.7zm-14.1-2.9l6.4 6.4-3.2 3.2h-5.4l-3.7-3.7 5.9-5.9z"/><path d="M1170.459 35.5c-.3 0-.5-.2-.5-.5v-.9h-.3c-.3 0-.7-.1-1-.2l-.9.9c-.2.2-.5.2-.7 0-.2-.2-.2-.5 0-.7l.9-.881c-.3-.4-.5-.9-.5-1.4h3.8c.1 0 .2-.1.2-.2v-.4c0-.1-.1-.2-.2-.2h-3.8c0-.5.2-1 .5-1.4l-.9-.9c-.2-.2-.2-.5 0-.7.2-.2.5-.2.7 0l.9.9c.3-.1.6-.2 1-.2h.3V28c0-.3.2-.5.5-.5s.5.2.5.5v.9h.9l.7-.7c.2-.2.5-.2.7 0 .2.2.2.5 0 .7l-.9.9v3.6l.9.9c.2.2.2.5 0 .7-.2.2-.5.2-.7 0l-.7-.7h-.9v.7c0 .3-.2.5-.5.5zm4.5-4c0-1-.8-1.7-1.7-1.7v3.5c.9 0 1.7-.8 1.7-1.8z"/></g><g fill="#f8f9fa"><path d="M1237.292 17.916c.9-.9.9-2.3 0-3.2l-7.5-7.5c-.9-.9-2.3-.9-3.2 0l-12 12c-.9.9-.9 2.3 0 3.2l4.5 4.5c.4.4 1 .7 1.6.7h6c.3 0 1.2-.1 1.5-.6l1.9-1.9.5-.5 6.7-6.7zm-14.1-2.9l6.4 6.4-3.2 3.2h-5.4l-3.7-3.7 5.9-5.9z"/><path d="M1221.136 35.5c-.3 0-.5-.2-.5-.5v-.9h-.3c-.3 0-.7-.1-1-.2l-.9.9c-.2.2-.5.2-.7 0-.2-.2-.2-.5 0-.7l.9-.888c-.3-.4-.5-.9-.5-1.4h3.8c.1 0 .2-.1.2-.2v-.4c0-.1-.1-.2-.2-.2h-3.8c0-.5.2-1 .5-1.4l-.9-.9c-.2-.2-.2-.5 0-.7.2-.2.5-.2.7 0l.9.9c.3-.1.6-.2 1-.2h.3V28c0-.3.2-.5.5-.5s.5.2.5.5v.9h.9l.7-.7c.2-.2.5-.2.7 0 .2.2.2.5 0 .7l-.9.9v3.6l.9.9c.2.2.2.5 0 .7-.2.2-.5.2-.7 0l-.7-.7h-.9v.7c0 .3-.2.5-.5.5zm4.5-4c0-1-.8-1.7-1.7-1.7v3.5c.9 0 1.7-.8 1.7-1.8z"/></g><g fill="#f8f9fa"><path d="M1286.934 17.513c.9-.9.9-2.3 0-3.2l-7.5-7.5c-.9-.9-2.3-.9-3.2 0l-12 12c-.9.9-.9 2.3 0 3.2l4.5 4.5c.4.4 1 .7 1.6.7h6c.3 0 1.2-.1 1.5-.6l1.9-1.9.5-.5 6.7-6.7zm-14.1-2.9l6.4 6.4-3.2 3.2h-5.4l-3.7-3.7 5.9-5.9zM1271.629 35.5c-.3 0-.5-.2-.5-.5v-.9h-.3c-.3 0-.7-.1-1-.2l-.9.9c-.2.2-.5.2-.7 0-.2-.2-.2-.5 0-.7l.9-.892c-.3-.4-.5-.9-.5-1.4h3.8c.1 0 .2-.1.2-.2v-.4c0-.1-.1-.2-.2-.2h-3.8c0-.5.2-1 .5-1.4l-.9-.9c-.2-.2-.2-.5 0-.7.2-.2.5-.2.7 0l.9.9c.3-.1.6-.2 1-.2h.3V28c0-.3.2-.5.5-.5s.5.2.5.5v.9h.9l.7-.7c.2-.2.5-.2.7 0 .2.2.2.5 0 .7l-.9.9v3.6l.9.9c.2.2.2.5 0 .7-.2.2-.5.2-.7 0l-.7-.7h-.9v.7c0 .3-.2.5-.5.5zm4.5-4c0-1-.8-1.7-1.7-1.7v3.5c.9 0 1.7-.8 1.7-1.8z"/></g><g fill="#f8f9fa"><path d="M1336.676 17.223c.9-.9.9-2.3 0-3.2l-7.5-7.5c-.9-.9-2.3-.9-3.2 0l-12 12c-.9.9-.9 2.3 0 3.2l4.5 4.5c.4.4 1 .7 1.6.7h6c.3 0 1.2-.1 1.5-.6l1.9-1.9.5-.5 6.7-6.7zm-14.1-2.9l6.4 6.4-3.2 3.2h-5.4l-3.7-3.7 5.9-5.9zM1321.982 35.5c-.3 0-.5-.2-.5-.5v-.9h-.3c-.3 0-.7-.1-1-.2l-.9.9c-.2.2-.5.2-.7 0-.2-.2-.2-.5 0-.7l.9-.895c-.3-.4-.5-.9-.5-1.4h3.8c.1 0 .2-.1.2-.2v-.4c0-.1-.1-.2-.2-.2h-3.8c0-.5.2-1 .5-1.4l-.9-.9c-.2-.2-.2-.5 0-.7.2-.2.5-.2.7 0l.9.9c.3-.1.6-.2 1-.2h.3V28c0-.3.2-.5.5-.5s.5.2.5.5v.9h.9l.7-.7c.2-.2.5-.2.7 0 .2.2.2.5 0 .7l-.9.9v3.6l.9.9c.2.2.2.5 0 .7-.2.2-.5.2-.7 0l-.7-.7h-.9v.7c0 .3-.2.5-.5.5zm4.5-4c0-1-.8-1.7-1.7-1.7v3.5c.9 0 1.7-.8 1.7-1.8z"/></g><g fill="#f8f9fa"><path d="M1386.498 17.023c.9-.9.9-2.3 0-3.2l-7.5-7.5c-.9-.9-2.3-.9-3.2 0l-12 12c-.9.9-.9 2.3 0 3.2l4.5 4.5c.4.4 1 .7 1.6.7h6c.3 0 1.2-.1 1.5-.6l1.9-1.9.5-.5 6.7-6.7zm-14.1-2.9l6.4 6.4-3.2 3.2h-5.4l-3.7-3.7 5.9-5.9zM1372.228 35.5c-.3 0-.5-.2-.5-.5v-.9h-.3c-.3 0-.7-.1-1-.2l-.9.9c-.2.2-.5.2-.7 0-.2-.2-.2-.5 0-.7l.9-.898c-.3-.4-.5-.9-.5-1.4h3.8c.1 0 .2-.1.2-.2v-.4c0-.1-.1-.2-.2-.2h-3.8c0-.5.2-1 .5-1.4l-.9-.9c-.2-.2-.2-.5 0-.7.2-.2.5-.2.7 0l.9.9c.3-.1.6-.2 1-.2h.3V28c0-.3.2-.5.5-.5s.5.2.5.5v.9h.9l.7-.7c.2-.2.5-.2.7 0 .2.2.2.5 0 .7l-.9.9v3.6l.9.9c.2.2.2.5 0 .7-.2.2-.5.2-.7 0l-.7-.7h-.9v.7c0 .3-.2.5-.5.5zm4.5-4c0-1-.8-1.7-1.7-1.7v3.5c.9 0 1.7-.8 1.7-1.8z"/></g><g fill="#f8f9fa"><path d="M1436.383 16.893c.9-.9.9-2.3 0-3.2l-7.5-7.5c-.9-.9-2.3-.9-3.2 0l-12 12c-.9.9-.9 2.3 0 3.2l4.5 4.5c.4.4 1 .7 1.6.7h6c.3 0 1.2-.1 1.5-.6l1.9-1.9.5-.5 6.7-6.7zm-14.1-2.9l6.4 6.4-3.2 3.2h-5.4l-3.7-3.7 5.9-5.9zM1422.386 35.5c-.3 0-.5-.2-.5-.5v-.9h-.3c-.3 0-.7-.1-1-.2l-.9.9c-.2.2-.5.2-.7 0-.2-.2-.2-.5 0-.7l.9-.899c-.3-.4-.5-.9-.5-1.4h3.8c.1 0 .2-.1.2-.2v-.4c0-.1-.1-.2-.2-.2h-3.8c0-.5.2-1 .5-1.4l-.9-.9c-.2-.2-.2-.5 0-.7.2-.2.5-.2.7 0l.9.9c.3-.1.6-.2 1-.2h.3V28c0-.3.2-.5.5-.5s.5.2.5.5v.9h.9l.7-.7c.2-.2.5-.2.7 0 .2.2.2.5 0 .7l-.9.9v3.6l.9.9c.2.2.2.5 0 .7-.2.2-.5.2-.7 0l-.7-.7h-.9v.7c0 .3-.2.5-.5.5zm4.5-4c0-1-.8-1.7-1.7-1.7v3.5c.9 0 1.7-.8 1.7-1.8z"/></g><g fill="#f8f9fa"><path d="M1486.32 16.822c.9-.9.9-2.3 0-3.2l-7.5-7.5c-.9-.9-2.3-.9-3.2 0l-12 12c-.9.9-.9 2.3 0 3.2l4.5 4.5c.4.4 1 .7 1.6.7h6c.3 0 1.2-.1 1.5-.6l1.9-1.9.5-.5 6.7-6.7zm-14.1-2.9l6.4 6.4-3.2 3.2h-5.4l-3.7-3.7 5.9-5.9zM1472.473 35.5c-.3 0-.5-.2-.5-.5v-.9h-.3c-.3 0-.7-.1-1-.2l-.9.9c-.2.2-.5.2-.7 0-.2-.2-.2-.5 0-.7l.9-.9c-.3-.4-.5-.9-.5-1.4h3.8c.1 0 .2-.1.2-.2v-.4c0-.1-.1-.2-.2-.2h-3.8c0-.5.2-1 .5-1.4l-.9-.9c-.2-.2-.2-.5 0-.7.2-.2.5-.2.7 0l.9.9c.3-.1.6-.2 1-.2h.3V28c0-.3.2-.5.5-.5s.5.2.5.5v.9h.9l.7-.7c.2-.2.5-.2.7 0 .2.2.2.5 0 .7l-.9.9v3.6l.9.9c.2.2.2.5 0 .7-.2.2-.5.2-.7 0l-.7-.7h-.9v.7c0 .3-.2.5-.5.5zm4.5-4c0-1-.8-1.7-1.7-1.7v3.5c.9 0 1.7-.8 1.7-1.8z"/></g><g fill="#f8f9fa"><path d="M1536.3 16.8c.9-.9.9-2.3 0-3.2l-7.5-7.5c-.9-.9-2.3-.9-3.2 0l-12 12c-.9.9-.9 2.3 0 3.2l4.5 4.5c.4.4 1 .7 1.6.7h6c.3 0 1.2-.1 1.5-.6l1.9-1.9.5-.5 6.7-6.7zm-14.1-2.9l6.4 6.4-3.2 3.2h-5.4l-3.7-3.7 5.9-5.9zM1522.5 35.5c-.3 0-.5-.2-.5-.5v-.9h-.3c-.3 0-.7-.1-1-.2l-.9.9c-.2.2-.5.2-.7 0-.2-.2-.2-.5 0-.7l.9-.9c-.3-.4-.5-.9-.5-1.4h3.8c.1 0 .2-.1.2-.2v-.4c0-.1-.1-.2-.2-.2h-3.8c0-.5.2-1 .5-1.4l-.9-.9c-.2-.2-.2-.5 0-.7.2-.2.5-.2.7 0l.9.9c.3-.1.6-.2 1-.2h.3V28c0-.3.2-.5.5-.5s.5.2.5.5v.9h.9l.7-.7c.2-.2.5-.2.7 0 .2.2.2.5 0 .7l-.9.9v3.6l.9.9c.2.2.2.5 0 .7-.2.2-.5.2-.7 0l-.7-.7h-.9v.7c0 .3-.2.5-.5.5zm4.5-4c0-1-.8-1.7-1.7-1.7v3.5c.9 0 1.7-.8 1.7-1.8z"/></g><g fill="#f8f9fa"><path d="M1586.226 16.896c.9-.9.9-2.3 0-3.2l-7.5-7.5c-.9-.9-2.3-.9-3.2 0l-12 12c-.9.9-.9 2.3 0 3.2l4.5 4.5c.4.4 1 .7 1.6.7h6c.3 0 1.2-.1 1.5-.6l1.9-1.9.5-.5 6.7-6.7zm-14.1-2.9l6.4 6.4-3.2 3.2h-5.4l-3.7-3.7 5.9-5.9zM1572.503 35.481c-.298 0-.497-.198-.497-.497v-.895h-.299c-.299 0-.696-.1-.994-.199l-.896.895c-.198.199-.497.199-.696 0-.198-.199-.198-.497 0-.696l.896-.895c-.299-.398-.498-.895-.498-1.392h3.779c.1 0 .199-.1.199-.199v-.398c0-.099-.099-.199-.199-.199h-3.779c0-.497.198-.994.497-1.392l-.895-.895c-.199-.199-.199-.498 0-.696.199-.199.497-.199.696 0l.895.894c.298-.099.596-.198.994-.198h.299v-.696c0-.299.198-.498.497-.498.298 0 .497.199.497.498v.894h.895l.696-.696c.199-.198.497-.198.696 0 .199.199.199.498 0 .696l-.895.895.001 3.581.896.895c.198.198.198.497 0 .696-.199.199-.498.199-.697 0l-.696-.696H1573v.696c0 .299-.199.497-.497.497zm4.476-3.978c0-.995-.796-1.691-1.691-1.691v3.481c.895 0 1.691-.796 1.691-1.79z"/></g><g fill="#f8f9fa"><path d="M1635.95 17.249c.9-.9.9-2.3 0-3.2l-7.5-7.5c-.9-.9-2.3-.9-3.2 0l-12 12c-.9.9-.9 2.3 0 3.2l4.5 4.5c.4.4 1 .7 1.6.7h6c.3 0 1.2-.1 1.5-.6l1.9-1.9.5-.5 6.7-6.7zm-14.1-2.9l6.4 6.4-3.2 3.2h-5.4l-3.7-3.7 5.9-5.9zM1622.513 35.417c-.293 0-.488-.195-.488-.488v-.877h-.292c-.295-.002-.685-.1-.975-.195l-.88.877c-.195.195-.487.195-.682 0-.195-.195-.195-.487 0-.682l.88-.877c-.295-.393-.49-.88-.49-1.367h3.706c.098 0 .195-.098.195-.195v-.39c0-.098-.097-.195-.195-.195h-3.709c0-.488.195-.975.488-1.367l-.878-.878c-.195-.195-.195-.487 0-.682.195-.195.488-.195.683 0l.877.877c.292-.097.585-.195.975-.195h.292v-.682c0-.292.195-.487.488-.487.292 0 .487.195.487.487v.877h.877l.683-.682c.195-.195.487-.195.682 0 .195.195.195.487 0 .682l-.877.878.005 3.514.879.874c.195.195.195.488 0 .683-.194.195-.487.195-.684.002l-.683-.682H1623v.682c0 .293-.195.488-.487.488zm4.391-3.904c0-.975-.782-1.66-1.657-1.657v3.411c.875.003 1.657-.78 1.657-1.754z"/></g><g fill="#f8f9fa"><path d="M1685.362 18.006c.9-.9.9-2.3 0-3.2l-7.5-7.5c-.9-.9-2.3-.9-3.2 0l-12 12c-.9.9-.9 2.3 0 3.2l4.5 4.5c.4.4 1 .7 1.6.7h6c.3 0 1.2-.1 1.5-.6l1.9-1.9.5-.5 6.7-6.7zm-14.1-2.9l6.4 6.4-3.2 3.2h-5.4l-3.7-3.7 5.9-5.9zM1672.532 35.288c-.281 0-.468-.187-.468-.468v-.842h-.28c-.288-.007-.662-.1-.936-.187l-.849.842c-.187.187-.468.187-.655 0s-.187-.468 0-.655l.849-.842c-.287-.381-.474-.849-.474-1.317h3.562c.093 0 .187-.093.187-.187v-.374c0-.094-.094-.187-.187-.187h-3.569c0-.468.187-.936.468-1.317l-.842-.842c-.187-.187-.187-.468 0-.655s.468-.187.655 0l.842.842c.281-.093.561-.187.936-.187h.28v-.655c0-.281.188-.468.468-.468.281 0 .468.187.468.468v.842h.842l.655-.655c.187-.187.468-.187.655 0s.187.468 0 .655l-.842.842.013 3.382.849.836c.187.187.187.467 0 .655-.188.187-.468.187-.662.006l-.655-.655H1673v.655c0 .281-.187.468-.468.468zm4.224-3.756c0-.936-.755-1.597-1.591-1.591v3.275c.836.007 1.591-.748 1.591-1.684z"/></g><g fill="#f8f9fa"><path d="M1734.354 19.302c.9-.9.9-2.3 0-3.2l-7.5-7.5c-.9-.9-2.3-.9-3.2 0l-12 12c-.9.9-.9 2.3 0 3.2l4.5 4.5c.4.4 1 .7 1.6.7h6c.3 0 1.2-.1 1.5-.6l1.9-1.9.5-.5 6.7-6.7zm-14.1-2.9l6.4 6.4-3.2 3.2h-5.4l-3.7-3.7 5.9-5.9z"/><path d="M1722.565 35.07c-.261 0-.435-.174-.435-.435v-.783h-.261c-.274-.013-.621-.1-.869-.173l-.796.782c-.174.174-.435.174-.609 0s-.174-.435 0-.609l.796-.782c-.274-.361-.448-.796-.448-1.231h3.318c.087 0 .174-.087.174-.174v-.348c0-.087-.087-.174-.174-.174h-3.331c0-.435.174-.869.435-1.23l-.783-.783c-.174-.174-.174-.435 0-.609s.435-.174.609 0l.783.783c.261-.087.521-.174.869-.174h.261v-.609c0-.261.174-.435.435-.435s.435.174.435.435v.783h.783l.608-.609c.174-.174.435-.174.609 0s.174.435 0 .609l-.782.783.026 3.157.795.769c.174.174.174.435 0 .609s-.434.174-.621.013l-.609-.609H1723v.609c0 .261-.174.435-.435.435zm3.94-3.505c0-.87-.709-1.491-1.479-1.478v3.044c.77.013 1.479-.696 1.479-1.566z"/></g><g fill="#f8f9fa"><path d="M1783.099 20.915c.9-.9.9-2.3 0-3.2l-7.5-7.5c-.9-.9-2.3-.9-3.2 0l-12 12c-.9.9-.9 2.3 0 3.2l4.5 4.5c.4.4 1 .7 1.6.7h6c.3 0 1.2-.1 1.5-.6l1.9-1.9.5-.5 6.7-6.7zm-14.1-2.9l6.4 6.4-3.2 3.2h-5.4l-3.7-3.7 5.9-5.9z"/><path d="M1772.615 34.741c-.231 0-.385-.154-.385-.385v-.693h-.231c-.254-.023-.562-.1-.77-.154l-.716.693c-.154.154-.385.154-.539 0-.154-.154-.154-.385 0-.539l.716-.693c-.254-.331-.408-.716-.408-1.101h2.949c.077 0 .154-.077.154-.154v-.308c0-.077-.077-.154-.154-.154h-2.972c0-.385.154-.77.385-1.101l-.693-.693c-.154-.154-.154-.385 0-.539.154-.154.385-.154.539 0l.693.693c.231-.077.462-.154.77-.154h.231v-.539c0-.23.154-.384.385-.384s.385.154.385.384v.693h.693l.539-.539c.154-.154.385-.154.539 0 .154.154.154.385 0 .539l-.693.693.046 2.818.716.67c.154.154.154.385 0 .539-.154.154-.385.154-.562.023l-.539-.539H1773v.539c0 .231-.154.385-.385.385zm3.511-3.126c0-.77-.639-1.332-1.309-1.309v2.695c.67.023 1.309-.616 1.309-1.386z"/></g><g fill="#f8f9fa"><path d="M1832.005 22.322c.9-.9.9-2.3 0-3.2l-7.5-7.5c-.9-.9-2.3-.9-3.2 0l-12 12c-.9.9-.9 2.3 0 3.2l4.5 4.5c.4.4 1 .7 1.6.7h6c.3 0 1.2-.1 1.5-.6l1.9-1.9.5-.5 6.7-6.7zm-14.1-2.9l6.4 6.4-3.2 3.2h-5.4l-3.7-3.7 5.9-5.9z"/><path d="M1822.679 34.317c-.192 0-.321-.128-.321-.32v-.578h-.192c-.228-.036-.485-.1-.642-.128l-.613.577c-.128.129-.321.129-.449 0-.128-.128-.128-.321 0-.449l.613-.577c-.228-.293-.357-.614-.357-.934h2.474c.065 0 .129-.065.129-.129v-.256c0-.065-.064-.129-.129-.129h-2.509c0-.321.128-.641.32-.934l-.577-.577c-.128-.129-.128-.321 0-.449.128-.129.321-.129.449 0l.578.577c.192-.064.385-.128.641-.128h.193v-.449c0-.193.128-.321.321-.321.192 0 .32.128.32.321v.577h.578l.449-.449c.128-.128.321-.128.449 0s.128.321 0 .449l-.577.577.071 2.382.614.542c.128.128.128.32 0 .449-.129.128-.321.128-.485.036l-.45-.45H1823v.45c0 .192-.128.32-.321.32zm2.959-2.638c0-.641-.549-1.126-1.091-1.091v2.246c.542.036 1.091-.513 1.091-1.155z"/></g><g fill="#f8f9fa"><path d="M1881.19 23.37c.9-.9.9-2.3 0-3.2l-7.5-7.5c-.9-.9-2.3-.9-3.2 0l-12 12c-.9.9-.9 2.3 0 3.2l4.5 4.5c.4.4 1 .7 1.6.7h6c.3 0 1.2-.1 1.5-.6l1.9-1.9.5-.5 6.7-6.7zm-14.1-2.9l6.4 6.4-3.2 3.2h-5.4l-3.7-3.7 5.9-5.9z"/><path d="M1872.745 33.882c-.153 0-.255-.102-.255-.255v-.459h-.152c-.202-.049-.406-.1-.51-.102l-.508.459c-.102.102-.254.102-.356 0-.102-.102-.102-.255 0-.357l.507-.458c-.202-.253-.304-.508-.304-.763h1.986c.051 0 .102-.051.102-.102v-.204c0-.051-.051-.102-.102-.102h-2.035c0-.254.102-.509.255-.762l-.458-.459c-.102-.102-.102-.254 0-.356.101-.102.254-.102.356 0l.459.458c.153-.051.306-.102.509-.102h.153v-.356c0-.153.102-.255.255-.255.153 0 .255.102.255.255v.458h.459l.356-.356c.102-.102.255-.102.357 0 .102.102.102.254 0 .356l-.459.459.098 1.932.508.41c.102.102.102.255 0 .357-.102.102-.255.102-.406.049l-.356-.357H1873v.357c0 .153-.102.255-.255.255zm2.391-2.137c0-.509-.456-.915-.866-.866v1.783c.41.049.866-.407.866-.917z"/></g><g fill="#f8f9fa"><path d="M1930.599 24.13c.9-.9.9-2.3 0-3.2l-7.5-7.5c-.9-.9-2.3-.9-3.2 0l-12 12c-.9.9-.9 2.3 0 3.2l4.5 4.5c.4.4 1 .7 1.6.7h6c.3 0 1.2-.1 1.5-.6l1.9-1.9.5-.5 6.7-6.7zm-14.1-2.9l6.4 6.4-3.2 3.2h-5.4l-3.7-3.7 5.9-5.9z"/><path d="M1922.802 33.505c-.118 0-.197-.079-.197-.198v-.356h-.119c-.179-.06-.337-.1-.395-.079l-.417.356c-.079.079-.197.079-.276 0-.079-.079-.079-.198 0-.277l.416-.356c-.179-.218-.258-.416-.258-.614h1.563c.039 0 .079-.039.079-.079v-.158c0-.039-.04-.079-.079-.079h-1.624c0-.198.079-.395.198-.614l-.356-.356c-.079-.079-.079-.197 0-.276.079-.079.198-.079.277 0l.356.355c.118-.039.237-.079.395-.079h.119v-.276c0-.119.079-.198.197-.198.119 0 .198.079.198.198v.355h.356l.277-.276c.079-.079.197-.079.276 0 .079.079.079.197 0 .276l-.355.356.12 1.544.417.296c.079.079.079.197 0 .277-.079.079-.198.079-.337.06l-.277-.277H1923v.277c0 .119-.079.198-.198.198zm1.9-1.703c0-.395-.376-.732-.672-.672v1.384c.296.06.672-.316.672-.712z"/></g><g fill="#f8f9fa"><path d="M1980.168 24.684c.9-.9.9-2.3 0-3.2l-7.5-7.5c-.9-.9-2.3-.9-3.2 0l-12 12c-.9.9-.9 2.3 0 3.2l4.5 4.5c.4.4 1 .7 1.6.7h6c.3 0 1.2-.1 1.5-.6l1.9-1.9.5-.5 6.7-6.7zm-14.1-2.9l6.4 6.4-3.2 3.2h-5.4l-3.7-3.7 5.9-5.9z"/><path d="M1972.848 33.202c-.091 0-.152-.061-.152-.152v-.273h-.091c-.161-.07-.282-.1-.303-.061l-.343.274c-.061.06-.152.06-.213 0-.061-.061-.061-.152 0-.213l.343-.273c-.161-.191-.222-.343-.222-.495h1.224c.03 0 .061-.03.061-.061v-.121c0-.031-.031-.061-.061-.061h-1.293c0-.152.061-.304.152-.495l-.274-.273c-.06-.061-.06-.152 0-.213.061-.06.152-.06.213 0l.273.274c.091-.031.182-.061.304-.061h.091v-.213c0-.091.061-.152.152-.152s.152.061.152.152v.274h.273l.213-.213c.06-.061.151-.061.212 0s.061.152 0 .213l-.273.273.139 1.232.343.204c.061.061.061.152 0 .213-.061.06-.152.06-.282.069l-.213-.212H1973v.212c0 .091-.061.152-.152.152zm1.506-1.354c0-.304-.313-.586-.516-.516v1.063c.203.069.516-.243.516-.547z"/></g><g fill="#f8f9fa"><path d="M2029.855 25.087c.9-.9.9-2.3 0-3.2l-7.5-7.5c-.9-.9-2.3-.9-3.2 0l-12 12c-.9.9-.9 2.3 0 3.2l4.5 4.5c.4.4 1 .7 1.6.7h6c.3 0 1.2-.1 1.5-.6l1.9-1.9.5-.5 6.7-6.7zm-14.1-2.9l6.4 6.4-3.2 3.2h-5.4l-3.7-3.7 5.9-5.9z"/><path d="M2022.884 32.964c-.069 0-.115-.047-.115-.116v-.208h-.07c-.146-.077-.239-.1-.231-.047l-.285.209c-.047.046-.116.046-.162 0-.047-.047-.047-.116 0-.162l.285-.209c-.146-.169-.193-.285-.193-.4h.956c.024 0 .047-.024.047-.047v-.092c0-.023-.023-.047-.047-.047h-1.033c0-.115.047-.231.116-.4l-.208-.209c-.046-.046-.046-.115 0-.162.046-.046.116-.046.162 0l.208.209c.069-.023.139-.047.231-.047h.07v-.162c0-.069.046-.115.116-.115.069 0 .115.046.115.115v.209h.209l.162-.162c.046-.047.115-.047.161 0 .047.046.047.115 0 .162l-.208.208.154.987.285.131c.046.046.046.116 0 .162s-.116.046-.239.077l-.162-.162H2023v.162c0 .069-.046.116-.116.116zm1.195-1.08c0-.231-.262-.47-.393-.393v.81c.131.077.393-.185.393-.417z"/></g><g fill="#f8f9fa"><path d="M2079.629 25.377c.9-.9.9-2.3 0-3.2l-7.5-7.5c-.9-.9-2.3-.9-3.2 0l-12 12c-.9.9-.9 2.3 0 3.2l4.5 4.5c.4.4 1 .7 1.6.7h6c.3 0 1.2-.1 1.5-.6l1.9-1.9.5-.5 6.7-6.7zm-14.1-2.9l6.4 6.4-3.2 3.2h-5.4l-3.7-3.7 5.9-5.9z"/><path d="M2072.913 32.775c-.052 0-.087-.034-.087-.087v-.157h-.053c-.135-.082-.204-.1-.174-.035l-.24.157c-.034.035-.087.035-.122 0-.034-.035-.034-.087 0-.122l.24-.157c-.135-.152-.17-.239-.17-.326h.745c.018 0 .035-.018.035-.035v-.07c0-.017-.017-.035-.035-.035h-.827c0-.087.034-.174.087-.326l-.157-.157c-.035-.035-.035-.088 0-.122.035-.035.087-.035.122 0l.157.156c.052-.017.104-.034.174-.034h.053v-.122c0-.053.034-.088.087-.088.052 0 .087.035.087.088v.156h.157l.122-.122c.035-.034.087-.034.122 0 .035.035.035.088 0 .122l-.157.157.165.793.24.075c.034.034.034.087 0 .122-.035.035-.088.035-.205.082l-.122-.122H2073v.122c0 .053-.035.087-.087.087zm.95-.862c0-.175-.222-.379-.297-.297v.611c.075.082.297-.14.297-.314z"/></g><g fill="#f8f9fa"><path d="M2129.473 25.577c.9-.9.9-2.3 0-3.2l-7.5-7.5c-.9-.9-2.3-.9-3.2 0l-12 12c-.9.9-.9 2.3 0 3.2l4.5 4.5c.4.4 1 .7 1.6.7h6c.3 0 1.2-.1 1.5-.6l1.9-1.9.5-.5 6.7-6.7zm-14.1-2.9l6.4 6.4-3.2 3.2h-5.4l-3.7-3.7 5.9-5.9z"/><path d="M2122.935 32.626c-.038 0-.064-.025-.064-.064v-.116h-.039c-.126-.088-.178-.1-.129-.026l-.204.116c-.025.026-.064.026-.09 0-.026-.026-.026-.065 0-.09l.203-.117c-.126-.139-.151-.203-.151-.268h.578c.013 0 .026-.013.026-.026v-.051c0-.013-.013-.026-.026-.026h-.665c0-.065.025-.129.064-.268l-.116-.116c-.026-.026-.026-.065 0-.091.026-.026.064-.026.09 0l.117.116c.038-.013.077-.025.129-.025h.039v-.091c0-.039.025-.065.064-.065s.065.026.065.065v.116h.116l.091-.09c.025-.026.064-.026.09 0 .026.026.026.065 0 .09l-.116.117.174.639.203.029c.026.026.026.065 0 .091-.026.026-.064.026-.177.087l-.091-.091H2123v.091c0 .039-.026.064-.065.064zm.756-.691c0-.129-.19-.306-.22-.219v.452c.03.087.22-.103.22-.233z"/></g><g fill="#f8f9fa"><path d="M2179.372 25.707c.9-.9.9-2.3 0-3.2l-7.5-7.5c-.9-.9-2.3-.9-3.2 0l-12 12c-.9.9-.9 2.3 0 3.2l4.5 4.5c.4.4 1 .7 1.6.7h6c.3 0 1.2-.1 1.5-.6l1.9-1.9.5-.5 6.7-6.7zm-14.1-2.9l6.4 6.4-3.2 3.2h-5.4l-3.7-3.7 5.9-5.9z"/><path d="M2172.953 32.509c-.028 0-.047-.019-.047-.047v-.084h-.028c-.118-.091-.156-.1-.093-.019l-.175.084c-.019.019-.047.019-.066 0-.018-.018-.018-.047 0-.065l.175-.084c-.118-.129-.137-.175-.137-.222h.446c.009 0 .019-.009.019-.019v-.037c0-.01-.01-.019-.019-.019h-.537c0-.047.019-.093.047-.222l-.084-.084c-.019-.018-.019-.047 0-.065.019-.019.047-.019.065 0l.085.084c.028-.009.056-.019.093-.019h.028v-.065c0-.028.019-.047.047-.047s.047.019.047.047v.084h.084l.065-.066c.019-.018.047-.018.066 0 .019.019.019.047 0 .066l-.084.084.181.518.175-.006c.019.019.019.047 0 .065-.019.019-.047.019-.156.091l-.066-.066H2173v.066c0 .028-.019.047-.047.047zm.603-.556c0-.093-.166-.249-.16-.159v.328c-.006.09.16-.075.16-.169z"/></g><g fill="#f8f9fa"><path d="M2229.317 25.778c.9-.9.9-2.3 0-3.2l-7.5-7.5c-.9-.9-2.3-.9-3.2 0l-12 12c-.9.9-.9 2.3 0 3.2l4.5 4.5c.4.4 1 .7 1.6.7h6c.3 0 1.2-.1 1.5-.6l1.9-1.9.5-.5 6.7-6.7zm-14.1-2.9l6.4 6.4-3.2 3.2h-5.4l-3.7-3.7 5.9-5.9z"/><path d="M2222.967 32.416c-.019 0-.032-.013-.032-.033v-.059h-.02c-.113-.093-.139-.1-.066-.013l-.152.059c-.013.013-.033.013-.046 0-.013-.013-.013-.032 0-.046l.153-.059c-.114-.119-.127-.152-.127-.185h.343c.006 0 .013-.006.013-.013v-.026c0-.006-.007-.013-.013-.013h-.436c0-.033.013-.066.033-.185l-.059-.059c-.013-.013-.013-.033 0-.046.013-.013.032-.013.046 0l.058.059c.02-.007.04-.013.066-.013h.02v-.046c0-.02.013-.033.032-.033.02 0 .033.013.033.033v.059h.059l.046-.046c.013-.013.033-.013.046 0 .013.013.013.033 0 .046l-.059.059.187.423.152-.035c.013.013.013.033 0 .046-.013.013-.033.013-.139.093l-.046-.045H2223v.045c0 .02-.013.033-.033.033zm.482-.449c0-.065-.146-.205-.111-.111v.229c-.035.094.111-.052.111-.118z"/></g><g fill="#f8f9fa"><path d="M2279.3 25.8c.9-.9.9-2.3 0-3.2l-7.5-7.5c-.9-.9-2.3-.9-3.2 0l-12 12c-.9.9-.9 2.3 0 3.2l4.5 4.5c.4.4 1 .7 1.6.7h6c.3 0 1.2-.1 1.5-.6l1.9-1.9.5-.5 6.7-6.7zm-14.1-2.9l6.4 6.4-3.2 3.2h-5.4l-3.7-3.7 5.9-5.9z"/><path d="M2272.978 32.344c-.013 0-.022-.009-.022-.022v-.039h-.013c-.109-.096-.126-.1-.044-.009l-.134.04c-.009.008-.022.008-.031 0-.009-.009-.009-.022 0-.031l.135-.039c-.109-.113-.118-.135-.118-.157h.262c.004 0 .009-.004.009-.009v-.017c0-.005-.005-.009-.009-.009h-.357c0-.022.009-.044.022-.157l-.04-.039c-.008-.009-.008-.022 0-.031.009-.009.022-.009.031 0l.039.04c.013-.005.026-.009.044-.009h.013v-.031c0-.013.009-.022.022-.022s.022.009.022.022v.04h.039l.031-.031c.008-.009.022-.009.03 0 .009.009.009.022 0 .031l-.039.039.191.348.135-.056c.009.009.009.022 0 .031-.009.008-.022.008-.126.095l-.031-.03H2273v.03c0 .013-.009.022-.022.022zm.388-.366c0-.044-.131-.17-.074-.074v.153c-.057.095.074-.035.074-.079z"/></g><g fill="#f8f9fa"><path d="M2329.374 25.8c.9-.9.9-2.3 0-3.2l-7.5-7.5c-.9-.9-2.3-.9-3.2 0l-12 12c-.9.9-.9 2.3 0 3.2l4.5 4.5c.4.4 1 .7 1.6.7h6c.3 0 1.2-.1 1.5-.6l1.9-1.9.5-.5 6.7-6.7zm-14.1-2.9l6.4 6.4-3.2 3.2h-5.4l-3.7-3.7 5.9-5.9z"/><path d="M2322.986 32.29c-.008 0-.013-.006-.013-.014v-.024h-.008c-.106-.098-.117-.1-.027-.006l-.122.025c-.006.005-.014.005-.019 0-.006-.006-.006-.014 0-.019l.122-.025c-.106-.108-.111-.122-.111-.135h.2c.003 0 .006-.003.006-.006v-.01c0-.003-.003-.006-.006-.006h-.298c0-.013.006-.027.014-.135l-.024-.025c-.006-.005-.006-.013 0-.019.005-.005.013-.005.019 0l.024.025c.008-.003.016-.006.027-.006h.008v-.019c0-.008.006-.013.014-.013s.013.005.013.013v.025h.025l.019-.019c.005-.006.013-.006.019 0 .005.005.005.013 0 .019l-.025.024.195.293.122-.073c.005.005.005.013 0 .019-.006.005-.014.005-.117.097l-.019-.019H2323v.019c0 .008-.005.014-.014.014zm.317-.304c0-.027-.119-.143-.046-.046v.095c-.073.098.046-.021.046-.049z"/></g><g fill="#f8f9fa"><path d="M2379.65 25.8c.9-.9.9-2.3 0-3.2l-7.5-7.5c-.9-.9-2.3-.9-3.2 0l-12 12c-.9.9-.9 2.3 0 3.2l4.5 4.5c.4.4 1 .7 1.6.7h6c.3 0 1.2-.1 1.5-.6l1.9-1.9.5-.5 6.7-6.7zm-14.1-2.9l6.4 6.4-3.2 3.2h-5.4l-3.7-3.7 5.9-5.9z"/><path d="M2372.992 32.25c-.004 0-.007-.003-.007-.008v-.013h-.005c-.103-.099-.109-.1-.015-.003l-.112.013c-.003.003-.007.003-.01 0s-.003-.007 0-.01l.112-.014c-.103-.104-.106-.112-.106-.12h.156c.001 0 .003-.001.003-.003v-.006c0-.001-.002-.003-.003-.003h-.255c0-.007.003-.015.008-.119l-.014-.014c-.003-.003-.003-.007 0-.01s.008-.003.011 0l.013.013c.005-.001.009-.003.015-.003h.005v-.01c0-.005.003-.008.007-.008.005 0 .008.003.008.008v.013h.014l.01-.01c.003-.003.008-.003.011 0 .003.003.003.007 0 .01l-.014.014.197.251.112-.085c.003.003.003.008 0 .011-.003.003-.007.003-.109.098l-.01-.01H2373v.01c0 .005-.003.008-.008.008zm.265-.258c0-.015-.11-.124-.025-.025v.053c-.085.098.025-.012.025-.028z"/></g><g fill="#f8f9fa"><path d="M2430.238 25.8c.9-.9.9-2.3 0-3.2l-7.5-7.5c-.9-.9-2.3-.9-3.2 0l-12 12c-.9.9-.9 2.3 0 3.2l4.5 4.5c.4.4 1 .7 1.6.7h6c.3 0 1.2-.1 1.5-.6l1.9-1.9.5-.5 6.7-6.7zm-14.1-2.9l6.4 6.4-3.2 3.2h-5.4l-3.7-3.7 5.9-5.9z"/><path d="M2422.997 32.223c-.002 0-.004-.002-.004-.004v-.006h-.002c-.101-.099-.104-.1-.007-.001l-.105.006c-.002.001-.004.001-.005 0-.001-.002-.001-.004 0-.005l.105-.006c-.101-.102-.102-.106-.102-.109h.125c.001 0 .001-.001.001-.001v-.003c0-.001 0-.002-.001-.002h-.225c0-.003.002-.006.004-.108l-.006-.007c-.002-.001-.002-.003 0-.004.001-.002.003-.002.004 0l.007.006c.002-.001.004-.002.006-.002h.003v-.004c0-.003.001-.004.003-.004s.003.001.003.004v.006h.007l.004-.005c.002-.001.004-.001.005 0 .002.001.002.003 0 .005l-.006.006.199.223.105-.093c.001.001.001.004 0 .005s-.003.001-.104.099l-.005-.005H2423v.005c0 .002-.001.004-.003.004zm.229-.226c0-.007-.105-.111-.012-.012v.024c-.093.099.012-.006.012-.012z"/></g><g fill="#f8f9fa"><path d="M2481.246 25.8c.9-.9.9-2.3 0-3.2l-7.5-7.5c-.9-.9-2.3-.9-3.2 0l-12 12c-.9.9-.9 2.3 0 3.2l4.5 4.5c.4.4 1 .7 1.6.7h6c.3 0 1.2-.1 1.5-.6l1.9-1.9.5-.5 6.7-6.7zm-14.1-2.9l6.4 6.4-3.2 3.2h-5.4l-3.7-3.7 5.9-5.9z"/><path d="M2472.999 32.207c-.001 0-.001-.001-.001-.001v-.002h-.001c-.1-.1-.101-.1-.002-.001l-.101.002c-.001.001-.001.001-.002 0v-.001l.102-.002c-.1-.101-.101-.102-.101-.103h.108v-.001h-.208c0-.001.001-.002.001-.103l-.001-.002c-.001 0-.001-.001 0-.001h.001l.002.002s.001-.001.002-.001v-.001c0-.001.001-.001.001-.001.001 0 .001 0 .001.001v.002h.002l.002-.002h.001v.002l-.002.002.2.206.101-.098c.001.001.001.001 0 .002 0 0-.001 0-.101.1l-.001-.002H2473v.002s0 .001-.001.001zm.209-.208c0-.002-.102-.103-.004-.003v.007c-.098.099.004-.002.004-.004z"/></g><g fill="#f8f9fa"><path d="M2532.501 25.8c.9-.9.9-2.3 0-3.2l-7.5-7.5c-.9-.9-2.3-.9-3.2 0l-12 12c-.9.9-.9 2.3 0 3.2l4.5 4.5c.4.4 1 .7 1.6.7h6c.3 0 1.2-.1 1.5-.6l1.9-1.9.5-.5 6.7-6.7zm-14.1-2.9l6.4 6.4-3.2 3.2h-5.4l-3.7-3.7 5.9-5.9z"/><path d="M2523 32.2c-.1-.1-.1-.1 0 0h-.1.1l-.1-.1h.1-.2V32l.2.2.1-.1-.1.1zm.2-.2s-.1-.1 0 0c-.1.1 0 0 0 0z"/></g><g fill="#f8f9fa"><path d="M2583.595 25.8c.9-.9.9-2.3 0-3.2l-7.5-7.5c-.9-.9-2.3-.9-3.2 0l-12 12c-.9.9-.9 2.3 0 3.2l4.5 4.5c.4.4 1 .7 1.6.7h6c.3 0 1.2-.1 1.5-.6l1.9-1.9.5-.5 6.7-6.7zm-14.1-2.9l6.4 6.4-3.2 3.2h-5.4l-3.7-3.7 5.9-5.9z"/><path d="M2573 32.2c-.1-.1-.1-.1 0 0h-.1.1l-.1-.1h.1-.2V32l.2.2.1-.1-.1.1zm.2-.2s-.1-.1 0 0c-.1.1 0 0 0 0z"/></g><g fill="#f8f9fa"><path d="M2634.41 25.8c.9-.9.9-2.3 0-3.2l-7.5-7.5c-.9-.9-2.3-.9-3.2 0l-12 12c-.9.9-.9 2.3 0 3.2l4.5 4.5c.4.4 1 .7 1.6.7h6c.3 0 1.2-.1 1.5-.6l1.9-1.9.5-.5 6.7-6.7zm-14.1-2.9l6.4 6.4-3.2 3.2h-5.4l-3.7-3.7 5.9-5.9z"/><path d="M2623 32.2c-.1-.1-.1-.1 0 0h-.1.1l-.1-.1h.1-.2V32l.2.2.1-.1-.1.1zm.2-.2s-.1-.1 0 0c-.1.1 0 0 0 0z"/></g><g fill="#f8f9fa"><path d="M2685.001 25.8c.9-.9.9-2.3 0-3.2l-7.5-7.5c-.9-.9-2.3-.9-3.2 0l-12 12c-.9.9-.9 2.3 0 3.2l4.5 4.5c.4.4 1 .7 1.6.7h6c.3 0 1.2-.1 1.5-.6l1.9-1.9.5-.5 6.7-6.7zm-14.1-2.9l6.4 6.4-3.2 3.2h-5.4l-3.7-3.7 5.9-5.9z"/><path d="M2673 32.2c-.1-.1-.1-.1 0 0h-.1.1l-.1-.1h.1-.2V32l.2.2.1-.1-.1.1zm.2-.2s-.1-.1 0 0c-.1.1 0 0 0 0z"/></g><g fill="#f8f9fa"><path d="M2735.432 25.8c.9-.9.9-2.3 0-3.2l-7.5-7.5c-.9-.9-2.3-.9-3.2 0l-12 12c-.9.9-.9 2.3 0 3.2l4.5 4.5c.4.4 1 .7 1.6.7h6c.3 0 1.2-.1 1.5-.6l1.9-1.9.5-.5 6.7-6.7zm-14.1-2.9l6.4 6.4-3.2 3.2h-5.4l-3.7-3.7 5.9-5.9z"/><path d="M2723 32.2c-.1-.1-.1-.1 0 0h-.1.1l-.1-.1h.1-.2V32l.2.2.1-.1-.1.1zm.2-.2s-.1-.1 0 0c-.1.1 0 0 0 0z"/></g><g fill="#f8f9fa"><path d="M2785.745 25.8c.9-.9.9-2.3 0-3.2l-7.5-7.5c-.9-.9-2.3-.9-3.2 0l-12 12c-.9.9-.9 2.3 0 3.2l4.5 4.5c.4.4 1 .7 1.6.7h6c.3 0 1.2-.1 1.5-.6l1.9-1.9.5-.5 6.7-6.7zm-14.1-2.9l6.4 6.4-3.2 3.2h-5.4l-3.7-3.7 5.9-5.9z"/><path d="M2773 32.2c-.1-.1-.1-.1 0 0h-.1.1l-.1-.1h.1-.2V32l.2.2.1-.1-.1.1zm.2-.2s-.1-.1 0 0c-.1.1 0 0 0 0z"/></g><g fill="#f8f9fa"><path d="M2835.971 25.8c.9-.9.9-2.3 0-3.2l-7.5-7.5c-.9-.9-2.3-.9-3.2 0l-12 12c-.9.9-.9 2.3 0 3.2l4.5 4.5c.4.4 1 .7 1.6.7h6c.3 0 1.2-.1 1.5-.6l1.9-1.9.5-.5 6.7-6.7zm-14.1-2.9l6.4 6.4-3.2 3.2h-5.4l-3.7-3.7 5.9-5.9z"/><path d="M2823 32.2c-.1-.1-.1-.1 0 0h-.1.1l-.1-.1h.1-.2V32l.2.2.1-.1-.1.1zm.2-.2s-.1-.1 0 0c-.1.1 0 0 0 0z"/></g><g fill="#f8f9fa"><path d="M2886.127 25.8c.9-.9.9-2.3 0-3.2l-7.5-7.5c-.9-.9-2.3-.9-3.2 0l-12 12c-.9.9-.9 2.3 0 3.2l4.5 4.5c.4.4 1 .7 1.6.7h6c.3 0 1.2-.1 1.5-.6l1.9-1.9.5-.5 6.7-6.7zm-14.1-2.9l6.4 6.4-3.2 3.2h-5.4l-3.7-3.7 5.9-5.9z"/><path d="M2873 32.2c-.1-.1-.1-.1 0 0h-.1.1l-.1-.1h.1-.2V32l.2.2.1-.1-.1.1zm.2-.2s-.1-.1 0 0c-.1.1 0 0 0 0z"/></g><g fill="#f8f9fa"><path d="M2936.228 25.8c.9-.9.9-2.3 0-3.2l-7.5-7.5c-.9-.9-2.3-.9-3.2 0l-12 12c-.9.9-.9 2.3 0 3.2l4.5 4.5c.4.4 1 .7 1.6.7h6c.3 0 1.2-.1 1.5-.6l1.9-1.9.5-.5 6.7-6.7zm-14.1-2.9l6.4 6.4-3.2 3.2h-5.4l-3.7-3.7 5.9-5.9z"/><path d="M2923 32.2c-.1-.1-.1-.1 0 0h-.1.1l-.1-.1h.1-.2V32l.2.2.1-.1-.1.1zm.2-.2s-.1-.1 0 0c-.1.1 0 0 0 0z"/></g><g fill="#f8f9fa"><path d="M2986.283 25.8c.9-.9.9-2.3 0-3.2l-7.5-7.5c-.9-.9-2.3-.9-3.2 0l-12 12c-.9.9-.9 2.3 0 3.2l4.5 4.5c.4.4 1 .7 1.6.7h6c.3 0 1.2-.1 1.5-.6l1.9-1.9.5-.5 6.7-6.7zm-14.1-2.9l6.4 6.4-3.2 3.2h-5.4l-3.7-3.7 5.9-5.9z"/><path d="M2973 32.2c-.1-.1-.1-.1 0 0h-.1.1l-.1-.1h.1-.2V32l.2.2.1-.1-.1.1zm.2-.2s-.1-.1 0 0c-.1.1 0 0 0 0z"/></g><g fill="#f8f9fa"><path d="M3036.3 25.8c.9-.9.9-2.3 0-3.2l-7.5-7.5c-.9-.9-2.3-.9-3.2 0l-12 12c-.9.9-.9 2.3 0 3.2l4.5 4.5c.4.4 1 .7 1.6.7h6c.3 0 1.2-.1 1.5-.6l1.9-1.9.5-.5 6.7-6.7zm-14.1-2.9l6.4 6.4-3.2 3.2h-5.4l-3.7-3.7 5.9-5.9z"/><path d="M3023 32.2c-.1-.1-.1-.1 0 0h-.1.1l-.1-.1h.1-.2V32l.2.2.1-.1-.1.1zm.2-.2s-.1-.1 0 0c-.1.1 0 0 0 0z"/></g></svg>