<svg xmlns="http://www.w3.org/2000/svg" viewBox="0 0 3050 50" width="3050" height="50"><path d="M15.7 23.7L30.1 9.4c.7-.7 1.8-.7 2.5 0l1.7 1.7c.7.7.7 1.8 0 2.5L22.9 25l11.4 11.5c.7.7.7 1.8 0 2.5l-1.7 1.7c-.7.7-1.8.7-2.5 0L15.7 26.3c-.7-.7-.7-1.9 0-2.6zM41.8 25l.4-.4h.1v.1l-.4.3.3.3v.1h-.1l-.3-.4zM65.695 23.701L80.087 9.409c.699-.699 1.799-.699 2.498 0l1.699 1.699c.7.7.7 1.799 0 2.499L72.891 25l11.393 11.493c.7.7.7 1.799 0 2.499l-1.699 1.699c-.699.699-1.799.699-2.498 0L65.695 26.299c-.699-.699-.699-1.899 0-2.598zM91.784 24.999l.409-.408c0-.001.001-.001.101 0l.001.001c.001 0 .001.001 0 .101l-.406.307.306.307c.001 0 .001.001 0 .101l-.001.001c0 .001-.001.001-.101 0l-.309-.408v-.002zM115.68 23.703l14.366-14.265c.698-.699 1.795-.699 2.494 0l1.696 1.695c.698.699.698 1.796 0 2.494L122.863 25l11.372 11.472c.699.699.699 1.796 0 2.494l-1.695 1.696c-.699.698-1.796.698-2.494 0L115.68 26.297c-.698-.698-.698-1.896 0-2.594zM141.735 24.997l.435-.435c.002-.001.005-.001.106 0l.004.005c.002.001.002.004 0 .106l-.427.327.327.328c.002.001.002.004 0 .106l-.004.004c-.001.002-.004.002-.106 0l-.335-.435c-.001-.002-.001-.004 0-.006zM165.654 23.708l14.32-14.22c.696-.696 1.789-.696 2.486 0l1.69 1.69c.696.696.696 1.79 0 2.486L172.813 25l11.336 11.435c.696.696.696 1.79 0 2.487l-1.69 1.69c-.696.696-1.789.696-2.486 0l-14.319-14.32c-.696-.695-.696-1.889 0-2.584zM191.649 24.992l.481-.48c.004-.004.011-.004.114 0l.01.01c.004.004.004.01 0 .114l-.464.364.364.365c.004.004.004.01 0 .113l-.009.01c-.004.004-.011.004-.114 0l-.382-.48c-.004-.005-.004-.011 0-.016zM215.616 23.714l14.251-14.152c.693-.693 1.781-.693 2.474 0l1.682 1.682c.693.692.693 1.78 0 2.474L222.74 25l11.282 11.381c.693.692.693 1.781 0 2.474l-1.682 1.682c-.692.693-1.78.693-2.474 0l-14.25-14.251c-.693-.692-.693-1.88 0-2.572zM241.522 24.986l.549-.548c.008-.007.019-.007.126 0l.018.018c.007.008.007.02 0 .126l-.517.418.418.419c.007.008.007.019 0 .126l-.018.018c-.008.007-.019.007-.126 0l-.45-.549c-.007-.008-.007-.02 0-.028zM265.564 23.722l14.158-14.06c.688-.687 1.769-.687 2.458 0l1.671 1.671c.688.688.688 1.769 0 2.459L272.641 25l11.208 11.307c.688.688.688 1.769 0 2.458l-1.67 1.671c-.688.688-1.769.688-2.459 0l-14.156-14.158c-.688-.688-.688-1.868 0-2.556zM291.349 24.978l.642-.64c.012-.013.031-.013.141 0l.03.029c.012.012.012.031 0 .141l-.59.492.492.493c.012.012.012.031 0 .142l-.03.029c-.012.012-.031.012-.141 0l-.544-.642c-.012-.012-.012-.032 0-.044zM315.496 23.734l14.038-13.941c.681-.682 1.753-.682 2.438 0l1.656 1.656c.681.682.681 1.754 0 2.438L322.512 25l11.113 11.21c.682.682.682 1.754 0 2.438l-1.656 1.656c-.682.682-1.754.682-2.438 0l-14.035-14.038c-.682-.682-.682-1.85 0-2.532zM341.125 24.966l.762-.759c.018-.018.047-.018.162 0l.044.044c.018.018.018.046 0 .162l-.684.587.587.59c.018.018.018.046 0 .162l-.044.044c-.018.018-.047.018-.162 0l-.665-.762c-.018-.018-.018-.05 0-.068zM365.41 23.748l13.887-13.791c.674-.674 1.734-.674 2.412 0l1.638 1.638c.674.674.674 1.734 0 2.412L372.35 25l10.993 11.089c.674.675.674 1.734 0 2.412l-1.638 1.638c-.674.674-1.734.674-2.412 0L365.41 26.252c-.674-.674-.674-1.83 0-2.504zM390.843 24.952l.913-.909c.026-.026.066-.026.188 0l.063.062c.025.026.025.066 0 .188l-.804.707.707.711c.026.025.026.066 0 .188l-.062.062c-.026.026-.066.026-.188 0l-.817-.913c-.026-.026-.026-.07 0-.096zM415.306 23.765l13.701-13.606c.665-.665 1.71-.665 2.38 0l1.615 1.615c.665.665.665 1.71 0 2.38L422.151 25l10.846 10.941c.665.665.665 1.71 0 2.38l-1.615 1.615c-.665.665-1.71.665-2.38 0l-13.696-13.701c-.666-.665-.666-1.805 0-2.47zM440.497 24.935l1.099-1.094c.035-.035.09-.035.22 0l.085.085c.035.035.035.09 0 .22l-.95.854.855.859c.034.035.034.09 0 .22l-.085.085c-.035.035-.09.035-.22 0l-1.004-1.099c-.035-.035-.035-.095 0-.13zM465.179 23.786l13.476-13.383c.654-.654 1.681-.654 2.342 0l1.588 1.588c.654.653.654 1.681 0 2.341L471.91 25l10.668 10.761c.654.654.654 1.681 0 2.342l-1.588 1.588c-.654.653-1.681.653-2.341 0l-13.47-13.477c-.654-.654-.654-1.774 0-2.428zM490.078 24.914l1.324-1.317c.046-.046.118-.046.258 0l.112.112c.046.047.046.119 0 .259L490.647 25l1.032 1.039c.046.046.046.119 0 .258l-.112.112c-.047.047-.119.047-.259 0l-1.23-1.323c-.046-.046-.046-.126 0-.172zM515.028 23.811l13.208-13.117c.641-.641 1.647-.641 2.296 0l1.555 1.555c.641.64.641 1.647 0 2.296L521.623 25l10.456 10.547c.64.64.64 1.647 0 2.296l-1.556 1.555c-.64.64-1.646.64-2.295 0l-13.2-13.209c-.641-.64-.641-1.738 0-2.378zM539.579 24.889l1.591-1.583c.06-.059.153-.059.304 0l.145.145c.06.06.06.153 0 .304L540.283 25l1.245 1.253c.059.06.059.153 0 .304l-.145.145c-.06.06-.153.06-.304 0l-1.5-1.591c-.06-.06-.06-.162 0-.222zM564.849 23.84l12.893-12.804c.625-.624 1.606-.624 2.242 0l1.517 1.517c.624.625.624 1.607 0 2.242L571.285 25l10.205 10.294c.625.625.625 1.606 0 2.242l-1.517 1.517c-.625.624-1.606.624-2.242 0L564.849 26.16c-.624-.625-.624-1.695 0-2.32zM588.99 24.86l1.907-1.896c.076-.076.194-.076.359 0l.183.183c.075.075.075.193 0 .358L589.854 25l1.495 1.506c.076.075.076.194 0 .358l-.183.183c-.075.076-.193.076-.358 0l-1.818-1.907c-.075-.075-.075-.205 0-.28zM614.642 23.874l12.525-12.438c.606-.606 1.558-.606 2.178 0l1.472 1.472c.607.607.607 1.559 0 2.179L620.891 25l9.913 10c.606.606.606 1.559 0 2.178l-1.472 1.473c-.607.606-1.559.606-2.179 0l-12.511-12.525c-.606-.606-.606-1.646 0-2.252zM638.304 24.826l2.275-2.262c.094-.094.241-.094.422 0l.227.228c.094.093.094.241 0 .421L639.355 25l1.787 1.8c.094.094.094.241 0 .422l-.228.227c-.094.094-.241.094-.421 0l-2.189-2.275c-.094-.094-.094-.254 0-.348zM664.403 23.913l12.101-12.017c.585-.585 1.505-.585 2.106 0l1.421 1.421c.585.585.585 1.504 0 2.105L670.437 25l9.578 9.661c.585.585.585 1.505 0 2.106l-1.421 1.421c-.585.585-1.505.585-2.106 0l-12.085-12.101c-.585-.586-.585-1.588 0-2.174zM687.515 24.787l2.698-2.683c.115-.115.296-.115.494 0l.279.279c.115.115.115.296 0 .495L688.78 25l2.123 2.139c.115.115.115.295 0 .494l-.279.279c-.115.115-.296.115-.494 0l-2.615-2.699c-.115-.114-.115-.312 0-.426zM714.132 23.958l11.622-11.541c.561-.561 1.442-.561 2.023 0l1.363 1.362c.561.561.561 1.443 0 2.024L719.923 25l9.197 9.277c.561.561.561 1.443 0 2.024l-1.362 1.363c-.562.561-1.443.561-2.024 0l-11.602-11.622c-.561-.561-.561-1.523 0-2.084zM736.62 24.742l3.179-3.159c.139-.139.357-.139.576 0l.337.338c.139.139.139.357 0 .576L738.129 25l2.503 2.523c.139.139.139.357 0 .576l-.337.337c-.139.139-.357.139-.577 0l-3.098-3.178c-.139-.139-.139-.377 0-.516zM763.831 24.008l11.088-11.012c.534-.534 1.374-.534 1.932 0l1.298 1.298c.534.534.534 1.374 0 1.932L769.351 25l8.774 8.85c.534.535.534 1.374 0 1.932l-1.298 1.298c-.534.535-1.374.535-1.932 0l-11.064-11.088c-.534-.534-.534-1.45 0-1.984zM785.625 24.692l3.712-3.688c.166-.166.426-.166.668 0l.402.402c.166.166.166.426 0 .668L787.405 25l2.926 2.95c.166.165.166.426 0 .668l-.402.402c-.166.165-.426.165-.668 0l-3.636-3.712c-.166-.166-.166-.45 0-.616zM813.503 24.061l10.508-10.435c.505-.505 1.299-.505 1.832 0l1.228 1.228c.505.505.505 1.299 0 1.832L818.729 25l8.314 8.386c.505.505.505 1.299 0 1.832l-1.228 1.228c-.505.505-1.299.505-1.832 0l-10.48-10.507c-.505-.506-.505-1.372 0-1.878zM834.543 24.639l4.293-4.265c.194-.195.5-.195.767 0l.473.472c.194.195.194.501 0 .768L836.617 25l3.386 3.414c.195.195.195.501 0 .768l-.472.472c-.195.195-.501.195-.768 0l-4.22-4.293c-.195-.194-.195-.528 0-.722zM863.156 24.119l9.892-9.825c.475-.474 1.221-.474 1.727 0l1.153 1.153c.475.475.475 1.22 0 1.727L868.07 25l7.826 7.894c.474.474.474 1.22 0 1.727l-1.153 1.152c-.474.475-1.22.475-1.727 0l-9.86-9.892c-.474-.474-.474-1.288 0-1.762zM883.396 24.581l4.908-4.875c.225-.226.579-.226.873 0l.547.547c.225.225.225.58 0 .873L885.782 25l3.874 3.906c.226.226.226.58 0 .873l-.547.548c-.226.225-.58.225-.873 0l-4.84-4.908c-.226-.226-.226-.612 0-.838zM912.798 24.177l9.258-9.194c.443-.443 1.139-.443 1.619 0l1.075 1.075c.443.443.443 1.139 0 1.619L917.391 25l7.323 7.386c.442.443.442 1.139 0 1.619l-1.076 1.075c-.443.443-1.139.443-1.619 0l-9.221-9.257c-.443-.443-.443-1.203 0-1.646zM932.214 24.523l5.542-5.506c.257-.257.661-.257.981 0l.625.625c.257.257.257.661 0 .981L934.921 25l4.377 4.414c.257.257.257.661 0 .981l-.624.625c-.257.257-.661.257-.982 0l-5.478-5.543c-.258-.257-.258-.697 0-.954zM962.439 24.237l8.622-8.563c.411-.411 1.057-.411 1.509 0l.999.998c.411.411.411 1.057 0 1.509L966.709 25l6.818 6.877c.412.411.412 1.057 0 1.51l-.998.998c-.411.411-1.057.411-1.509 0l-8.581-8.622c-.411-.411-.411-1.115 0-1.526zM981.027 24.463l6.179-6.137c.289-.289.743-.289 1.09 0l.702.702c.289.289.289.743 0 1.091L984.058 25l4.881 4.923c.289.289.289.743 0 1.09l-.701.702c-.289.289-.743.289-1.091 0l-6.12-6.178c-.288-.289-.288-.785 0-1.074zM1012.088 24.294l7.998-7.944c.38-.38.977-.38 1.403 0l.922.923c.38.38.38.977 0 1.402l-6.37 6.325 6.325 6.379c.38.38.38.977 0 1.402l-.923.923c-.38.38-.977.38-1.403 0l-7.952-7.998c-.38-.38-.38-1.032 0-1.412zM1029.866 24.406l6.801-6.756c.32-.32.823-.32 1.198 0l.777.777c.32.32.32.823 0 1.198l-5.43 5.375 5.376 5.421c.32.32.32.823 0 1.198l-.778.777c-.32.32-.823.32-1.197 0l-6.747-6.802c-.32-.32-.32-.868 0-1.188zM1061.75 24.35l7.4-7.35c.35-.35.9-.35 1.3 0l.85.85c.35.35.35.9 0 1.3l-5.9 5.85 5.85 5.9c.35.35.35.9 0 1.3l-.85.85c-.35.35-.9.35-1.3 0l-7.35-7.4c-.35-.35-.35-.95 0-1.3zM1078.75 24.35l7.4-7.35c.35-.35.9-.35 1.3 0l.85.85c.35.35.35.9 0 1.3l-5.9 5.85 5.85 5.9c.35.35.35.9 0 1.3l-.85.85c-.35.35-.9.35-1.3 0l-7.35-7.4c-.35-.35-.35-.95 0-1.3zM1111.43 24.403l6.834-6.788c.322-.322.827-.322 1.203 0l.781.781c.322.322.322.827 0 1.203L1114.793 25l5.401 5.447c.322.322.322.827 0 1.203l-.781.781c-.322.322-.827.322-1.203 0l-6.78-6.834c-.321-.321-.321-.873 0-1.194zM1127.694 24.297l7.966-7.912c.379-.378.973-.378 1.398 0l.918.919c.379.378.379.973 0 1.397L1131.631 25l6.299 6.353c.379.378.379.973 0 1.397l-.918.919c-.379.378-.973.378-1.397 0l-7.921-7.966c-.378-.379-.378-1.027 0-1.406zM1161.131 24.452l6.303-6.261c.295-.295.759-.295 1.112 0l.717.717c.295.295.295.759 0 1.112l-5.038 4.98 4.98 5.023c.295.295.295.758 0 1.111l-.717.717c-.295.295-.759.295-1.112 0l-6.245-6.303c-.295-.295-.295-.801 0-1.096zM1176.705 24.248l8.497-8.439c.405-.405 1.041-.405 1.488 0l.983.983c.405.405.405 1.041 0 1.488l-6.762 6.72 6.72 6.777c.405.405.405 1.042 0 1.489l-.983.983c-.405.405-1.041.405-1.488 0l-8.455-8.497c-.405-.405-.405-1.099 0-1.504zM1210.853 24.498l5.809-5.771c.271-.271.696-.271 1.028 0l.657.657c.27.27.27.695 0 1.027L1213.696 25l4.589 4.628c.271.27.271.695 0 1.027l-.657.657c-.27.27-.695.27-1.027 0l-5.748-5.81c-.271-.27-.271-.734 0-1.004zM1225.785 24.202l8.991-8.929c.429-.429 1.104-.429 1.572 0l1.043 1.043c.43.43.43 1.105 0 1.573L1230.242 25l7.111 7.172c.429.43.429 1.105 0 1.573l-1.044 1.043c-.429.43-1.104.43-1.572 0l-8.952-8.99c-.429-.43-.429-1.166 0-1.596zM1260.595 24.54l5.352-5.317c.248-.248.637-.248.949 0l.602.601c.247.248.247.637 0 .949L1263.206 25l4.227 4.262c.248.248.248.637 0 .949l-.601.601c-.248.248-.637.248-.949 0l-5.288-5.352c-.248-.248-.248-.672 0-.92zM1274.933 24.16l9.447-9.383c.453-.452 1.164-.452 1.651 0l1.099 1.099c.452.452.452 1.163 0 1.651L1279.621 25l7.474 7.538c.452.452.452 1.163 0 1.651l-1.099 1.099c-.452.452-1.163.452-1.651 0l-9.412-9.448c-.452-.452-.452-1.228 0-1.68zM1310.356 24.579l4.93-4.897c.227-.227.583-.227.877 0l.55.55c.227.226.227.582 0 .876L1312.754 25l3.891 3.924c.227.227.227.583 0 .877l-.55.55c-.226.226-.582.226-.876 0l-4.863-4.93c-.226-.227-.226-.615 0-.842zM1324.145 24.121l9.87-9.803c.474-.473 1.218-.473 1.724 0l1.15 1.15c.473.474.473 1.218 0 1.724L1329.048 25l7.808 7.876c.474.473.474 1.217 0 1.723l-1.15 1.15c-.473.474-1.217.474-1.723 0l-9.838-9.87c-.473-.473-.473-1.285 0-1.758zM1360.136 24.616l4.54-4.511c.207-.207.533-.207.81 0l.503.503c.207.207.207.532 0 .809L1362.336 25l3.583 3.612c.207.207.207.532 0 .81l-.503.503c-.207.207-.533.207-.81 0l-4.47-4.541c-.207-.207-.207-.561 0-.768zM1373.419 24.084l10.259-10.189c.493-.493 1.268-.493 1.791 0l1.197 1.197c.493.493.493 1.268 0 1.791L1378.519 25l8.117 8.188c.493.493.493 1.268 0 1.79l-1.197 1.197c-.493.493-1.268.493-1.79 0l-10.23-10.259c-.493-.493-.493-1.339 0-1.832zM1409.933 24.649l4.181-4.153c.189-.19.486-.19.748 0l.459.459c.189.189.189.486 0 .748L1411.95 25l3.298 3.324c.189.189.189.486 0 .748l-.459.459c-.189.19-.486.19-.748 0l-4.108-4.18c-.189-.189-.189-.513 0-.702zM1422.748 24.051l10.619-10.547c.511-.51 1.314-.51 1.852 0l1.241 1.241c.511.511.511 1.314 0 1.852L1428.031 25l8.402 8.476c.511.511.511 1.314 0 1.852l-1.241 1.241c-.511.51-1.314.51-1.852 0l-10.592-10.62c-.511-.511-.511-1.387 0-1.898zM1459.746 24.68l3.848-3.824c.173-.173.444-.173.692 0l.418.419c.173.172.173.443 0 .691L1461.595 25l3.034 3.059c.172.172.172.443 0 .691l-.419.419c-.172.172-.443.172-.691 0l-3.773-3.849c-.172-.172-.172-.468 0-.64zM1472.129 24.02l10.952-10.876c.527-.527 1.356-.527 1.908 0l1.282 1.281c.527.528.527 1.357 0 1.909L1477.58 25l8.666 8.741c.528.528.528 1.357 0 1.909l-1.281 1.281c-.528.528-1.357.528-1.909 0l-10.927-10.951c-.528-.528-.528-1.432 0-1.96zM1509.573 24.708l3.542-3.519c.157-.158.404-.158.639 0l.381.381c.158.157.158.404 0 .639L1511.267 25l2.791 2.814c.157.157.157.404 0 .638l-.382.382c-.157.157-.404.157-.638 0l-3.465-3.542c-.157-.157-.157-.427 0-.584zM1521.558 23.992l11.258-11.181c.543-.542 1.396-.542 1.961 0l1.319 1.319c.542.543.542 1.396 0 1.961L1527.164 25l8.909 8.986c.543.543.543 1.396 0 1.962l-1.318 1.318c-.543.543-1.396.543-1.962 0l-11.235-11.258c-.543-.543-.543-1.473 0-2.016z" fill="#f8f9fa"/><g><path d="M1559.413 24.734l3.26-3.238c.143-.143.367-.143.59 0l.347.347c.143.143.143.367 0 .59L1560.963 25l2.567 2.587c.143.143.143.368 0 .591l-.347.347c-.143.143-.367.143-.59 0l-3.18-3.259c-.143-.143-.143-.389 0-.532zM1571.03 23.966l11.541-11.462c.557-.557 1.433-.557 2.01 0l1.353 1.353c.557.557.557 1.433 0 2.01L1576.78 25l9.133 9.213c.557.557.557 1.432 0 2.009l-1.352 1.353c-.557.557-1.433.557-2.01 0l-11.521-11.541c-.557-.557-.557-1.511 0-2.068z" fill="#f8f9fa"/></g><g><path d="M1609.266 24.759l2.998-2.98c.13-.13.334-.13.545 0l.316.316c.13.13.13.334 0 .545l-2.441 2.36 2.359 2.378c.13.13.13.334 0 .546l-.315.315c-.13.13-.334.13-.546 0l-2.916-2.998c-.13-.13-.13-.352 0-.482zM1620.543 23.941l11.802-11.72c.57-.57 1.466-.57 2.055 0l1.385 1.384c.57.57.57 1.466 0 2.055l-9.359 9.34 9.34 9.422c.57.57.57 1.466 0 2.054l-1.385 1.385c-.57.57-1.466.57-2.054 0l-11.784-11.802c-.57-.57-.57-1.548 0-2.118z" fill="#f8f9fa"/></g><g><path d="M1659.13 24.781l2.756-2.739c.118-.118.303-.118.504 0l.286.286c.118.117.118.303 0 .504L1660.425 25l2.168 2.185c.118.118.118.303 0 .504l-.286.286c-.118.118-.303.118-.504 0l-2.673-2.756c-.118-.118-.118-.32 0-.438zM1670.093 23.919l12.044-11.961c.582-.582 1.497-.582 2.096 0l1.414 1.414c.582.583.582 1.497 0 2.096L1676.098 25l9.532 9.615c.582.582.582 1.497 0 2.096l-1.414 1.414c-.582.582-1.497.582-2.096 0l-12.027-12.044c-.582-.582-.582-1.58 0-2.162z" fill="#f8f9fa"/></g><g><path d="M1709.004 24.802l2.533-2.518c.107-.107.274-.107.466 0l.259.259c.107.107.107.274 0 .466L1710.186 25l1.991 2.007c.107.106.107.274 0 .465l-.259.259c-.107.107-.274.107-.466 0l-2.448-2.533c-.107-.107-.107-.289 0-.396zM1719.677 23.898l12.267-12.182c.593-.593 1.526-.593 2.134 0l1.441 1.441c.593.593.593 1.526 0 2.134L1725.795 25l9.709 9.793c.593.594.593 1.526 0 2.135l-1.441 1.441c-.593.593-1.526.593-2.134 0l-12.252-12.267c-.593-.593-.593-1.611 0-2.204z" fill="#f8f9fa"/></g><g><path d="M1758.887 24.821l2.328-2.313c.096-.097.247-.097.43 0l.234.234c.096.096.096.248 0 .43L1759.965 25l1.828 1.842c.096.096.096.247 0 .43l-.234.234c-.097.096-.248.096-.431 0l-2.241-2.327c-.096-.096-.096-.262 0-.358zM1769.293 23.879l12.473-12.387c.603-.603 1.552-.603 2.169 0l1.466 1.466c.604.604.604 1.552 0 2.17L1775.515 25l9.872 9.958c.604.604.604 1.553 0 2.17l-1.466 1.466c-.603.604-1.552.604-2.169 0l-12.459-12.473c-.604-.604-.604-1.638 0-2.242z" fill="#f8f9fa"/></g><g><path d="M1808.78 24.839l2.136-2.124c.087-.087.224-.087.398 0l.211.211c.087.086.087.223 0 .397L1809.76 25l1.677 1.689c.087.087.087.223 0 .398l-.211.211c-.086.087-.223.087-.397 0l-2.049-2.137c-.087-.087-.087-.235 0-.322zM1818.937 23.861l12.664-12.576c.613-.613 1.577-.613 2.202 0l1.489 1.489c.613.614.613 1.577 0 2.203L1825.257 25l10.023 10.111c.613.613.613 1.577 0 2.202l-1.489 1.489c-.613.613-1.577.613-2.203 0l-12.651-12.663c-.613-.613-.613-1.665 0-2.278z" fill="#f8f9fa"/></g><g><path d="M1858.68 24.855l1.961-1.949c.078-.078.2-.078.367 0l.19.189c.078.078.078.201 0 .368L1859.572 25l1.537 1.548c.078.078.078.201 0 .368l-.19.189c-.078.078-.2.078-.367 0l-1.872-1.96c-.078-.078-.078-.212 0-.29zM1868.609 23.845l12.84-12.751c.622-.622 1.599-.622 2.232 0l1.511 1.511c.622.622.622 1.599 0 2.232L1875.018 25l10.162 10.252c.622.622.622 1.599 0 2.232l-1.51 1.511c-.622.622-1.599.622-2.233 0l-12.828-12.84c-.622-.622-.622-1.688 0-2.31z" fill="#f8f9fa"/></g><g><path d="M1908.589 24.87l1.797-1.787c.07-.07.18-.07.34 0l.17.169c.07.07.07.18 0 .34L1909.397 25l1.409 1.418c.069.07.069.18 0 .34l-.17.169c-.07.07-.18.07-.34 0l-1.707-1.797c-.07-.07-.07-.19 0-.26zM1918.306 23.83l13.002-12.913c.63-.63 1.62-.63 2.26 0l1.531 1.531c.63.63.63 1.62 0 2.26L1924.797 25l10.292 10.382c.63.63.63 1.62 0 2.26l-1.531 1.531c-.63.63-1.62.63-2.26 0l-12.992-13.003c-.631-.63-.631-1.71 0-2.34z" fill="#f8f9fa"/></g><g><path d="M1958.504 24.884l1.647-1.638c.063-.063.161-.063.314 0l.152.151c.062.062.062.16 0 .314l-1.38 1.289 1.289 1.298c.062.062.062.16 0 .314l-.152.151c-.062.063-.16.063-.314 0l-1.556-1.647c-.062-.063-.062-.169 0-.232zM1968.026 23.816l13.152-13.062c.638-.637 1.64-.637 2.286 0l1.549 1.549c.637.638.637 1.64 0 2.286L1974.593 25l10.411 10.502c.638.638.638 1.64 0 2.286l-1.549 1.549c-.637.637-1.639.637-2.286 0l-13.143-13.153c-.638-.637-.638-1.731 0-2.368z" fill="#f8f9fa"/></g><g><path d="M2008.426 24.897l1.509-1.501c.055-.056.143-.056.29 0l.135.134c.055.056.055.143 0 .291L2009.088 25l1.18 1.187c.055.056.055.143 0 .29l-.135.135c-.055.056-.143.056-.29 0l-1.417-1.509c-.056-.055-.056-.151 0-.206zM2017.768 23.803l13.291-13.199c.644-.644 1.657-.644 2.309 0l1.566 1.566c.644.644.644 1.657 0 2.309L2024.405 25l10.521 10.613c.644.644.644 1.657 0 2.31l-1.565 1.565c-.645.644-1.658.644-2.31 0l-13.283-13.291c-.645-.645-.645-1.749 0-2.394z" fill="#f8f9fa"/></g><g><path d="M2058.354 24.909l1.382-1.375c.049-.049.126-.049.268 0l.119.119c.049.049.049.127 0 .269L2058.952 25l1.078 1.085c.049.049.049.127 0 .269l-.119.119c-.049.049-.126.049-.268 0l-1.289-1.382c-.049-.049-.049-.133 0-.182zM2067.53 23.791l13.418-13.325c.651-.651 1.674-.651 2.332 0l1.581 1.581c.651.651.651 1.673 0 2.331L2074.232 25l10.622 10.715c.651.651.651 1.673 0 2.331l-1.581 1.581c-.651.651-1.674.651-2.332 0l-13.411-13.418c-.651-.651-.651-1.767 0-2.418z" fill="#f8f9fa"/></g><g><path d="M2108.288 24.92l1.264-1.259c.044-.043.112-.043.249 0l.105.105c.043.044.043.111 0 .249l-1.08.985.986.992c.043.043.043.111 0 .248l-.105.105c-.043.043-.111.043-.248 0l-1.171-1.265c-.043-.043-.043-.117 0-.16zM2117.312 23.78l13.535-13.441c.657-.657 1.689-.657 2.352 0l1.595 1.595c.657.656.657 1.689 0 2.351L2124.073 25l10.715 10.808c.657.657.657 1.689 0 2.352l-1.595 1.595c-.657.657-1.689.657-2.352 0l-13.529-13.535c-.657-.657-.657-1.783 0-2.44z" fill="#f8f9fa"/></g><g><path d="M2158.227 24.93l1.157-1.152c.038-.038.098-.038.23 0l.092.092c.038.038.038.097 0 .23l-.995.9.9.906c.038.038.038.097 0 .229l-.092.092c-.037.038-.097.038-.229 0l-1.063-1.157c-.038-.038-.038-.102 0-.14zM2167.111 23.77l13.643-13.548c.662-.662 1.703-.662 2.371 0l1.608 1.608c.662.662.662 1.703 0 2.37L2173.927 25l10.8 10.894c.662.662.662 1.703 0 2.371l-1.608 1.608c-.662.662-1.703.662-2.37 0l-13.638-13.643c-.662-.662-.662-1.798 0-2.46z" fill="#f8f9fa"/></g><g><path d="M2208.172 24.939l1.058-1.054c.033-.033.085-.033.213 0l.08.08c.033.033.033.085 0 .213l-.917.822.822.827c.033.033.033.085 0 .213l-.08.08c-.033.033-.085.033-.213 0l-.963-1.059c-.033-.033-.033-.089 0-.122zM2216.928 23.761l13.741-13.646c.667-.667 1.716-.667 2.387 0l1.62 1.62c.667.667.667 1.715 0 2.387L2223.794 25l10.878 10.973c.667.667.667 1.715 0 2.387l-1.62 1.62c-.667.667-1.716.667-2.387 0l-13.737-13.741c-.667-.667-.667-1.811 0-2.478z" fill="#f8f9fa"/></g><g><path d="M2258.121 24.947l.969-.965c.028-.028.073-.028.197 0l.069.069c.029.029.029.074 0 .198l-.847.751.752.755c.028.029.028.073 0 .198l-.07.069c-.028.028-.073.028-.197 0l-.873-.969c-.028-.029-.028-.077 0-.106zM2266.761 23.753l13.831-13.735c.671-.672 1.727-.672 2.402 0l1.631 1.631c.672.671.672 1.726 0 2.402L2273.672 25l10.949 11.045c.672.671.672 1.727 0 2.402l-1.631 1.631c-.671.672-1.727.672-2.402 0l-13.827-13.831c-.672-.671-.672-1.823 0-2.494z" fill="#f8f9fa"/></g><g><path d="M2308.075 24.955l.887-.884c.024-.024.063-.024.184 0l.059.059c.024.025.024.063 0 .184l-.783.686.686.69c.024.024.024.062 0 .183l-.059.059c-.024.025-.063.025-.184 0l-.79-.887c-.024-.024-.024-.066 0-.09zM2316.608 23.745l13.913-13.816c.676-.676 1.737-.676 2.417 0l1.64 1.641c.676.675.676 1.737 0 2.416L2323.561 25l11.014 11.11c.676.676.676 1.738 0 2.417l-1.641 1.641c-.676.675-1.737.675-2.416 0l-13.91-13.913c-.676-.676-.676-1.834 0-2.51z" fill="#f8f9fa"/></g><g><path d="M2358.033 24.962l.813-.81c.021-.021.053-.021.171 0l.05.05c.021.02.021.053 0 .171l-.724.627.627.63c.021.021.021.054 0 .171l-.05.05c-.021.021-.053.021-.171 0l-.716-.813c-.021-.02-.021-.056 0-.076zM2366.47 23.738l13.987-13.89c.679-.679 1.747-.679 2.429 0l1.65 1.65c.679.68.679 1.747 0 2.429L2373.461 25l11.072 11.17c.679.679.679 1.746 0 2.429l-1.65 1.65c-.679.679-1.747.679-2.429 0l-13.984-13.987c-.679-.68-.679-1.844 0-2.524z" fill="#f8f9fa"/></g><g><path d="M2407.995 24.968l.747-.744c.017-.017.044-.017.159 0l.042.042c.017.017.017.045 0 .159l-.672.575.575.577c.017.017.017.045 0 .159l-.043.042c-.017.018-.044.018-.159 0l-.649-.746c-.017-.017-.017-.047 0-.064zM2416.346 23.732l14.053-13.956c.683-.683 1.756-.683 2.441 0l1.658 1.658c.683.683.683 1.755 0 2.441L2423.37 25l11.125 11.223c.683.683.683 1.755 0 2.441l-1.658 1.658c-.682.682-1.755.682-2.44 0l-14.051-14.054c-.683-.683-.683-1.853 0-2.536z" fill="#f8f9fa"/></g><g><path d="M2457.962 24.973l.686-.684c.014-.014.037-.014.149 0l.035.035c.014.014.014.037 0 .149l-.625.527.527.529c.014.014.014.037 0 .149l-.035.035c-.014.014-.037.014-.149 0l-.588-.686c-.015-.015-.015-.039 0-.054zM2466.234 23.727l14.113-14.016c.686-.686 1.764-.686 2.451 0l1.666 1.665c.685.686.685 1.763 0 2.451L2473.289 25l11.173 11.271c.685.686.685 1.763 0 2.451l-1.666 1.665c-.685.686-1.763.686-2.451 0l-14.111-14.114c-.686-.685-.686-1.861 0-2.546z" fill="#f8f9fa"/></g><g><path d="M2507.931 24.978l.633-.631c.012-.012.03-.012.14 0l.029.028c.011.012.011.03 0 .14l-.583.485.484.486c.012.012.012.03 0 .14l-.028.029c-.012.011-.03.011-.14 0l-.535-.633c-.011-.012-.011-.032 0-.044zM2516.134 23.722l14.167-14.069c.689-.688 1.77-.688 2.46 0l1.672 1.672c.688.688.688 1.77 0 2.46L2523.216 25l11.215 11.314c.689.688.689 1.77 0 2.46l-1.671 1.671c-.689.689-1.77.689-2.46 0l-14.166-14.167c-.688-.688-.688-1.868 0-2.556z" fill="#f8f9fa"/></g><g><path d="M2557.905 24.983l.586-.585c.009-.009.024-.009.132 0l.022.023c.009.009.009.024 0 .132l-.546.447.447.449c.01.009.01.024 0 .132l-.022.022c-.009.009-.024.009-.132 0l-.487-.586c-.009-.009-.009-.025 0-.034zM2566.046 23.717l14.215-14.115c.69-.691 1.776-.691 2.468 0l1.677 1.677c.691.691.691 1.776 0 2.468L2573.152 25l11.253 11.351c.691.691.691 1.776 0 2.468l-1.678 1.678c-.69.691-1.776.691-2.468 0l-14.213-14.214c-.69-.691-.69-1.875 0-2.566z" fill="#f8f9fa"/></g><g><path d="M2607.882 24.987l.544-.544c.008-.007.019-.007.125 0l.018.018c.007.007.007.018 0 .124l-.514.415.415.416c.007.007.007.018 0 .125l-.018.017c-.007.007-.018.007-.125 0l-.445-.545c-.008-.007-.008-.019 0-.026zM2615.97 23.713l14.255-14.156c.693-.693 1.781-.693 2.475 0l1.683 1.682c.692.693.692 1.782 0 2.476L2623.096 25l11.286 11.384c.692.693.692 1.782 0 2.475l-1.683 1.683c-.693.693-1.781.693-2.475 0l-14.254-14.255c-.693-.693-.693-1.881 0-2.574z" fill="#f8f9fa"/></g><g><path d="M2657.862 24.99l.509-.509c.005-.005.014-.005.118 0l.014.014c.005.005.005.014 0 .118l-.486.387.386.387c.006.006.006.014 0 .119l-.013.013c-.005.006-.014.006-.118 0l-.41-.509c-.006-.005-.006-.015 0-.02zM2665.903 23.71l14.291-14.191c.695-.695 1.786-.695 2.482 0l1.686 1.686c.695.695.695 1.786 0 2.482L2673.048 25l11.314 11.413c.694.694.694 1.786 0 2.481l-1.687 1.687c-.695.694-1.786.694-2.481 0l-14.291-14.291c-.694-.695-.694-1.885 0-2.58z" fill="#f8f9fa"/></g><g><path d="M2707.845 24.993l.479-.479c.004-.004.01-.004.113 0l.01.01c.004.004.004.01 0 .113l-.462.363.362.363c.004.004.004.01 0 .114l-.009.009c-.004.004-.01.004-.114 0l-.379-.479c-.004-.004-.004-.01 0-.014zM2715.847 23.707l14.321-14.221c.696-.696 1.79-.696 2.487 0l1.69 1.69c.696.696.696 1.79 0 2.487L2723.007 25l11.338 11.437c.696.696.696 1.79 0 2.486l-1.691 1.691c-.696.696-1.79.696-2.486 0l-14.321-14.321c-.696-.696-.696-1.89 0-2.586z" fill="#f8f9fa"/></g><g><path d="M2757.831 24.995l.454-.454c.002-.002.007-.002.109 0l.007.007c.002.003.002.007 0 .109l-.443.343.343.343c.003.003.003.007 0 .11l-.007.006c-.002.003-.007.003-.109 0l-.354-.454c-.003-.003-.003-.007 0-.01zM2765.801 23.705l14.346-14.246c.697-.698 1.793-.698 2.491 0l1.693 1.693c.697.697.697 1.793 0 2.491L2772.973 25l11.358 11.457c.697.697.697 1.793 0 2.49l-1.694 1.694c-.697.697-1.793.697-2.491 0l-14.345-14.346c-.697-.697-.697-1.893 0-2.59z" fill="#f8f9fa"/></g><g><path d="M2807.819 24.997l.434-.434c.002-.002.005-.002.106 0l.004.004c.002.002.002.004 0 .106l-.426.327.327.327c.001.002.001.005 0 .106l-.004.004c-.002.002-.005.002-.106 0l-.335-.434c-.001-.002-.001-.004 0-.006zM2815.764 23.703l14.366-14.266c.698-.698 1.795-.698 2.494 0l1.696 1.696c.698.698.698 1.796 0 2.494L2822.946 25l11.373 11.473c.699.698.699 1.795 0 2.494l-1.696 1.696c-.698.698-1.795.698-2.494 0l-14.365-14.366c-.699-.698-.699-1.896 0-2.594z" fill="#f8f9fa"/></g><g><path d="M2857.811 24.998l.419-.419c.001-.001.002-.001.103 0l.002.003c.001.001.001.002 0 .103l-.415.315.315.315c.001.001.001.003 0 .103l-.002.003c-.001.001-.002.001-.103 0l-.319-.419c-.001-.001-.001-.003 0-.004zM2865.735 23.702l14.381-14.281c.699-.699 1.798-.699 2.497 0l1.698 1.697c.699.699.699 1.798 0 2.497L2872.926 25l11.385 11.485c.699.699.699 1.797 0 2.497l-1.698 1.697c-.699.699-1.798.699-2.497 0l-14.381-14.381c-.699-.699-.699-1.897 0-2.596z" fill="#f8f9fa"/></g><g><path d="M2907.805 24.999l.408-.408h.101l.001.001c.001 0 .001.001 0 .101l-.406.307.307.307v.101l-.002.001c0 .001-.001.001-.101 0l-.308-.408c-.001-.001-.001-.001 0-.002zM2915.716 23.701l14.391-14.292c.7-.7 1.799-.7 2.499 0l1.699 1.699c.699.7.699 1.799 0 2.499L2922.911 25l11.394 11.493c.699.7.699 1.799 0 2.499l-1.699 1.699c-.7.699-1.799.699-2.499 0l-14.391-14.392c-.7-.699-.7-1.899 0-2.598z" fill="#f8f9fa"/></g><g><path d="M2957.801 25l.402-.402h.101v.1l-.402.302.302.302v.1h-.101l-.302-.402zM2965.704 23.7l14.398-14.298c.7-.7 1.8-.7 2.499 0l1.7 1.7c.7.7.7 1.8 0 2.5L2972.903 25l11.398 11.498c.7.7.7 1.8 0 2.5l-1.7 1.7c-.699.7-1.799.7-2.499 0L2965.704 26.3c-.7-.7-.7-1.9 0-2.6z" fill="#f8f9fa"/></g><g><path d="M3007.8 25l.4-.4h.1v.1l-.4.3.3.3v.1h-.1l-.3-.4zM3015.7 23.7l14.4-14.3c.7-.7 1.8-.7 2.5 0l1.7 1.7c.7.7.7 1.8 0 2.5L3022.9 25l11.4 11.5c.7.7.7 1.8 0 2.5l-1.7 1.7c-.7.7-1.8.7-2.5 0l-14.4-14.4c-.7-.7-.7-1.9 0-2.6z" fill="#f8f9fa"/></g></svg>