<svg xmlns="http://www.w3.org/2000/svg" viewBox="0 0 3050 50" width="3050" height="50"><g fill="#f8f9fa"><path d="M25 30.3c1.6 0 3.1-.7 4.1-1.9.1-.2.5-.7.8-1.4.6-1.6.3-3 0-3.9-.4-1.1-1.1-1.7-1.4-2-1.1-.9-2.2-1.2-2.5-1.2-.3-.1-.6-.1-1-.1-2.9 0-5.3 2.3-5.3 5.3.1 2.8 2.4 5.2 5.3 5.2z"/><path d="M38.5 24.1l-5.2-2.6 1.8-5.5c.2-.7-.5-1.4-1.2-1.2l-5.5 1.8-2.6-5.2c-.4-.7-1.3-.7-1.7 0l-2.6 5.2-5.5-1.8c-.7-.2-1.4.5-1.2 1.2l1.8 5.5-5.2 2.6c-.7.4-.7 1.3 0 1.7l5.2 2.6-1.8 5.5c-.2.7.5 1.4 1.2 1.2l5.5-1.8 2.6 5.2c.4.7 1.3.7 1.7 0l2.6-5.2 5.5 1.8c.7.2 1.4-.5 1.2-1.2l-1.8-5.5 5.2-2.6c.7-.3.7-1.3 0-1.7zM30 29.9c-2.7 2.7-7.2 2.7-9.9 0s-2.7-7.2 0-9.9 7.2-2.7 9.9 0 2.7 7.2 0 9.9z"/></g><g fill="#f8f9fa"><path d="M75 30.3c1.6 0 3.1-.7 4.1-1.9.1-.2.5-.7.8-1.4.6-1.6.3-3 0-3.9-.4-1.1-1.1-1.7-1.4-2-1.1-.9-2.2-1.2-2.5-1.2-.3-.1-.6-.1-1-.1-2.9 0-5.3 2.3-5.3 5.3.1 2.8 2.4 5.2 5.3 5.2z"/><path d="M86.2 24.25l-4.317-2.15 1.5-4.567c.167-.583-.416-1.166-1-1l-4.566 1.5-2.15-4.316c-.334-.584-1.084-.584-1.417 0l-2.15 4.316-4.567-1.5c-.583-.166-1.166.417-1 1l1.5 4.567-4.316 2.15c-.584.333-.584 1.083 0 1.417l4.316 2.15-1.5 4.566c-.166.584.417 1.167 1 1l4.567-1.5 2.15 4.317c.333.583 1.083.583 1.417 0l2.15-4.317 4.566 1.5c.584.167 1.167-.416 1-1l-1.5-4.566 4.317-2.15c.583-.25.583-1.084 0-1.417zm-7.05 4.817c-2.233 2.233-5.967 2.233-8.217 0-2.25-2.234-2.233-5.967 0-8.217 2.234-2.25 5.967-2.233 8.217 0 2.25 2.233 2.233 5.967 0 8.217z"/></g><g fill="#f8f9fa"><path d="M125 30.3c1.6 0 3.1-.7 4.1-1.9.1-.2.5-.7.8-1.4.6-1.6.3-3 0-3.9-.4-1.1-1.1-1.7-1.4-2-1.1-.9-2.2-1.2-2.5-1.2-.3-.1-.6-.1-1-.1-2.9 0-5.3 2.3-5.3 5.3.1 2.8 2.4 5.2 5.3 5.2z"/><path d="M133.9 24.4l-3.433-1.7 1.2-3.633c.133-.467-.334-.934-.8-.8l-3.634 1.2-1.7-3.434c-.266-.466-.866-.466-1.133 0l-1.7 3.434-3.633-1.2c-.467-.134-.934.333-.8.8l1.2 3.633-3.434 1.7c-.466.267-.466.867 0 1.133l3.434 1.7-1.2 3.634c-.134.466.333.933.8.8l3.633-1.2 1.7 3.433c.267.467.867.467 1.133 0l1.7-3.433 3.634 1.2c.466.133.933-.334.8-.8l-1.2-3.634 3.433-1.7c.467-.2.467-.866 0-1.133zm-5.6 3.833c-1.767 1.767-4.733 1.767-6.533 0-1.8-1.766-1.767-4.733 0-6.533 1.766-1.8 4.733-1.767 6.533 0 1.8 1.767 1.767 4.733 0 6.533z"/></g><g fill="#f8f9fa"><path d="M175 30.3c1.6 0 3.1-.7 4.1-1.9.1-.2.5-.7.8-1.4.6-1.6.3-3 0-3.9-.4-1.1-1.1-1.7-1.4-2-1.1-.9-2.2-1.2-2.5-1.2-.3-.1-.6-.1-1-.1-2.9 0-5.3 2.3-5.3 5.3.1 2.8 2.4 5.2 5.3 5.2z"/><path d="M181.6 24.55l-2.55-1.25.9-2.7c.1-.35-.25-.7-.6-.6l-2.7.9-1.25-2.55c-.2-.35-.65-.35-.85 0l-1.25 2.55-2.7-.9c-.35-.1-.7.25-.6.6l.9 2.7-2.55 1.25c-.35.2-.35.65 0 .85l2.55 1.25-.9 2.7c-.1.35.25.7.6.6l2.7-.9 1.25 2.55c.2.35.65.35.85 0l1.25-2.55 2.7.9c.35.1.7-.25.6-.6l-.9-2.7 2.55-1.25c.35-.15.35-.65 0-.85zm-4.15 2.85c-1.3 1.3-3.5 1.3-4.85 0-1.35-1.3-1.3-3.5 0-4.85 1.3-1.35 3.5-1.3 4.85 0 1.35 1.3 1.3 3.5 0 4.85z"/></g><g fill="#f8f9fa"><path d="M225 30.3c1.6 0 3.1-.7 4.1-1.9.1-.2.5-.7.8-1.4.6-1.6.3-3 0-3.9-.4-1.1-1.1-1.7-1.4-2-1.1-.9-2.2-1.2-2.5-1.2-.3-.1-.6-.1-1-.1-2.9 0-5.3 2.3-5.3 5.3.1 2.8 2.4 5.2 5.3 5.2z"/><path d="M229.3 24.7l-1.667-.8.6-1.767c.067-.233-.166-.466-.4-.4l-1.766.6-.8-1.666c-.134-.234-.434-.234-.567 0l-.8 1.666-1.767-.6c-.233-.066-.466.167-.4.4l.6 1.767-1.666.8c-.234.133-.234.433 0 .567l1.666.8-.6 1.766c-.066.234.167.467.4.4l1.767-.6.8 1.667c.133.233.433.233.567 0l.8-1.667 1.766.6c.234.067.467-.166.4-.4l-.6-1.766 1.667-.8c.233-.1.233-.434 0-.567zm-2.7 1.867c-.833.833-2.267.833-3.167 0-.9-.834-.833-2.267 0-3.167.834-.9 2.267-.833 3.167 0 .9.833.833 2.267 0 3.167z"/></g><g fill="#f8f9fa"><path d="M275 30.3c1.6 0 3.1-.7 4.1-1.9.1-.2.5-.7.8-1.4.6-1.6.3-3 0-3.9-.4-1.1-1.1-1.7-1.4-2-1.1-.9-2.2-1.2-2.5-1.2-.3-.1-.6-.1-1-.1-2.9 0-5.3 2.3-5.3 5.3.1 2.8 2.4 5.2 5.3 5.2z"/><path d="M277 24.85l-.783-.35.3-.833c.033-.117-.084-.234-.2-.2l-.834.3-.35-.784c-.066-.116-.216-.116-.283 0l-.35.784-.833-.3c-.117-.034-.234.083-.2.2l.3.833-.784.35c-.116.067-.116.217 0 .283l.784.35-.3.834c-.034.116.083.233.2.2l.833-.3.35.783c.067.117.217.117.283 0l.35-.783.834.3c.116.033.233-.084.2-.2l-.3-.834.783-.35c.117-.05.117-.216 0-.283zm-1.25.883c-.367.367-1.033.367-1.483 0-.45-.366-.367-1.033 0-1.483.366-.45 1.033-.367 1.483 0 .45.367.367 1.033 0 1.483z"/></g><g fill="#f8f9fa"><path d="M325 30.3c1.6 0 3.1-.7 4.1-1.9.1-.2.5-.7.8-1.4.6-1.6.3-3 0-3.9-.4-1.1-1.1-1.7-1.4-2-1.1-.9-2.2-1.2-2.5-1.2-.3-.1-.6-.1-1-.1-2.9 0-5.3 2.3-5.3 5.3.1 2.8 2.4 5.2 5.3 5.2z"/><path d="M324.7 25l.1.1v.1h.1l.1.1.1-.1h.1v-.1l.1-.1-.1-.1v-.1h-.1l-.1-.1-.1.1h-.1v.1l-.1.1zm.2-.1c.1-.1.2-.1.2 0s.1.2 0 .2-.2.1-.2 0-.1-.2 0-.2z"/></g><g fill="#f8f9fa"><path d="M375 30.3c1.6 0 3.1-.7 4.1-1.9.1-.2.417-.65.633-1.233.084-1.25-.566-2.75-.816-3.917-.334-1.167-.784-1.883-.817-2.267-.883-.766-1.817-1.066-2.1-1.083-.3-.1-.6-.1-1-.1-2.9 0-5.3 2.3-5.3 5.3.1 2.8 2.4 5.2 5.3 5.2z"/><path d="M374.7 25l.1.1v.1h.1l.1.1.1-.1h.1v-.1l.1-.1-.1-.1v-.1h-.1l-.1-.1-.1.1h-.1v.1l-.1.1zm.2-.1c.1-.1.2-.1.2 0s.1.2 0 .2-.2.1-.2 0-.1-.2 0-.2z"/></g><g fill="#f8f9fa"><path d="M425 30.3c1.6 0 3.1-.7 4.1-1.9.1-.2.333-.6.467-1.067-.434-.9-1.434-2.5-1.634-3.933-.266-1.233-.466-2.067-.233-2.533-.667-.634-1.433-.934-1.7-.967-.3-.1-.6-.1-1-.1-2.9 0-5.3 2.3-5.3 5.3.1 2.8 2.4 5.2 5.3 5.2z"/><path d="M424.7 25l.1.1v.1h.1l.1.1.1-.1h.1v-.1l.1-.1-.1-.1v-.1h-.1l-.1-.1-.1.1h-.1v.1l-.1.1zm.2-.1c.1-.1.2-.1.2 0s.1.2 0 .2-.2.1-.2 0-.1-.2 0-.2z"/></g><g fill="#f8f9fa"><path d="M475 30.3c1.6 0 3.1-.7 4.1-1.9.1-.2.25-.55.3-.9-.95-.55-2.3-2.25-2.45-3.95-.2-1.3-.15-2.25.35-2.8-.45-.5-1.05-.8-1.3-.85-.3-.1-.6-.1-1-.1-2.9 0-5.3 2.3-5.3 5.3.1 2.8 2.4 5.2 5.3 5.2z"/><path d="M474.7 25l.1.1v.1h.1l.1.1.1-.1h.1v-.1l.1-.1-.1-.1v-.1h-.1l-.1-.1-.1.1h-.1v.1l-.1.1zm.2-.1c.1-.1.2-.1.2 0s.1.2 0 .2-.2.1-.2 0-.1-.2 0-.2z"/></g><g fill="#f8f9fa"><path d="M525 30.3c1.6 0 3.1-.7 4.1-1.9.1-.2.167-.5.133-.733-1.466-.2-3.166-2-3.266-3.967-.134-1.367.166-2.433.933-3.067-.233-.366-.667-.666-.9-.733-.3-.1-.6-.1-1-.1-2.9 0-5.3 2.3-5.3 5.3.1 2.8 2.4 5.2 5.3 5.2z"/><path d="M524.7 25l.1.1v.1h.1l.1.1.1-.1h.1v-.1l.1-.1-.1-.1v-.1h-.1l-.1-.1-.1.1h-.1v.1l-.1.1zm.2-.1c.1-.1.2-.1.2 0s.1.2 0 .2-.2.1-.2 0-.1-.2 0-.2z"/></g><g fill="#f8f9fa"><path d="M575 30.3c1.6 0 3.1-.7 4.1-1.9.1-.2.083-.45-.033-.567-1.984.15-4.034-1.75-4.084-3.983-.066-1.433.484-2.617 1.517-3.333-.017-.234-.283-.534-.5-.617-.3-.1-.6-.1-1-.1-2.9 0-5.3 2.3-5.3 5.3.1 2.8 2.4 5.2 5.3 5.2z"/><path d="M574.7 25l.1.1v.1h.1l.1.1.1-.1h.1v-.1l.1-.1-.1-.1v-.1h-.1l-.1-.1-.1.1h-.1v.1l-.1.1zm.2-.1c.1-.1.2-.1.2 0s.1.2 0 .2-.2.1-.2 0-.1-.2 0-.2z"/></g><g fill="#f8f9fa"><path d="M625 30.3c1.6 0 3.1-.7 4.1-1.9.1-.2 0-.4-.2-.4-2.5.5-4.9-1.5-4.9-4 0-1.5.8-2.8 2.1-3.6.2-.1.1-.4-.1-.5-.3-.1-.6-.1-1-.1-2.9 0-5.3 2.3-5.3 5.3.1 2.8 2.4 5.2 5.3 5.2z"/><path d="M624.7 25l.1.1v.1h.1l.1.1.1-.1h.1v-.1l.1-.1-.1-.1v-.1h-.1l-.1-.1-.1.1h-.1v.1l-.1.1zm.2-.1c.1-.1.2-.1.2 0s.1.2 0 .2-.2.1-.2 0-.1-.2 0-.2z"/></g><g fill="#f8f9fa"><path d="M675 31.75c2.05 0 3.967-.917 5.233-2.45.15-.25 0-.533-.266-.517-3.217.634-6.25-1.9-6.25-5.133 0-1.9 1.016-3.6 2.666-4.583.25-.134.15-.517-.116-.617-.4-.1-.8-.117-1.267-.117-3.7 0-6.75 2.967-6.75 6.75.083 3.617 3.05 6.667 6.75 6.667z"/><path d="M674.7 25l.1.1v.1h.1l.1.1.1-.1h.1v-.1l.1-.1-.1-.1v-.1h-.1l-.1-.1-.1.1h-.1v.1l-.1.1zm.2-.1c.1-.1.2-.1.2 0s.1.2 0 .2-.2.1-.2 0-.1-.2 0-.2z"/></g><g fill="#f8f9fa"><path d="M725 33.2c2.5 0 4.833-1.133 6.367-3 .2-.3 0-.667-.334-.633-3.933.766-7.6-2.3-7.6-6.267 0-2.3 1.234-4.4 3.234-5.567.3-.166.2-.633-.134-.733-.5-.1-1-.133-1.533-.133-4.5 0-8.2 3.633-8.2 8.2.067 4.433 3.7 8.133 8.2 8.133z"/><path d="M724.7 25l.1.1v.1h.1l.1.1.1-.1h.1v-.1l.1-.1-.1-.1v-.1h-.1l-.1-.1-.1.1h-.1v.1l-.1.1zm.2-.1c.1-.1.2-.1.2 0s.1.2 0 .2-.2.1-.2 0-.1-.2 0-.2z"/></g><g fill="#f8f9fa"><path d="M775 34.65c2.95 0 5.7-1.35 7.5-3.55.25-.35 0-.8-.4-.75-4.65.9-8.95-2.7-8.95-7.4 0-2.7 1.45-5.2 3.8-6.55.35-.2.25-.75-.15-.85-.6-.1-1.2-.15-1.8-.15-5.3 0-9.65 4.3-9.65 9.65.05 5.25 4.35 9.6 9.65 9.6z"/><path d="M774.7 25l.1.1v.1h.1l.1.1.1-.1h.1v-.1l.1-.1-.1-.1v-.1h-.1l-.1-.1-.1.1h-.1v.1l-.1.1zm.2-.1c.1-.1.2-.1.2 0s.1.2 0 .2-.2.1-.2 0-.1-.2 0-.2z"/></g><g fill="#f8f9fa"><path d="M825 36.1c3.4 0 6.567-1.567 8.633-4.1.3-.4 0-.933-.466-.867-5.367 1.034-10.3-3.1-10.3-8.533 0-3.1 1.666-6 4.366-7.533.4-.234.3-.867-.166-.967-.7-.1-1.4-.167-2.067-.167-6.1 0-11.1 4.967-11.1 11.1.033 6.067 5 11.067 11.1 11.067z"/><path d="M824.7 25l.1.1v.1h.1l.1.1.1-.1h.1v-.1l.1-.1-.1-.1v-.1h-.1l-.1-.1-.1.1h-.1v.1l-.1.1zm.2-.1c.1-.1.2-.1.2 0s.1.2 0 .2-.2.1-.2 0-.1-.2 0-.2z"/></g><g fill="#f8f9fa"><path d="M875 37.55c3.85 0 7.433-1.783 9.767-4.65.35-.45 0-1.067-.534-.983-6.083 1.166-11.65-3.5-11.65-9.667 0-3.5 1.884-6.8 4.934-8.517.45-.266.35-.983-.184-1.083-.8-.1-1.6-.183-2.333-.183-6.9 0-12.55 5.633-12.55 12.55.017 6.883 5.65 12.533 12.55 12.533z"/><path d="M874.7 25l.1.1v.1h.1l.1.1.1-.1h.1v-.1l.1-.1-.1-.1v-.1h-.1l-.1-.1-.1.1h-.1v.1l-.1.1zm.2-.1c.1-.1.2-.1.2 0s.1.2 0 .2-.2.1-.2 0-.1-.2 0-.2z"/></g><g fill="#f8f9fa"><path d="M925 39c4.3 0 8.3-2 10.9-5.2.4-.5 0-1.2-.6-1.1-6.8 1.3-13-3.9-13-10.8 0-3.9 2.1-7.6 5.5-9.5.5-.3.4-1.1-.2-1.2-.9-.1-1.8-.2-2.6-.2-7.7 0-14 6.3-14 14s6.3 14 14 14z"/><path d="M924.7 25l.1.1v.1h.1l.1.1.1-.1h.1v-.1l.1-.1-.1-.1v-.1h-.1l-.1-.1-.1.1h-.1v.1l-.1.1zm.2-.1c.1-.1.2-.1.2 0s.1.2 0 .2-.2.1-.2 0-.1-.2 0-.2z"/></g><g fill="#f8f9fa"><path d="M975 39c4.3 0 8.3-2 10.9-5.2.4-.5 0-1.2-.6-1.1-6.8 1.3-13-3.9-13-10.8 0-3.9 2.1-7.6 5.5-9.5.5-.3.4-1.1-.2-1.2-.9-.1-1.8-.2-2.6-.2-7.7 0-14 6.3-14 14s6.3 14 14 14z"/><path d="M974.7 25l.1.1v.1h.1l.1.1.1-.1h.1v-.1l.1-.1-.1-.1v-.1h-.1l-.1-.1-.1.1h-.1v.1l-.1.1zm.2-.1c.1-.1.2-.1.2 0s.1.2 0 .2-.2.1-.2 0-.1-.2 0-.2z"/></g><g fill="#f8f9fa"><path d="M1025 39c4.3 0 8.3-2 10.9-5.2.4-.5 0-1.2-.6-1.1-6.8 1.3-13-3.9-13-10.8 0-3.9 2.1-7.6 5.5-9.5.5-.3.4-1.1-.2-1.2-.9-.1-1.8-.2-2.6-.2-7.7 0-14 6.3-14 14s6.3 14 14 14z"/><path d="M1024.7 25l.1.1v.1h.1l.1.1.1-.1h.1v-.1l.1-.1-.1-.1v-.1h-.1l-.1-.1-.1.1h-.1v.1l-.1.1zm.2-.1c.1-.1.2-.1.2 0s.1.2 0 .2-.2.1-.2 0-.1-.2 0-.2z"/></g><g fill="#f8f9fa"><path d="M1075 39c4.3 0 8.3-2 10.9-5.2.4-.5 0-1.2-.6-1.1-6.8 1.3-13-3.9-13-10.8 0-3.9 2.1-7.6 5.5-9.5.5-.3.4-1.1-.2-1.2-.9-.1-1.8-.2-2.6-.2-7.7 0-14 6.3-14 14s6.3 14 14 14z"/><path d="M1074.7 25l.1.1v.1h.1l.1.1.1-.1h.1v-.1l.1-.1-.1-.1v-.1h-.1l-.1-.1-.1.1h-.1v.1l-.1.1zm.2-.1c.1-.1.2-.1.2 0s.1.2 0 .2-.2.1-.2 0-.1-.2 0-.2z"/></g><g fill="#f8f9fa"><path d="M1125 39c4.3 0 8.3-2 10.9-5.2.4-.5 0-1.2-.6-1.1-6.8 1.3-13-3.9-13-10.8 0-3.9 2.1-7.6 5.5-9.5.5-.3.4-1.1-.2-1.2-.9-.1-1.8-.2-2.6-.2-7.7 0-14 6.3-14 14s6.3 14 14 14z"/><path d="M1124.7 25l.1.1v.1h.1l.1.1.1-.1h.1v-.1l.1-.1-.1-.1v-.1h-.1l-.1-.1-.1.1h-.1v.1l-.1.1zm.2-.1c.1-.1.2-.1.2 0s.1.2 0 .2-.2.1-.2 0-.1-.2 0-.2z"/></g><g fill="#f8f9fa"><path d="M1175 39c4.3 0 8.3-2 10.9-5.2.4-.5 0-1.2-.6-1.1-6.8 1.3-13-3.9-13-10.8 0-3.9 2.1-7.6 5.5-9.5.5-.3.4-1.1-.2-1.2-.9-.1-1.8-.2-2.6-.2-7.7 0-14 6.3-14 14s6.3 14 14 14z"/><path d="M1174.7 25l.1.1v.1h.1l.1.1.1-.1h.1v-.1l.1-.1-.1-.1v-.1h-.1l-.1-.1-.1.1h-.1v.1l-.1.1zm.2-.1c.1-.1.2-.1.2 0s.1.2 0 .2-.2.1-.2 0-.1-.2 0-.2z"/></g><g fill="#f8f9fa"><path d="M1225 39c4.3 0 8.3-2 10.9-5.2.4-.5 0-1.2-.6-1.1-6.8 1.3-13-3.9-13-10.8 0-3.9 2.1-7.6 5.5-9.5.5-.3.4-1.1-.2-1.2-.9-.1-1.8-.2-2.6-.2-7.7 0-14 6.3-14 14s6.3 14 14 14z"/><path d="M1224.7 25l.1.1v.1h.1l.1.1.1-.1h.1v-.1l.1-.1-.1-.1v-.1h-.1l-.1-.1-.1.1h-.1v.1l-.1.1zm.2-.1c.1-.1.2-.1.2 0s.1.2 0 .2-.2.1-.2 0-.1-.2 0-.2z"/></g><g fill="#f8f9fa"><path d="M1275 39c4.3 0 8.3-2 10.9-5.2.4-.5 0-1.2-.6-1.1-6.8 1.3-13-3.9-13-10.8 0-3.9 2.1-7.6 5.5-9.5.5-.3.4-1.1-.2-1.2-.9-.1-1.8-.2-2.6-.2-7.7 0-14 6.3-14 14s6.3 14 14 14z"/><path d="M1274.7 25l.1.1v.1h.1l.1.1.1-.1h.1v-.1l.1-.1-.1-.1v-.1h-.1l-.1-.1-.1.1h-.1v.1l-.1.1zm.2-.1c.1-.1.2-.1.2 0s.1.2 0 .2-.2.1-.2 0-.1-.2 0-.2z"/></g><g fill="#f8f9fa"><path d="M1325 39c4.3 0 8.3-2 10.9-5.2.4-.5 0-1.2-.6-1.1-6.8 1.3-13-3.9-13-10.8 0-3.9 2.1-7.6 5.5-9.5.5-.3.4-1.1-.2-1.2-.9-.1-1.8-.2-2.6-.2-7.7 0-14 6.3-14 14s6.3 14 14 14z"/><path d="M1324.7 25l.1.1v.1h.1l.1.1.1-.1h.1v-.1l.1-.1-.1-.1v-.1h-.1l-.1-.1-.1.1h-.1v.1l-.1.1zm.2-.1c.1-.1.2-.1.2 0s.1.2 0 .2-.2.1-.2 0-.1-.2 0-.2z"/></g><g fill="#f8f9fa"><path d="M1375 39c4.3 0 8.3-2 10.9-5.2.4-.5 0-1.2-.6-1.1-6.8 1.3-13-3.9-13-10.8 0-3.9 2.1-7.6 5.5-9.5.5-.3.4-1.1-.2-1.2-.9-.1-1.8-.2-2.6-.2-7.7 0-14 6.3-14 14s6.3 14 14 14z"/><path d="M1374.7 25l.1.1v.1h.1l.1.1.1-.1h.1v-.1l.1-.1-.1-.1v-.1h-.1l-.1-.1-.1.1h-.1v.1l-.1.1zm.2-.1c.1-.1.2-.1.2 0s.1.2 0 .2-.2.1-.2 0-.1-.2 0-.2z"/></g><g fill="#f8f9fa"><path d="M1425 39c4.3 0 8.3-2 10.9-5.2.4-.5 0-1.2-.6-1.1-6.8 1.3-13-3.9-13-10.8 0-3.9 2.1-7.6 5.5-9.5.5-.3.4-1.1-.2-1.2-.9-.1-1.8-.2-2.6-.2-7.7 0-14 6.3-14 14s6.3 14 14 14z"/><path d="M1424.7 25l.1.1v.1h.1l.1.1.1-.1h.1v-.1l.1-.1-.1-.1v-.1h-.1l-.1-.1-.1.1h-.1v.1l-.1.1zm.2-.1c.1-.1.2-.1.2 0s.1.2 0 .2-.2.1-.2 0-.1-.2 0-.2z"/></g><g fill="#f8f9fa"><path d="M1475 39c4.3 0 8.3-2 10.9-5.2.4-.5 0-1.2-.6-1.1-6.8 1.3-13-3.9-13-10.8 0-3.9 2.1-7.6 5.5-9.5.5-.3.4-1.1-.2-1.2-.9-.1-1.8-.2-2.6-.2-7.7 0-14 6.3-14 14s6.3 14 14 14z"/><path d="M1474.7 25l.1.1v.1h.1l.1.1.1-.1h.1v-.1l.1-.1-.1-.1v-.1h-.1l-.1-.1-.1.1h-.1v.1l-.1.1zm.2-.1c.1-.1.2-.1.2 0s.1.2 0 .2-.2.1-.2 0-.1-.2 0-.2z"/></g><g fill="#f8f9fa"><path d="M1525 39c4.3 0 8.3-2 10.9-5.2.4-.5 0-1.2-.6-1.1-6.8 1.3-13-3.9-13-10.8 0-3.9 2.1-7.6 5.5-9.5.5-.3.4-1.1-.2-1.2-.9-.1-1.8-.2-2.6-.2-7.7 0-14 6.3-14 14s6.3 14 14 14z"/><path d="M1524.7 25l.1.1v.1h.1l.1.1.1-.1h.1v-.1l.1-.1-.1-.1v-.1h-.1l-.1-.1-.1.1h-.1v.1l-.1.1zm.2-.1c.1-.1.2-.1.2 0s.1.2 0 .2-.2.1-.2 0-.1-.2 0-.2z"/></g><g fill="#f8f9fa"><path d="M1575 39c4.3 0 8.3-2 10.9-5.2.4-.5 0-1.2-.6-1.1-6.8 1.3-13-3.9-13-10.8 0-3.9 2.1-7.6 5.5-9.5.5-.3.4-1.1-.2-1.2-.9-.1-1.8-.2-2.6-.2-7.7 0-14 6.3-14 14s6.3 14 14 14z"/><path d="M1574.7 25l.1.1v.1h.1l.1.1.1-.1h.1v-.1l.1-.1-.1-.1v-.1h-.1l-.1-.1-.1.1h-.1v.1l-.1.1zm.2-.1c.1-.1.2-.1.2 0s.1.2 0 .2-.2.1-.2 0-.1-.2 0-.2z"/></g><g fill="#f8f9fa"><path d="M1625 39c4.3 0 8.3-2 10.9-5.2.4-.5 0-1.2-.6-1.1-6.8 1.3-13-3.9-13-10.8 0-3.9 2.1-7.6 5.5-9.5.5-.3.4-1.1-.2-1.2-.9-.1-1.8-.2-2.6-.2-7.7 0-14 6.3-14 14s6.3 14 14 14z"/><path d="M1624.7 25l.1.1v.1h.1l.1.1.1-.1h.1v-.1l.1-.1-.1-.1v-.1h-.1l-.1-.1-.1.1h-.1v.1l-.1.1zm.2-.1c.1-.1.2-.1.2 0s.1.2 0 .2-.2.1-.2 0-.1-.2 0-.2z"/></g><g fill="#f8f9fa"><path d="M1675 39c4.3 0 8.3-2 10.9-5.2.4-.5 0-1.2-.6-1.1-6.8 1.3-13-3.9-13-10.8 0-3.9 2.1-7.6 5.5-9.5.5-.3.4-1.1-.2-1.2-.9-.1-1.8-.2-2.6-.2-7.7 0-14 6.3-14 14s6.3 14 14 14z"/><path d="M1674.7 25l.1.1v.1h.1l.1.1.1-.1h.1v-.1l.1-.1-.1-.1v-.1h-.1l-.1-.1-.1.1h-.1v.1l-.1.1zm.2-.1c.1-.1.2-.1.2 0s.1.2 0 .2-.2.1-.2 0-.1-.2 0-.2z"/></g><g fill="#f8f9fa"><path d="M1725 39c4.3 0 8.3-2 10.9-5.2.4-.5 0-1.2-.6-1.1-6.8 1.3-13-3.9-13-10.8 0-3.9 2.1-7.6 5.5-9.5.5-.3.4-1.1-.2-1.2-.9-.1-1.8-.2-2.6-.2-7.7 0-14 6.3-14 14s6.3 14 14 14z"/><path d="M1724.7 25l.1.1v.1h.1l.1.1.1-.1h.1v-.1l.1-.1-.1-.1v-.1h-.1l-.1-.1-.1.1h-.1v.1l-.1.1zm.2-.1c.1-.1.2-.1.2 0s.1.2 0 .2-.2.1-.2 0-.1-.2 0-.2z"/></g><g fill="#f8f9fa"><path d="M1775 39c4.3 0 8.3-2 10.9-5.2.4-.5 0-1.2-.6-1.1-6.8 1.3-13-3.9-13-10.8 0-3.9 2.1-7.6 5.5-9.5.5-.3.4-1.1-.2-1.2-.9-.1-1.8-.2-2.6-.2-7.7 0-14 6.3-14 14s6.3 14 14 14z"/><path d="M1774.7 25l.1.1v.1h.1l.1.1.1-.1h.1v-.1l.1-.1-.1-.1v-.1h-.1l-.1-.1-.1.1h-.1v.1l-.1.1zm.2-.1c.1-.1.2-.1.2 0s.1.2 0 .2-.2.1-.2 0-.1-.2 0-.2z"/></g><g fill="#f8f9fa"><path d="M1825 39c4.3 0 8.3-2 10.9-5.2.4-.5 0-1.2-.6-1.1-6.8 1.3-13-3.9-13-10.8 0-3.9 2.1-7.6 5.5-9.5.5-.3.4-1.1-.2-1.2-.9-.1-1.8-.2-2.6-.2-7.7 0-14 6.3-14 14s6.3 14 14 14z"/><path d="M1824.7 25l.1.1v.1h.1l.1.1.1-.1h.1v-.1l.1-.1-.1-.1v-.1h-.1l-.1-.1-.1.1h-.1v.1l-.1.1zm.2-.1c.1-.1.2-.1.2 0s.1.2 0 .2-.2.1-.2 0-.1-.2 0-.2z"/></g><g fill="#f8f9fa"><path d="M1875 39c4.3 0 8.3-2 10.9-5.2.4-.5 0-1.2-.6-1.1-6.8 1.3-13-3.9-13-10.8 0-3.9 2.1-7.6 5.5-9.5.5-.3.4-1.1-.2-1.2-.9-.1-1.8-.2-2.6-.2-7.7 0-14 6.3-14 14s6.3 14 14 14z"/><path d="M1874.7 25l.1.1v.1h.1l.1.1.1-.1h.1v-.1l.1-.1-.1-.1v-.1h-.1l-.1-.1-.1.1h-.1v.1l-.1.1zm.2-.1c.1-.1.2-.1.2 0s.1.2 0 .2-.2.1-.2 0-.1-.2 0-.2z"/></g><g fill="#f8f9fa"><path d="M1925 39c4.3 0 8.3-2 10.9-5.2.4-.5 0-1.2-.6-1.1-6.8 1.3-13-3.9-13-10.8 0-3.9 2.1-7.6 5.5-9.5.5-.3.4-1.1-.2-1.2-.9-.1-1.8-.2-2.6-.2-7.7 0-14 6.3-14 14s6.3 14 14 14z"/><path d="M1924.7 25l.1.1v.1h.1l.1.1.1-.1h.1v-.1l.1-.1-.1-.1v-.1h-.1l-.1-.1-.1.1h-.1v.1l-.1.1zm.2-.1c.1-.1.2-.1.2 0s.1.2 0 .2-.2.1-.2 0-.1-.2 0-.2z"/></g><g fill="#f8f9fa"><path d="M1975 39c4.3 0 8.3-2 10.9-5.2.4-.5 0-1.2-.6-1.1-6.8 1.3-13-3.9-13-10.8 0-3.9 2.1-7.6 5.5-9.5.5-.3.4-1.1-.2-1.2-.9-.1-1.8-.2-2.6-.2-7.7 0-14 6.3-14 14s6.3 14 14 14z"/><path d="M1974.7 25l.1.1v.1h.1l.1.1.1-.1h.1v-.1l.1-.1-.1-.1v-.1h-.1l-.1-.1-.1.1h-.1v.1l-.1.1zm.2-.1c.1-.1.2-.1.2 0s.1.2 0 .2-.2.1-.2 0-.1-.2 0-.2z"/></g><g fill="#f8f9fa"><path d="M2025 39c4.3 0 8.3-2 10.9-5.2.4-.5 0-1.2-.6-1.1-6.8 1.3-13-3.9-13-10.8 0-3.9 2.1-7.6 5.5-9.5.5-.3.4-1.1-.2-1.2-.9-.1-1.8-.2-2.6-.2-7.7 0-14 6.3-14 14s6.3 14 14 14z"/><path d="M2024.7 25l.1.1v.1h.1l.1.1.1-.1h.1v-.1l.1-.1-.1-.1v-.1h-.1l-.1-.1-.1.1h-.1v.1l-.1.1zm.2-.1c.1-.1.2-.1.2 0s.1.2 0 .2-.2.1-.2 0-.1-.2 0-.2z"/></g><g fill="#f8f9fa"><path d="M2075 39c4.3 0 8.3-2 10.9-5.2.4-.5 0-1.2-.6-1.1-6.8 1.3-13-3.9-13-10.8 0-3.9 2.1-7.6 5.5-9.5.5-.3.4-1.1-.2-1.2-.9-.1-1.8-.2-2.6-.2-7.7 0-14 6.3-14 14s6.3 14 14 14z"/><path d="M2074.7 25l.1.1v.1h.1l.1.1.1-.1h.1v-.1l.1-.1-.1-.1v-.1h-.1l-.1-.1-.1.1h-.1v.1l-.1.1zm.2-.1c.1-.1.2-.1.2 0s.1.2 0 .2-.2.1-.2 0-.1-.2 0-.2z"/></g><g fill="#f8f9fa"><path d="M2125 39c4.3 0 8.3-2 10.9-5.2.4-.5 0-1.2-.6-1.1-6.8 1.3-13-3.9-13-10.8 0-3.9 2.1-7.6 5.5-9.5.5-.3.4-1.1-.2-1.2-.9-.1-1.8-.2-2.6-.2-7.7 0-14 6.3-14 14s6.3 14 14 14z"/><path d="M2124.7 25l.1.1v.1h.1l.1.1.1-.1h.1v-.1l.1-.1-.1-.1v-.1h-.1l-.1-.1-.1.1h-.1v.1l-.1.1zm.2-.1c.1-.1.2-.1.2 0s.1.2 0 .2-.2.1-.2 0-.1-.2 0-.2z"/></g><g fill="#f8f9fa"><path d="M2175 38.26c4.07 0 7.857-1.89 10.321-4.92.375-.474 0-1.131-.566-1.04-6.434 1.232-12.31-3.696-12.31-10.221 0-3.696 1.989-7.192 5.21-8.998.475-.283.375-1.041-.191-1.141-.849-.1-1.698-.191-2.464-.191-7.291 0-13.26 5.96-13.26 13.26.009 7.282 5.969 13.251 13.26 13.251z"/><path d="M2174.7 25l.1.1v.1h.1l.1.1.1-.1h.1v-.1l.1-.1-.1-.1v-.1h-.1l-.1-.1-.1.1h-.1v.1l-.1.1zm.2-.1c.1-.1.2-.1.2 0s.1.2 0 .2-.2.1-.2 0-.1-.2 0-.2z"/></g><g fill="#f8f9fa"><path d="M2225 35.022c3.065 0 5.922-1.406 7.791-3.691.263-.363 0-.834-.417-.78-4.834.934-9.297-2.803-9.297-7.691 0-2.802 1.506-5.405 3.946-6.802.362-.209.262-.78-.155-.88-.625-.1-1.251-.154-1.868-.154-5.505 0-10.022 4.471-10.022 10.022.046 5.459 4.517 9.976 10.022 9.976z"/><path d="M2224.7 25l.1.1v.1h.1l.1.1.1-.1h.1v-.1l.1-.1-.1-.1v-.1h-.1l-.1-.1-.1.1h-.1v.1l-.1.1zm.2-.1c.1-.1.2-.1.2 0s.1.2 0 .2-.2.1-.2 0-.1-.2 0-.2z"/></g><g fill="#f8f9fa"><path d="M2275 32.253c2.206 0 4.267-.992 5.626-2.641.168-.267 0-.58-.29-.557-3.465.679-6.718-2.039-6.718-5.526 0-2.039 1.092-3.878 2.864-4.925.267-.144.167-.557-.123-.657-.435-.1-.869-.122-1.359-.122-3.977 0-7.253 3.198-7.253 7.253.078 3.899 3.276 7.175 7.253 7.175z"/><path d="M2274.7 25l.1.1v.1h.1l.1.1.1-.1h.1v-.1l.1-.1-.1-.1v-.1h-.1l-.1-.1-.1.1h-.1v.1l-.1.1zm.2-.1c.1-.1.2-.1.2 0s.1.2 0 .2-.2.1-.2 0-.1-.2 0-.2z"/></g><g fill="#f8f9fa"><path d="M2325 30.989c1.814 0 3.512-.803 4.639-2.161.123-.224 0-.464-.232-.456-2.841.564-5.542-1.69-5.542-4.538 0-1.691.903-3.181 2.37-4.068.223-.116.123-.455-.108-.555-.348-.1-.695-.108-1.127-.108-3.28 0-5.989 2.617-5.989 5.989.092 3.188 2.709 5.897 5.989 5.897z"/><path d="M2324.7 25l.1.1v.1h.1l.1.1.1-.1h.1v-.1l.1-.1-.1-.1v-.1h-.1l-.1-.1-.1.1h-.1v.1l-.1.1zm.2-.1c.1-.1.2-.1.2 0s.1.2 0 .2-.2.1-.2 0-.1-.2 0-.2z"/></g><g fill="#f8f9fa"><path d="M2375 30.445c1.645 0 3.187-.722 4.213-1.955.105-.205 0-.413-.206-.412-2.572.514-5.035-1.54-5.035-4.113 0-1.54.821-2.88 2.156-3.698.205-.103.105-.412-.101-.512-.31-.1-.62-.101-1.027-.101-2.98 0-5.445 2.366-5.445 5.444.099 2.882 2.465 5.347 5.445 5.347z"/><path d="M2374.7 25l.1.1v.1h.1l.1.1.1-.1h.1v-.1l.1-.1-.1-.1v-.1h-.1l-.1-.1-.1.1h-.1v.1l-.1.1zm.2-.1c.1-.1.2-.1.2 0s.1.2 0 .2-.2.1-.2 0-.1-.2 0-.2z"/></g><g fill="#f8f9fa"><path d="M2425 30.3c1.6 0 3.1-.7 4.1-1.9.1-.2 0-.4-.2-.4-2.5.5-4.9-1.5-4.9-4 0-1.5.8-2.8 2.1-3.6.2-.1.1-.4-.1-.5-.3-.1-.6-.1-1-.1-2.9 0-5.3 2.3-5.3 5.3.1 2.8 2.4 5.2 5.3 5.2z"/><path d="M2424.7 25l.1.1v.1h.1l.1.1.1-.1h.1v-.1l.1-.1-.1-.1v-.1h-.1l-.1-.1-.1.1h-.1v.1l-.1.1zm.2-.1c.1-.1.2-.1.2 0s.1.2 0 .2-.2.1-.2 0-.1-.2 0-.2z"/></g><g fill="#f8f9fa"><path d="M2475 30.3c1.6 0 3.1-.7 4.1-1.9.1-.2.043-.426-.115-.485-2.236.321-4.457-1.628-4.483-3.992-.034-1.466.638-2.706 1.802-3.463.09-.169-.095-.469-.304-.56-.3-.1-.6-.1-1-.1-2.9 0-5.3 2.3-5.3 5.3.1 2.8 2.4 5.2 5.3 5.2z"/><path d="M2474.7 25l.1.1v.1h.1l.1.1.1-.1h.1v-.1l.1-.1-.1-.1v-.1h-.1l-.1-.1-.1.1h-.1v.1l-.1.1zm.2-.1c.1-.1.2-.1.2 0s.1.2 0 .2-.2.1-.2 0-.1-.2 0-.2z"/></g><g fill="#f8f9fa"><path d="M2525 30.3c1.6 0 3.1-.7 4.1-1.9.1-.2.229-.537.257-.857-1.082-.46-2.522-2.186-2.659-3.955-.183-1.317-.069-2.297.499-2.868-.394-.466-.951-.766-1.197-.82-.3-.1-.6-.1-1-.1-2.9 0-5.3 2.3-5.3 5.3.1 2.8 2.4 5.2 5.3 5.2z"/><path d="M2524.7 25l.1.1v.1h.1l.1.1.1-.1h.1v-.1l.1-.1-.1-.1v-.1h-.1l-.1-.1-.1.1h-.1v.1l-.1.1zm.2-.1c.1-.1.2-.1.2 0s.1.2 0 .2-.2.1-.2 0-.1-.2 0-.2z"/></g><g fill="#f8f9fa"><path d="M2575 30.3c1.6 0 3.1-.7 4.1-1.9.1-.2.388-.633.576-1.176-.096-1.128-.868-2.663-1.1-3.922-.31-1.19-.674-1.947-.615-2.359-.808-.721-1.683-1.021-1.961-1.043-.3-.1-.6-.1-1-.1-2.9 0-5.3 2.3-5.3 5.3.1 2.8 2.4 5.2 5.3 5.2z"/><path d="M2574.7 25l.1.1v.1h.1l.1.1.1-.1h.1v-.1l.1-.1-.1-.1v-.1h-.1l-.1-.1-.1.1h-.1v.1l-.1.1zm.2-.1c.1-.1.2-.1.2 0s.1.2 0 .2-.2.1-.2 0-.1-.2 0-.2z"/></g><g fill="#f8f9fa"><path d="M2625 30.3c1.6 0 3.1-.7 4.1-1.9.1-.2.46-.676.721-1.321.354-1.433-.112-2.881-.388-3.908-.369-1.131-.95-1.787-1.123-2.126-.997-.837-2.018-1.137-2.31-1.145-.3-.1-.6-.1-1-.1-2.9 0-5.3 2.3-5.3 5.3.1 2.8 2.4 5.2 5.3 5.2z"/><path d="M2624.7 25l.1.1v.1h.1l.1.1.1-.1h.1v-.1l.1-.1-.1-.1v-.1h-.1l-.1-.1-.1.1h-.1v.1l-.1.1zm.2-.1c.1-.1.2-.1.2 0s.1.2 0 .2-.2.1-.2 0-.1-.2 0-.2z"/></g><g fill="#f8f9fa"><path d="M2675 30.3c1.6 0 3.1-.7 4.1-1.9.1-.2.492-.695.783-1.383.549-1.565.214-2.975-.081-3.902-.394-1.107-1.069-1.718-1.342-2.027-1.078-.886-2.162-1.186-2.46-1.188-.3-.1-.6-.1-1-.1-2.9 0-5.3 2.3-5.3 5.3.1 2.8 2.4 5.2 5.3 5.2z"/><path d="M2674.7 25l.1.1v.1h.1l.1.1.1-.1h.1v-.1l.1-.1-.1-.1v-.1h-.1l-.1-.1-.1.1h-.1v.1l-.1.1zm.2-.1c.1-.1.2-.1.2 0s.1.2 0 .2-.2.1-.2 0-.1-.2 0-.2z"/></g><g fill="#f8f9fa"><path d="M2725 30.3c1.6 0 3.1-.7 4.1-1.9.1-.2.5-.7.8-1.4.6-1.6.3-3 0-3.9-.4-1.1-1.1-1.7-1.4-2-1.1-.9-2.2-1.2-2.5-1.2-.3-.1-.6-.1-1-.1-2.9 0-5.3 2.3-5.3 5.3.1 2.8 2.4 5.2 5.3 5.2z"/><path d="M2724.7 25l.1.1v.1h.1l.1.1.1-.1h.1v-.1l.1-.1-.1-.1v-.1h-.1l-.1-.1-.1.1h-.1v.1l-.1.1zm.2-.1c.1-.1.2-.1.2 0s.1.2 0 .2-.2.1-.2 0-.1-.2 0-.2z"/></g><g fill="#f8f9fa"><path d="M2775 30.3c1.6 0 3.1-.7 4.1-1.9.1-.2.5-.7.8-1.4.6-1.6.3-3 0-3.9-.4-1.1-1.1-1.7-1.4-2-1.1-.9-2.2-1.2-2.5-1.2-.3-.1-.6-.1-1-.1-2.9 0-5.3 2.3-5.3 5.3.1 2.8 2.4 5.2 5.3 5.2z"/><path d="M2775.874 24.923l-.351-.129.154-.377c.017-.06-.043-.119-.103-.102l-.376.153-.13-.351c-.034-.06-.111-.06-.145 0l-.129.351-.377-.153c-.06-.017-.119.042-.102.102l.153.377-.351.129c-.06.034-.06.111 0 .145l.351.13-.153.376c-.017.06.042.12.102.103l.377-.154.129.351c.034.06.111.06.145 0l.13-.351.376.154c.06.017.12-.043.103-.103l-.154-.376.351-.13c.06-.025.06-.111 0-.145zm-.54.403c-.138.138-.43.138-.66 0-.229-.139-.138-.43 0-.66.139-.23.43-.138.66 0 .23.138.138.43 0 .66z"/></g><g fill="#f8f9fa"><path d="M2825 30.3c1.6 0 3.1-.7 4.1-1.9.1-.2.5-.7.8-1.4.6-1.6.3-3 0-3.9-.4-1.1-1.1-1.7-1.4-2-1.1-.9-2.2-1.2-2.5-1.2-.3-.1-.6-.1-1-.1-2.9 0-5.3 2.3-5.3 5.3.1 2.8 2.4 5.2 5.3 5.2z"/><path d="M2831.01 24.588l-2.323-1.134.823-2.461c.091-.32-.229-.64-.549-.548l-2.461.823-1.134-2.324c-.183-.32-.595-.32-.778 0l-1.134 2.324-2.461-.823c-.32-.092-.64.228-.548.548l.823 2.461-2.324 1.134c-.32.183-.32.595 0 .778l2.324 1.134-.823 2.461c-.092.32.228.64.548.549l2.461-.823 1.134 2.323c.183.32.595.32.778 0l1.134-2.323 2.461.823c.32.091.64-.229.549-.549l-.823-2.461 2.323-1.134c.32-.137.32-.595 0-.778zm-3.778 2.598c-1.18 1.181-3.184 1.181-4.418 0-1.235-1.18-1.181-3.183 0-4.418 1.18-1.235 3.183-1.18 4.418 0 1.235 1.18 1.18 3.184 0 4.418z"/></g><g fill="#f8f9fa"><path d="M2875 30.3c1.6 0 3.1-.7 4.1-1.9.1-.2.5-.7.8-1.4.6-1.6.3-3 0-3.9-.4-1.1-1.1-1.7-1.4-2-1.1-.9-2.2-1.2-2.5-1.2-.3-.1-.6-.1-1-.1-2.9 0-5.3 2.3-5.3 5.3.1 2.8 2.4 5.2 5.3 5.2z"/><path d="M2885.403 24.302l-4.011-1.994 1.396-4.243c.155-.543-.387-1.086-.93-.931l-4.244 1.396-1.994-4.01c-.31-.543-1.008-.543-1.318 0l-1.994 4.01-4.243-1.396c-.543-.155-1.086.388-.931.931l1.396 4.243-4.01 1.994c-.543.31-.543 1.008 0 1.318l4.01 1.994-1.396 4.244c-.155.543.388 1.085.931.93l4.243-1.396 1.994 4.011c.31.543 1.008.543 1.318 0l1.994-4.011 4.244 1.396c.543.155 1.085-.387.93-.93l-1.396-4.244 4.011-1.994c.543-.232.543-1.008 0-1.318zm-6.548 4.476c-2.071 2.071-5.539 2.071-7.633 0-2.094-2.072-2.071-5.539 0-7.633 2.072-2.094 5.539-2.072 7.633 0 2.094 2.071 2.072 5.539 0 7.633z"/></g><g fill="#f8f9fa"><path d="M2925 30.3c1.6 0 3.1-.7 4.1-1.9.1-.2.5-.7.8-1.4.6-1.6.3-3 0-3.9-.4-1.1-1.1-1.7-1.4-2-1.1-.9-2.2-1.2-2.5-1.2-.3-.1-.6-.1-1-.1-2.9 0-5.3 2.3-5.3 5.3.1 2.8 2.4 5.2 5.3 5.2z"/><path d="M2937.407 24.171l-4.78-2.386 1.657-5.056c.184-.645-.46-1.289-1.105-1.105l-5.056 1.657-2.386-4.78c-.369-.644-1.197-.644-1.566 0l-2.386 4.78-5.056-1.657c-.645-.184-1.289.46-1.105 1.105l1.657 5.056-4.78 2.386c-.644.369-.644 1.197 0 1.566l4.78 2.386-1.657 5.056c-.184.645.46 1.289 1.105 1.105l5.056-1.657 2.386 4.78c.369.644 1.197.644 1.566 0l2.386-4.78 5.056 1.657c.645.184 1.289-.46 1.105-1.105l-1.657-5.056 4.78-2.386c.644-.277.644-1.197 0-1.566zm-7.811 5.333c-2.478 2.478-6.614 2.478-9.1 0-2.486-2.478-2.478-6.614 0-9.1 2.478-2.486 6.614-2.478 9.1 0 2.486 2.478 2.478 6.614 0 9.1z"/></g><g fill="#f8f9fa"><path d="M2975 30.3c1.6 0 3.1-.7 4.1-1.9.1-.2.5-.7.8-1.4.6-1.6.3-3 0-3.9-.4-1.1-1.1-1.7-1.4-2-1.1-.9-2.2-1.2-2.5-1.2-.3-.1-.6-.1-1-.1-2.9 0-5.3 2.3-5.3 5.3.1 2.8 2.4 5.2 5.3 5.2z"/><path d="M2988.27 24.115l-5.111-2.555 1.77-5.407c.196-.688-.492-1.377-1.18-1.18l-5.407 1.77-2.555-5.112c-.394-.688-1.279-.688-1.672 0l-2.555 5.112-5.407-1.77c-.688-.197-1.377.492-1.18 1.18l1.77 5.407-5.112 2.555c-.688.393-.688 1.278 0 1.672l5.112 2.555-1.77 5.407c-.197.688.492 1.376 1.18 1.18l5.407-1.77 2.555 5.111c.393.689 1.278.689 1.672 0l2.555-5.111 5.407 1.77c.688.196 1.376-.492 1.18-1.18l-1.77-5.407 5.111-2.555c.689-.295.689-1.279 0-1.672zm-8.355 5.702c-2.653 2.653-7.077 2.653-9.732 0-2.655-2.654-2.653-7.077 0-9.732 2.654-2.655 7.077-2.654 9.732 0 2.655 2.653 2.654 7.077 0 9.732z"/></g><g fill="#f8f9fa"><path d="M3025 30.3c1.6 0 3.1-.7 4.1-1.9.1-.2.5-.7.8-1.4.6-1.6.3-3 0-3.9-.4-1.1-1.1-1.7-1.4-2-1.1-.9-2.2-1.2-2.5-1.2-.3-.1-.6-.1-1-.1-2.9 0-5.3 2.3-5.3 5.3.1 2.8 2.4 5.2 5.3 5.2z"/><path d="M3038.5 24.1l-5.2-2.6 1.8-5.5c.2-.7-.5-1.4-1.2-1.2l-5.5 1.8-2.6-5.2c-.4-.7-1.3-.7-1.7 0l-2.6 5.2-5.5-1.8c-.7-.2-1.4.5-1.2 1.2l1.8 5.5-5.2 2.6c-.7.4-.7 1.3 0 1.7l5.2 2.6-1.8 5.5c-.2.7.5 1.4 1.2 1.2l5.5-1.8 2.6 5.2c.4.7 1.3.7 1.7 0l2.6-5.2 5.5 1.8c.7.2 1.4-.5 1.2-1.2l-1.8-5.5 5.2-2.6c.7-.3.7-1.3 0-1.7zm-8.5 5.8c-2.7 2.7-7.2 2.7-9.9 0s-2.7-7.2 0-9.9 7.2-2.7 9.9 0 2.7 7.2 0 9.9z"/></g></svg>