<?xml version="1.0" encoding="utf-8"?>
<!-- Generator: Adobe Illustrator 23.0.1, SVG Export Plug-In . SVG Version: 6.00 Build 0)  -->
<svg version="1.1" id="Layer_1" focusable="false" xmlns="http://www.w3.org/2000/svg" xmlns:xlink="http://www.w3.org/1999/xlink"
	 x="0px" y="0px" viewBox="0 0 512 512" style="enable-background:new 0 0 512 512;" xml:space="preserve">
<style type="text/css">
	.st0{fill:#F8F9FA;}
</style>
<path class="st0" d="M319.8,185.7c-17.6-16.5-40.6-25.6-64.8-25.6c-43.7,0-81.5,30-91.9,71.6c-0.8,3-3.5,5.2-6.6,5.2h-32.3
	c-4.2,0-7.4-3.8-6.7-8C129.6,164.1,186.6,115,255,115c37.5,0,71.6,14.8,96.7,38.8l20.2-20.2c8.5-8.5,23.1-2.5,23.1,9.6v75.7
	c0,7.5-6.1,13.5-13.5,13.5h-75.7c-12.1,0-18.1-14.6-9.6-23.1L319.8,185.7z M128.5,277.6h75.7c12.1,0,18.1,14.6,9.6,23.1l-23.6,23.6
	c17.6,16.5,40.6,25.6,64.8,25.6c43.7,0,81.5-30,91.9-71.6c0.8-3,3.5-5.2,6.6-5.2h32.3c4.2,0,7.4,3.8,6.7,8
	C380.4,345.9,323.4,395,255,395c-37.5,0-71.6-14.8-96.7-38.8l-20.2,20.2c-8.5,8.5-23.1,2.5-23.1-9.6v-75.7
	C115,283.6,121.1,277.6,128.5,277.6z"/>
</svg>
