<svg xmlns="http://www.w3.org/2000/svg" viewBox="0 0 3050 50" width="3050" height="50"><path d="M8.2 25l-.4-.4h-.1v.1l.4.3-.3.3v.1h.1l.3-.4zM34.3 23.7L19.9 9.4c-.7-.7-1.8-.7-2.5 0L15.7 11c-.7.7-.7 1.8 0 2.5L27.1 25 15.7 36.5c-.7.7-.7 1.8 0 2.5l1.7 1.7c.7.7 1.8.7 2.5 0l14.4-14.4c.7-.7.7-1.9 0-2.6zM58.216 24.999l-.409-.408c0-.001-.001-.001-.101 0l-.001.001c-.001 0-.001.001 0 .101l.406.307-.306.307c-.001 0-.001.001 0 .101l.001.001c0 .001.001.001.101 0l.309-.408v-.002zM84.305 23.701L69.913 9.409c-.699-.699-1.799-.699-2.498 0l-1.699 1.599c-.7.7-.7 1.799 0 2.499L77.109 25 65.716 36.493c-.7.7-.7 1.799 0 2.499l1.699 1.699c.699.699 1.798.699 2.498 0l14.392-14.392c.699-.699.699-1.899 0-2.598zM108.265 24.997l-.435-.435c-.002-.001-.005-.001-.106 0l-.004.004c-.002.002-.002.005 0 .106l.427.328-.327.328c-.002.001-.002.004 0 .106l.004.004c.001.002.004.002.106 0l.335-.435c.001-.002.001-.004 0-.006zM134.32 23.703L119.954 9.438c-.698-.699-1.795-.699-2.494 0l-1.696 1.596c-.698.698-.698 1.795 0 2.494L127.137 25l-11.373 11.472c-.698.699-.698 1.796 0 2.494l1.696 1.696c.698.698 1.796.698 2.494 0l14.366-14.365c.698-.698.698-1.896 0-2.594zM158.351 24.992l-.481-.48c-.004-.004-.011-.004-.114 0l-.01.01c-.004.004-.004.01 0 .113l.464.365-.364.365c-.004.004-.004.01 0 .113l.009.01c.004.004.011.004.114 0l.382-.48c.004-.005.004-.011 0-.016zM184.346 23.708l-14.32-14.22c-.696-.696-1.789-.696-2.486 0l-1.69 1.59c-.696.696-.696 1.79 0 2.487L177.186 25 165.85 36.435c-.696.696-.696 1.79 0 2.487l1.69 1.69c.696.696 1.79.696 2.486 0l14.32-14.32c.696-.695.696-1.889 0-2.584zM208.478 24.986l-.549-.548c-.008-.007-.019-.007-.126 0l-.018.017c-.007.008-.007.019 0 .126l.517.419-.418.419c-.007.008-.007.019 0 .126l.018.018c.008.007.019.007.126 0l.45-.549c.007-.008.007-.02 0-.028zM234.384 23.714L220.133 9.562c-.693-.693-1.781-.693-2.474 0l-1.682 1.583c-.693.692-.693 1.781 0 2.474L227.259 25l-11.282 11.381c-.693.692-.693 1.781 0 2.474l1.682 1.682c.692.693 1.78.693 2.474 0l14.251-14.251c.693-.692.693-1.88 0-2.572zM258.651 24.978l-.642-.64c-.012-.013-.031-.013-.141 0l-.03.027c-.012.012-.012.031 0 .142l.59.493-.492.493c-.012.012-.012.031 0 .142l.03.029c.012.012.031.012.141 0l.544-.642c.012-.012.012-.032 0-.044zM284.436 23.722l-14.158-14.06c-.688-.687-1.769-.687-2.458 0l-1.671 1.573c-.688.688-.688 1.769 0 2.458L277.357 25l-11.208 11.307c-.688.688-.688 1.769 0 2.458l1.671 1.671c.688.688 1.769.688 2.458 0l14.158-14.158c.688-.688.688-1.868 0-2.556zM308.875 24.966l-.762-.759c-.018-.018-.047-.018-.162 0l-.044.041c-.018.018-.018.047 0 .162l.684.59-.587.59c-.018.018-.018.046 0 .162l.044.044c.018.018.047.018.162 0l.665-.762c.018-.018.018-.05 0-.068zM334.504 23.734L320.466 9.793c-.681-.682-1.753-.682-2.438 0l-1.656 1.559c-.681.682-.681 1.753 0 2.438L327.485 25l-11.113 11.21c-.681.682-.681 1.754 0 2.438l1.656 1.656c.682.682 1.754.682 2.438 0l14.038-14.038c.682-.682.682-1.85 0-2.532zM359.157 24.952l-.913-.909c-.026-.026-.066-.026-.188 0l-.063.058c-.025.026-.025.066 0 .188l.804.711-.707.711c-.026.025-.026.066 0 .188l.062.062c.026.026.066.026.188 0l.817-.913c.026-.026.026-.07 0-.096zM384.59 23.748L370.703 9.957c-.674-.674-1.734-.674-2.412 0l-1.638 1.542c-.674.674-.674 1.734 0 2.412L377.646 25l-10.993 11.089c-.674.675-.674 1.734 0 2.412l1.638 1.638c.674.674 1.734.674 2.412 0l13.887-13.887c.674-.674.674-1.83 0-2.504zM409.503 24.935l-1.099-1.094c-.035-.035-.09-.035-.22 0l-.085.08c-.035.035-.035.09 0 .22l.95.859-.855.859c-.034.035-.034.09 0 .22l.085.085c.035.035.09.035.22 0l1.004-1.099c.035-.035.035-.095 0-.13zM434.694 23.765l-13.701-13.606c-.665-.665-1.71-.665-2.38 0l-1.615 1.52c-.665.665-.665 1.71 0 2.38L427.844 25l-10.846 10.941c-.665.665-.665 1.71 0 2.38l1.615 1.615c.665.665 1.71.665 2.38 0l13.701-13.701c.666-.665.666-1.805 0-2.47zM459.922 24.914l-1.324-1.317c-.046-.046-.118-.046-.258 0l-.112.106c-.046.046-.046.119 0 .258L459.353 25l-1.032 1.039c-.046.046-.046.119 0 .258l.112.112c.047.047.119.047.259 0l1.23-1.323c.046-.046.046-.126 0-.172zM484.821 23.786l-13.476-13.383c-.654-.654-1.681-.654-2.342 0l-1.588 1.494c-.654.654-.654 1.681 0 2.342L478.083 25l-10.668 10.761c-.654.654-.654 1.681 0 2.342l1.588 1.588c.654.653 1.681.653 2.342 0l13.476-13.477c.654-.654.654-1.774 0-2.428zM510.421 24.889l-1.591-1.583c-.06-.059-.153-.059-.304 0l-.145.137c-.06.059-.06.153 0 .304L509.717 25l-1.245 1.253c-.059.06-.059.153 0 .304l.145.145c.06.06.153.06.304 0l1.5-1.591c.06-.06.06-.162 0-.222zM534.972 23.811l-13.208-13.117c-.641-.641-1.647-.641-2.296 0l-1.555 1.463c-.641.641-.641 1.647 0 2.296L528.368 25l-10.455 10.547c-.641.64-.641 1.647 0 2.296l1.555 1.555c.64.64 1.647.64 2.296 0l13.208-13.209c.641-.64.641-1.738 0-2.378zM561.01 24.86l-1.907-1.896c-.076-.076-.194-.076-.359 0l-.183.172c-.075.075-.075.194 0 .358L560.146 25l-1.495 1.506c-.076.075-.076.194 0 .358l.183.183c.075.076.193.076.358 0l1.818-1.907c.075-.075.075-.205 0-.28zM585.151 23.84l-12.893-12.804c-.625-.624-1.606-.624-2.242 0l-1.517 1.428c-.624.625-.624 1.606 0 2.242L578.704 25l-10.205 10.294c-.624.625-.624 1.606 0 2.242l1.517 1.517c.625.624 1.606.624 2.242 0l12.893-12.893c.624-.625.624-1.695 0-2.32zM611.696 24.826l-2.275-2.262c-.094-.094-.241-.094-.422 0l-.227.214c-.094.094-.094.241 0 .422l1.873 1.8-1.787 1.8c-.094.094-.094.241 0 .422l.228.227c.094.094.241.094.421 0l2.189-2.275c.094-.094.094-.254 0-.348zM635.358 23.874l-12.525-12.438c-.606-.606-1.558-.606-2.178 0l-1.472 1.386c-.607.606-.607 1.559 0 2.178l9.913 10-9.913 10c-.607.606-.607 1.559 0 2.178l1.472 1.473c.606.606 1.559.606 2.178 0l12.525-12.525c.606-.606.606-1.646 0-2.252zM662.485 24.787l-2.698-2.683c-.115-.115-.296-.115-.494 0l-.279.263c-.115.115-.115.296 0 .494L661.22 25l-2.123 2.139c-.115.115-.115.295 0 .494l.279.279c.115.115.296.115.494 0l2.615-2.699c.115-.114.115-.312 0-.426zM685.597 23.913l-12.101-12.017c-.585-.585-1.505-.585-2.106 0l-1.421 1.337c-.585.585-.585 1.504 0 2.106L679.546 25l-9.577 9.661c-.585.585-.585 1.505 0 2.106l1.421 1.421c.585.585 1.504.585 2.106 0l12.101-12.101c.585-.586.585-1.588 0-2.174zM713.38 24.742l-3.179-3.159c-.139-.139-.357-.139-.576 0l-.337.318c-.139.139-.139.357 0 .576L711.871 25l-2.503 2.523c-.139.139-.139.357 0 .576l.337.337c.139.139.357.139.577 0l3.098-3.178c.139-.139.139-.377 0-.516zM735.868 23.958l-11.622-11.541c-.561-.561-1.442-.561-2.023 0l-1.363 1.282c-.561.561-.561 1.443 0 2.024L730.057 25l-9.197 9.277c-.561.561-.561 1.443 0 2.024l1.363 1.363c.561.561 1.442.561 2.023 0l11.622-11.622c.561-.561.561-1.523 0-2.084zM764.375 24.692l-3.712-3.688c-.166-.166-.426-.166-.668 0l-.402.378c-.166.166-.166.426 0 .668l3.002 2.95-2.926 2.95c-.166.165-.166.426 0 .668l.402.402c.166.165.426.165.668 0l3.636-3.712c.166-.166.166-.45 0-.616zM786.169 24.008l-11.088-11.012c-.534-.534-1.374-.534-1.932 0l-1.298 1.222c-.534.534-.534 1.374 0 1.932l8.774 8.85-8.774 8.85c-.534.535-.534 1.374 0 1.932l1.298 1.298c.534.535 1.374.535 1.932 0l11.088-11.088c.534-.534.534-1.45 0-1.984zM815.457 24.639l-4.293-4.265c-.194-.195-.5-.195-.767 0l-.473.444c-.194.195-.194.501 0 .768L813.383 25l-3.386 3.414c-.195.195-.195.501 0 .768l.472.472c.195.195.501.195.768 0l4.22-4.293c.195-.194.195-.528 0-.722zM836.497 24.061l-10.508-10.435c-.505-.505-1.299-.505-1.832 0l-1.228 1.156c-.505.505-.505 1.299 0 1.832L831.243 25l-8.314 8.386c-.505.505-.505 1.299 0 1.832l1.228 1.228c.505.505 1.299.505 1.832 0l10.508-10.507c.505-.506.505-1.372 0-1.878zM866.604 24.581l-4.908-4.875c-.225-.226-.579-.226-.873 0l-.547.515c-.225.225-.225.579 0 .873L864.218 25l-3.874 3.906c-.226.226-.226.58 0 .873l.547.548c.226.225.58.225.873 0l4.84-4.908c.226-.226.226-.612 0-.838zM886.844 24.119l-9.892-9.825c-.475-.474-1.221-.474-1.727 0l-1.153 1.085c-.475.475-.475 1.221 0 1.727L881.898 25l-7.826 7.894c-.475.474-.475 1.22 0 1.727l1.153 1.152c.474.475 1.22.475 1.727 0l9.892-9.892c.474-.474.474-1.288 0-1.762zM917.786 24.523l-5.542-5.506c-.257-.257-.661-.257-.981 0l-.625.588c-.257.257-.257.661 0 .981L915.079 25l-4.377 4.414c-.257.257-.257.661 0 .981l.624.625c.257.257.661.257.982 0l5.478-5.543c.258-.257.258-.697 0-.954zM937.202 24.177l-9.258-9.194c-.443-.443-1.139-.443-1.619 0l-1.075 1.012c-.443.443-.443 1.139 0 1.619L932.573 25l-7.323 7.386c-.443.443-.443 1.139 0 1.619l1.075 1.075c.443.443 1.139.443 1.619 0l9.258-9.257c.443-.443.443-1.203 0-1.646zM968.973 24.463l-6.179-6.137c-.289-.289-.743-.289-1.09 0l-.702.661c-.289.289-.289.743 0 1.09l4.94 4.923-4.881 4.923c-.289.289-.289.743 0 1.09l.701.702c.289.289.743.289 1.091 0l6.12-6.178c.288-.289.288-.785 0-1.074zM987.561 24.237l-8.622-8.563c-.411-.411-1.057-.411-1.509 0l-.999.939c-.411.411-.411 1.057 0 1.51L983.25 25l-6.819 6.877c-.411.411-.411 1.057 0 1.51l.999.998c.411.411 1.057.411 1.509 0l8.622-8.622c.411-.411.411-1.115 0-1.526zM1020.134 24.406l-6.801-6.756c-.32-.32-.823-.32-1.198 0l-.777.731c-.32.32-.32.823 0 1.198l5.43 5.421-5.376 5.421c-.32.32-.32.823 0 1.198l.778.777c.32.32.823.32 1.197 0l6.747-6.802c.32-.32.32-.868 0-1.188zM1037.912 24.294l-7.998-7.944c-.38-.38-.977-.38-1.403 0l-.922.869c-.38.38-.38.977 0 1.402l6.324 6.379-6.324 6.379c-.38.38-.38.977 0 1.402l.922.923c.38.38.977.38 1.403 0l7.998-7.998c.38-.38.38-1.032 0-1.412zM1071.25 24.35l-7.4-7.35c-.35-.35-.9-.35-1.3 0l-.85.8c-.35.35-.35.9 0 1.3l5.9 5.9-5.85 5.9c-.35.35-.35.9 0 1.3l.85.85c.35.35.9.35 1.3 0l7.35-7.4c.35-.35.35-.95 0-1.3zM1088.25 24.35l-7.4-7.35c-.35-.35-.9-.35-1.3 0l-.85.8c-.35.35-.35.9 0 1.3l5.85 5.9-5.85 5.9c-.35.35-.35.9 0 1.3l.85.85c.35.35.9.35 1.3 0l7.4-7.4c.35-.35.35-.95 0-1.3zM1122.306 24.297l-7.966-7.912c-.379-.378-.973-.378-1.398 0l-.918.865c-.379.378-.379.973 0 1.397l6.345 6.353-6.299 6.353c-.379.378-.379.973 0 1.397l.918.919c.379.378.973.378 1.397 0l7.921-7.966c.378-.379.378-1.027 0-1.406zM1138.57 24.403l-6.834-6.788c-.322-.322-.827-.322-1.203 0l-.781.735c-.322.322-.322.827 0 1.203l5.401 5.447-5.401 5.447c-.322.322-.322.827 0 1.203l.781.781c.322.322.827.322 1.203 0l6.834-6.834c.321-.321.321-.873 0-1.194zM1173.295 24.248l-8.497-8.439c-.405-.405-1.041-.405-1.488 0l-.983.925c-.405.405-.405 1.042 0 1.489l6.762 6.777-6.72 6.777c-.405.405-.405 1.042 0 1.489l.983.983c.405.405 1.041.405 1.488 0l8.455-8.497c.405-.405.405-1.099 0-1.504zM1188.869 24.452l-6.303-6.261c-.295-.295-.759-.295-1.112 0l-.717.675c-.295.295-.295.758 0 1.111l4.98 5.023-4.98 5.023c-.295.295-.295.758 0 1.111l.717.717c.295.295.759.295 1.112 0l6.303-6.303c.295-.295.295-.801 0-1.096zM1224.215 24.202l-8.991-8.929c-.429-.429-1.104-.429-1.572 0l-1.043.982c-.43.43-.43 1.105 0 1.573l7.149 7.172-7.111 7.172c-.429.43-.429 1.105 0 1.573l1.044 1.043c.429.43 1.104.43 1.572 0l8.952-8.99c.429-.43.429-1.166 0-1.596zM1239.147 24.498l-5.809-5.771c-.271-.271-.696-.271-1.028 0l-.657.618c-.27.27-.27.695 0 1.027l4.59 4.628-4.59 4.628c-.27.27-.27.695 0 1.027l.657.657c.271.27.696.27 1.028 0l5.809-5.81c.271-.27.271-.734 0-1.004zM1275.067 24.16l-9.447-9.383c-.453-.452-1.164-.452-1.651 0l-1.099 1.034c-.452.452-.452 1.163 0 1.651l7.509 7.538-7.474 7.538c-.452.452-.452 1.163 0 1.651l1.099 1.099c.452.452 1.163.452 1.651 0l9.412-9.448c.452-.452.452-1.228 0-1.68zM1289.405 24.54l-5.352-5.317c-.248-.248-.637-.248-.949 0l-.602.566c-.247.248-.247.637 0 .949l4.227 4.262-4.227 4.262c-.247.248-.247.637 0 .949l.602.601c.247.248.637.248.949 0l5.352-5.352c.248-.248.248-.672 0-.92zM1325.855 24.121l-9.87-9.803c-.474-.473-1.218-.473-1.724 0l-1.15 1.083c-.473.473-.473 1.217 0 1.723l7.841 7.876-7.808 7.876c-.474.473-.474 1.217 0 1.723l1.15 1.15c.473.474 1.217.474 1.723 0l9.838-9.87c.473-.473.473-1.285 0-1.758zM1339.644 24.579l-4.93-4.897c-.227-.227-.583-.227-.877 0l-.55.517c-.227.227-.227.583 0 .877l3.892 3.924-3.892 3.924c-.227.227-.227.583 0 .877l.55.55c.227.226.582.226.877 0l4.93-4.93c.226-.227.226-.615 0-.842zM1376.581 24.084l-10.259-10.189c-.493-.493-1.268-.493-1.791 0l-1.197 1.127c-.493.493-.493 1.268 0 1.79l8.147 8.188-8.117 8.188c-.493.493-.493 1.268 0 1.79l1.197 1.197c.493.493 1.268.493 1.79 0l10.23-10.259c.493-.493.493-1.339 0-1.832zM1389.864 24.616l-4.54-4.511c-.207-.207-.533-.207-.81 0l-.503.473c-.207.207-.207.532 0 .81l3.583 3.612-3.583 3.612c-.207.207-.207.532 0 .81l.503.503c.207.207.532.207.81 0l4.54-4.541c.207-.207.207-.561 0-.768zM1427.252 24.051l-10.619-10.547c-.511-.51-1.314-.51-1.852 0l-1.241 1.168c-.511.511-.511 1.314 0 1.852l8.429 8.476-8.402 8.476c-.511.511-.511 1.314 0 1.852l1.241 1.241c.511.51 1.314.51 1.852 0l10.592-10.62c.511-.511.511-1.387 0-1.898zM1440.067 24.649l-4.181-4.153c-.189-.19-.486-.19-.748 0l-.459.432c-.189.189-.189.486 0 .748l3.298 3.324-3.298 3.324c-.189.189-.189.486 0 .748l.459.459c.189.19.486.19.748 0l4.181-4.18c.189-.189.189-.513 0-.702zM1477.871 24.02l-10.952-10.876c-.527-.527-1.356-.527-1.908 0l-1.282 1.206c-.527.528-.527 1.357 0 1.909L1472.42 25l-8.666 8.741c-.528.528-.528 1.357 0 1.909l1.281 1.281c.528.528 1.357.528 1.909 0l10.927-10.951c.528-.528.528-1.432 0-1.96zM1490.254 24.68l-3.848-3.824c-.173-.173-.444-.173-.692 0l-.418.394c-.173.172-.173.443 0 .691L1488.33 25l-3.034 3.059c-.173.172-.173.443 0 .691l.418.419c.173.172.444.172.692 0l3.848-3.849c.172-.172.172-.468 0-.64zM1528.442 23.992l-11.258-11.181c-.543-.542-1.396-.542-1.961 0l-1.319 1.241c-.542.543-.542 1.396 0 1.962l8.932 8.986-8.909 8.986c-.543.543-.543 1.396 0 1.962l1.318 1.318c.543.543 1.396.543 1.962 0l11.235-11.258c.543-.543.543-1.473 0-2.016zM1540.427 24.708l-3.542-3.519c-.157-.158-.404-.158-.639 0l-.381.359c-.158.157-.158.404 0 .638l2.791 2.814-2.791 2.814c-.158.157-.158.404 0 .638l.381.382c.157.157.404.157.639 0l3.542-3.542c.157-.157.157-.427 0-.584z" fill="#f8f9fa"/><g><path d="M1578.97 23.966l-11.541-11.462c-.557-.557-1.433-.557-2.01 0l-1.353 1.274c-.557.557-.557 1.432 0 2.009L1573.22 25l-9.133 9.213c-.557.557-.557 1.432 0 2.009l1.352 1.353c.557.557 1.433.557 2.01 0l11.521-11.541c.557-.557.557-1.511 0-2.068zM1590.587 24.734l-3.26-3.238c-.143-.143-.367-.143-.59 0l-.347.326c-.143.143-.143.368 0 .591l2.567 2.587-2.567 2.587c-.143.143-.143.368 0 .591l.347.347c.143.143.368.143.59 0l3.26-3.259c.143-.143.143-.389 0-.532z" fill="#f8f9fa"/></g><g><path d="M1629.457 23.941l-11.802-11.72c-.57-.57-1.466-.57-2.055 0l-1.385 1.303c-.57.57-.57 1.466 0 2.054l9.359 9.422-9.34 9.422c-.57.57-.57 1.466 0 2.054l1.385 1.385c.57.57 1.466.57 2.054 0l11.784-11.802c.57-.57.57-1.548 0-2.118zM1640.734 24.759l-2.998-2.98c-.13-.13-.334-.13-.545 0l-.316.297c-.13.13-.13.334 0 .546l2.36 2.378-2.36 2.378c-.13.13-.13.334 0 .546l.316.315c.13.13.334.13.545 0l2.998-2.998c.13-.13.13-.352 0-.482z" fill="#f8f9fa"/></g><g><path d="M1679.907 23.919l-12.044-11.961c-.582-.582-1.497-.582-2.096 0l-1.414 1.331c-.582.582-.582 1.497 0 2.096l9.549 9.615-9.532 9.615c-.582.582-.582 1.497 0 2.096l1.414 1.414c.582.582 1.497.582 2.096 0l12.027-12.044c.582-.582.582-1.58 0-2.162zM1690.87 24.781l-2.756-2.739c-.118-.118-.303-.118-.504 0l-.286.269c-.118.118-.118.303 0 .504l2.168 2.185-2.168 2.185c-.118.118-.118.303 0 .504l.286.286c.118.118.303.118.504 0l2.756-2.756c.118-.118.118-.32 0-.438z" fill="#f8f9fa"/></g><g><path d="M1730.323 23.898l-12.267-12.182c-.593-.593-1.526-.593-2.134 0l-1.441 1.356c-.593.594-.593 1.526 0 2.135l9.724 9.793-9.709 9.793c-.593.594-.593 1.526 0 2.135l1.441 1.441c.593.593 1.526.593 2.134 0l12.252-12.267c.593-.593.593-1.611 0-2.204zM1740.996 24.802l-2.533-2.518c-.107-.107-.274-.107-.466 0l-.259.244c-.107.106-.107.274 0 .465L1739.73 25l-1.992 2.007c-.107.106-.107.274 0 .465l.259.259c.107.107.274.107.466 0l2.533-2.533c.107-.107.107-.289 0-.396z" fill="#f8f9fa"/></g><g><path d="M1780.707 23.879l-12.473-12.387c-.603-.603-1.552-.603-2.169 0l-1.466 1.38c-.604.604-.604 1.552 0 2.17l9.886 9.958-9.872 9.958c-.604.604-.604 1.553 0 2.17l1.466 1.466c.603.604 1.552.604 2.169 0l12.459-12.473c.604-.604.604-1.638 0-2.242zM1791.113 24.821l-2.328-2.313c-.096-.097-.247-.097-.43 0l-.234.22c-.096.096-.096.248 0 .43l1.828 1.842-1.828 1.842c-.096.096-.096.247 0 .43l.234.234c.096.096.248.096.43 0l2.328-2.327c.096-.096.096-.262 0-.358z" fill="#f8f9fa"/></g><g><path d="M1831.063 23.861l-12.664-12.576c-.613-.613-1.577-.613-2.202 0l-1.489 1.402c-.613.613-.613 1.577 0 2.202L1824.743 25l-10.023 10.111c-.613.613-.613 1.577 0 2.202l1.489 1.489c.613.613 1.577.613 2.203 0l12.651-12.663c.613-.613.613-1.665 0-2.278zM1841.22 24.839l-2.136-2.124c-.087-.087-.224-.087-.398 0l-.211.198c-.087.087-.087.223 0 .398l1.677 1.689-1.677 1.689c-.087.087-.087.223 0 .398l.211.211c.087.087.223.087.398 0l2.136-2.137c.087-.087.087-.235 0-.322z" fill="#f8f9fa"/></g><g><path d="M1881.391 23.845l-12.84-12.751c-.622-.622-1.599-.622-2.232 0l-1.511 1.422c-.622.622-.622 1.599 0 2.232L1874.982 25l-10.162 10.252c-.622.622-.622 1.599 0 2.232l1.51 1.511c.622.622 1.599.622 2.233 0l12.828-12.84c.622-.622.622-1.688 0-2.31zM1891.32 24.855l-1.961-1.949c-.078-.078-.2-.078-.367 0l-.19.178c-.078.078-.078.201 0 .368l1.537 1.548-1.537 1.548c-.078.078-.078.201 0 .368l.19.189c.078.078.2.078.367 0l1.961-1.96c.078-.078.078-.212 0-.29z" fill="#f8f9fa"/></g><g><path d="M1931.694 23.83l-13.002-12.913c-.63-.63-1.62-.63-2.26 0l-1.531 1.441c-.63.63-.63 1.62 0 2.26L1925.203 25l-10.292 10.382c-.63.63-.63 1.62 0 2.26l1.531 1.531c.63.63 1.62.63 2.26 0l12.992-13.003c.631-.63.631-1.71 0-2.34zM1941.411 24.87l-1.797-1.787c-.07-.07-.18-.07-.34 0l-.17.159c-.07.07-.07.18 0 .34l1.409 1.418-1.409 1.418c-.07.07-.07.18 0 .34l.17.169c.07.07.18.07.34 0l1.797-1.797c.07-.07.07-.19 0-.26z" fill="#f8f9fa"/></g><g><path d="M1981.974 23.816l-13.152-13.062c-.638-.637-1.64-.637-2.286 0l-1.549 1.458c-.637.638-.637 1.639 0 2.286L1975.407 25l-10.411 10.502c-.638.638-.638 1.64 0 2.286l1.549 1.549c.637.637 1.639.637 2.286 0l13.143-13.153c.638-.637.638-1.731 0-2.368zM1991.496 24.884l-1.647-1.638c-.063-.063-.161-.063-.314 0l-.152.142c-.062.062-.062.161 0 .314l1.289 1.298-1.289 1.298c-.062.062-.062.16 0 .314l.152.151c.062.063.16.063.314 0l1.647-1.647c.062-.063.062-.169 0-.232z" fill="#f8f9fa"/></g><g><path d="M2032.232 23.803l-13.291-13.199c-.644-.644-1.657-.644-2.309 0l-1.566 1.473c-.644.645-.644 1.658 0 2.31L2025.595 25l-10.521 10.613c-.644.644-.644 1.657 0 2.31l1.565 1.565c.645.644 1.658.644 2.31 0l13.283-13.291c.645-.645.645-1.749 0-2.394zM2041.574 24.897l-1.509-1.501c-.055-.056-.143-.056-.29 0l-.135.127c-.055.055-.055.142 0 .29l1.18 1.187-1.18 1.187c-.055.056-.055.143 0 .29l.135.135c.055.056.142.056.29 0l1.509-1.509c.056-.055.056-.151 0-.206z" fill="#f8f9fa"/></g><g><path d="M2082.47 23.791l-13.418-13.325c-.651-.651-1.674-.651-2.332 0l-1.581 1.488c-.651.651-.651 1.673 0 2.331L2075.768 25l-10.622 10.715c-.651.651-.651 1.673 0 2.331l1.581 1.581c.651.651 1.674.651 2.332 0l13.411-13.418c.651-.651.651-1.767 0-2.418zM2091.646 24.909l-1.382-1.375c-.049-.049-.126-.049-.268 0l-.119.112c-.049.049-.049.127 0 .269l1.078 1.085-1.078 1.085c-.049.049-.049.127 0 .269l.119.119c.049.049.126.049.268 0l1.382-1.382c.049-.049.049-.133 0-.182z" fill="#f8f9fa"/></g><g><path d="M2132.688 23.78l-13.535-13.441c-.657-.657-1.689-.657-2.352 0l-1.595 1.501c-.657.657-.657 1.689 0 2.352L2125.927 25l-10.715 10.808c-.657.657-.657 1.689 0 2.352l1.595 1.595c.657.657 1.689.657 2.352 0l13.529-13.535c.657-.657.657-1.783 0-2.44zM2141.712 24.92l-1.264-1.259c-.044-.043-.112-.043-.249 0l-.105.099c-.043.043-.043.111 0 .248l.986.992-.986.992c-.043.043-.043.111 0 .248l.105.105c.044.043.112.043.249 0l1.264-1.265c.043-.043.043-.117 0-.16z" fill="#f8f9fa"/></g><g><path d="M2182.889 23.77l-13.643-13.548c-.662-.662-1.703-.662-2.371 0l-1.608 1.513c-.662.663-.662 1.703 0 2.371L2176.073 25l-10.8 10.894c-.662.662-.662 1.703 0 2.371l1.608 1.608c.662.662 1.703.662 2.37 0l13.638-13.643c.662-.662.662-1.798 0-2.46zM2191.773 24.93l-1.157-1.152c-.038-.038-.098-.038-.23 0l-.092.087c-.038.037-.038.097 0 .229l.9.906-.9.906c-.038.038-.038.097 0 .229l.092.092c.038.038.097.038.23 0l1.157-1.157c.038-.038.038-.102 0-.14z" fill="#f8f9fa"/></g><g><path d="M2233.072 23.761l-13.741-13.646c-.667-.667-1.716-.667-2.387 0l-1.62 1.525c-.667.667-.667 1.715 0 2.387L2226.206 25l-10.878 10.973c-.667.667-.667 1.715 0 2.387l1.62 1.62c.667.667 1.716.667 2.387 0l13.737-13.741c.667-.667.667-1.811 0-2.478zM2241.828 24.939l-1.058-1.054c-.033-.033-.085-.033-.213 0l-.08.075c-.033.033-.033.085 0 .213l.822.827-.822.827c-.033.033-.033.085 0 .213l.08.08c.033.033.084.033.213 0l1.058-1.059c.033-.033.033-.089 0-.122z" fill="#f8f9fa"/></g><g><path d="M2283.239 23.753l-13.831-13.735c-.671-.672-1.727-.672-2.402 0l-1.631 1.535c-.672.671-.672 1.726 0 2.402L2276.328 25l-10.949 11.045c-.672.671-.672 1.727 0 2.402l1.631 1.631c.671.672 1.727.672 2.402 0l13.827-13.831c.672-.671.672-1.823 0-2.494zM2291.879 24.947l-.969-.965c-.028-.028-.073-.028-.197 0l-.069.065c-.029.029-.029.074 0 .198l.751.755-.751.755c-.029.029-.029.073 0 .198l.069.069c.028.028.073.028.197 0l.969-.969c.028-.029.028-.077 0-.106z" fill="#f8f9fa"/></g><g><path d="M2333.392 23.745l-13.913-13.816c-.676-.676-1.737-.676-2.417 0l-1.64 1.544c-.676.676-.676 1.738 0 2.417L2326.439 25l-11.014 11.11c-.676.676-.676 1.738 0 2.417l1.641 1.641c.676.675 1.737.675 2.416 0l13.91-13.913c.676-.676.676-1.834 0-2.51zM2341.925 24.955l-.887-.884c-.024-.024-.063-.024-.184 0l-.059.056c-.024.024-.024.062 0 .183l.687.69-.687.69c-.024.024-.024.062 0 .183l.059.059c.025.025.063.025.184 0l.887-.887c.024-.024.024-.066 0-.09z" fill="#f8f9fa"/></g><g><path d="M2383.53 23.738l-13.987-13.89c-.679-.679-1.747-.679-2.429 0l-1.65 1.553c-.679.68-.679 1.747 0 2.429L2376.539 25l-11.072 11.17c-.679.679-.679 1.746 0 2.429l1.65 1.65c.679.679 1.747.679 2.429 0l13.984-13.987c.679-.68.679-1.844 0-2.524zM2391.967 24.962l-.813-.81c-.021-.021-.053-.021-.171 0l-.05.047c-.021.02-.021.053 0 .171l.627.63-.627.63c-.021.021-.021.054 0 .171l.05.05c.021.021.053.021.171 0l.813-.813c.021-.02.021-.056 0-.076z" fill="#f8f9fa"/></g><g><path d="M2433.654 23.732l-14.053-13.956c-.683-.683-1.756-.683-2.441 0l-1.658 1.56c-.683.683-.683 1.756 0 2.441L2426.63 25l-11.125 11.223c-.683.683-.683 1.755 0 2.441l1.658 1.658c.682.682 1.755.682 2.44 0l14.051-14.054c.683-.683.683-1.853 0-2.536zM2442.005 24.968l-.747-.744c-.017-.017-.044-.017-.159 0l-.042.04c-.017.017-.017.044 0 .159l.574.577-.574.577c-.017.017-.017.045 0 .159l.042.042c.017.018.045.018.159 0l.747-.746c.017-.017.017-.047 0-.064z" fill="#f8f9fa"/></g><g><path d="M2483.766 23.727l-14.113-14.016c-.686-.686-1.764-.686-2.451 0l-1.666 1.567c-.685.686-.685 1.763 0 2.451L2476.711 25l-11.173 11.271c-.685.686-.685 1.763 0 2.451l1.666 1.665c.685.686 1.763.686 2.451 0l14.111-14.114c.686-.685.686-1.861 0-2.546zM2492.038 24.973l-.686-.684c-.014-.014-.037-.014-.149 0l-.035.033c-.014.014-.014.037 0 .149l.527.529-.527.529c-.014.014-.014.037 0 .149l.035.035c.014.014.037.014.149 0l.686-.686c.015-.015.015-.039 0-.054z" fill="#f8f9fa"/></g><g><path d="M2533.866 23.722l-14.167-14.069c-.689-.688-1.77-.688-2.46 0l-1.672 1.573c-.688.689-.688 1.77 0 2.46L2526.784 25l-11.215 11.314c-.689.688-.689 1.77 0 2.46l1.671 1.671c.689.689 1.77.689 2.46 0l14.166-14.167c.688-.688.688-1.868 0-2.556zM2542.069 24.978l-.633-.631c-.012-.012-.03-.012-.14 0l-.029.027c-.011.011-.011.03 0 .14l.485.486-.485.486c-.011.012-.011.03 0 .14l.029.029c.011.011.03.011.14 0l.633-.633c.011-.012.011-.032 0-.044z" fill="#f8f9fa"/></g><g><path d="M2583.954 23.717l-14.215-14.115c-.69-.691-1.776-.691-2.468 0l-1.677 1.579c-.691.69-.691 1.776 0 2.468L2576.848 25l-11.253 11.351c-.691.691-.691 1.776 0 2.468l1.678 1.678c.69.691 1.776.691 2.468 0l14.213-14.214c.69-.691.69-1.875 0-2.566zM2592.095 24.983l-.586-.585c-.009-.009-.024-.009-.132 0l-.022.021c-.009.01-.009.024 0 .132l.447.449-.447.449c-.009.009-.009.024 0 .132l.022.022c.01.009.024.009.132 0l.586-.586c.009-.009.009-.025 0-.034z" fill="#f8f9fa"/></g><g><path d="M2634.03 23.713l-14.255-14.156c-.693-.693-1.781-.693-2.475 0l-1.683 1.584c-.692.692-.692 1.781 0 2.475L2626.904 25l-11.286 11.384c-.692.693-.692 1.782 0 2.475l1.683 1.683c.693.693 1.781.693 2.475 0l14.254-14.255c.693-.693.693-1.881 0-2.574zM2642.118 24.987l-.544-.544c-.008-.007-.019-.007-.125 0l-.018.016c-.007.008-.007.019 0 .125l.415.416-.415.416c-.007.007-.007.018 0 .125l.018.017c.007.007.019.007.125 0l.544-.545c.008-.007.008-.019 0-.026z" fill="#f8f9fa"/></g><g><path d="M2684.097 23.71l-14.291-14.191c-.695-.695-1.786-.695-2.482 0l-1.686 1.587c-.695.695-.695 1.786 0 2.481L2676.952 25l-11.314 11.413c-.694.694-.694 1.786 0 2.481l1.687 1.687c.695.694 1.786.694 2.481 0l14.291-14.291c.694-.695.694-1.885 0-2.58zM2692.138 24.99l-.509-.509c-.005-.005-.014-.005-.118 0l-.014.013c-.005.005-.005.014 0 .119l.387.387-.387.387c-.005.006-.005.014 0 .119l.014.013c.005.006.014.006.118 0l.509-.509c.006-.005.006-.015 0-.02z" fill="#f8f9fa"/></g><g><path d="M2734.153 23.707l-14.321-14.221c-.696-.696-1.79-.696-2.487 0l-1.69 1.591c-.696.696-.696 1.79 0 2.486L2726.993 25l-11.338 11.437c-.696.696-.696 1.79 0 2.486l1.691 1.691c.696.696 1.79.696 2.486 0l14.321-14.321c.696-.696.696-1.89 0-2.586zM2742.155 24.993l-.479-.479c-.004-.004-.01-.004-.113 0l-.01.009c-.004.004-.004.01 0 .114l.363.363-.363.363c-.004.004-.004.01 0 .114l.01.009c.004.004.01.004.113 0l.479-.479c.004-.004.004-.01 0-.014z" fill="#f8f9fa"/></g><g><path d="M2784.199 23.705l-14.346-14.246c-.697-.698-1.793-.698-2.491 0l-1.693 1.594c-.697.697-.697 1.793 0 2.49L2777.027 25l-11.358 11.457c-.697.697-.697 1.793 0 2.49l1.694 1.694c.697.697 1.793.697 2.491 0l14.345-14.346c.697-.697.697-1.893 0-2.59zM2792.169 24.995l-.454-.454c-.002-.002-.007-.002-.109 0l-.007.006c-.002.003-.002.007 0 .11l.343.343-.343.343c-.002.003-.002.007 0 .11l.007.006c.003.003.007.003.109 0l.454-.454c.003-.003.003-.007 0-.01z" fill="#f8f9fa"/></g><g><path d="M2834.236 23.703L2819.87 9.437c-.698-.698-1.795-.698-2.494 0l-1.696 1.596c-.698.698-.698 1.796 0 2.494L2827.054 25l-11.373 11.473c-.699.698-.699 1.795 0 2.494l1.696 1.696c.698.698 1.795.698 2.494 0l14.365-14.366c.699-.698.699-1.896 0-2.594zM2842.181 24.997l-.434-.434c-.002-.002-.005-.002-.106 0l-.004.004c-.002.002-.002.004 0 .106l.327.327-.327.327c-.002.002-.002.005 0 .106l.004.004c.001.002.004.002.106 0l.434-.434c.001-.002.001-.004 0-.006z" fill="#f8f9fa"/></g><g><path d="M2884.265 23.702l-14.381-14.281c-.699-.699-1.798-.699-2.497 0l-1.698 1.597c-.699.699-.699 1.798 0 2.497L2877.074 25l-11.385 11.485c-.699.699-.699 1.797 0 2.497l1.698 1.697c.699.699 1.798.699 2.497 0l14.381-14.381c.699-.699.699-1.897 0-2.596zM2892.189 24.998l-.419-.419c-.001-.001-.002-.001-.103 0l-.002.003c-.001.001-.001.002 0 .103l.315.315-.315.315c-.001.001-.001.003 0 .103l.002.003c.001.001.003.001.103 0l.419-.419c.001-.001.001-.003 0-.004z" fill="#f8f9fa"/></g><g><path d="M2934.284 23.701l-14.391-14.292c-.7-.7-1.799-.7-2.499 0l-1.699 1.599c-.699.7-.699 1.799 0 2.499L2927.089 25l-11.394 11.493c-.699.7-.699 1.799 0 2.499l1.699 1.699c.7.699 1.799.699 2.499 0l14.391-14.392c.7-.699.7-1.899 0-2.598zM2942.195 24.999l-.408-.408h-.101l-.001.001c-.001 0-.001.001 0 .101l.306.307-.306.307c-.001 0-.001.001 0 .101l.001.001c0 .001.001.001.101 0l.408-.408c.001-.001.001-.001 0-.002z" fill="#f8f9fa"/></g><g><path d="M2984.296 23.7l-14.398-14.298c-.7-.7-1.8-.7-2.499 0l-1.7 1.6c-.7.7-.7 1.8 0 2.5L2977.097 25l-11.398 11.498c-.7.7-.7 1.8 0 2.5l1.7 1.7c.699.7 1.799.7 2.499 0l14.398-14.398c.7-.7.7-1.9 0-2.6zM2992.199 25l-.402-.402h-.101v.1l.302.302-.302.302v.1h.101l.402-.402z" fill="#f8f9fa"/></g><g><path d="M3034.3 23.7l-14.4-14.3c-.7-.7-1.8-.7-2.5 0l-1.7 1.6c-.7.7-.7 1.8 0 2.5l11.4 11.5-11.4 11.5c-.7.7-.7 1.8 0 2.5l1.7 1.7c.7.7 1.8.7 2.5 0l14.4-14.4c.7-.7.7-1.9 0-2.6zM3042.2 25l-.4-.4h-.1v.1l.3.3-.3.3v.1h.1l.4-.4z" fill="#f8f9fa"/></g></svg>