<?xml version="1.0" encoding="utf-8"?>
<!-- Generator: Adobe Illustrator 23.0.1, SVG Export Plug-In . SVG Version: 6.00 Build 0)  -->
<svg version="1.1" id="Layer_1" focusable="false" xmlns="http://www.w3.org/2000/svg" xmlns:xlink="http://www.w3.org/1999/xlink"
	 x="0px" y="0px" viewBox="0 0 512 512" style="enable-background:new 0 0 512 512;" xml:space="preserve">
<style type="text/css">
	.st0{fill:#F8F9FA;}
</style>
<path class="st0" d="M505,442.7L405.3,343c-4.5-4.5-10.6-7-17-7H372c27.6-35.3,44-79.7,44-128C416,93.1,322.9,0,208,0S0,93.1,0,208
	s93.1,208,208,208c48.3,0,92.7-16.4,128-44v16.3c0,6.4,2.5,12.5,7,17l99.7,99.7c9.4,9.4,24.6,9.4,33.9,0l28.3-28.3
	C514.3,467.3,514.3,452.1,505,442.7z M208,380c-95,0-172-76.9-172-172c0-95,76.9-172,172-172c95,0,172,76.9,172,172
	C380,303,303.1,380,208,380z M305.8,107.6c6.6,6.9,6.1,17.9-0.6,24.7l-21.4,21.4l6.2,6.2c8.5,8.5,14.6,18.4,18.4,28.9H355
	c9.7,0,17.5,7.8,17.5,17.5c0,9.7-7.8,17.5-17.5,17.5h-42.4c-1.8,17.3-9.4,34.2-22.7,47.5l-94.4-94.4c-2.6-2.6-6.7-2.6-9.3,0
	l-9.3,9.3c-2.6,2.6-2.6,6.7,0,9.3l94.4,94.4c-13.3,13.3-30.2,20.8-47.5,22.7V355c0,9.7-7.8,17.5-17.5,17.5
	c-9.7,0-17.5-7.8-17.5-17.5l0-46.6c-10.6-3.8-20.5-9.9-28.9-18.4l-6.2-6.2l-21.4,21.4c-6.7,6.7-17.7,7.2-24.7,0.6
	c-7.2-6.8-7.3-18.2-0.4-25.1l21.7-21.7l-22.7-22.7H70.1c-9.7,0-17.5-7.8-17.5-17.5c0-9.7,7.8-17.5,17.5-17.5l42.3,0l88.8-88.8
	l0-42.3c0-9.7,7.8-17.5,17.5-17.5c9.7,0,17.5,7.8,17.5,17.5l0,36.1l22.7,22.7l21.7-21.7C287.6,100.3,299,100.4,305.8,107.6z
	 M102.8,102c-23.9,23.9-23.9,62.8,0,86.7l86.7-86.7C165.5,78.1,126.7,78.1,102.8,102z"/>
</svg>
